<?xml version="1.0" encoding="utf-8" standalone="no"?>
<!DOCTYPE svg PUBLIC "-//W3C//DTD SVG 1.1//EN"
  "http://www.w3.org/Graphics/SVG/1.1/DTD/svg11.dtd">
<svg xmlns:xlink="http://www.w3.org/1999/xlink" width="460.8pt" height="345.6pt" viewBox="0 0 460.8 345.6" xmlns="http://www.w3.org/2000/svg" version="1.1">
 <metadata>
  <rdf:RDF xmlns:dc="http://purl.org/dc/elements/1.1/" xmlns:cc="http://creativecommons.org/ns#" xmlns:rdf="http://www.w3.org/1999/02/22-rdf-syntax-ns#">
   <cc:Work>
    <dc:type rdf:resource="http://purl.org/dc/dcmitype/StillImage"/>
    <dc:date>2026-09-19T15:10:41.580495</dc:date>
    <dc:format>image/svg+xml</dc:format>
    <dc:creator>
     <cc:Agent>
      <dc:title>Matplotlib v3.11.2, https://matplotlib.org/</dc:title>
     </cc:Agent>
    </dc:creator>
   </cc:Work>
  </rdf:RDF>
 </metadata>
 <defs>
  <style type="text/css">*{stroke-linejoin: round; stroke-linecap: butt}</style>
 </defs>
 <g id="figure_1">
  <g id="patch_1">
   <path d="M 0 345.6 
L 460.8 345.6 
L 460.8 0 
L 0 0 
z
" style="fill: #ffffff"/>
  </g>
  <g id="axes_1">
   <g id="patch_2">
    <path d="M 57.6 307.584 
L 414.72 307.584 
L 414.72 41.472 
L 57.6 41.472 
z
" style="fill: #ffffff"/>
   </g>
   <g id="PathCollection_1">
    <defs>
     <path id="mc916294869" d="M 0 3 
C 0.795609 3 1.55874 2.683901 2.12132 2.12132 
C 2.683901 1.55874 3 0.795609 3 0 
C 3 -0.795609 2.683901 -1.55874 2.12132 -2.12132 
C 1.55874 -2.683901 0.795609 -3 0 -3 
C -0.795609 -3 -1.55874 -2.683901 -2.12132 -2.12132 
C -2.683901 -1.55874 -3 -0.795609 -3 0 
C -3 0.795609 -2.683901 1.55874 -2.12132 2.12132 
C -1.55874 2.683901 -0.795609 3 0 3 
z
" style="stroke: #1f77b4"/>
    </defs>
    <g clip-path="url(#p41572c955b)">
     <use xlink:href="#mc916294869" x="73.832727" y="53.568" style="fill: #1f77b4; stroke: #1f77b4"/>
     <use xlink:href="#mc916294869" x="198.776672" y="271.159404" style="fill: #1f77b4; stroke: #1f77b4"/>
    </g>
   </g>
   <g id="matplotlib.axis_1">
    <g id="xtick_1">
     <g id="line2d_1">
      <defs>
       <path id="m7b0735401e" d="M 0 0 
L 0 3.5 
" style="stroke: #000000; stroke-width: 0.8"/>
      </defs>
      <g>
       <use xlink:href="#m7b0735401e" x="73.832727" y="307.584" style="stroke: #000000; stroke-width: 0.8"/>
      </g>
     </g>
     <g id="text_1">
      <!-- 0 -->
      <g transform="translate(70.651477 322.181656) scale(0.1 -0.1)">
       <defs>
        <path id="DejaVuSans-13" d="M 2034 4250 
Q 1547 4250 1301 3770 
Q 1056 3291 1056 2328 
Q 1056 1369 1301 889 
Q 1547 409 2034 409 
Q 2525 409 2770 889 
Q 3016 1369 3016 2328 
Q 3016 3291 2770 3770 
Q 2525 4250 2034 4250 
z
M 2034 4750 
Q 2819 4750 3233 4129 
Q 3647 3509 3647 2328 
Q 3647 1150 3233 529 
Q 2819 -91 2034 -91 
Q 1250 -91 836 529 
Q 422 1150 422 2328 
Q 422 3509 836 4129 
Q 1250 4750 2034 4750 
z
" transform="scale(0.015625)"/>
       </defs>
       <use xlink:href="#DejaVuSans-13"/>
      </g>
     </g>
    </g>
    <g id="xtick_2">
     <g id="line2d_2">
      <g>
       <use xlink:href="#m7b0735401e" x="136.24229" y="307.584" style="stroke: #000000; stroke-width: 0.8"/>
      </g>
     </g>
     <g id="text_2">
      <!-- 500 -->
      <g transform="translate(126.69854 322.181656) scale(0.1 -0.1)">
       <defs>
        <path id="DejaVuSans-18" d="M 691 4666 
L 3169 4666 
L 3169 4134 
L 1269 4134 
L 1269 2991 
Q 1406 3038 1543 3061 
Q 1681 3084 1819 3084 
Q 2600 3084 3056 2656 
Q 3513 2228 3513 1497 
Q 3513 744 3044 326 
Q 2575 -91 1722 -91 
Q 1428 -91 1123 -41 
Q 819 9 494 109 
L 494 744 
Q 775 591 1075 516 
Q 1375 441 1709 441 
Q 2250 441 2565 725 
Q 2881 1009 2881 1497 
Q 2881 1984 2565 2268 
Q 2250 2553 1709 2553 
Q 1456 2553 1204 2497 
Q 953 2441 691 2322 
L 691 4666 
z
" transform="scale(0.015625)"/>
       </defs>
       <use xlink:href="#DejaVuSans-18"/>
       <use xlink:href="#DejaVuSans-13" transform="translate(63.625 0)"/>
       <use xlink:href="#DejaVuSans-13" transform="translate(127.25 0)"/>
      </g>
     </g>
    </g>
    <g id="xtick_3">
     <g id="line2d_3">
      <g>
       <use xlink:href="#m7b0735401e" x="198.651853" y="307.584" style="stroke: #000000; stroke-width: 0.8"/>
      </g>
     </g>
     <g id="text_3">
      <!-- 1000 -->
      <g transform="translate(185.926853 322.181656) scale(0.1 -0.1)">
       <defs>
        <path id="DejaVuSans-14" d="M 794 531 
L 1825 531 
L 1825 4091 
L 703 3866 
L 703 4441 
L 1819 4666 
L 2450 4666 
L 2450 531 
L 3481 531 
L 3481 0 
L 794 0 
L 794 531 
z
" transform="scale(0.015625)"/>
       </defs>
       <use xlink:href="#DejaVuSans-14"/>
       <use xlink:href="#DejaVuSans-13" transform="translate(63.625 0)"/>
       <use xlink:href="#DejaVuSans-13" transform="translate(127.25 0)"/>
       <use xlink:href="#DejaVuSans-13" transform="translate(190.875 0)"/>
      </g>
     </g>
    </g>
    <g id="xtick_4">
     <g id="line2d_4">
      <g>
       <use xlink:href="#m7b0735401e" x="261.061416" y="307.584" style="stroke: #000000; stroke-width: 0.8"/>
      </g>
     </g>
     <g id="text_4">
      <!-- 1500 -->
      <g transform="translate(248.336416 322.181656) scale(0.1 -0.1)">
       <use xlink:href="#DejaVuSans-14"/>
       <use xlink:href="#DejaVuSans-18" transform="translate(63.625 0)"/>
       <use xlink:href="#DejaVuSans-13" transform="translate(127.25 0)"/>
       <use xlink:href="#DejaVuSans-13" transform="translate(190.875 0)"/>
      </g>
     </g>
    </g>
    <g id="xtick_5">
     <g id="line2d_5">
      <g>
       <use xlink:href="#m7b0735401e" x="323.470978" y="307.584" style="stroke: #000000; stroke-width: 0.8"/>
      </g>
     </g>
     <g id="text_5">
      <!-- 2000 -->
      <g transform="translate(310.745978 322.181656) scale(0.1 -0.1)">
       <defs>
        <path id="DejaVuSans-15" d="M 1228 531 
L 3431 531 
L 3431 0 
L 469 0 
L 469 531 
Q 828 903 1448 1529 
Q 2069 2156 2228 2338 
Q 2531 2678 2651 2914 
Q 2772 3150 2772 3378 
Q 2772 3750 2511 3984 
Q 2250 4219 1831 4219 
Q 1534 4219 1204 4116 
Q 875 4013 500 3803 
L 500 4441 
Q 881 4594 1212 4672 
Q 1544 4750 1819 4750 
Q 2544 4750 2975 4387 
Q 3406 4025 3406 3419 
Q 3406 3131 3298 2873 
Q 3191 2616 2906 2266 
Q 2828 2175 2409 1742 
Q 1991 1309 1228 531 
z
" transform="scale(0.015625)"/>
       </defs>
       <use xlink:href="#DejaVuSans-15"/>
       <use xlink:href="#DejaVuSans-13" transform="translate(63.625 0)"/>
       <use xlink:href="#DejaVuSans-13" transform="translate(127.25 0)"/>
       <use xlink:href="#DejaVuSans-13" transform="translate(190.875 0)"/>
      </g>
     </g>
    </g>
    <g id="xtick_6">
     <g id="line2d_6">
      <g>
       <use xlink:href="#m7b0735401e" x="385.880541" y="307.584" style="stroke: #000000; stroke-width: 0.8"/>
      </g>
     </g>
     <g id="text_6">
      <!-- 2500 -->
      <g transform="translate(373.155541 322.181656) scale(0.1 -0.1)">
       <use xlink:href="#DejaVuSans-15"/>
       <use xlink:href="#DejaVuSans-18" transform="translate(63.625 0)"/>
       <use xlink:href="#DejaVuSans-13" transform="translate(127.25 0)"/>
       <use xlink:href="#DejaVuSans-13" transform="translate(190.875 0)"/>
      </g>
     </g>
    </g>
    <g id="text_7">
     <!-- Log index (~batch index) -->
     <g transform="translate(172.892031 336.182437) scale(0.1 -0.1)">
      <defs>
       <path id="DejaVuSans-2f" d="M 628 4666 
L 1259 4666 
L 1259 531 
L 3531 531 
L 3531 0 
L 628 0 
L 628 4666 
z
" transform="scale(0.015625)"/>
       <path id="DejaVuSans-52" d="M 1959 3097 
Q 1497 3097 1228 2736 
Q 959 2375 959 1747 
Q 959 1119 1226 758 
Q 1494 397 1959 397 
Q 2419 397 2687 759 
Q 2956 1122 2956 1747 
Q 2956 2369 2687 2733 
Q 2419 3097 1959 3097 
z
M 1959 3584 
Q 2709 3584 3137 3096 
Q 3566 2609 3566 1747 
Q 3566 888 3137 398 
Q 2709 -91 1959 -91 
Q 1206 -91 779 398 
Q 353 888 353 1747 
Q 353 2609 779 3096 
Q 1206 3584 1959 3584 
z
" transform="scale(0.015625)"/>
       <path id="DejaVuSans-4a" d="M 2906 1791 
Q 2906 2416 2648 2759 
Q 2391 3103 1925 3103 
Q 1463 3103 1205 2759 
Q 947 2416 947 1791 
Q 947 1169 1205 825 
Q 1463 481 1925 481 
Q 2391 481 2648 825 
Q 2906 1169 2906 1791 
z
M 3481 434 
Q 3481 -459 3084 -895 
Q 2688 -1331 1869 -1331 
Q 1566 -1331 1297 -1286 
Q 1028 -1241 775 -1147 
L 775 -588 
Q 1028 -725 1275 -790 
Q 1522 -856 1778 -856 
Q 2344 -856 2625 -561 
Q 2906 -266 2906 331 
L 2906 616 
Q 2728 306 2450 153 
Q 2172 0 1784 0 
Q 1141 0 747 490 
Q 353 981 353 1791 
Q 353 2603 747 3093 
Q 1141 3584 1784 3584 
Q 2172 3584 2450 3431 
Q 2728 3278 2906 2969 
L 2906 3500 
L 3481 3500 
L 3481 434 
z
" transform="scale(0.015625)"/>
       <path id="DejaVuSans-3" transform="scale(0.015625)"/>
       <path id="DejaVuSans-4c" d="M 603 3500 
L 1178 3500 
L 1178 0 
L 603 0 
L 603 3500 
z
M 603 4863 
L 1178 4863 
L 1178 4134 
L 603 4134 
L 603 4863 
z
" transform="scale(0.015625)"/>
       <path id="DejaVuSans-51" d="M 3513 2113 
L 3513 0 
L 2938 0 
L 2938 2094 
Q 2938 2591 2744 2837 
Q 2550 3084 2163 3084 
Q 1697 3084 1428 2787 
Q 1159 2491 1159 1978 
L 1159 0 
L 581 0 
L 581 3500 
L 1159 3500 
L 1159 2956 
Q 1366 3272 1645 3428 
Q 1925 3584 2291 3584 
Q 2894 3584 3203 3211 
Q 3513 2838 3513 2113 
z
" transform="scale(0.015625)"/>
       <path id="DejaVuSans-47" d="M 2906 2969 
L 2906 4863 
L 3481 4863 
L 3481 0 
L 2906 0 
L 2906 525 
Q 2725 213 2448 61 
Q 2172 -91 1784 -91 
Q 1150 -91 751 415 
Q 353 922 353 1747 
Q 353 2572 751 3078 
Q 1150 3584 1784 3584 
Q 2172 3584 2448 3432 
Q 2725 3281 2906 2969 
z
M 947 1747 
Q 947 1113 1208 752 
Q 1469 391 1925 391 
Q 2381 391 2643 752 
Q 2906 1113 2906 1747 
Q 2906 2381 2643 2742 
Q 2381 3103 1925 3103 
Q 1469 3103 1208 2742 
Q 947 2381 947 1747 
z
" transform="scale(0.015625)"/>
       <path id="DejaVuSans-48" d="M 3597 1894 
L 3597 1613 
L 953 1613 
Q 991 1019 1311 708 
Q 1631 397 2203 397 
Q 2534 397 2845 478 
Q 3156 559 3463 722 
L 3463 178 
Q 3153 47 2828 -22 
Q 2503 -91 2169 -91 
Q 1331 -91 842 396 
Q 353 884 353 1716 
Q 353 2575 817 3079 
Q 1281 3584 2069 3584 
Q 2775 3584 3186 3129 
Q 3597 2675 3597 1894 
z
M 3022 2063 
Q 3016 2534 2758 2815 
Q 2500 3097 2075 3097 
Q 1594 3097 1305 2825 
Q 1016 2553 972 2059 
L 3022 2063 
z
" transform="scale(0.015625)"/>
       <path id="DejaVuSans-5b" d="M 3513 3500 
L 2247 1797 
L 3578 0 
L 2900 0 
L 1881 1375 
L 863 0 
L 184 0 
L 1544 1831 
L 300 3500 
L 978 3500 
L 1906 2253 
L 2834 3500 
L 3513 3500 
z
" transform="scale(0.015625)"/>
       <path id="DejaVuSans-b" d="M 1984 4856 
Q 1566 4138 1362 3434 
Q 1159 2731 1159 2009 
Q 1159 1288 1364 580 
Q 1569 -128 1984 -844 
L 1484 -844 
Q 1016 -109 783 600 
Q 550 1309 550 2009 
Q 550 2706 781 3412 
Q 1013 4119 1484 4856 
L 1984 4856 
z
" transform="scale(0.015625)"/>
       <path id="DejaVuSans-61" d="M 4684 2553 
L 4684 1997 
Q 4356 1750 4076 1644 
Q 3797 1538 3494 1538 
Q 3150 1538 2694 1722 
Q 2659 1734 2644 1741 
Q 2622 1750 2575 1766 
Q 2091 1959 1797 1959 
Q 1522 1959 1253 1839 
Q 984 1719 678 1459 
L 678 2016 
Q 1006 2263 1286 2370 
Q 1566 2478 1869 2478 
Q 2213 2478 2672 2291 
Q 2703 2278 2719 2272 
Q 2744 2263 2788 2247 
Q 3272 2053 3566 2053 
Q 3834 2053 4098 2172 
Q 4363 2291 4684 2553 
z
" transform="scale(0.015625)"/>
       <path id="DejaVuSans-45" d="M 3116 1747 
Q 3116 2381 2855 2742 
Q 2594 3103 2138 3103 
Q 1681 3103 1420 2742 
Q 1159 2381 1159 1747 
Q 1159 1113 1420 752 
Q 1681 391 2138 391 
Q 2594 391 2855 752 
Q 3116 1113 3116 1747 
z
M 1159 2969 
Q 1341 3281 1617 3432 
Q 1894 3584 2278 3584 
Q 2916 3584 3314 3078 
Q 3713 2572 3713 1747 
Q 3713 922 3314 415 
Q 2916 -91 2278 -91 
Q 1894 -91 1617 61 
Q 1341 213 1159 525 
L 1159 0 
L 581 0 
L 581 4863 
L 1159 4863 
L 1159 2969 
z
" transform="scale(0.015625)"/>
       <path id="DejaVuSans-44" d="M 2194 1759 
Q 1497 1759 1228 1600 
Q 959 1441 959 1056 
Q 959 750 1161 570 
Q 1363 391 1709 391 
Q 2188 391 2477 730 
Q 2766 1069 2766 1631 
L 2766 1759 
L 2194 1759 
z
M 3341 1997 
L 3341 0 
L 2766 0 
L 2766 531 
Q 2569 213 2275 61 
Q 1981 -91 1556 -91 
Q 1019 -91 701 211 
Q 384 513 384 1019 
Q 384 1609 779 1909 
Q 1175 2209 1959 2209 
L 2766 2209 
L 2766 2266 
Q 2766 2663 2505 2880 
Q 2244 3097 1772 3097 
Q 1472 3097 1187 3025 
Q 903 2953 641 2809 
L 641 3341 
Q 956 3463 1253 3523 
Q 1550 3584 1831 3584 
Q 2591 3584 2966 3190 
Q 3341 2797 3341 1997 
z
" transform="scale(0.015625)"/>
       <path id="DejaVuSans-57" d="M 1172 4494 
L 1172 3500 
L 2356 3500 
L 2356 3053 
L 1172 3053 
L 1172 1153 
Q 1172 725 1289 603 
Q 1406 481 1766 481 
L 2356 481 
L 2356 0 
L 1766 0 
Q 1100 0 847 248 
Q 594 497 594 1153 
L 594 3053 
L 172 3053 
L 172 3500 
L 594 3500 
L 594 4494 
L 1172 4494 
z
" transform="scale(0.015625)"/>
       <path id="DejaVuSans-46" d="M 3122 3366 
L 3122 2828 
Q 2878 2963 2633 3030 
Q 2388 3097 2138 3097 
Q 1578 3097 1268 2742 
Q 959 2388 959 1747 
Q 959 1106 1268 751 
Q 1578 397 2138 397 
Q 2388 397 2633 464 
Q 2878 531 3122 666 
L 3122 134 
Q 2881 22 2623 -34 
Q 2366 -91 2075 -91 
Q 1284 -91 818 406 
Q 353 903 353 1747 
Q 353 2603 823 3093 
Q 1294 3584 2113 3584 
Q 2378 3584 2631 3529 
Q 2884 3475 3122 3366 
z
" transform="scale(0.015625)"/>
       <path id="DejaVuSans-4b" d="M 3513 2113 
L 3513 0 
L 2938 0 
L 2938 2094 
Q 2938 2591 2744 2837 
Q 2550 3084 2163 3084 
Q 1697 3084 1428 2787 
Q 1159 2491 1159 1978 
L 1159 0 
L 581 0 
L 581 4863 
L 1159 4863 
L 1159 2956 
Q 1366 3272 1645 3428 
Q 1925 3584 2291 3584 
Q 2894 3584 3203 3211 
Q 3513 2838 3513 2113 
z
" transform="scale(0.015625)"/>
       <path id="DejaVuSans-c" d="M 513 4856 
L 1013 4856 
Q 1481 4119 1714 3412 
Q 1947 2706 1947 2009 
Q 1947 1309 1714 600 
Q 1481 -109 1013 -844 
L 513 -844 
Q 928 -128 1133 580 
Q 1338 1288 1338 2009 
Q 1338 2731 1133 3434 
Q 928 4138 513 4856 
z
" transform="scale(0.015625)"/>
      </defs>
      <use xlink:href="#DejaVuSans-2f"/>
      <use xlink:href="#DejaVuSans-52" transform="translate(53.96875 0)"/>
      <use xlink:href="#DejaVuSans-4a" transform="translate(115.15625 0)"/>
      <use xlink:href="#DejaVuSans-3" transform="translate(178.640625 0)"/>
      <use xlink:href="#DejaVuSans-4c" transform="translate(210.421875 0)"/>
      <use xlink:href="#DejaVuSans-51" transform="translate(238.203125 0)"/>
      <use xlink:href="#DejaVuSans-47" transform="translate(301.578125 0)"/>
      <use xlink:href="#DejaVuSans-48" transform="translate(365.0625 0)"/>
      <use xlink:href="#DejaVuSans-5b" transform="translate(424.84375 0)"/>
      <use xlink:href="#DejaVuSans-3" transform="translate(484.03125 0)"/>
      <use xlink:href="#DejaVuSans-b" transform="translate(515.8125 0)"/>
      <use xlink:href="#DejaVuSans-61" transform="translate(554.828125 0)"/>
      <use xlink:href="#DejaVuSans-45" transform="translate(638.625 0)"/>
      <use xlink:href="#DejaVuSans-44" transform="translate(702.109375 0)"/>
      <use xlink:href="#DejaVuSans-57" transform="translate(763.390625 0)"/>
      <use xlink:href="#DejaVuSans-46" transform="translate(802.59375 0)"/>
      <use xlink:href="#DejaVuSans-4b" transform="translate(857.578125 0)"/>
      <use xlink:href="#DejaVuSans-3" transform="translate(920.953125 0)"/>
      <use xlink:href="#DejaVuSans-4c" transform="translate(952.734375 0)"/>
      <use xlink:href="#DejaVuSans-51" transform="translate(980.515625 0)"/>
      <use xlink:href="#DejaVuSans-47" transform="translate(1043.890625 0)"/>
      <use xlink:href="#DejaVuSans-48" transform="translate(1107.375 0)"/>
      <use xlink:href="#DejaVuSans-5b" transform="translate(1167.15625 0)"/>
      <use xlink:href="#DejaVuSans-c" transform="translate(1226.34375 0)"/>
     </g>
    </g>
   </g>
   <g id="matplotlib.axis_2">
    <g id="ytick_1">
     <g id="line2d_7">
      <defs>
       <path id="ma93b7a229f" d="M 0 0 
L -3.5 0 
" style="stroke: #000000; stroke-width: 0.8"/>
      </defs>
      <g>
       <use xlink:href="#ma93b7a229f" x="57.6" y="302.79088" style="stroke: #000000; stroke-width: 0.8"/>
      </g>
     </g>
     <g id="text_8">
      <!-- 3.4 -->
      <g transform="translate(34.696875 306.589708) scale(0.1 -0.1)">
       <defs>
        <path id="DejaVuSans-16" d="M 2597 2516 
Q 3050 2419 3304 2112 
Q 3559 1806 3559 1356 
Q 3559 666 3084 287 
Q 2609 -91 1734 -91 
Q 1441 -91 1130 -33 
Q 819 25 488 141 
L 488 750 
Q 750 597 1062 519 
Q 1375 441 1716 441 
Q 2309 441 2620 675 
Q 2931 909 2931 1356 
Q 2931 1769 2642 2001 
Q 2353 2234 1838 2234 
L 1294 2234 
L 1294 2753 
L 1863 2753 
Q 2328 2753 2575 2939 
Q 2822 3125 2822 3475 
Q 2822 3834 2567 4026 
Q 2313 4219 1838 4219 
Q 1578 4219 1281 4162 
Q 984 4106 628 3988 
L 628 4550 
Q 988 4650 1302 4700 
Q 1616 4750 1894 4750 
Q 2613 4750 3031 4423 
Q 3450 4097 3450 3541 
Q 3450 3153 3228 2886 
Q 3006 2619 2597 2516 
z
" transform="scale(0.015625)"/>
        <path id="DejaVuSans-11" d="M 684 794 
L 1344 794 
L 1344 0 
L 684 0 
L 684 794 
z
" transform="scale(0.015625)"/>
        <path id="DejaVuSans-17" d="M 2419 4116 
L 825 1625 
L 2419 1625 
L 2419 4116 
z
M 2253 4666 
L 3047 4666 
L 3047 1625 
L 3713 1625 
L 3713 1100 
L 3047 1100 
L 3047 0 
L 2419 0 
L 2419 1100 
L 313 1100 
L 313 1709 
L 2253 4666 
z
" transform="scale(0.015625)"/>
       </defs>
       <use xlink:href="#DejaVuSans-16"/>
       <use xlink:href="#DejaVuSans-11" transform="translate(63.625 0)"/>
       <use xlink:href="#DejaVuSans-17" transform="translate(95.40625 0)"/>
      </g>
     </g>
    </g>
    <g id="ytick_2">
     <g id="line2d_8">
      <g>
       <use xlink:href="#ma93b7a229f" x="57.6" y="251.983063" style="stroke: #000000; stroke-width: 0.8"/>
      </g>
     </g>
     <g id="text_9">
      <!-- 3.6 -->
      <g transform="translate(34.696875 255.781891) scale(0.1 -0.1)">
       <defs>
        <path id="DejaVuSans-19" d="M 2113 2584 
Q 1688 2584 1439 2293 
Q 1191 2003 1191 1497 
Q 1191 994 1439 701 
Q 1688 409 2113 409 
Q 2538 409 2786 701 
Q 3034 994 3034 1497 
Q 3034 2003 2786 2293 
Q 2538 2584 2113 2584 
z
M 3366 4563 
L 3366 3988 
Q 3128 4100 2886 4159 
Q 2644 4219 2406 4219 
Q 1781 4219 1451 3797 
Q 1122 3375 1075 2522 
Q 1259 2794 1537 2939 
Q 1816 3084 2150 3084 
Q 2853 3084 3261 2657 
Q 3669 2231 3669 1497 
Q 3669 778 3244 343 
Q 2819 -91 2113 -91 
Q 1303 -91 875 529 
Q 447 1150 447 2328 
Q 447 3434 972 4092 
Q 1497 4750 2381 4750 
Q 2619 4750 2861 4703 
Q 3103 4656 3366 4563 
z
" transform="scale(0.015625)"/>
       </defs>
       <use xlink:href="#DejaVuSans-16"/>
       <use xlink:href="#DejaVuSans-11" transform="translate(63.625 0)"/>
       <use xlink:href="#DejaVuSans-19" transform="translate(95.40625 0)"/>
      </g>
     </g>
    </g>
    <g id="ytick_3">
     <g id="line2d_9">
      <g>
       <use xlink:href="#ma93b7a229f" x="57.6" y="201.175246" style="stroke: #000000; stroke-width: 0.8"/>
      </g>
     </g>
     <g id="text_10">
      <!-- 3.8 -->
      <g transform="translate(34.696875 204.974074) scale(0.1 -0.1)">
       <defs>
        <path id="DejaVuSans-1b" d="M 2034 2216 
Q 1584 2216 1326 1975 
Q 1069 1734 1069 1313 
Q 1069 891 1326 650 
Q 1584 409 2034 409 
Q 2484 409 2743 651 
Q 3003 894 3003 1313 
Q 3003 1734 2745 1975 
Q 2488 2216 2034 2216 
z
M 1403 2484 
Q 997 2584 770 2862 
Q 544 3141 544 3541 
Q 544 4100 942 4425 
Q 1341 4750 2034 4750 
Q 2731 4750 3128 4425 
Q 3525 4100 3525 3541 
Q 3525 3141 3298 2862 
Q 3072 2584 2669 2484 
Q 3125 2378 3379 2068 
Q 3634 1759 3634 1313 
Q 3634 634 3220 271 
Q 2806 -91 2034 -91 
Q 1263 -91 848 271 
Q 434 634 434 1313 
Q 434 1759 690 2068 
Q 947 2378 1403 2484 
z
M 1172 3481 
Q 1172 3119 1398 2916 
Q 1625 2713 2034 2713 
Q 2441 2713 2670 2916 
Q 2900 3119 2900 3481 
Q 2900 3844 2670 4047 
Q 2441 4250 2034 4250 
Q 1625 4250 1398 4047 
Q 1172 3844 1172 3481 
z
" transform="scale(0.015625)"/>
       </defs>
       <use xlink:href="#DejaVuSans-16"/>
       <use xlink:href="#DejaVuSans-11" transform="translate(63.625 0)"/>
       <use xlink:href="#DejaVuSans-1b" transform="translate(95.40625 0)"/>
      </g>
     </g>
    </g>
    <g id="ytick_4">
     <g id="line2d_10">
      <g>
       <use xlink:href="#ma93b7a229f" x="57.6" y="150.36743" style="stroke: #000000; stroke-width: 0.8"/>
      </g>
     </g>
     <g id="text_11">
      <!-- 4.0 -->
      <g transform="translate(34.696875 154.166258) scale(0.1 -0.1)">
       <use xlink:href="#DejaVuSans-17"/>
       <use xlink:href="#DejaVuSans-11" transform="translate(63.625 0)"/>
       <use xlink:href="#DejaVuSans-13" transform="translate(95.40625 0)"/>
      </g>
     </g>
    </g>
    <g id="ytick_5">
     <g id="line2d_11">
      <g>
       <use xlink:href="#ma93b7a229f" x="57.6" y="99.559613" style="stroke: #000000; stroke-width: 0.8"/>
      </g>
     </g>
     <g id="text_12">
      <!-- 4.2 -->
      <g transform="translate(34.696875 103.358441) scale(0.1 -0.1)">
       <use xlink:href="#DejaVuSans-17"/>
       <use xlink:href="#DejaVuSans-11" transform="translate(63.625 0)"/>
       <use xlink:href="#DejaVuSans-15" transform="translate(95.40625 0)"/>
      </g>
     </g>
    </g>
    <g id="ytick_6">
     <g id="line2d_12">
      <g>
       <use xlink:href="#ma93b7a229f" x="57.6" y="48.751796" style="stroke: #000000; stroke-width: 0.8"/>
      </g>
     </g>
     <g id="text_13">
      <!-- 4.4 -->
      <g transform="translate(34.696875 52.550624) scale(0.1 -0.1)">
       <use xlink:href="#DejaVuSans-17"/>
       <use xlink:href="#DejaVuSans-11" transform="translate(63.625 0)"/>
       <use xlink:href="#DejaVuSans-17" transform="translate(95.40625 0)"/>
      </g>
     </g>
    </g>
    <g id="text_14">
     <!-- Loss value -->
     <g transform="translate(28.294531 200.742063) rotate(-90) scale(0.1 -0.1)">
      <defs>
       <path id="DejaVuSans-56" d="M 2834 3397 
L 2834 2853 
Q 2591 2978 2328 3040 
Q 2066 3103 1784 3103 
Q 1356 3103 1142 2972 
Q 928 2841 928 2578 
Q 928 2378 1081 2264 
Q 1234 2150 1697 2047 
L 1894 2003 
Q 2506 1872 2764 1633 
Q 3022 1394 3022 966 
Q 3022 478 2636 193 
Q 2250 -91 1575 -91 
Q 1294 -91 989 -36 
Q 684 19 347 128 
L 347 722 
Q 666 556 975 473 
Q 1284 391 1588 391 
Q 1994 391 2212 530 
Q 2431 669 2431 922 
Q 2431 1156 2273 1281 
Q 2116 1406 1581 1522 
L 1381 1569 
Q 847 1681 609 1914 
Q 372 2147 372 2553 
Q 372 3047 722 3315 
Q 1072 3584 1716 3584 
Q 2034 3584 2315 3537 
Q 2597 3491 2834 3397 
z
" transform="scale(0.015625)"/>
       <path id="DejaVuSans-59" d="M 191 3500 
L 800 3500 
L 1894 563 
L 2988 3500 
L 3597 3500 
L 2284 0 
L 1503 0 
L 191 3500 
z
" transform="scale(0.015625)"/>
       <path id="DejaVuSans-4f" d="M 603 4863 
L 1178 4863 
L 1178 0 
L 603 0 
L 603 4863 
z
" transform="scale(0.015625)"/>
       <path id="DejaVuSans-58" d="M 544 1381 
L 544 3500 
L 1119 3500 
L 1119 1403 
Q 1119 906 1312 657 
Q 1506 409 1894 409 
Q 2359 409 2629 706 
Q 2900 1003 2900 1516 
L 2900 3500 
L 3475 3500 
L 3475 0 
L 2900 0 
L 2900 538 
Q 2691 219 2414 64 
Q 2138 -91 1772 -91 
Q 1169 -91 856 284 
Q 544 659 544 1381 
z
M 1991 3584 
L 1991 3584 
z
" transform="scale(0.015625)"/>
      </defs>
      <use xlink:href="#DejaVuSans-2f"/>
      <use xlink:href="#DejaVuSans-52" transform="translate(53.96875 0)"/>
      <use xlink:href="#DejaVuSans-56" transform="translate(115.15625 0)"/>
      <use xlink:href="#DejaVuSans-56" transform="translate(167.25 0)"/>
      <use xlink:href="#DejaVuSans-3" transform="translate(219.34375 0)"/>
      <use xlink:href="#DejaVuSans-59" transform="translate(251.125 0)"/>
      <use xlink:href="#DejaVuSans-44" transform="translate(310.3125 0)"/>
      <use xlink:href="#DejaVuSans-4f" transform="translate(371.59375 0)"/>
      <use xlink:href="#DejaVuSans-58" transform="translate(399.375 0)"/>
      <use xlink:href="#DejaVuSans-48" transform="translate(462.75 0)"/>
     </g>
    </g>
   </g>
   <g id="line2d_13">
    <path d="M 73.957546 53.877451 
L 74.207185 58.240659 
L 74.456823 61.369645 
L 74.706461 61.695436 
L 75.205738 66.835133 
L 75.330557 66.60679 
L 75.455376 66.762927 
L 75.580195 69.660568 
L 75.705014 68.385521 
L 76.079472 73.341317 
L 76.204291 73.02762 
L 76.703567 77.887796 
L 76.828386 77.626112 
L 76.953205 79.313267 
L 77.078025 77.440198 
L 77.327663 82.390537 
L 77.826939 85.476848 
L 78.076578 86.151525 
L 78.326216 88.330587 
L 78.451035 88.847878 
L 78.825492 92.284643 
L 78.950311 91.941427 
L 79.324769 94.779244 
L 79.449588 94.196342 
L 79.574407 96.167816 
L 79.699226 96.057709 
L 80.073684 99.933789 
L 80.198503 99.820904 
L 80.323322 100.526408 
L 80.448141 100.230163 
L 80.57296 102.75317 
L 80.697779 99.807388 
L 80.947417 104.198519 
L 81.072237 104.693945 
L 81.197056 104.611181 
L 81.321875 106.742081 
L 81.446694 105.811512 
L 81.571513 106.619304 
L 81.696332 105.55845 
L 81.821151 107.254212 
L 81.94597 106.959054 
L 82.07079 105.409527 
L 82.195609 110.262215 
L 82.320428 110.162327 
L 82.445247 112.168994 
L 82.694885 111.956602 
L 83.069343 115.572824 
L 83.194162 115.579026 
L 83.318981 117.268694 
L 83.4438 117.093398 
L 83.693438 118.197361 
L 83.818257 117.775539 
L 83.943076 118.818248 
L 84.067896 118.822387 
L 84.192715 119.842174 
L 84.317534 119.679646 
L 84.442353 120.228038 
L 84.81681 124.013627 
L 84.941629 123.470648 
L 85.066449 123.829078 
L 85.191268 125.01852 
L 85.316087 124.856821 
L 85.815363 126.048158 
L 86.31464 130.838778 
L 86.439459 130.040737 
L 86.564278 131.618768 
L 86.689097 131.2524 
L 86.813916 131.603217 
L 86.938735 132.478498 
L 87.063555 131.716131 
L 87.188374 134.704438 
L 87.313193 134.198575 
L 87.438012 135.630968 
L 87.562831 135.558778 
L 87.68765 137.072342 
L 87.812469 133.809921 
L 87.937288 135.007231 
L 88.062108 135.032546 
L 88.561384 140.451829 
L 88.686203 138.516446 
L 89.060661 141.926311 
L 89.18548 141.230686 
L 89.310299 143.595487 
L 89.559937 141.018712 
L 89.684756 143.824409 
L 89.934394 143.873336 
L 90.059214 144.127313 
L 90.184033 145.57657 
L 90.308852 145.573312 
L 90.433671 142.58879 
L 90.683309 147.584919 
L 90.808128 148.644924 
L 90.932947 148.168487 
L 91.307405 149.790486 
L 91.432224 148.993216 
L 91.557043 151.056382 
L 91.681862 150.359133 
L 91.806681 152.03783 
L 91.9315 151.086746 
L 92.05632 152.24501 
L 92.181139 151.834022 
L 92.430777 153.30558 
L 92.555596 151.002177 
L 92.680415 154.064441 
L 92.805234 153.972485 
L 92.930053 155.672449 
L 93.054873 154.301034 
L 93.179692 154.646265 
L 93.304511 155.319763 
L 93.42933 155.332049 
L 93.678968 158.631893 
L 93.803787 158.464258 
L 93.928606 158.956698 
L 94.303064 158.406569 
L 94.427883 160.592507 
L 94.552702 160.663396 
L 94.677521 159.526227 
L 94.80234 162.106206 
L 94.927159 160.843259 
L 95.051979 160.751897 
L 95.176798 162.419 
L 95.301617 162.325146 
L 95.426436 164.558517 
L 95.551255 163.946169 
L 95.676074 164.393822 
L 95.800893 162.729498 
L 96.175351 166.842368 
L 96.424989 162.53943 
L 96.549808 165.78169 
L 96.674627 165.796789 
L 96.799446 166.265998 
L 97.049085 168.934009 
L 97.298723 168.120602 
L 97.423542 163.584848 
L 97.67318 170.228407 
L 97.797999 169.536113 
L 97.922818 170.266065 
L 98.047638 169.317316 
L 98.172457 170.214867 
L 98.297276 172.341998 
L 98.422095 172.108114 
L 98.671733 169.812667 
L 98.921372 174.498321 
L 99.046191 173.237263 
L 99.17101 173.187864 
L 99.420648 174.167887 
L 99.545467 168.500458 
L 99.795105 174.996434 
L 99.919925 175.458115 
L 100.044744 175.025665 
L 100.169563 175.454464 
L 100.294382 175.301008 
L 100.54402 178.017754 
L 100.668839 178.368392 
L 100.918478 176.356178 
L 101.043297 177.081113 
L 101.168116 177.1029 
L 101.417754 179.816744 
L 101.542573 178.048702 
L 101.792211 181.485327 
L 101.917031 179.254638 
L 102.166669 180.416601 
L 102.416307 182.74176 
L 102.541126 183.212068 
L 102.665945 182.071204 
L 102.790764 182.165626 
L 102.915584 181.834986 
L 103.040403 182.259878 
L 103.165222 181.073935 
L 103.539679 183.087692 
L 103.664498 185.613543 
L 103.914137 184.500147 
L 104.288594 186.972819 
L 104.413413 187.206346 
L 104.538232 188.001088 
L 104.78787 185.128628 
L 104.91269 186.935737 
L 105.037509 184.671226 
L 105.162328 187.545063 
L 105.287147 187.382911 
L 105.411966 184.474153 
L 105.661604 188.003085 
L 105.786423 187.958864 
L 106.036062 191.103777 
L 106.160881 190.836822 
L 106.2857 191.276093 
L 106.410519 189.364402 
L 106.535338 190.764985 
L 106.660157 190.607852 
L 106.784976 186.40772 
L 106.909796 192.50321 
L 107.034615 191.383361 
L 107.159434 192.896926 
L 107.284253 192.509914 
L 107.409072 194.241989 
L 107.783529 189.743548 
L 107.908349 195.962598 
L 108.157987 192.978727 
L 108.282806 195.291649 
L 108.407625 195.255316 
L 108.532444 195.0152 
L 108.782082 193.89752 
L 108.906902 191.237449 
L 109.15654 196.788806 
L 109.281359 196.853477 
L 109.406178 195.290852 
L 109.530997 198.344057 
L 109.655816 197.857001 
L 109.905455 196.405215 
L 110.030274 198.672946 
L 110.155093 193.174078 
L 110.404731 199.744046 
L 110.52955 198.350428 
L 110.654369 200.556129 
L 110.779188 197.529195 
L 110.904008 200.28807 
L 111.153646 196.508615 
L 111.278465 200.888669 
L 111.403284 199.362412 
L 111.528103 201.493353 
L 111.652922 199.427068 
L 111.777741 201.938992 
L 111.902561 197.946592 
L 112.02738 201.97853 
L 112.152199 200.850644 
L 112.277018 200.901613 
L 112.401837 202.091183 
L 112.526656 199.890652 
L 112.651475 203.003879 
L 112.776294 199.601171 
L 112.901114 204.993209 
L 113.025933 204.689488 
L 113.275571 202.055836 
L 113.40039 205.166559 
L 113.525209 204.558495 
L 113.774847 206.524096 
L 113.899667 205.626173 
L 114.024486 205.993575 
L 114.149305 205.759695 
L 114.274124 206.482879 
L 114.523762 204.234327 
L 114.648581 204.837601 
L 114.7734 204.617938 
L 114.89822 205.869485 
L 115.023039 205.628063 
L 115.397496 207.425159 
L 115.522315 207.886347 
L 115.647134 204.174331 
L 115.771953 208.216035 
L 115.896773 208.29875 
L 116.021592 210.097495 
L 116.396049 208.197551 
L 116.520868 207.869187 
L 116.645687 208.888514 
L 116.770506 206.989626 
L 117.020145 208.885672 
L 117.144964 208.664829 
L 117.519421 211.882872 
L 117.64424 210.330717 
L 117.769059 210.47101 
L 117.893879 211.099368 
L 118.018698 212.319097 
L 118.143517 207.730761 
L 118.642793 214.099457 
L 118.767612 213.862061 
L 118.892432 208.323772 
L 119.14207 211.346779 
L 119.391708 214.496935 
L 119.516527 214.36514 
L 119.641346 212.281733 
L 119.890985 216.731247 
L 120.015804 216.09179 
L 120.140623 212.768688 
L 120.265442 213.295251 
L 120.390261 216.675201 
L 120.639899 215.185264 
L 120.764718 214.165138 
L 121.139176 218.115794 
L 121.263995 217.825945 
L 121.388814 214.639186 
L 121.513633 214.806931 
L 121.763271 216.510204 
L 121.888091 216.066009 
L 122.01291 213.4604 
L 122.137729 218.714037 
L 122.262548 217.724924 
L 122.387367 217.991654 
L 122.512186 217.829225 
L 122.761824 218.905081 
L 122.886644 218.591031 
L 123.136282 219.276888 
L 123.261101 216.896484 
L 123.38592 217.622072 
L 123.510739 221.025381 
L 123.635558 218.902022 
L 123.885197 222.151284 
L 124.010016 217.604154 
L 124.134835 219.272772 
L 124.259654 217.824061 
L 124.384473 221.908956 
L 124.509292 222.243068 
L 124.88375 218.30922 
L 125.008569 218.739003 
L 125.258207 221.491532 
L 125.383026 222.83346 
L 125.507845 220.748554 
L 125.632664 224.164057 
L 125.757483 223.901755 
L 125.882303 221.710819 
L 126.007122 224.077705 
L 126.131941 221.339984 
L 126.381579 224.126691 
L 126.506398 220.543152 
L 126.756036 222.5034 
L 126.880856 223.108211 
L 127.005675 220.89544 
L 127.255313 225.958971 
L 127.879409 219.097027 
L 128.004228 226.111632 
L 128.129047 224.486468 
L 128.378685 226.948042 
L 128.503504 225.89803 
L 128.628323 226.983737 
L 128.877962 226.31982 
L 129.002781 224.556278 
L 129.1276 227.295239 
L 129.377238 223.77562 
L 129.502057 224.615614 
L 129.626876 227.323664 
L 129.751696 227.442824 
L 129.876515 226.24681 
L 130.126153 229.493227 
L 130.375791 227.399432 
L 130.50061 226.92821 
L 130.625429 228.571144 
L 130.750249 227.439048 
L 130.875068 229.327916 
L 130.999887 227.968729 
L 131.249525 229.384272 
L 131.374344 229.269731 
L 131.499163 229.7341 
L 131.623982 226.65897 
L 131.748802 229.919001 
L 131.873621 230.012384 
L 131.99844 230.697575 
L 132.123259 230.144847 
L 132.248078 230.11119 
L 132.372897 228.612263 
L 132.497716 228.999337 
L 132.622535 228.522645 
L 132.747355 227.40493 
L 132.872174 231.187457 
L 132.996993 230.363609 
L 133.121812 232.854986 
L 133.246631 232.676281 
L 133.37145 231.619174 
L 133.496269 232.38851 
L 133.621088 231.696884 
L 133.745908 231.735136 
L 133.995546 230.867413 
L 134.120365 230.709527 
L 134.245184 233.418888 
L 134.370003 233.394797 
L 134.619641 231.920186 
L 134.744461 234.271188 
L 134.994099 231.762819 
L 135.118918 234.27067 
L 135.368556 233.401172 
L 135.493375 232.876258 
L 135.618194 233.350355 
L 135.743014 232.843245 
L 135.867833 234.465129 
L 135.992652 234.546086 
L 136.117471 233.722068 
L 136.367109 234.156732 
L 136.491928 234.879353 
L 136.741567 233.563173 
L 136.866386 233.368173 
L 136.991205 235.478693 
L 137.240843 234.09355 
L 137.365662 235.376676 
L 137.490481 234.62244 
L 137.6153 236.696758 
L 137.74012 236.663087 
L 137.864939 235.274156 
L 137.989758 236.865779 
L 138.114577 236.755142 
L 138.239396 232.856932 
L 138.489034 236.263387 
L 138.738673 235.686375 
L 138.863492 237.511602 
L 138.988311 236.636713 
L 139.11313 238.498319 
L 139.362768 235.722564 
L 139.487587 235.87532 
L 139.612406 236.605327 
L 139.737226 235.753981 
L 139.986864 239.687278 
L 140.111683 236.784038 
L 140.236502 236.698777 
L 140.361321 238.877677 
L 140.48614 238.898671 
L 140.610959 239.637037 
L 140.860598 237.234556 
L 140.985417 240.090999 
L 141.110236 239.374787 
L 141.235055 241.120926 
L 141.484693 236.428304 
L 141.609512 237.370401 
L 141.734332 236.19591 
L 141.859151 236.243892 
L 141.98397 241.247041 
L 142.108789 238.955263 
L 142.358427 240.99309 
L 142.483246 240.87527 
L 142.732885 239.013558 
L 142.857704 242.352485 
L 143.107342 238.709291 
L 143.232161 239.277483 
L 143.481799 242.243276 
L 143.606618 239.941091 
L 143.731438 240.246693 
L 143.856257 239.3133 
L 143.981076 240.994379 
L 144.105895 240.60406 
L 144.355533 241.433973 
L 144.480352 240.370056 
L 144.605171 241.682377 
L 144.729991 241.549827 
L 144.85481 241.131068 
L 144.979629 237.697588 
L 145.229267 243.41883 
L 145.354086 243.384976 
L 145.478905 240.981033 
L 145.728544 243.357721 
L 145.853363 242.692888 
L 145.978182 243.422997 
L 146.103001 242.869625 
L 146.22782 244.751619 
L 146.352639 238.565824 
L 146.477458 244.789751 
L 146.602277 243.692887 
L 146.727097 243.875701 
L 146.851916 242.572069 
L 146.976735 246.066682 
L 147.226373 242.185892 
L 147.351192 244.018628 
L 147.476011 242.753816 
L 147.60083 244.994528 
L 147.72565 244.832591 
L 147.975288 240.837846 
L 148.100107 245.329931 
L 148.224926 245.667381 
L 148.349745 243.16328 
L 148.474564 245.772731 
L 148.599383 244.233208 
L 148.724203 244.510724 
L 148.849022 243.971686 
L 148.973841 245.68058 
L 149.09866 244.81323 
L 149.223479 245.195769 
L 149.473117 244.974171 
L 149.597936 241.233401 
L 149.722756 244.696158 
L 149.847575 244.787135 
L 150.097213 245.534666 
L 150.346851 247.926889 
L 150.47167 248.071528 
L 150.596489 245.372872 
L 150.721309 247.51815 
L 150.846128 247.40533 
L 150.970947 248.743164 
L 151.095766 243.958528 
L 151.220585 246.849386 
L 151.470223 246.01719 
L 151.595042 248.347981 
L 151.719862 244.818825 
L 151.844681 249.189878 
L 151.9695 246.942724 
L 152.094319 248.551975 
L 152.219138 246.381802 
L 152.343957 249.160377 
L 152.468776 245.98295 
L 152.593595 246.250781 
L 152.718415 245.206564 
L 152.968053 249.733869 
L 153.217691 247.395944 
L 153.467329 248.045764 
L 153.592148 246.82057 
L 153.841787 250.577151 
L 153.966606 248.235203 
L 154.091425 249.095204 
L 154.216244 248.389904 
L 154.341063 247.00086 
L 154.590701 250.283778 
L 154.715521 250.249406 
L 154.965159 244.168646 
L 155.089978 248.553691 
L 155.214797 247.306961 
L 155.339616 251.876584 
L 155.464435 248.957705 
L 155.589254 251.77786 
L 155.714074 251.313662 
L 155.838893 249.457135 
L 155.963712 251.136869 
L 156.088531 250.644847 
L 156.21335 250.92771 
L 156.338169 250.89423 
L 156.462988 251.165242 
L 156.587807 248.354596 
L 156.712627 249.240699 
L 156.837446 251.305306 
L 156.962265 249.70198 
L 157.211903 251.931238 
L 157.336722 252.413076 
L 157.461541 251.942557 
L 157.58636 248.768534 
L 157.835999 250.41502 
L 157.960818 248.724719 
L 158.335275 252.505866 
L 158.460094 252.705931 
L 158.584913 251.183894 
L 158.834552 251.976057 
L 158.959371 253.90352 
L 159.333828 250.279419 
L 159.583466 252.688318 
L 159.708286 252.330923 
L 159.833105 250.725334 
L 159.957924 251.499192 
L 160.082743 253.655788 
L 160.332381 249.76356 
L 160.4572 254.441382 
L 160.706839 254.577646 
L 160.956477 249.854558 
L 161.206115 254.97504 
L 161.330934 254.783748 
L 161.455753 250.665437 
L 161.580573 254.669028 
L 161.705392 253.671265 
L 161.95503 251.020565 
L 162.079849 251.359425 
L 162.329487 255.391778 
L 162.454306 254.863583 
L 162.579126 255.895328 
L 162.703945 254.647227 
L 162.953583 257.10846 
L 163.078402 253.973725 
L 163.203221 254.396349 
L 163.32804 254.065142 
L 163.452859 251.528171 
L 163.577679 252.190115 
L 163.827317 256.413416 
L 164.076955 253.651162 
L 164.201774 254.140231 
L 164.326593 246.680226 
L 164.576232 257.642721 
L 164.82587 253.52566 
L 164.950689 254.03295 
L 165.075508 255.714017 
L 165.200327 253.72813 
L 165.325146 253.613348 
L 165.574785 257.844465 
L 165.824423 256.267926 
L 165.949242 256.264793 
L 166.074061 254.956241 
L 166.19888 258.673532 
L 166.323699 258.339292 
L 166.573338 252.984347 
L 166.698157 253.984451 
L 166.822976 255.245188 
L 166.947795 255.377044 
L 167.072614 257.660709 
L 167.322252 256.247019 
L 167.447071 258.473133 
L 167.571891 254.605135 
L 167.821529 258.740547 
L 167.946348 255.084526 
L 168.071167 258.075051 
L 168.195986 257.004463 
L 168.320805 252.716148 
L 168.445624 252.382431 
L 168.820082 259.067471 
L 168.944901 259.250289 
L 169.194539 256.921249 
L 169.319358 257.48886 
L 169.444177 259.506138 
L 169.568997 255.972882 
L 169.693816 255.638987 
L 169.818635 258.745617 
L 169.943454 258.19174 
L 170.068273 259.959652 
L 170.193092 258.211992 
L 170.44273 258.8819 
L 170.56755 258.692946 
L 170.692369 257.615831 
L 170.817188 260.344831 
L 170.942007 260.414001 
L 171.066826 259.60596 
L 171.191645 260.481102 
L 171.316464 260.230476 
L 171.441283 259.711054 
L 171.690922 259.583899 
L 171.94056 261.784949 
L 172.190198 257.870924 
L 172.315017 260.779291 
L 172.439836 258.379544 
L 172.564656 258.154515 
L 172.689475 260.713077 
L 172.814294 258.270045 
L 172.939113 259.511125 
L 173.063932 258.105088 
L 173.188751 259.130736 
L 173.31357 261.122239 
L 173.438389 260.264579 
L 173.563209 262.093429 
L 173.688028 260.841067 
L 173.812847 257.47758 
L 173.937666 259.243922 
L 174.062485 257.465077 
L 174.187304 261.626108 
L 174.312123 259.112853 
L 174.436942 260.056932 
L 174.561762 262.651984 
L 174.8114 259.102677 
L 174.936219 263.080612 
L 175.185857 260.763851 
L 175.435495 263.162183 
L 175.685134 260.307502 
L 175.809953 259.533674 
L 175.934772 262.197669 
L 176.059591 262.371398 
L 176.18441 262.22627 
L 176.434048 259.859743 
L 176.558868 260.4044 
L 176.683687 259.318739 
L 176.933325 263.206142 
L 177.182963 261.006512 
L 177.307782 263.404995 
L 177.432601 263.344879 
L 177.557421 264.384233 
L 177.68224 263.692934 
L 177.807059 263.735522 
L 177.931878 263.615725 
L 178.056697 261.242672 
L 178.181516 261.375039 
L 178.306335 262.39771 
L 178.431154 262.393448 
L 178.555974 262.878923 
L 178.805612 261.88018 
L 178.930431 259.418182 
L 179.05525 260.974175 
L 179.304888 264.7453 
L 179.429707 264.508862 
L 179.554527 263.321169 
L 179.679346 265.205967 
L 179.804165 264.011228 
L 179.928984 258.880203 
L 180.053803 261.107057 
L 180.178622 260.151855 
L 180.303441 261.10166 
L 180.42826 263.562391 
L 180.55308 261.703911 
L 180.802718 264.456417 
L 180.927537 263.829358 
L 181.177175 258.754182 
L 181.301994 258.356301 
L 181.551633 264.86384 
L 181.676452 262.828002 
L 181.92609 264.849845 
L 182.050909 261.029473 
L 182.300547 265.708153 
L 182.425366 263.624431 
L 182.550186 266.499225 
L 182.675005 263.495501 
L 182.799824 266.017007 
L 182.924643 265.550355 
L 183.049462 263.828974 
L 183.174281 266.175166 
L 183.423919 263.605044 
L 183.548739 266.888245 
L 183.673558 264.033942 
L 183.798377 266.169844 
L 183.923196 264.571138 
L 184.048015 265.264232 
L 184.172834 264.087502 
L 184.297653 266.855038 
L 184.422472 263.993805 
L 184.547292 267.369405 
L 184.672111 265.402398 
L 184.79693 265.944088 
L 184.921749 264.639887 
L 185.171387 266.500641 
L 185.421025 266.694058 
L 185.545845 265.179766 
L 185.670664 267.533759 
L 185.795483 263.991877 
L 186.045121 265.916495 
L 186.294759 267.494215 
L 186.419578 263.808867 
L 186.544398 267.510135 
L 186.669217 266.35551 
L 186.794036 264.028859 
L 187.168493 266.534658 
L 187.293312 262.271519 
L 187.542951 265.457697 
L 187.66777 265.63161 
L 187.792589 263.513757 
L 188.042227 266.684996 
L 188.167046 262.12094 
L 188.291865 266.179787 
L 188.416684 264.951862 
L 188.541504 265.626668 
L 188.666323 262.555297 
L 189.165599 269.552348 
L 189.415237 266.656551 
L 189.540057 266.856688 
L 189.664876 266.129856 
L 189.789695 268.381118 
L 189.914514 264.753734 
L 190.039333 267.531958 
L 190.288971 266.497533 
L 190.413791 269.478544 
L 190.663429 265.539816 
L 190.788248 269.227462 
L 190.913067 266.885593 
L 191.037886 268.219049 
L 191.162705 267.029181 
L 191.287524 269.548742 
L 191.537163 266.172153 
L 191.661982 269.062666 
L 191.786801 268.033849 
L 191.91162 270.366125 
L 192.036439 268.958147 
L 192.161258 270.258762 
L 192.410897 264.117388 
L 192.660535 270.420254 
L 192.785354 269.404173 
L 192.910173 263.229555 
L 193.28463 270.76412 
L 193.40945 263.664061 
L 193.534269 268.954091 
L 193.659088 267.463255 
L 193.783907 269.915409 
L 194.158364 267.094477 
L 194.283183 270.236287 
L 194.408003 269.577702 
L 194.532822 268.004254 
L 194.78246 263.351541 
L 194.907279 268.529421 
L 195.156917 267.125176 
L 195.281736 269.310335 
L 195.406556 269.032846 
L 195.531375 269.389784 
L 195.781013 271.565747 
L 195.905832 271.898915 
L 196.030651 267.134044 
L 196.280289 271.298767 
L 196.405109 270.395231 
L 196.779566 271.752747 
L 196.904385 269.924735 
L 197.029204 271.621458 
L 197.154023 268.841458 
L 197.278842 269.711282 
L 197.403662 271.44694 
L 197.528481 267.56216 
L 197.778119 272.165575 
L 197.902938 270.017946 
L 198.152576 270.85497 
L 198.402215 269.149152 
L 198.527034 271.023152 
L 198.651853 271.159404 
L 198.901491 269.13011 
L 199.02631 271.660428 
L 199.275948 269.919409 
L 199.525587 271.019689 
L 199.650406 270.036164 
L 199.775225 270.308556 
L 199.900044 272.854935 
L 200.024863 270.488783 
L 200.149682 263.758265 
L 200.399321 272.652724 
L 200.52414 272.239046 
L 200.648959 269.500259 
L 200.773778 270.591461 
L 200.898597 270.548918 
L 201.023416 266.015536 
L 201.148235 271.842668 
L 201.273054 270.280905 
L 201.397874 270.50808 
L 201.522693 271.044427 
L 201.647512 268.367909 
L 201.772331 268.921385 
L 201.89715 270.88954 
L 202.021969 269.182015 
L 202.146788 272.287488 
L 202.271607 271.790865 
L 202.396427 270.131098 
L 202.521246 271.156037 
L 202.646065 271.181849 
L 202.770884 272.284773 
L 202.895703 270.30889 
L 203.020522 274.024284 
L 203.145341 272.207808 
L 203.27016 273.185277 
L 203.519799 271.195655 
L 203.644618 272.84011 
L 203.769437 272.983698 
L 203.894256 271.566032 
L 204.019075 274.582412 
L 204.143894 273.818629 
L 204.268713 268.972125 
L 204.393533 273.369071 
L 204.643171 272.216259 
L 204.76799 274.518118 
L 204.892809 272.30201 
L 205.142447 273.548259 
L 205.267266 270.254382 
L 205.392086 270.239341 
L 205.641724 267.716886 
L 205.766543 271.341912 
L 206.016181 271.86571 
L 206.141 272.879967 
L 206.265819 271.900318 
L 206.390639 273.56963 
L 206.515458 272.632873 
L 206.765096 274.820587 
L 206.889915 273.009457 
L 207.014734 267.211022 
L 207.139553 267.784476 
L 207.264372 271.36398 
L 207.389192 271.234171 
L 207.514011 269.67271 
L 207.888468 274.006505 
L 208.013287 273.569937 
L 208.138106 269.261443 
L 208.262925 272.094921 
L 208.387745 269.877501 
L 208.512564 269.728334 
L 209.01184 275.738905 
L 209.261478 274.737765 
L 209.511117 271.887142 
L 209.635936 271.006383 
L 209.885574 272.806225 
L 210.135212 275.016769 
L 210.260031 274.4884 
L 210.384851 274.798936 
L 210.50967 273.774501 
L 210.634489 270.909552 
L 210.759308 274.843244 
L 210.884127 273.05143 
L 211.008946 275.152167 
L 211.133765 271.089801 
L 211.258584 274.535017 
L 211.383404 274.67927 
L 211.508223 273.288604 
L 211.88268 275.075055 
L 212.007499 272.034815 
L 212.381957 275.197995 
L 212.506776 273.552994 
L 212.631595 275.201416 
L 212.756414 273.36163 
L 212.881233 274.804358 
L 213.130871 271.07261 
L 213.25569 273.578678 
L 213.38051 272.293567 
L 213.505329 274.963663 
L 213.630148 270.800279 
L 213.879786 274.484525 
L 214.004605 275.609785 
L 214.129424 275.601154 
L 214.379063 273.799931 
L 214.503882 272.494693 
L 214.878339 276.641121 
L 215.003158 275.952971 
L 215.127977 276.238095 
L 215.252796 277.361024 
L 215.377616 273.786715 
L 215.627254 276.69622 
L 215.752073 273.913924 
L 215.876892 274.169149 
L 216.001711 276.921388 
L 216.12653 276.3676 
L 216.251349 275.006703 
L 216.376169 271.00322 
L 216.625807 275.456086 
L 216.750626 271.992288 
L 216.875445 273.112029 
L 217.000264 275.456606 
L 217.125083 274.600041 
L 217.249902 269.44563 
L 217.374722 275.993632 
L 217.499541 275.448092 
L 217.62436 271.857557 
L 217.873998 275.72008 
L 217.998817 276.685822 
L 218.248455 276.006875 
L 218.373275 272.651836 
L 218.747732 277.160183 
L 218.872551 276.951973 
L 218.99737 275.886305 
L 219.122189 277.716082 
L 219.247008 275.554388 
L 219.371828 277.990584 
L 219.496647 276.849846 
L 219.746285 278.343228 
L 219.871104 276.465127 
L 220.120742 276.925726 
L 220.245561 272.505215 
L 220.370381 276.541867 
L 220.4952 274.741837 
L 220.744838 278.783941 
L 220.869657 276.220455 
L 220.994476 277.673582 
L 221.119295 277.208373 
L 221.244115 274.596528 
L 221.368934 278.9737 
L 221.493753 278.635638 
L 221.743391 273.265 
L 221.993029 278.596715 
L 222.117848 275.720474 
L 222.242668 275.485835 
L 222.367487 274.792365 
L 222.492306 278.26759 
L 222.617125 277.19665 
L 222.741944 278.325443 
L 222.866763 273.101566 
L 222.991582 276.228616 
L 223.116401 276.532216 
L 223.241221 276.269371 
L 223.36604 277.183344 
L 223.490859 276.174149 
L 223.615678 277.126311 
L 223.740497 276.770418 
L 223.865316 273.899791 
L 223.990135 275.0634 
L 224.114954 278.836364 
L 224.364593 277.437819 
L 224.489412 277.838528 
L 224.614231 276.597869 
L 224.73905 273.111317 
L 224.988688 277.798506 
L 225.113507 278.320681 
L 225.238327 277.338362 
L 225.363146 275.07495 
L 225.487965 275.593288 
L 225.862422 278.99717 
L 225.987241 277.034415 
L 226.11206 277.886707 
L 226.23688 276.263225 
L 226.361699 277.01299 
L 226.611337 274.061432 
L 226.736156 276.973895 
L 226.860975 274.466832 
L 226.985794 275.783278 
L 227.235433 279.726023 
L 227.360252 279.234725 
L 227.485071 275.129181 
L 227.60989 276.117241 
L 227.734709 279.925731 
L 227.984347 276.442193 
L 228.109166 278.199156 
L 228.233986 278.295382 
L 228.358805 279.290711 
L 228.483624 274.517403 
L 228.608443 278.515633 
L 228.733262 278.785786 
L 228.858081 278.280721 
L 228.9829 275.014986 
L 229.107719 279.403397 
L 229.232539 275.804998 
L 229.357358 279.520694 
L 229.482177 278.77906 
L 229.731815 276.6874 
L 229.981453 279.459265 
L 230.106272 278.98133 
L 230.231092 277.803034 
L 230.355911 271.828852 
L 230.48073 278.864097 
L 230.605549 277.627929 
L 230.730368 280.657125 
L 230.855187 275.358254 
L 231.104825 278.898617 
L 231.354464 280.3016 
L 231.479283 276.857708 
L 231.604102 278.562404 
L 231.85374 277.240158 
L 231.978559 278.34898 
L 232.228198 277.721633 
L 232.353017 280.656045 
L 232.477836 276.671973 
L 232.602655 280.112241 
L 232.727474 279.613988 
L 232.852293 279.904938 
L 233.101931 276.590939 
L 233.35157 280.037108 
L 233.476389 276.815406 
L 233.726027 279.011593 
L 233.850846 279.064499 
L 233.975665 278.485788 
L 234.100484 276.632781 
L 234.350123 278.854657 
L 234.474942 280.247161 
L 234.599761 279.428263 
L 234.72458 277.650505 
L 234.849399 278.42547 
L 234.974218 278.093308 
L 235.099037 279.995233 
L 235.223857 278.754594 
L 235.348676 278.685833 
L 235.473495 274.15757 
L 235.723133 281.417389 
L 235.847952 280.635735 
L 235.972771 281.174189 
L 236.09759 276.072556 
L 236.22241 280.466961 
L 236.472048 280.850116 
L 236.596867 282.179885 
L 236.721686 278.180885 
L 236.846505 278.654773 
L 236.971324 279.934256 
L 237.220963 278.07308 
L 237.345782 280.82927 
L 237.720239 278.176157 
L 237.845058 279.935869 
L 237.969877 278.717786 
L 238.094696 281.187824 
L 238.219516 280.958118 
L 238.344335 280.05426 
L 238.469154 280.640445 
L 238.593973 279.167442 
L 238.843611 280.806715 
L 238.96843 278.472913 
L 239.218069 282.436488 
L 239.467707 281.493115 
L 239.592526 277.314077 
L 239.717345 282.927668 
L 239.842164 280.424296 
L 239.966983 281.32478 
L 240.091802 280.770372 
L 240.216622 282.241635 
L 240.341441 280.361829 
L 240.46626 280.313917 
L 240.591079 281.376197 
L 240.715898 279.128162 
L 240.840717 281.555433 
L 241.090355 280.723994 
L 241.215175 278.019957 
L 241.339994 279.07537 
L 241.464813 282.109389 
L 241.589632 280.153625 
L 241.714451 280.289774 
L 241.83927 282.727196 
L 242.088908 279.325089 
L 242.213728 279.603842 
L 242.338547 279.885865 
L 242.463366 282.047724 
L 242.837823 281.130012 
L 242.962642 282.489178 
L 243.087461 275.907627 
L 243.212281 281.217549 
L 243.3371 281.510509 
L 243.461919 282.221663 
L 243.586738 281.293666 
L 243.711557 279.003906 
L 243.961195 283.084036 
L 244.210834 278.205962 
L 244.335653 282.699273 
L 244.460472 280.156716 
L 244.585291 280.684382 
L 244.71011 279.834086 
L 244.834929 277.580147 
L 244.959748 283.124233 
L 245.084567 282.95312 
L 245.209387 279.567389 
L 245.334206 279.264501 
L 245.459025 281.111281 
L 245.583844 281.267093 
L 245.708663 279.998484 
L 245.833482 280.28005 
L 246.08312 274.210783 
L 246.20794 282.604674 
L 246.332759 281.867242 
L 246.457578 282.509873 
L 246.582397 279.246608 
L 246.707216 280.704291 
L 246.956854 277.442971 
L 247.206493 282.606977 
L 247.331312 283.290802 
L 247.456131 280.545895 
L 247.58095 281.337415 
L 247.705769 278.764883 
L 247.955407 281.008126 
L 248.080226 278.530883 
L 248.205046 280.807082 
L 248.329865 277.896538 
L 248.704322 281.986983 
L 248.829141 282.579788 
L 248.95396 280.690575 
L 249.078779 282.704435 
L 249.203599 277.643501 
L 249.328418 282.398274 
L 249.453237 280.949496 
L 249.578056 282.856149 
L 249.702875 278.629758 
L 249.827694 281.925024 
L 249.952513 281.358461 
L 250.077332 281.931359 
L 250.202152 281.827869 
L 250.45179 282.684056 
L 250.576609 284.236194 
L 250.701428 281.556633 
L 250.826247 282.603519 
L 250.951066 278.459272 
L 251.200705 279.974351 
L 251.450343 280.892795 
L 251.575162 280.795208 
L 251.8248 282.820159 
L 251.949619 282.238246 
L 252.074439 284.719448 
L 252.199258 283.806455 
L 252.324077 280.485301 
L 252.448896 282.382599 
L 252.573715 279.447788 
L 252.698534 283.132603 
L 252.823353 282.239163 
L 252.948172 285.154854 
L 253.072992 282.894523 
L 253.197811 283.188889 
L 253.447449 280.853413 
L 253.697087 284.488935 
L 253.821906 284.163536 
L 254.071545 282.410113 
L 254.196364 279.452202 
L 254.446002 285.058411 
L 254.69564 281.186899 
L 254.820459 280.558063 
L 254.945278 283.785202 
L 255.070098 281.151489 
L 255.194917 284.221097 
L 255.319736 280.712084 
L 255.569374 283.207512 
L 255.694193 282.554585 
L 255.819012 284.92082 
L 255.943831 282.13318 
L 256.19347 285.672623 
L 256.567927 281.990042 
L 256.692746 284.653213 
L 257.067204 283.385221 
L 257.192023 283.39278 
L 257.691299 285.373606 
L 257.816118 284.147506 
L 257.940937 285.578909 
L 258.190576 281.144513 
L 258.315395 284.704796 
L 258.440214 283.830549 
L 258.565033 284.914805 
L 258.689852 282.776255 
L 258.814671 284.469829 
L 259.06431 280.746042 
L 259.313948 282.051312 
L 259.438767 285.253283 
L 259.688405 280.537322 
L 259.813224 281.26794 
L 259.938043 278.038421 
L 260.187682 284.027515 
L 260.312501 282.833973 
L 260.43732 286.03896 
L 260.562139 281.112525 
L 260.686958 282.826165 
L 260.811777 282.640927 
L 261.061416 280.03299 
L 261.685511 284.505891 
L 261.81033 284.304956 
L 261.935149 284.447985 
L 262.184788 285.901863 
L 262.309607 280.149771 
L 262.559245 283.812119 
L 262.684064 283.363031 
L 262.808883 283.9129 
L 262.933702 286.847373 
L 263.058522 284.713782 
L 263.183341 285.390521 
L 263.30816 281.762419 
L 263.557798 283.036543 
L 263.682617 281.679549 
L 263.807436 284.231037 
L 263.932255 283.8472 
L 264.057075 285.278403 
L 264.306713 281.763491 
L 264.431532 284.971232 
L 264.556351 282.214304 
L 264.805989 285.134315 
L 265.055628 281.810801 
L 265.305266 284.524164 
L 265.679723 281.900273 
L 265.929361 285.038053 
L 266.179 282.137885 
L 266.428638 284.109629 
L 266.553457 283.224568 
L 266.678276 285.307301 
L 266.803095 283.395695 
L 266.927914 285.510931 
L 267.052734 284.02538 
L 267.177553 285.058362 
L 267.302372 287.330613 
L 267.55201 282.290977 
L 267.676829 285.936918 
L 267.801648 281.358617 
L 267.926467 282.034257 
L 268.051287 284.909671 
L 268.300925 283.541903 
L 268.425744 285.216585 
L 268.550563 283.591311 
L 268.675382 286.456722 
L 268.92502 281.649241 
L 269.04984 281.81956 
L 269.174659 285.584306 
L 269.299478 281.543786 
L 269.549116 285.085397 
L 269.673935 282.070003 
L 269.798754 284.31226 
L 269.923573 284.523702 
L 270.048393 282.672211 
L 270.173212 287.192439 
L 270.298031 283.496324 
L 270.42285 285.476137 
L 270.672488 281.359321 
L 270.797307 283.159853 
L 271.046946 281.327579 
L 271.171765 284.36922 
L 271.296584 283.024188 
L 271.546222 285.811567 
L 271.671041 286.453882 
L 271.79586 282.800568 
L 272.045499 286.440845 
L 272.170318 286.752046 
L 272.295137 285.349193 
L 272.419956 286.974455 
L 272.544775 279.739006 
L 272.794413 282.075924 
L 272.919232 287.138686 
L 273.044052 284.412645 
L 273.168871 286.245057 
L 273.418509 280.574646 
L 273.543328 286.704365 
L 273.792966 285.231997 
L 273.917785 285.540196 
L 274.042605 284.772059 
L 274.292243 285.185134 
L 274.541881 284.891456 
L 274.6667 286.892518 
L 274.791519 284.378694 
L 274.916338 286.5973 
L 275.041158 283.31796 
L 275.290796 285.829178 
L 275.415615 284.887478 
L 275.540434 285.783511 
L 275.665253 285.666458 
L 275.790072 284.497671 
L 276.039711 287.322977 
L 276.289349 281.631959 
L 276.414168 287.736566 
L 276.538987 284.915983 
L 276.663806 285.673059 
L 276.788625 279.734299 
L 276.913444 281.092311 
L 277.038264 283.991144 
L 277.163083 283.755364 
L 277.287902 287.709402 
L 277.412721 286.939085 
L 277.53754 282.748476 
L 277.662359 283.738775 
L 277.787178 283.185208 
L 278.161636 287.647065 
L 278.286455 286.700108 
L 278.411274 287.301418 
L 278.536093 285.281311 
L 278.785731 288.365855 
L 278.91055 281.7878 
L 279.03537 287.31702 
L 279.160189 287.500755 
L 279.285008 287.3353 
L 279.534646 282.930088 
L 279.784284 285.333304 
L 279.909103 285.385973 
L 280.033923 287.613266 
L 280.158742 285.210027 
L 280.283561 284.981761 
L 280.40838 282.985143 
L 280.658018 285.49504 
L 280.782837 287.451872 
L 280.907656 286.47439 
L 281.032476 287.51459 
L 281.157295 284.777999 
L 281.406933 286.553902 
L 281.531752 286.37358 
L 281.656571 283.709993 
L 281.906209 286.174726 
L 282.031029 279.943907 
L 282.280667 283.961261 
L 282.405486 285.400777 
L 282.530305 283.462676 
L 282.655124 283.571462 
L 282.779943 284.429033 
L 282.904763 288.799765 
L 283.154401 282.330749 
L 283.27922 280.861156 
L 283.404039 286.354426 
L 283.528858 285.230717 
L 283.653677 285.317536 
L 283.778496 282.838127 
L 284.028135 288.231628 
L 284.152954 285.475069 
L 284.527411 288.968631 
L 284.65223 288.263208 
L 284.777049 285.552762 
L 284.901869 286.286669 
L 285.026688 283.894917 
L 285.151507 288.962599 
L 285.276326 287.881762 
L 285.401145 284.029407 
L 285.525964 287.818385 
L 285.650783 287.703583 
L 285.775602 287.958812 
L 285.900422 287.860568 
L 286.15006 284.650178 
L 286.399698 286.636059 
L 286.649336 285.365434 
L 286.774155 286.230015 
L 286.898975 286.193803 
L 287.023794 287.323944 
L 287.148613 284.31925 
L 287.273432 284.639768 
L 287.398251 283.866694 
L 287.52307 287.434004 
L 287.647889 286.714861 
L 287.772708 288.807888 
L 287.897528 287.981059 
L 288.022347 288.511523 
L 288.147166 288.020024 
L 288.271985 285.421525 
L 288.396804 285.919523 
L 288.521623 285.800947 
L 288.646442 286.296136 
L 288.771261 284.347482 
L 288.896081 284.666569 
L 289.0209 288.512483 
L 289.145719 285.682473 
L 289.270538 286.900589 
L 289.395357 286.858436 
L 289.520176 286.077484 
L 289.644995 288.44283 
L 289.769814 287.71325 
L 289.894634 288.001352 
L 290.144272 284.792763 
L 290.269091 283.194041 
L 290.39391 288.640065 
L 290.518729 288.554098 
L 290.643548 289.198197 
L 290.768367 285.57786 
L 290.893187 286.354731 
L 291.018006 287.867304 
L 291.142825 285.092229 
L 291.267644 287.47865 
L 291.392463 286.960088 
L 291.517282 288.045201 
L 291.642101 287.262318 
L 291.76692 288.226653 
L 292.016559 284.297579 
L 292.141378 285.905253 
L 292.266197 285.714434 
L 292.515835 288.661421 
L 292.640654 288.931875 
L 293.015112 287.041948 
L 293.139931 288.737462 
L 293.26475 285.926483 
L 293.514388 286.885215 
L 293.639207 287.144273 
L 293.764026 285.95538 
L 293.888846 288.897944 
L 294.013665 286.029974 
L 294.138484 289.568018 
L 294.388122 287.409607 
L 294.512941 287.267231 
L 294.63776 284.151711 
L 294.887399 288.023575 
L 295.012218 285.583383 
L 295.137037 286.688914 
L 295.261856 285.00273 
L 295.386675 288.076169 
L 295.636313 284.45551 
L 295.761132 285.130383 
L 295.885952 283.962478 
L 296.010771 284.304338 
L 296.13559 284.038066 
L 296.385228 287.805753 
L 296.510047 285.845745 
L 296.759685 288.85659 
L 296.884505 288.836458 
L 297.009324 287.830303 
L 297.134143 283.036665 
L 297.258962 283.689882 
L 297.383781 287.518249 
L 297.5086 287.532072 
L 297.633419 284.326849 
L 297.758238 288.548725 
L 297.883058 283.992908 
L 298.007877 287.522195 
L 298.132696 286.640732 
L 298.257515 288.896183 
L 298.382334 287.154219 
L 298.507153 282.159628 
L 298.631972 289.013493 
L 298.756791 287.289961 
L 298.881611 287.716251 
L 299.00643 287.635462 
L 299.131249 284.269171 
L 299.380887 286.594436 
L 299.505706 286.363537 
L 299.755344 289.389376 
L 300.004983 285.34705 
L 300.129802 281.10323 
L 300.254621 288.191741 
L 300.37944 287.640574 
L 300.504259 288.825265 
L 300.629078 286.455548 
L 300.753897 290.212007 
L 300.878717 288.07084 
L 301.003536 287.945209 
L 301.128355 288.506262 
L 301.253174 286.047181 
L 301.377993 288.385269 
L 301.502812 287.060337 
L 301.627631 288.702699 
L 302.002089 285.763325 
L 302.126908 290.138421 
L 302.251727 284.65008 
L 302.376546 288.871807 
L 302.626184 283.170226 
L 302.875823 289.403945 
L 303.000642 288.035972 
L 303.125461 288.402602 
L 303.25028 287.251464 
L 303.375099 288.364756 
L 303.499918 287.820691 
L 303.749556 285.823692 
L 303.874376 289.98324 
L 303.999195 289.120099 
L 304.124014 284.715034 
L 304.248833 288.789033 
L 304.373652 287.533559 
L 304.498471 287.8132 
L 304.62329 290.033285 
L 304.748109 287.902282 
L 304.872929 287.935261 
L 304.997748 287.327257 
L 305.122567 289.149848 
L 305.247386 288.896704 
L 305.372205 290.180154 
L 305.497024 289.885025 
L 305.621843 287.173315 
L 305.746662 290.419195 
L 305.871482 289.24908 
L 305.996301 289.845897 
L 306.12112 289.637799 
L 306.370758 287.973407 
L 306.495577 284.936998 
L 306.620396 284.923653 
L 306.994854 290.800366 
L 307.119673 286.191557 
L 307.369311 288.128981 
L 307.49413 286.148813 
L 307.743768 291.41392 
L 307.868588 290.76656 
L 307.993407 285.475055 
L 308.367864 289.742723 
L 308.617502 288.733227 
L 308.742321 288.220911 
L 308.867141 290.50133 
L 308.99196 286.588081 
L 309.116779 287.672139 
L 309.241598 287.022777 
L 309.366417 287.763473 
L 309.616055 285.912796 
L 309.865694 289.262703 
L 309.990513 287.936687 
L 310.115332 288.684188 
L 310.240151 291.808624 
L 310.36497 288.325212 
L 310.489789 288.110042 
L 310.739427 291.2376 
L 310.864247 290.200597 
L 310.989066 290.841579 
L 311.113885 283.363148 
L 311.363523 290.89125 
L 311.613161 286.493621 
L 311.73798 289.855815 
L 311.8628 284.517458 
L 311.987619 290.711685 
L 312.112438 291.033803 
L 312.362076 289.169525 
L 312.486895 286.429843 
L 313.110991 291.389884 
L 313.485448 286.009384 
L 313.735087 290.574317 
L 313.859906 290.640579 
L 313.984725 289.070625 
L 314.109544 289.359059 
L 314.234363 288.585217 
L 314.359182 286.175216 
L 314.60882 289.939802 
L 314.73364 288.147008 
L 314.858459 288.41228 
L 315.108097 285.685953 
L 315.232916 287.997473 
L 315.357735 286.768186 
L 315.482554 281.986344 
L 315.607373 291.202435 
L 315.732193 289.51342 
L 315.857012 291.0921 
L 316.10665 285.874941 
L 316.231469 284.847953 
L 316.356288 289.433017 
L 316.481107 289.192386 
L 316.605926 285.365389 
L 316.730746 289.882596 
L 316.855565 288.985746 
L 317.105203 290.701606 
L 317.230022 287.121628 
L 317.354841 287.714448 
L 317.47966 287.186704 
L 317.604479 290.397319 
L 317.729299 284.617555 
L 317.854118 290.980661 
L 317.978937 289.952159 
L 318.103756 291.165641 
L 318.228575 289.156629 
L 318.353394 290.933319 
L 318.478213 290.970856 
L 318.603032 291.888857 
L 318.852671 288.151297 
L 319.102309 290.751375 
L 319.227128 290.18404 
L 319.351947 286.602662 
L 319.476766 286.758375 
L 319.601585 289.044763 
L 319.726405 288.835165 
L 319.851224 289.181352 
L 319.976043 288.149014 
L 320.100862 288.511349 
L 320.225681 290.61861 
L 320.3505 290.725182 
L 320.600138 286.800145 
L 320.724958 286.892632 
L 320.849777 290.112881 
L 320.974596 287.684811 
L 321.099415 290.514372 
L 321.224234 287.817785 
L 321.349053 289.998666 
L 321.473872 288.95145 
L 321.598691 286.748091 
L 321.84833 289.632835 
L 321.973149 290.392993 
L 322.097968 289.582904 
L 322.347606 283.078782 
L 322.472425 287.1111 
L 322.597244 287.413249 
L 322.722064 288.437721 
L 322.846883 291.476391 
L 322.971702 291.437344 
L 323.096521 289.531427 
L 323.22134 291.248465 
L 323.346159 289.796762 
L 323.470978 290.195539 
L 323.720617 287.083144 
L 323.845436 287.817733 
L 324.095074 291.146398 
L 324.219893 287.278279 
L 324.344712 287.68562 
L 324.59435 291.857771 
L 324.968808 286.270453 
L 325.093627 288.555679 
L 325.218446 287.387119 
L 325.343265 289.168675 
L 325.468084 287.109374 
L 325.592903 289.977015 
L 325.717723 288.163146 
L 325.842542 290.15645 
L 325.967361 288.309876 
L 326.09218 289.741629 
L 326.341818 286.723596 
L 326.716276 291.574925 
L 326.965914 289.587659 
L 327.215552 285.434256 
L 327.340371 290.234633 
L 327.46519 290.180998 
L 327.714829 291.851594 
L 327.839648 291.37263 
L 327.964467 292.884184 
L 328.089286 289.941557 
L 328.214105 292.16242 
L 328.338924 291.383693 
L 328.588562 288.242821 
L 328.713382 290.220326 
L 328.96302 287.6337 
L 329.212658 291.359653 
L 329.337477 284.456593 
L 329.462296 286.700705 
L 329.587115 291.341167 
L 329.961573 287.725483 
L 330.086392 285.571401 
L 330.33603 290.207489 
L 330.460849 290.955884 
L 330.585668 290.319139 
L 330.710488 289.033693 
L 330.835307 290.488128 
L 330.960126 290.144839 
L 331.084945 288.704588 
L 331.209764 292.206358 
L 331.584221 288.763886 
L 331.709041 288.883172 
L 331.83386 289.355486 
L 331.958679 288.116997 
L 332.208317 292.573667 
L 332.333136 292.165263 
L 332.457955 289.777352 
L 332.582774 291.657064 
L 332.707594 289.620632 
L 332.832413 290.344771 
L 332.957232 291.833158 
L 333.082051 290.338245 
L 333.20687 290.511755 
L 333.331689 289.258112 
L 333.456508 286.007505 
L 333.706147 289.607072 
L 333.830966 287.294598 
L 334.080604 291.346309 
L 334.205423 286.156055 
L 334.455061 291.057188 
L 334.57988 291.35959 
L 334.829519 288.223175 
L 335.079157 291.612529 
L 335.328795 290.459263 
L 335.453614 290.917807 
L 335.578433 292.466298 
L 335.703253 287.870556 
L 335.828072 291.099704 
L 335.952891 288.540222 
L 336.07771 292.491045 
L 336.202529 288.238748 
L 336.327348 291.05682 
L 336.452167 290.486605 
L 336.576986 292.828317 
L 336.951444 286.336622 
L 337.076263 289.839507 
L 337.201082 289.769162 
L 337.325901 291.399417 
L 337.45072 287.553163 
L 337.575539 290.450597 
L 337.825178 288.123263 
L 337.949997 292.098607 
L 338.074816 289.263429 
L 338.199635 291.496312 
L 338.324454 289.732912 
L 338.449273 291.126261 
L 338.574092 289.874535 
L 338.698912 292.699024 
L 339.073369 287.790607 
L 339.198188 292.13951 
L 339.572645 290.213453 
L 339.697465 290.539983 
L 339.822284 289.160883 
L 339.947103 291.747911 
L 340.071922 288.848443 
L 340.196741 290.534845 
L 340.32156 289.937763 
L 340.446379 291.425788 
L 340.571198 289.557325 
L 340.696018 290.239792 
L 340.820837 288.878456 
L 340.945656 290.117312 
L 341.070475 288.447778 
L 341.195294 291.319958 
L 341.320113 291.268488 
L 341.444932 291.387182 
L 341.569751 291.126912 
L 341.694571 290.227895 
L 341.81939 292.623254 
L 341.944209 288.126617 
L 342.069028 290.720961 
L 342.318666 288.339072 
L 342.443485 290.872049 
L 342.568304 286.320511 
L 342.693124 289.064856 
L 342.817943 288.595823 
L 342.942762 289.176594 
L 343.067581 288.477594 
L 343.317219 292.06295 
L 343.442038 289.54248 
L 343.566858 291.16135 
L 343.816496 289.909927 
L 343.941315 293.728553 
L 344.066134 293.371821 
L 344.190953 290.211823 
L 344.440591 291.145272 
L 344.565411 290.095996 
L 344.69023 287.508016 
L 344.815049 289.807964 
L 344.939868 283.673938 
L 345.064687 285.917284 
L 345.189506 284.262617 
L 345.314325 289.114395 
L 345.439144 289.177595 
L 345.563964 292.411839 
L 345.688783 292.737167 
L 345.813602 291.120181 
L 345.938421 291.776489 
L 346.06324 289.397848 
L 346.312878 292.434968 
L 346.437697 289.000078 
L 346.562517 291.579619 
L 346.687336 289.897784 
L 346.812155 291.968103 
L 346.936974 291.188845 
L 347.061793 291.711258 
L 347.311431 291.308564 
L 347.43625 287.052982 
L 347.56107 289.671819 
L 347.685889 289.348844 
L 347.810708 286.520971 
L 347.935527 287.17253 
L 348.060346 292.891391 
L 348.185165 292.891939 
L 348.434803 290.266245 
L 348.684442 292.893623 
L 348.809261 292.425118 
L 348.93408 289.114623 
L 349.058899 292.426932 
L 349.183718 291.238742 
L 349.308537 291.506056 
L 349.433356 291.114835 
L 349.558176 291.225774 
L 349.682995 285.722128 
L 349.932633 290.74293 
L 350.057452 294.087699 
L 350.182271 290.053481 
L 350.30709 290.939612 
L 350.431909 290.658953 
L 350.556729 291.915207 
L 350.681548 288.547419 
L 350.806367 292.623972 
L 351.056005 290.666496 
L 351.180824 293.314966 
L 351.305643 290.93575 
L 351.430462 291.744436 
L 351.555282 290.389213 
L 351.680101 293.279765 
L 351.80492 292.763539 
L 352.054558 289.249672 
L 352.179377 291.480716 
L 352.304196 286.142328 
L 352.429015 286.951019 
L 352.553835 289.062925 
L 352.678654 289.051855 
L 352.928292 293.089864 
L 353.053111 290.77295 
L 353.17793 291.962965 
L 353.302749 291.549743 
L 353.427568 286.291029 
L 353.552388 292.651701 
L 353.677207 285.771529 
L 353.802026 290.313714 
L 353.926845 289.924794 
L 354.051664 291.412713 
L 354.176483 291.151131 
L 354.426121 288.859424 
L 354.550941 293.369338 
L 354.67576 288.474779 
L 354.800579 288.841753 
L 355.175036 291.726006 
L 355.424674 293.278094 
L 355.799132 287.119822 
L 356.04877 293.443115 
L 356.298408 292.584905 
L 356.548047 290.573342 
L 356.672866 286.839807 
L 356.797685 291.92964 
L 356.922504 291.035797 
L 357.047323 292.970817 
L 357.296961 292.151918 
L 357.5466 291.521754 
L 357.671419 292.582268 
L 357.796238 289.800633 
L 358.045876 292.147809 
L 358.170695 291.951604 
L 358.420333 292.377287 
L 358.545153 289.779582 
L 358.794791 293.411316 
L 359.169248 289.52937 
L 359.418886 293.266715 
L 359.543706 292.326732 
L 359.668525 293.58489 
L 359.793344 287.783191 
L 359.918163 288.833147 
L 360.042982 292.848659 
L 360.167801 292.384325 
L 360.417439 288.172845 
L 360.542259 291.277683 
L 360.667078 289.409371 
L 360.791897 291.300458 
L 360.916716 294.946943 
L 361.041535 289.229754 
L 361.166354 292.67357 
L 361.291173 291.463611 
L 361.415992 286.236614 
L 361.540812 291.530549 
L 361.665631 291.427577 
L 361.79045 290.196567 
L 361.915269 290.2794 
L 362.040088 290.588997 
L 362.164907 293.290597 
L 362.289726 292.296789 
L 362.414545 293.539927 
L 362.539365 292.621787 
L 362.789003 290.378636 
L 362.913822 289.405603 
L 363.038641 293.806698 
L 363.16346 291.49161 
L 363.288279 291.251308 
L 363.413098 288.250013 
L 363.537918 288.411917 
L 363.662737 294.188634 
L 363.912375 289.973736 
L 364.037194 293.76187 
L 364.411651 288.740787 
L 364.66129 293.086285 
L 364.786109 293.045539 
L 364.910928 292.669653 
L 365.035747 291.332374 
L 365.160566 288.425827 
L 365.285385 293.783877 
L 365.410204 290.064924 
L 365.535024 293.102561 
L 365.659843 291.520163 
L 365.909481 293.642503 
L 366.159119 291.82894 
L 366.283938 292.889035 
L 366.408757 291.117825 
L 366.533577 294.262746 
L 366.908034 287.821719 
L 367.032853 289.502761 
L 367.157672 289.116147 
L 367.282491 287.337718 
L 367.40731 293.639899 
L 367.53213 291.034108 
L 367.781768 293.365646 
L 367.906587 292.641532 
L 368.031406 294.136442 
L 368.156225 291.513992 
L 368.281044 292.122863 
L 368.405863 293.514144 
L 368.530683 290.324575 
L 368.655502 291.823413 
L 368.780321 291.955841 
L 368.90514 292.446762 
L 369.029959 287.910406 
L 369.154778 293.079003 
L 369.279597 291.409514 
L 369.404416 292.649167 
L 369.529236 290.818913 
L 369.654055 291.962302 
L 369.778874 291.804324 
L 369.903693 293.133968 
L 370.028512 289.994825 
L 370.27815 290.864975 
L 370.402969 291.011792 
L 370.527789 294.04515 
L 370.652608 290.900862 
L 370.902246 292.471533 
L 371.027065 291.824572 
L 371.151884 293.185775 
L 371.276703 292.863323 
L 371.526342 289.30491 
L 371.651161 291.045178 
L 371.900799 289.873403 
L 372.025618 293.218168 
L 372.150437 292.606891 
L 372.400075 294.512338 
L 372.649714 289.911879 
L 372.774533 290.070865 
L 372.899352 293.422807 
L 373.024171 292.053364 
L 373.14899 294.339126 
L 373.273809 290.588601 
L 373.398628 290.404343 
L 373.523448 289.283012 
L 373.648267 290.218682 
L 373.773086 292.065402 
L 373.897905 291.365142 
L 374.022724 288.265619 
L 374.147543 289.718282 
L 374.272362 293.600545 
L 374.397182 293.383416 
L 374.522001 294.303979 
L 374.771639 292.515485 
L 374.896458 293.796007 
L 375.146096 291.772223 
L 375.395735 289.977353 
L 375.520554 293.000425 
L 375.645373 288.311236 
L 375.770192 293.001624 
L 376.269468 290.410773 
L 376.519107 293.247112 
L 376.643926 290.153397 
L 376.893564 293.656789 
L 377.018383 292.980965 
L 377.143202 290.054171 
L 377.392841 292.827059 
L 377.51766 288.523789 
L 377.767298 293.248266 
L 377.892117 290.841379 
L 378.141755 292.869452 
L 378.266574 291.559007 
L 378.391394 288.919098 
L 378.516213 290.892188 
L 378.641032 290.200348 
L 378.765851 294.282353 
L 379.140308 290.552848 
L 379.265127 292.206481 
L 379.639585 290.207981 
L 379.764404 293.218365 
L 379.889223 290.94045 
L 380.014042 291.847534 
L 380.138861 290.215716 
L 380.26368 294.345281 
L 380.3885 294.430695 
L 380.513319 293.913564 
L 380.638138 293.90885 
L 380.762957 293.504775 
L 380.887776 293.496448 
L 381.012595 293.954602 
L 381.137414 290.641486 
L 381.387053 293.390442 
L 381.511872 292.485919 
L 381.636691 290.664845 
L 381.76151 292.218864 
L 381.886329 291.913384 
L 382.011148 290.923018 
L 382.135967 293.457655 
L 382.260786 293.545263 
L 382.385606 293.032351 
L 382.510425 294.311248 
L 382.760063 292.642273 
L 382.884882 290.065225 
L 383.009701 291.166114 
L 383.13452 293.740929 
L 383.259339 289.37678 
L 383.384159 290.380965 
L 383.508978 289.78836 
L 383.633797 293.214699 
L 383.883435 289.367489 
L 384.008254 287.800849 
L 384.133073 292.170446 
L 384.257892 291.985475 
L 384.382712 287.861934 
L 384.63235 292.284676 
L 384.757169 292.32626 
L 384.881988 287.510552 
L 385.006807 287.396868 
L 385.256445 294.121421 
L 385.381265 291.110437 
L 385.506084 294.273325 
L 385.630903 293.530412 
L 385.880541 291.256174 
L 386.00536 294.557746 
L 386.130179 292.868857 
L 386.254998 293.163895 
L 386.379818 289.630751 
L 386.504637 291.268513 
L 386.629456 294.642455 
L 386.879094 292.002444 
L 387.003913 293.886504 
L 387.253551 288.703839 
L 387.50319 292.182678 
L 387.628009 289.653146 
L 387.752828 294.245144 
L 387.877647 292.622726 
L 388.002466 293.876883 
L 388.127285 292.09369 
L 388.252104 293.325688 
L 388.376924 292.769303 
L 388.501743 287.278155 
L 388.626562 292.493179 
L 388.751381 292.825436 
L 388.8762 292.248469 
L 389.001019 293.913009 
L 389.125838 289.910246 
L 389.375477 294.594076 
L 389.500296 292.413993 
L 389.749934 293.095081 
L 389.874753 295.448044 
L 389.999572 294.03839 
L 390.124391 294.074093 
L 390.37403 289.943745 
L 390.623668 293.221095 
L 390.748487 291.193268 
L 390.998125 293.500755 
L 391.122944 289.052208 
L 391.247763 289.878186 
L 391.497402 288.662446 
L 391.622221 292.197947 
L 391.74704 291.316961 
L 391.996678 294.310612 
L 392.121497 294.385807 
L 392.246316 292.705283 
L 392.371136 293.086328 
L 392.495955 292.622331 
L 392.620774 289.544073 
L 392.870412 293.130499 
L 392.995231 294.043835 
L 393.12005 293.138981 
L 393.244869 293.756855 
L 393.494508 290.568747 
L 393.619327 288.936246 
L 393.744146 292.087912 
L 393.868965 290.231266 
L 393.993784 293.987471 
L 394.118603 293.886681 
L 394.243422 292.74217 
L 394.368242 292.646489 
L 394.61788 290.7874 
L 394.867518 292.873651 
L 394.992337 292.952456 
L 395.117156 289.774726 
L 395.241975 293.043623 
L 395.366795 291.567255 
L 395.491614 293.161886 
L 395.616433 292.515257 
L 395.866071 293.535066 
L 395.99089 287.073831 
L 396.115709 294.870906 
L 396.240528 295.488 
L 396.365348 293.727675 
L 396.490167 294.330784 
L 396.739805 292.5733 
L 396.864624 292.276827 
L 396.989443 294.264411 
L 397.239081 291.955955 
L 397.363901 294.850936 
L 397.48872 290.670428 
L 397.738358 294.271773 
L 398.112815 290.279201 
L 398.237634 293.300303 
L 398.362454 291.241812 
L 398.487273 291.41559 
L 398.487273 291.41559 
" clip-path="url(#p41572c955b)" style="fill: none; stroke: #1f77b4; stroke-opacity: 0.7; stroke-width: 1.5; stroke-linecap: square"/>
   </g>
   <g id="line2d_14">
    <path d="M 57.6 292.491045 
L 414.72 292.491045 
" clip-path="url(#p41572c955b)" style="fill: none; stroke: #000000; stroke-width: 1.5; stroke-linecap: square"/>
   </g>
   <g id="patch_3">
    <path d="M 57.6 307.584 
L 57.6 41.472 
" style="fill: none; stroke: #000000; stroke-width: 0.8; stroke-linejoin: miter; stroke-linecap: square"/>
   </g>
   <g id="patch_4">
    <path d="M 57.6 307.584 
L 414.72 307.584 
" style="fill: none; stroke: #000000; stroke-width: 0.8; stroke-linejoin: miter; stroke-linecap: square"/>
   </g>
   <g id="legend_1">
    <g id="patch_5">
     <path d="M 230.20125 109.475125 
L 407.72 109.475125 
Q 409.72 109.475125 409.72 107.475125 
L 409.72 48.472 
Q 409.72 46.472 407.72 46.472 
L 230.20125 46.472 
Q 228.20125 46.472 228.20125 48.472 
L 228.20125 107.475125 
Q 228.20125 109.475125 230.20125 109.475125 
z
" style="fill: #ffffff; opacity: 0.8; stroke: #cccccc; stroke-linejoin: miter"/>
    </g>
    <g id="line2d_15">
     <path d="M 232.20125 54.570438 
L 242.20125 54.570438 
L 252.20125 54.570438 
" style="fill: none; stroke: #1f77b4; stroke-opacity: 0.7; stroke-width: 1.5; stroke-linecap: square"/>
    </g>
    <g id="text_15">
     <!-- Loss per batch -->
     <g transform="translate(260.20125 58.070438) scale(0.1 -0.1)">
      <defs>
       <path id="DejaVuSans-53" d="M 1159 525 
L 1159 -1331 
L 581 -1331 
L 581 3500 
L 1159 3500 
L 1159 2969 
Q 1341 3281 1617 3432 
Q 1894 3584 2278 3584 
Q 2916 3584 3314 3078 
Q 3713 2572 3713 1747 
Q 3713 922 3314 415 
Q 2916 -91 2278 -91 
Q 1894 -91 1617 61 
Q 1341 213 1159 525 
z
M 3116 1747 
Q 3116 2381 2855 2742 
Q 2594 3103 2138 3103 
Q 1681 3103 1420 2742 
Q 1159 2381 1159 1747 
Q 1159 1113 1420 752 
Q 1681 391 2138 391 
Q 2594 391 2855 752 
Q 3116 1113 3116 1747 
z
" transform="scale(0.015625)"/>
       <path id="DejaVuSans-55" d="M 2631 2963 
Q 2534 3019 2420 3045 
Q 2306 3072 2169 3072 
Q 1681 3072 1420 2755 
Q 1159 2438 1159 1844 
L 1159 0 
L 581 0 
L 581 3500 
L 1159 3500 
L 1159 2956 
Q 1341 3275 1631 3429 
Q 1922 3584 2338 3584 
Q 2397 3584 2469 3576 
Q 2541 3569 2628 3553 
L 2631 2963 
z
" transform="scale(0.015625)"/>
      </defs>
      <use xlink:href="#DejaVuSans-2f"/>
      <use xlink:href="#DejaVuSans-52" transform="translate(53.96875 0)"/>
      <use xlink:href="#DejaVuSans-56" transform="translate(115.15625 0)"/>
      <use xlink:href="#DejaVuSans-56" transform="translate(167.25 0)"/>
      <use xlink:href="#DejaVuSans-3" transform="translate(219.34375 0)"/>
      <use xlink:href="#DejaVuSans-53" transform="translate(251.125 0)"/>
      <use xlink:href="#DejaVuSans-48" transform="translate(314.609375 0)"/>
      <use xlink:href="#DejaVuSans-55" transform="translate(376.140625 0)"/>
      <use xlink:href="#DejaVuSans-3" transform="translate(417.25 0)"/>
      <use xlink:href="#DejaVuSans-45" transform="translate(449.03125 0)"/>
      <use xlink:href="#DejaVuSans-44" transform="translate(512.515625 0)"/>
      <use xlink:href="#DejaVuSans-57" transform="translate(573.796875 0)"/>
      <use xlink:href="#DejaVuSans-46" transform="translate(613 0)"/>
      <use xlink:href="#DejaVuSans-4b" transform="translate(667.984375 0)"/>
     </g>
    </g>
    <g id="PathCollection_2">
     <g>
      <use xlink:href="#mc916294869" x="242.20125" y="70.446219" style="fill: #1f77b4; stroke: #1f77b4"/>
     </g>
    </g>
    <g id="text_16">
     <!-- Loss at training start -->
     <g transform="translate(260.20125 73.071219) scale(0.1 -0.1)">
      <use xlink:href="#DejaVuSans-2f"/>
      <use xlink:href="#DejaVuSans-52" transform="translate(53.96875 0)"/>
      <use xlink:href="#DejaVuSans-56" transform="translate(115.15625 0)"/>
      <use xlink:href="#DejaVuSans-56" transform="translate(167.25 0)"/>
      <use xlink:href="#DejaVuSans-3" transform="translate(219.34375 0)"/>
      <use xlink:href="#DejaVuSans-44" transform="translate(251.125 0)"/>
      <use xlink:href="#DejaVuSans-57" transform="translate(312.40625 0)"/>
      <use xlink:href="#DejaVuSans-3" transform="translate(351.609375 0)"/>
      <use xlink:href="#DejaVuSans-57" transform="translate(383.390625 0)"/>
      <use xlink:href="#DejaVuSans-55" transform="translate(422.59375 0)"/>
      <use xlink:href="#DejaVuSans-44" transform="translate(463.703125 0)"/>
      <use xlink:href="#DejaVuSans-4c" transform="translate(524.984375 0)"/>
      <use xlink:href="#DejaVuSans-51" transform="translate(552.765625 0)"/>
      <use xlink:href="#DejaVuSans-4c" transform="translate(616.140625 0)"/>
      <use xlink:href="#DejaVuSans-51" transform="translate(643.921875 0)"/>
      <use xlink:href="#DejaVuSans-4a" transform="translate(707.296875 0)"/>
      <use xlink:href="#DejaVuSans-3" transform="translate(770.78125 0)"/>
      <use xlink:href="#DejaVuSans-56" transform="translate(802.5625 0)"/>
      <use xlink:href="#DejaVuSans-57" transform="translate(854.65625 0)"/>
      <use xlink:href="#DejaVuSans-44" transform="translate(893.859375 0)"/>
      <use xlink:href="#DejaVuSans-55" transform="translate(955.140625 0)"/>
      <use xlink:href="#DejaVuSans-57" transform="translate(996.25 0)"/>
     </g>
    </g>
    <g id="PathCollection_3">
     <defs>
      <path id="mcc5f9d6827" d="M 0 3 
C 0.795609 3 1.55874 2.683901 2.12132 2.12132 
C 2.683901 1.55874 3 0.795609 3 0 
C 3 -0.795609 2.683901 -1.55874 2.12132 -2.12132 
C 1.55874 -2.683901 0.795609 -3 0 -3 
C -0.795609 -3 -1.55874 -2.683901 -2.12132 -2.12132 
C -2.683901 -1.55874 -3 -0.795609 -3 0 
C -3 0.795609 -2.683901 1.55874 -2.12132 2.12132 
C -1.55874 2.683901 -0.795609 3 0 3 
z
" style="stroke: #ff7f0e"/>
     </defs>
     <g>
      <use xlink:href="#mcc5f9d6827" x="242.20125" y="85.447" style="fill: #ff7f0e; stroke: #ff7f0e"/>
     </g>
    </g>
    <g id="text_17">
     <!-- Loss at pass boundaries -->
     <g transform="translate(260.20125 88.072) scale(0.1 -0.1)">
      <use xlink:href="#DejaVuSans-2f"/>
      <use xlink:href="#DejaVuSans-52" transform="translate(53.96875 0)"/>
      <use xlink:href="#DejaVuSans-56" transform="translate(115.15625 0)"/>
      <use xlink:href="#DejaVuSans-56" transform="translate(167.25 0)"/>
      <use xlink:href="#DejaVuSans-3" transform="translate(219.34375 0)"/>
      <use xlink:href="#DejaVuSans-44" transform="translate(251.125 0)"/>
      <use xlink:href="#DejaVuSans-57" transform="translate(312.40625 0)"/>
      <use xlink:href="#DejaVuSans-3" transform="translate(351.609375 0)"/>
      <use xlink:href="#DejaVuSans-53" transform="translate(383.390625 0)"/>
      <use xlink:href="#DejaVuSans-44" transform="translate(446.875 0)"/>
      <use xlink:href="#DejaVuSans-56" transform="translate(508.15625 0)"/>
      <use xlink:href="#DejaVuSans-56" transform="translate(560.25 0)"/>
      <use xlink:href="#DejaVuSans-3" transform="translate(612.34375 0)"/>
      <use xlink:href="#DejaVuSans-45" transform="translate(644.125 0)"/>
      <use xlink:href="#DejaVuSans-52" transform="translate(707.609375 0)"/>
      <use xlink:href="#DejaVuSans-58" transform="translate(768.796875 0)"/>
      <use xlink:href="#DejaVuSans-51" transform="translate(832.171875 0)"/>
      <use xlink:href="#DejaVuSans-47" transform="translate(895.546875 0)"/>
      <use xlink:href="#DejaVuSans-44" transform="translate(959.03125 0)"/>
      <use xlink:href="#DejaVuSans-55" transform="translate(1020.3125 0)"/>
      <use xlink:href="#DejaVuSans-4c" transform="translate(1061.421875 0)"/>
      <use xlink:href="#DejaVuSans-48" transform="translate(1089.203125 0)"/>
      <use xlink:href="#DejaVuSans-56" transform="translate(1150.734375 0)"/>
     </g>
    </g>
    <g id="line2d_16">
     <path d="M 232.20125 99.572781 
L 242.20125 99.572781 
L 252.20125 99.572781 
" style="fill: none; stroke: #000000; stroke-width: 1.5; stroke-linecap: square"/>
    </g>
    <g id="text_18">
     <!-- Early-stopping reference loss -->
     <g transform="translate(260.20125 103.072781) scale(0.1 -0.1)">
      <defs>
       <path id="DejaVuSans-28" d="M 628 4666 
L 3578 4666 
L 3578 4134 
L 1259 4134 
L 1259 2753 
L 3481 2753 
L 3481 2222 
L 1259 2222 
L 1259 531 
L 3634 531 
L 3634 0 
L 628 0 
L 628 4666 
z
" transform="scale(0.015625)"/>
       <path id="DejaVuSans-5c" d="M 2059 -325 
Q 1816 -950 1584 -1140 
Q 1353 -1331 966 -1331 
L 506 -1331 
L 506 -850 
L 844 -850 
Q 1081 -850 1212 -737 
Q 1344 -625 1503 -206 
L 1606 56 
L 191 3500 
L 800 3500 
L 1894 763 
L 2988 3500 
L 3597 3500 
L 2059 -325 
z
" transform="scale(0.015625)"/>
       <path id="DejaVuSans-10" d="M 313 2009 
L 1997 2009 
L 1997 1497 
L 313 1497 
L 313 2009 
z
" transform="scale(0.015625)"/>
       <path id="DejaVuSans-49" d="M 2375 4863 
L 2375 4384 
L 1825 4384 
Q 1516 4384 1395 4259 
Q 1275 4134 1275 3809 
L 1275 3500 
L 2222 3500 
L 2222 3053 
L 1275 3053 
L 1275 0 
L 697 0 
L 697 3053 
L 147 3053 
L 147 3500 
L 697 3500 
L 697 3744 
Q 697 4328 969 4595 
Q 1241 4863 1831 4863 
L 2375 4863 
z
" transform="scale(0.015625)"/>
      </defs>
      <use xlink:href="#DejaVuSans-28"/>
      <use xlink:href="#DejaVuSans-44" transform="translate(63.1875 0)"/>
      <use xlink:href="#DejaVuSans-55" transform="translate(124.46875 0)"/>
      <use xlink:href="#DejaVuSans-4f" transform="translate(165.578125 0)"/>
      <use xlink:href="#DejaVuSans-5c" transform="translate(193.359375 0)"/>
      <use xlink:href="#DejaVuSans-10" transform="translate(250.796875 0)"/>
      <use xlink:href="#DejaVuSans-56" transform="translate(286.875 0)"/>
      <use xlink:href="#DejaVuSans-57" transform="translate(338.96875 0)"/>
      <use xlink:href="#DejaVuSans-52" transform="translate(378.171875 0)"/>
      <use xlink:href="#DejaVuSans-53" transform="translate(439.359375 0)"/>
      <use xlink:href="#DejaVuSans-53" transform="translate(502.84375 0)"/>
      <use xlink:href="#DejaVuSans-4c" transform="translate(566.328125 0)"/>
      <use xlink:href="#DejaVuSans-51" transform="translate(594.109375 0)"/>
      <use xlink:href="#DejaVuSans-4a" transform="translate(657.484375 0)"/>
      <use xlink:href="#DejaVuSans-3" transform="translate(720.96875 0)"/>
      <use xlink:href="#DejaVuSans-55" transform="translate(752.75 0)"/>
      <use xlink:href="#DejaVuSans-48" transform="translate(791.65625 0)"/>
      <use xlink:href="#DejaVuSans-49" transform="translate(853.1875 0)"/>
      <use xlink:href="#DejaVuSans-48" transform="translate(888.390625 0)"/>
      <use xlink:href="#DejaVuSans-55" transform="translate(949.921875 0)"/>
      <use xlink:href="#DejaVuSans-48" transform="translate(988.828125 0)"/>
      <use xlink:href="#DejaVuSans-51" transform="translate(1050.359375 0)"/>
      <use xlink:href="#DejaVuSans-46" transform="translate(1113.734375 0)"/>
      <use xlink:href="#DejaVuSans-48" transform="translate(1168.71875 0)"/>
      <use xlink:href="#DejaVuSans-3" transform="translate(1230.25 0)"/>
      <use xlink:href="#DejaVuSans-4f" transform="translate(1262.03125 0)"/>
      <use xlink:href="#DejaVuSans-52" transform="translate(1289.8125 0)"/>
      <use xlink:href="#DejaVuSans-56" transform="translate(1351 0)"/>
      <use xlink:href="#DejaVuSans-56" transform="translate(1403.09375 0)"/>
     </g>
    </g>
   </g>
   <g id="PathCollection_4">
    <g clip-path="url(#p41572c955b)">
     <use xlink:href="#mcc5f9d6827" x="86.31464" y="130.838778" style="fill: #ff7f0e; stroke: #ff7f0e"/>
     <use xlink:href="#mcc5f9d6827" x="98.796552" y="173.379976" style="fill: #ff7f0e; stroke: #ff7f0e"/>
     <use xlink:href="#mcc5f9d6827" x="111.278465" y="200.888669" style="fill: #ff7f0e; stroke: #ff7f0e"/>
     <use xlink:href="#mcc5f9d6827" x="123.760377" y="220.401784" style="fill: #ff7f0e; stroke: #ff7f0e"/>
     <use xlink:href="#mcc5f9d6827" x="136.24229" y="234.011165" style="fill: #ff7f0e; stroke: #ff7f0e"/>
     <use xlink:href="#mcc5f9d6827" x="148.724203" y="244.510724" style="fill: #ff7f0e; stroke: #ff7f0e"/>
     <use xlink:href="#mcc5f9d6827" x="161.206115" y="254.97504" style="fill: #ff7f0e; stroke: #ff7f0e"/>
     <use xlink:href="#mcc5f9d6827" x="173.688028" y="260.841067" style="fill: #ff7f0e; stroke: #ff7f0e"/>
     <use xlink:href="#mcc5f9d6827" x="186.16994" y="266.762681" style="fill: #ff7f0e; stroke: #ff7f0e"/>
     <use xlink:href="#mcc5f9d6827" x="211.258584" y="274.535017" style="fill: #ff7f0e; stroke: #ff7f0e"/>
     <use xlink:href="#mcc5f9d6827" x="223.740497" y="276.770418" style="fill: #ff7f0e; stroke: #ff7f0e"/>
     <use xlink:href="#mcc5f9d6827" x="236.22241" y="280.466961" style="fill: #ff7f0e; stroke: #ff7f0e"/>
     <use xlink:href="#mcc5f9d6827" x="248.704322" y="281.986983" style="fill: #ff7f0e; stroke: #ff7f0e"/>
     <use xlink:href="#mcc5f9d6827" x="261.186235" y="281.023663" style="fill: #ff7f0e; stroke: #ff7f0e"/>
     <use xlink:href="#mcc5f9d6827" x="273.668147" y="285.928283" style="fill: #ff7f0e; stroke: #ff7f0e"/>
     <use xlink:href="#mcc5f9d6827" x="286.15006" y="284.650178" style="fill: #ff7f0e; stroke: #ff7f0e"/>
     <use xlink:href="#mcc5f9d6827" x="298.631972" y="289.013493" style="fill: #ff7f0e; stroke: #ff7f0e"/>
     <use xlink:href="#mcc5f9d6827" x="311.113885" y="283.363148" style="fill: #ff7f0e; stroke: #ff7f0e"/>
     <use xlink:href="#mcc5f9d6827" x="323.595797" y="287.82204" style="fill: #ff7f0e; stroke: #ff7f0e"/>
     <use xlink:href="#mcc5f9d6827" x="336.07771" y="292.491045" style="fill: #ff7f0e; stroke: #ff7f0e"/>
     <use xlink:href="#mcc5f9d6827" x="348.559623" y="291.773866" style="fill: #ff7f0e; stroke: #ff7f0e"/>
     <use xlink:href="#mcc5f9d6827" x="361.041535" y="289.229754" style="fill: #ff7f0e; stroke: #ff7f0e"/>
     <use xlink:href="#mcc5f9d6827" x="373.523448" y="289.283012" style="fill: #ff7f0e; stroke: #ff7f0e"/>
     <use xlink:href="#mcc5f9d6827" x="386.00536" y="294.557746" style="fill: #ff7f0e; stroke: #ff7f0e"/>
    </g>
   </g>
  </g>
 </g>
 <defs>
  <clipPath id="p41572c955b">
   <rect x="57.6" y="41.472" width="357.12" height="266.112"/>
  </clipPath>
 </defs>
</svg>
