<?xml version="1.0" encoding="utf-8" standalone="no"?>
<!DOCTYPE svg PUBLIC "-//W3C//DTD SVG 1.1//EN"
  "http://www.w3.org/Graphics/SVG/1.1/DTD/svg11.dtd">
<svg xmlns:xlink="http://www.w3.org/1999/xlink" width="460.8pt" height="345.6pt" viewBox="0 0 460.8 345.6" xmlns="http://www.w3.org/2000/svg" version="1.1">
 <metadata>
  <rdf:RDF xmlns:dc="http://purl.org/dc/elements/1.1/" xmlns:cc="http://creativecommons.org/ns#" xmlns:rdf="http://www.w3.org/1999/02/22-rdf-syntax-ns#">
   <cc:Work>
    <dc:type rdf:resource="http://purl.org/dc/dcmitype/StillImage"/>
    <dc:date>2026-09-15T18:45:14.954838</dc:date>
    <dc:format>image/svg+xml</dc:format>
    <dc:creator>
     <cc:Agent>
      <dc:title>Matplotlib v3.11.2, https://matplotlib.org/</dc:title>
     </cc:Agent>
    </dc:creator>
   </cc:Work>
  </rdf:RDF>
 </metadata>
 <defs>
  <style type="text/css">*{stroke-linejoin: round; stroke-linecap: butt}</style>
 </defs>
 <g id="figure_1">
  <g id="patch_1">
   <path d="M 0 345.6 
L 460.8 345.6 
L 460.8 0 
L 0 0 
z
" style="fill: #ffffff"/>
  </g>
  <g id="axes_1">
   <g id="patch_2">
    <path d="M 57.6 307.584 
L 414.72 307.584 
L 414.72 41.472 
L 57.6 41.472 
z
" style="fill: #ffffff"/>
   </g>
   <g id="PathCollection_1">
    <defs>
     <path id="ma1718e2365" d="M 0 3 
C 0.795609 3 1.55874 2.683901 2.12132 2.12132 
C 2.683901 1.55874 3 0.795609 3 0 
C 3 -0.795609 2.683901 -1.55874 2.12132 -2.12132 
C 1.55874 -2.683901 0.795609 -3 0 -3 
C -0.795609 -3 -1.55874 -2.683901 -2.12132 -2.12132 
C -2.683901 -1.55874 -3 -0.795609 -3 0 
C -3 0.795609 -2.683901 1.55874 -2.12132 2.12132 
C -1.55874 2.683901 -0.795609 3 0 3 
z
" style="stroke: #1f77b4"/>
    </defs>
    <g clip-path="url(#pdecda6b3a0)">
     <use xlink:href="#ma1718e2365" x="73.832727" y="53.568" style="fill: #1f77b4; stroke: #1f77b4"/>
     <use xlink:href="#ma1718e2365" x="221.483431" y="273.371202" style="fill: #1f77b4; stroke: #1f77b4"/>
    </g>
   </g>
   <g id="matplotlib.axis_1">
    <g id="xtick_1">
     <g id="line2d_1">
      <defs>
       <path id="m8474c6381d" d="M 0 0 
L 0 3.5 
" style="stroke: #000000; stroke-width: 0.8"/>
      </defs>
      <g>
       <use xlink:href="#m8474c6381d" x="73.832727" y="307.584" style="stroke: #000000; stroke-width: 0.8"/>
      </g>
     </g>
     <g id="text_1">
      <!-- 0 -->
      <g transform="translate(70.651477 322.181656) scale(0.1 -0.1)">
       <defs>
        <path id="DejaVuSans-13" d="M 2034 4250 
Q 1547 4250 1301 3770 
Q 1056 3291 1056 2328 
Q 1056 1369 1301 889 
Q 1547 409 2034 409 
Q 2525 409 2770 889 
Q 3016 1369 3016 2328 
Q 3016 3291 2770 3770 
Q 2525 4250 2034 4250 
z
M 2034 4750 
Q 2819 4750 3233 4129 
Q 3647 3509 3647 2328 
Q 3647 1150 3233 529 
Q 2819 -91 2034 -91 
Q 1250 -91 836 529 
Q 422 1150 422 2328 
Q 422 3509 836 4129 
Q 1250 4750 2034 4750 
z
" transform="scale(0.015625)"/>
       </defs>
       <use xlink:href="#DejaVuSans-13"/>
      </g>
     </g>
    </g>
    <g id="xtick_2">
     <g id="line2d_2">
      <g>
       <use xlink:href="#m8474c6381d" x="147.584328" y="307.584" style="stroke: #000000; stroke-width: 0.8"/>
      </g>
     </g>
     <g id="text_2">
      <!-- 500 -->
      <g transform="translate(138.040578 322.181656) scale(0.1 -0.1)">
       <defs>
        <path id="DejaVuSans-18" d="M 691 4666 
L 3169 4666 
L 3169 4134 
L 1269 4134 
L 1269 2991 
Q 1406 3038 1543 3061 
Q 1681 3084 1819 3084 
Q 2600 3084 3056 2656 
Q 3513 2228 3513 1497 
Q 3513 744 3044 326 
Q 2575 -91 1722 -91 
Q 1428 -91 1123 -41 
Q 819 9 494 109 
L 494 744 
Q 775 591 1075 516 
Q 1375 441 1709 441 
Q 2250 441 2565 725 
Q 2881 1009 2881 1497 
Q 2881 1984 2565 2268 
Q 2250 2553 1709 2553 
Q 1456 2553 1204 2497 
Q 953 2441 691 2322 
L 691 4666 
z
" transform="scale(0.015625)"/>
       </defs>
       <use xlink:href="#DejaVuSans-18"/>
       <use xlink:href="#DejaVuSans-13" transform="translate(63.625 0)"/>
       <use xlink:href="#DejaVuSans-13" transform="translate(127.25 0)"/>
      </g>
     </g>
    </g>
    <g id="xtick_3">
     <g id="line2d_3">
      <g>
       <use xlink:href="#m8474c6381d" x="221.335928" y="307.584" style="stroke: #000000; stroke-width: 0.8"/>
      </g>
     </g>
     <g id="text_3">
      <!-- 1000 -->
      <g transform="translate(208.610928 322.181656) scale(0.1 -0.1)">
       <defs>
        <path id="DejaVuSans-14" d="M 794 531 
L 1825 531 
L 1825 4091 
L 703 3866 
L 703 4441 
L 1819 4666 
L 2450 4666 
L 2450 531 
L 3481 531 
L 3481 0 
L 794 0 
L 794 531 
z
" transform="scale(0.015625)"/>
       </defs>
       <use xlink:href="#DejaVuSans-14"/>
       <use xlink:href="#DejaVuSans-13" transform="translate(63.625 0)"/>
       <use xlink:href="#DejaVuSans-13" transform="translate(127.25 0)"/>
       <use xlink:href="#DejaVuSans-13" transform="translate(190.875 0)"/>
      </g>
     </g>
    </g>
    <g id="xtick_4">
     <g id="line2d_4">
      <g>
       <use xlink:href="#m8474c6381d" x="295.087529" y="307.584" style="stroke: #000000; stroke-width: 0.8"/>
      </g>
     </g>
     <g id="text_4">
      <!-- 1500 -->
      <g transform="translate(282.362529 322.181656) scale(0.1 -0.1)">
       <use xlink:href="#DejaVuSans-14"/>
       <use xlink:href="#DejaVuSans-18" transform="translate(63.625 0)"/>
       <use xlink:href="#DejaVuSans-13" transform="translate(127.25 0)"/>
       <use xlink:href="#DejaVuSans-13" transform="translate(190.875 0)"/>
      </g>
     </g>
    </g>
    <g id="xtick_5">
     <g id="line2d_5">
      <g>
       <use xlink:href="#m8474c6381d" x="368.839129" y="307.584" style="stroke: #000000; stroke-width: 0.8"/>
      </g>
     </g>
     <g id="text_5">
      <!-- 2000 -->
      <g transform="translate(356.114129 322.181656) scale(0.1 -0.1)">
       <defs>
        <path id="DejaVuSans-15" d="M 1228 531 
L 3431 531 
L 3431 0 
L 469 0 
L 469 531 
Q 828 903 1448 1529 
Q 2069 2156 2228 2338 
Q 2531 2678 2651 2914 
Q 2772 3150 2772 3378 
Q 2772 3750 2511 3984 
Q 2250 4219 1831 4219 
Q 1534 4219 1204 4116 
Q 875 4013 500 3803 
L 500 4441 
Q 881 4594 1212 4672 
Q 1544 4750 1819 4750 
Q 2544 4750 2975 4387 
Q 3406 4025 3406 3419 
Q 3406 3131 3298 2873 
Q 3191 2616 2906 2266 
Q 2828 2175 2409 1742 
Q 1991 1309 1228 531 
z
" transform="scale(0.015625)"/>
       </defs>
       <use xlink:href="#DejaVuSans-15"/>
       <use xlink:href="#DejaVuSans-13" transform="translate(63.625 0)"/>
       <use xlink:href="#DejaVuSans-13" transform="translate(127.25 0)"/>
       <use xlink:href="#DejaVuSans-13" transform="translate(190.875 0)"/>
      </g>
     </g>
    </g>
    <g id="text_6">
     <!-- Log index (~batch index) -->
     <g transform="translate(172.892031 336.182437) scale(0.1 -0.1)">
      <defs>
       <path id="DejaVuSans-2f" d="M 628 4666 
L 1259 4666 
L 1259 531 
L 3531 531 
L 3531 0 
L 628 0 
L 628 4666 
z
" transform="scale(0.015625)"/>
       <path id="DejaVuSans-52" d="M 1959 3097 
Q 1497 3097 1228 2736 
Q 959 2375 959 1747 
Q 959 1119 1226 758 
Q 1494 397 1959 397 
Q 2419 397 2687 759 
Q 2956 1122 2956 1747 
Q 2956 2369 2687 2733 
Q 2419 3097 1959 3097 
z
M 1959 3584 
Q 2709 3584 3137 3096 
Q 3566 2609 3566 1747 
Q 3566 888 3137 398 
Q 2709 -91 1959 -91 
Q 1206 -91 779 398 
Q 353 888 353 1747 
Q 353 2609 779 3096 
Q 1206 3584 1959 3584 
z
" transform="scale(0.015625)"/>
       <path id="DejaVuSans-4a" d="M 2906 1791 
Q 2906 2416 2648 2759 
Q 2391 3103 1925 3103 
Q 1463 3103 1205 2759 
Q 947 2416 947 1791 
Q 947 1169 1205 825 
Q 1463 481 1925 481 
Q 2391 481 2648 825 
Q 2906 1169 2906 1791 
z
M 3481 434 
Q 3481 -459 3084 -895 
Q 2688 -1331 1869 -1331 
Q 1566 -1331 1297 -1286 
Q 1028 -1241 775 -1147 
L 775 -588 
Q 1028 -725 1275 -790 
Q 1522 -856 1778 -856 
Q 2344 -856 2625 -561 
Q 2906 -266 2906 331 
L 2906 616 
Q 2728 306 2450 153 
Q 2172 0 1784 0 
Q 1141 0 747 490 
Q 353 981 353 1791 
Q 353 2603 747 3093 
Q 1141 3584 1784 3584 
Q 2172 3584 2450 3431 
Q 2728 3278 2906 2969 
L 2906 3500 
L 3481 3500 
L 3481 434 
z
" transform="scale(0.015625)"/>
       <path id="DejaVuSans-3" transform="scale(0.015625)"/>
       <path id="DejaVuSans-4c" d="M 603 3500 
L 1178 3500 
L 1178 0 
L 603 0 
L 603 3500 
z
M 603 4863 
L 1178 4863 
L 1178 4134 
L 603 4134 
L 603 4863 
z
" transform="scale(0.015625)"/>
       <path id="DejaVuSans-51" d="M 3513 2113 
L 3513 0 
L 2938 0 
L 2938 2094 
Q 2938 2591 2744 2837 
Q 2550 3084 2163 3084 
Q 1697 3084 1428 2787 
Q 1159 2491 1159 1978 
L 1159 0 
L 581 0 
L 581 3500 
L 1159 3500 
L 1159 2956 
Q 1366 3272 1645 3428 
Q 1925 3584 2291 3584 
Q 2894 3584 3203 3211 
Q 3513 2838 3513 2113 
z
" transform="scale(0.015625)"/>
       <path id="DejaVuSans-47" d="M 2906 2969 
L 2906 4863 
L 3481 4863 
L 3481 0 
L 2906 0 
L 2906 525 
Q 2725 213 2448 61 
Q 2172 -91 1784 -91 
Q 1150 -91 751 415 
Q 353 922 353 1747 
Q 353 2572 751 3078 
Q 1150 3584 1784 3584 
Q 2172 3584 2448 3432 
Q 2725 3281 2906 2969 
z
M 947 1747 
Q 947 1113 1208 752 
Q 1469 391 1925 391 
Q 2381 391 2643 752 
Q 2906 1113 2906 1747 
Q 2906 2381 2643 2742 
Q 2381 3103 1925 3103 
Q 1469 3103 1208 2742 
Q 947 2381 947 1747 
z
" transform="scale(0.015625)"/>
       <path id="DejaVuSans-48" d="M 3597 1894 
L 3597 1613 
L 953 1613 
Q 991 1019 1311 708 
Q 1631 397 2203 397 
Q 2534 397 2845 478 
Q 3156 559 3463 722 
L 3463 178 
Q 3153 47 2828 -22 
Q 2503 -91 2169 -91 
Q 1331 -91 842 396 
Q 353 884 353 1716 
Q 353 2575 817 3079 
Q 1281 3584 2069 3584 
Q 2775 3584 3186 3129 
Q 3597 2675 3597 1894 
z
M 3022 2063 
Q 3016 2534 2758 2815 
Q 2500 3097 2075 3097 
Q 1594 3097 1305 2825 
Q 1016 2553 972 2059 
L 3022 2063 
z
" transform="scale(0.015625)"/>
       <path id="DejaVuSans-5b" d="M 3513 3500 
L 2247 1797 
L 3578 0 
L 2900 0 
L 1881 1375 
L 863 0 
L 184 0 
L 1544 1831 
L 300 3500 
L 978 3500 
L 1906 2253 
L 2834 3500 
L 3513 3500 
z
" transform="scale(0.015625)"/>
       <path id="DejaVuSans-b" d="M 1984 4856 
Q 1566 4138 1362 3434 
Q 1159 2731 1159 2009 
Q 1159 1288 1364 580 
Q 1569 -128 1984 -844 
L 1484 -844 
Q 1016 -109 783 600 
Q 550 1309 550 2009 
Q 550 2706 781 3412 
Q 1013 4119 1484 4856 
L 1984 4856 
z
" transform="scale(0.015625)"/>
       <path id="DejaVuSans-61" d="M 4684 2553 
L 4684 1997 
Q 4356 1750 4076 1644 
Q 3797 1538 3494 1538 
Q 3150 1538 2694 1722 
Q 2659 1734 2644 1741 
Q 2622 1750 2575 1766 
Q 2091 1959 1797 1959 
Q 1522 1959 1253 1839 
Q 984 1719 678 1459 
L 678 2016 
Q 1006 2263 1286 2370 
Q 1566 2478 1869 2478 
Q 2213 2478 2672 2291 
Q 2703 2278 2719 2272 
Q 2744 2263 2788 2247 
Q 3272 2053 3566 2053 
Q 3834 2053 4098 2172 
Q 4363 2291 4684 2553 
z
" transform="scale(0.015625)"/>
       <path id="DejaVuSans-45" d="M 3116 1747 
Q 3116 2381 2855 2742 
Q 2594 3103 2138 3103 
Q 1681 3103 1420 2742 
Q 1159 2381 1159 1747 
Q 1159 1113 1420 752 
Q 1681 391 2138 391 
Q 2594 391 2855 752 
Q 3116 1113 3116 1747 
z
M 1159 2969 
Q 1341 3281 1617 3432 
Q 1894 3584 2278 3584 
Q 2916 3584 3314 3078 
Q 3713 2572 3713 1747 
Q 3713 922 3314 415 
Q 2916 -91 2278 -91 
Q 1894 -91 1617 61 
Q 1341 213 1159 525 
L 1159 0 
L 581 0 
L 581 4863 
L 1159 4863 
L 1159 2969 
z
" transform="scale(0.015625)"/>
       <path id="DejaVuSans-44" d="M 2194 1759 
Q 1497 1759 1228 1600 
Q 959 1441 959 1056 
Q 959 750 1161 570 
Q 1363 391 1709 391 
Q 2188 391 2477 730 
Q 2766 1069 2766 1631 
L 2766 1759 
L 2194 1759 
z
M 3341 1997 
L 3341 0 
L 2766 0 
L 2766 531 
Q 2569 213 2275 61 
Q 1981 -91 1556 -91 
Q 1019 -91 701 211 
Q 384 513 384 1019 
Q 384 1609 779 1909 
Q 1175 2209 1959 2209 
L 2766 2209 
L 2766 2266 
Q 2766 2663 2505 2880 
Q 2244 3097 1772 3097 
Q 1472 3097 1187 3025 
Q 903 2953 641 2809 
L 641 3341 
Q 956 3463 1253 3523 
Q 1550 3584 1831 3584 
Q 2591 3584 2966 3190 
Q 3341 2797 3341 1997 
z
" transform="scale(0.015625)"/>
       <path id="DejaVuSans-57" d="M 1172 4494 
L 1172 3500 
L 2356 3500 
L 2356 3053 
L 1172 3053 
L 1172 1153 
Q 1172 725 1289 603 
Q 1406 481 1766 481 
L 2356 481 
L 2356 0 
L 1766 0 
Q 1100 0 847 248 
Q 594 497 594 1153 
L 594 3053 
L 172 3053 
L 172 3500 
L 594 3500 
L 594 4494 
L 1172 4494 
z
" transform="scale(0.015625)"/>
       <path id="DejaVuSans-46" d="M 3122 3366 
L 3122 2828 
Q 2878 2963 2633 3030 
Q 2388 3097 2138 3097 
Q 1578 3097 1268 2742 
Q 959 2388 959 1747 
Q 959 1106 1268 751 
Q 1578 397 2138 397 
Q 2388 397 2633 464 
Q 2878 531 3122 666 
L 3122 134 
Q 2881 22 2623 -34 
Q 2366 -91 2075 -91 
Q 1284 -91 818 406 
Q 353 903 353 1747 
Q 353 2603 823 3093 
Q 1294 3584 2113 3584 
Q 2378 3584 2631 3529 
Q 2884 3475 3122 3366 
z
" transform="scale(0.015625)"/>
       <path id="DejaVuSans-4b" d="M 3513 2113 
L 3513 0 
L 2938 0 
L 2938 2094 
Q 2938 2591 2744 2837 
Q 2550 3084 2163 3084 
Q 1697 3084 1428 2787 
Q 1159 2491 1159 1978 
L 1159 0 
L 581 0 
L 581 4863 
L 1159 4863 
L 1159 2956 
Q 1366 3272 1645 3428 
Q 1925 3584 2291 3584 
Q 2894 3584 3203 3211 
Q 3513 2838 3513 2113 
z
" transform="scale(0.015625)"/>
       <path id="DejaVuSans-c" d="M 513 4856 
L 1013 4856 
Q 1481 4119 1714 3412 
Q 1947 2706 1947 2009 
Q 1947 1309 1714 600 
Q 1481 -109 1013 -844 
L 513 -844 
Q 928 -128 1133 580 
Q 1338 1288 1338 2009 
Q 1338 2731 1133 3434 
Q 928 4138 513 4856 
z
" transform="scale(0.015625)"/>
      </defs>
      <use xlink:href="#DejaVuSans-2f"/>
      <use xlink:href="#DejaVuSans-52" transform="translate(53.96875 0)"/>
      <use xlink:href="#DejaVuSans-4a" transform="translate(115.15625 0)"/>
      <use xlink:href="#DejaVuSans-3" transform="translate(178.640625 0)"/>
      <use xlink:href="#DejaVuSans-4c" transform="translate(210.421875 0)"/>
      <use xlink:href="#DejaVuSans-51" transform="translate(238.203125 0)"/>
      <use xlink:href="#DejaVuSans-47" transform="translate(301.578125 0)"/>
      <use xlink:href="#DejaVuSans-48" transform="translate(365.0625 0)"/>
      <use xlink:href="#DejaVuSans-5b" transform="translate(424.84375 0)"/>
      <use xlink:href="#DejaVuSans-3" transform="translate(484.03125 0)"/>
      <use xlink:href="#DejaVuSans-b" transform="translate(515.8125 0)"/>
      <use xlink:href="#DejaVuSans-61" transform="translate(554.828125 0)"/>
      <use xlink:href="#DejaVuSans-45" transform="translate(638.625 0)"/>
      <use xlink:href="#DejaVuSans-44" transform="translate(702.109375 0)"/>
      <use xlink:href="#DejaVuSans-57" transform="translate(763.390625 0)"/>
      <use xlink:href="#DejaVuSans-46" transform="translate(802.59375 0)"/>
      <use xlink:href="#DejaVuSans-4b" transform="translate(857.578125 0)"/>
      <use xlink:href="#DejaVuSans-3" transform="translate(920.953125 0)"/>
      <use xlink:href="#DejaVuSans-4c" transform="translate(952.734375 0)"/>
      <use xlink:href="#DejaVuSans-51" transform="translate(980.515625 0)"/>
      <use xlink:href="#DejaVuSans-47" transform="translate(1043.890625 0)"/>
      <use xlink:href="#DejaVuSans-48" transform="translate(1107.375 0)"/>
      <use xlink:href="#DejaVuSans-5b" transform="translate(1167.15625 0)"/>
      <use xlink:href="#DejaVuSans-c" transform="translate(1226.34375 0)"/>
     </g>
    </g>
   </g>
   <g id="matplotlib.axis_2">
    <g id="ytick_1">
     <g id="line2d_6">
      <defs>
       <path id="m4007f6f0c8" d="M 0 0 
L -3.5 0 
" style="stroke: #000000; stroke-width: 0.8"/>
      </defs>
      <g>
       <use xlink:href="#m4007f6f0c8" x="57.6" y="304.692543" style="stroke: #000000; stroke-width: 0.8"/>
      </g>
     </g>
     <g id="text_7">
      <!-- 3.4 -->
      <g transform="translate(34.696875 308.491371) scale(0.1 -0.1)">
       <defs>
        <path id="DejaVuSans-16" d="M 2597 2516 
Q 3050 2419 3304 2112 
Q 3559 1806 3559 1356 
Q 3559 666 3084 287 
Q 2609 -91 1734 -91 
Q 1441 -91 1130 -33 
Q 819 25 488 141 
L 488 750 
Q 750 597 1062 519 
Q 1375 441 1716 441 
Q 2309 441 2620 675 
Q 2931 909 2931 1356 
Q 2931 1769 2642 2001 
Q 2353 2234 1838 2234 
L 1294 2234 
L 1294 2753 
L 1863 2753 
Q 2328 2753 2575 2939 
Q 2822 3125 2822 3475 
Q 2822 3834 2567 4026 
Q 2313 4219 1838 4219 
Q 1578 4219 1281 4162 
Q 984 4106 628 3988 
L 628 4550 
Q 988 4650 1302 4700 
Q 1616 4750 1894 4750 
Q 2613 4750 3031 4423 
Q 3450 4097 3450 3541 
Q 3450 3153 3228 2886 
Q 3006 2619 2597 2516 
z
" transform="scale(0.015625)"/>
        <path id="DejaVuSans-11" d="M 684 794 
L 1344 794 
L 1344 0 
L 684 0 
L 684 794 
z
" transform="scale(0.015625)"/>
        <path id="DejaVuSans-17" d="M 2419 4116 
L 825 1625 
L 2419 1625 
L 2419 4116 
z
M 2253 4666 
L 3047 4666 
L 3047 1625 
L 3713 1625 
L 3713 1100 
L 3047 1100 
L 3047 0 
L 2419 0 
L 2419 1100 
L 313 1100 
L 313 1709 
L 2253 4666 
z
" transform="scale(0.015625)"/>
       </defs>
       <use xlink:href="#DejaVuSans-16"/>
       <use xlink:href="#DejaVuSans-11" transform="translate(63.625 0)"/>
       <use xlink:href="#DejaVuSans-17" transform="translate(95.40625 0)"/>
      </g>
     </g>
    </g>
    <g id="ytick_2">
     <g id="line2d_7">
      <g>
       <use xlink:href="#m4007f6f0c8" x="57.6" y="253.497044" style="stroke: #000000; stroke-width: 0.8"/>
      </g>
     </g>
     <g id="text_8">
      <!-- 3.6 -->
      <g transform="translate(34.696875 257.295872) scale(0.1 -0.1)">
       <defs>
        <path id="DejaVuSans-19" d="M 2113 2584 
Q 1688 2584 1439 2293 
Q 1191 2003 1191 1497 
Q 1191 994 1439 701 
Q 1688 409 2113 409 
Q 2538 409 2786 701 
Q 3034 994 3034 1497 
Q 3034 2003 2786 2293 
Q 2538 2584 2113 2584 
z
M 3366 4563 
L 3366 3988 
Q 3128 4100 2886 4159 
Q 2644 4219 2406 4219 
Q 1781 4219 1451 3797 
Q 1122 3375 1075 2522 
Q 1259 2794 1537 2939 
Q 1816 3084 2150 3084 
Q 2853 3084 3261 2657 
Q 3669 2231 3669 1497 
Q 3669 778 3244 343 
Q 2819 -91 2113 -91 
Q 1303 -91 875 529 
Q 447 1150 447 2328 
Q 447 3434 972 4092 
Q 1497 4750 2381 4750 
Q 2619 4750 2861 4703 
Q 3103 4656 3366 4563 
z
" transform="scale(0.015625)"/>
       </defs>
       <use xlink:href="#DejaVuSans-16"/>
       <use xlink:href="#DejaVuSans-11" transform="translate(63.625 0)"/>
       <use xlink:href="#DejaVuSans-19" transform="translate(95.40625 0)"/>
      </g>
     </g>
    </g>
    <g id="ytick_3">
     <g id="line2d_8">
      <g>
       <use xlink:href="#m4007f6f0c8" x="57.6" y="202.301545" style="stroke: #000000; stroke-width: 0.8"/>
      </g>
     </g>
     <g id="text_9">
      <!-- 3.8 -->
      <g transform="translate(34.696875 206.100373) scale(0.1 -0.1)">
       <defs>
        <path id="DejaVuSans-1b" d="M 2034 2216 
Q 1584 2216 1326 1975 
Q 1069 1734 1069 1313 
Q 1069 891 1326 650 
Q 1584 409 2034 409 
Q 2484 409 2743 651 
Q 3003 894 3003 1313 
Q 3003 1734 2745 1975 
Q 2488 2216 2034 2216 
z
M 1403 2484 
Q 997 2584 770 2862 
Q 544 3141 544 3541 
Q 544 4100 942 4425 
Q 1341 4750 2034 4750 
Q 2731 4750 3128 4425 
Q 3525 4100 3525 3541 
Q 3525 3141 3298 2862 
Q 3072 2584 2669 2484 
Q 3125 2378 3379 2068 
Q 3634 1759 3634 1313 
Q 3634 634 3220 271 
Q 2806 -91 2034 -91 
Q 1263 -91 848 271 
Q 434 634 434 1313 
Q 434 1759 690 2068 
Q 947 2378 1403 2484 
z
M 1172 3481 
Q 1172 3119 1398 2916 
Q 1625 2713 2034 2713 
Q 2441 2713 2670 2916 
Q 2900 3119 2900 3481 
Q 2900 3844 2670 4047 
Q 2441 4250 2034 4250 
Q 1625 4250 1398 4047 
Q 1172 3844 1172 3481 
z
" transform="scale(0.015625)"/>
       </defs>
       <use xlink:href="#DejaVuSans-16"/>
       <use xlink:href="#DejaVuSans-11" transform="translate(63.625 0)"/>
       <use xlink:href="#DejaVuSans-1b" transform="translate(95.40625 0)"/>
      </g>
     </g>
    </g>
    <g id="ytick_4">
     <g id="line2d_9">
      <g>
       <use xlink:href="#m4007f6f0c8" x="57.6" y="151.106045" style="stroke: #000000; stroke-width: 0.8"/>
      </g>
     </g>
     <g id="text_10">
      <!-- 4.0 -->
      <g transform="translate(34.696875 154.904874) scale(0.1 -0.1)">
       <use xlink:href="#DejaVuSans-17"/>
       <use xlink:href="#DejaVuSans-11" transform="translate(63.625 0)"/>
       <use xlink:href="#DejaVuSans-13" transform="translate(95.40625 0)"/>
      </g>
     </g>
    </g>
    <g id="ytick_5">
     <g id="line2d_10">
      <g>
       <use xlink:href="#m4007f6f0c8" x="57.6" y="99.910546" style="stroke: #000000; stroke-width: 0.8"/>
      </g>
     </g>
     <g id="text_11">
      <!-- 4.2 -->
      <g transform="translate(34.696875 103.709374) scale(0.1 -0.1)">
       <use xlink:href="#DejaVuSans-17"/>
       <use xlink:href="#DejaVuSans-11" transform="translate(63.625 0)"/>
       <use xlink:href="#DejaVuSans-15" transform="translate(95.40625 0)"/>
      </g>
     </g>
    </g>
    <g id="ytick_6">
     <g id="line2d_11">
      <g>
       <use xlink:href="#m4007f6f0c8" x="57.6" y="48.715047" style="stroke: #000000; stroke-width: 0.8"/>
      </g>
     </g>
     <g id="text_12">
      <!-- 4.4 -->
      <g transform="translate(34.696875 52.513875) scale(0.1 -0.1)">
       <use xlink:href="#DejaVuSans-17"/>
       <use xlink:href="#DejaVuSans-11" transform="translate(63.625 0)"/>
       <use xlink:href="#DejaVuSans-17" transform="translate(95.40625 0)"/>
      </g>
     </g>
    </g>
    <g id="text_13">
     <!-- Loss value -->
     <g transform="translate(28.294531 200.742063) rotate(-90) scale(0.1 -0.1)">
      <defs>
       <path id="DejaVuSans-56" d="M 2834 3397 
L 2834 2853 
Q 2591 2978 2328 3040 
Q 2066 3103 1784 3103 
Q 1356 3103 1142 2972 
Q 928 2841 928 2578 
Q 928 2378 1081 2264 
Q 1234 2150 1697 2047 
L 1894 2003 
Q 2506 1872 2764 1633 
Q 3022 1394 3022 966 
Q 3022 478 2636 193 
Q 2250 -91 1575 -91 
Q 1294 -91 989 -36 
Q 684 19 347 128 
L 347 722 
Q 666 556 975 473 
Q 1284 391 1588 391 
Q 1994 391 2212 530 
Q 2431 669 2431 922 
Q 2431 1156 2273 1281 
Q 2116 1406 1581 1522 
L 1381 1569 
Q 847 1681 609 1914 
Q 372 2147 372 2553 
Q 372 3047 722 3315 
Q 1072 3584 1716 3584 
Q 2034 3584 2315 3537 
Q 2597 3491 2834 3397 
z
" transform="scale(0.015625)"/>
       <path id="DejaVuSans-59" d="M 191 3500 
L 800 3500 
L 1894 563 
L 2988 3500 
L 3597 3500 
L 2284 0 
L 1503 0 
L 191 3500 
z
" transform="scale(0.015625)"/>
       <path id="DejaVuSans-4f" d="M 603 4863 
L 1178 4863 
L 1178 0 
L 603 0 
L 603 4863 
z
" transform="scale(0.015625)"/>
       <path id="DejaVuSans-58" d="M 544 1381 
L 544 3500 
L 1119 3500 
L 1119 1403 
Q 1119 906 1312 657 
Q 1506 409 1894 409 
Q 2359 409 2629 706 
Q 2900 1003 2900 1516 
L 2900 3500 
L 3475 3500 
L 3475 0 
L 2900 0 
L 2900 538 
Q 2691 219 2414 64 
Q 2138 -91 1772 -91 
Q 1169 -91 856 284 
Q 544 659 544 1381 
z
M 1991 3584 
L 1991 3584 
z
" transform="scale(0.015625)"/>
      </defs>
      <use xlink:href="#DejaVuSans-2f"/>
      <use xlink:href="#DejaVuSans-52" transform="translate(53.96875 0)"/>
      <use xlink:href="#DejaVuSans-56" transform="translate(115.15625 0)"/>
      <use xlink:href="#DejaVuSans-56" transform="translate(167.25 0)"/>
      <use xlink:href="#DejaVuSans-3" transform="translate(219.34375 0)"/>
      <use xlink:href="#DejaVuSans-59" transform="translate(251.125 0)"/>
      <use xlink:href="#DejaVuSans-44" transform="translate(310.3125 0)"/>
      <use xlink:href="#DejaVuSans-4f" transform="translate(371.59375 0)"/>
      <use xlink:href="#DejaVuSans-58" transform="translate(399.375 0)"/>
      <use xlink:href="#DejaVuSans-48" transform="translate(462.75 0)"/>
     </g>
    </g>
   </g>
   <g id="line2d_12">
    <path d="M 73.98023 57.189713 
L 74.275237 58.509145 
L 74.42274 59.256664 
L 74.570243 61.209511 
L 74.717746 61.535378 
L 75.012753 64.606054 
L 75.160256 64.021141 
L 75.602766 68.296067 
L 75.750269 68.725838 
L 75.897772 70.504014 
L 76.045275 70.695155 
L 76.192778 71.357646 
L 76.487785 73.888736 
L 76.635288 74.587317 
L 76.782791 73.890325 
L 77.077798 77.374053 
L 77.372804 76.151901 
L 77.520307 80.249741 
L 77.815314 81.633553 
L 78.11032 83.513602 
L 78.55283 85.262595 
L 78.700333 85.102715 
L 78.847836 87.453482 
L 78.995339 87.276853 
L 79.142843 86.326258 
L 79.290346 90.213684 
L 79.732855 92.453075 
L 79.880359 91.615432 
L 80.617875 96.595273 
L 80.765378 97.138876 
L 80.912881 98.738798 
L 81.060384 98.966935 
L 81.207887 99.794044 
L 81.355391 99.933676 
L 81.502894 98.423683 
L 81.650397 102.02475 
L 81.7979 102.502473 
L 82.24041 104.931633 
L 82.387913 104.354268 
L 82.535416 104.980022 
L 82.682919 107.430992 
L 82.977926 106.813991 
L 83.272932 109.176918 
L 83.715442 111.354831 
L 83.862945 112.25742 
L 84.010448 112.03344 
L 84.157951 112.608823 
L 84.305455 112.286981 
L 84.600461 115.603162 
L 84.747964 115.828304 
L 85.190474 118.727076 
L 85.48548 118.121574 
L 85.632983 116.671049 
L 85.780487 119.740641 
L 85.92799 118.28099 
L 86.370499 123.462057 
L 86.518003 122.2531 
L 86.960512 124.859538 
L 87.108015 122.271014 
L 87.255519 123.558037 
L 87.550525 127.684423 
L 87.698028 127.548143 
L 87.845531 126.549216 
L 87.993035 124.686571 
L 88.288041 130.239381 
L 88.435544 130.565856 
L 88.730551 129.001593 
L 88.878054 132.104906 
L 89.025557 131.453995 
L 89.17306 131.389639 
L 89.320563 132.197381 
L 89.468067 131.321633 
L 89.61557 134.850953 
L 89.763073 133.8383 
L 89.910576 134.835449 
L 90.058079 134.255238 
L 90.205583 136.54893 
L 90.500589 131.945005 
L 90.795595 138.382645 
L 91.090602 139.105434 
L 91.238105 140.658191 
L 91.385608 140.092958 
L 91.533111 139.982602 
L 91.680615 141.906127 
L 91.828118 141.996666 
L 91.975621 143.54714 
L 92.123124 142.226495 
L 92.270627 143.014248 
L 92.418131 142.831969 
L 92.86064 146.610798 
L 93.008143 146.7226 
L 93.155647 147.810624 
L 93.30315 147.959212 
L 93.745659 146.655215 
L 94.040666 149.957611 
L 94.188169 147.259973 
L 94.483175 150.797307 
L 94.630679 150.538598 
L 94.925685 151.812372 
L 95.073188 149.781123 
L 95.368195 152.976132 
L 95.515698 154.61102 
L 95.663201 153.64972 
L 95.810704 155.154842 
L 95.958207 154.682462 
L 96.105711 156.690208 
L 96.253214 156.588317 
L 96.400717 152.729832 
L 96.843227 158.516017 
L 96.99073 158.658955 
L 97.285736 155.921968 
L 97.580743 160.479232 
L 97.875749 158.546215 
L 98.023252 160.050962 
L 98.318259 160.16835 
L 98.465762 158.304824 
L 98.613265 162.841161 
L 98.760768 162.762484 
L 98.908271 163.53342 
L 99.055775 162.557439 
L 99.203278 162.667823 
L 99.350781 162.117282 
L 99.498284 163.834711 
L 99.645787 163.581462 
L 99.793291 165.891647 
L 100.088297 164.057642 
L 100.2358 166.697889 
L 100.383303 165.982267 
L 100.530807 166.86704 
L 100.67831 165.504059 
L 100.825813 165.688146 
L 101.120819 168.417324 
L 101.268323 168.638916 
L 101.415826 169.15932 
L 101.563329 167.625685 
L 101.710832 167.837392 
L 101.858335 163.865054 
L 102.153342 171.215911 
L 102.300845 171.120894 
L 102.448348 170.780028 
L 102.595851 170.026808 
L 102.743355 172.621702 
L 102.890858 172.081521 
L 103.038361 173.2395 
L 103.185864 171.880625 
L 103.333367 174.854533 
L 103.480871 170.952701 
L 103.628374 174.038115 
L 103.775877 173.021924 
L 103.92338 176.329143 
L 104.070883 175.322227 
L 104.218387 176.518014 
L 104.36589 175.738847 
L 104.513393 173.844924 
L 104.660896 177.080315 
L 104.955903 175.603537 
L 105.250909 178.507858 
L 105.398412 178.727965 
L 105.545915 177.058954 
L 105.693419 177.563464 
L 105.840922 180.254287 
L 105.988425 180.468865 
L 106.283431 179.693181 
L 106.578438 181.834133 
L 106.725941 180.395634 
L 106.873444 181.41794 
L 107.020948 178.617646 
L 107.168451 182.015706 
L 107.315954 181.149224 
L 107.61096 184.039058 
L 107.905967 181.864189 
L 108.05347 181.740296 
L 108.348476 183.943149 
L 108.49598 180.423126 
L 108.790986 184.970388 
L 108.938489 184.312 
L 109.085992 186.706386 
L 109.233496 184.998884 
L 109.528502 186.569978 
L 109.676005 185.934395 
L 109.823508 186.568952 
L 110.118515 186.614239 
L 110.413521 186.358129 
L 110.561024 187.251407 
L 110.708528 189.309628 
L 110.856031 184.699983 
L 111.003534 184.453805 
L 111.151037 184.537568 
L 111.29854 188.432083 
L 111.593547 189.80787 
L 111.74105 186.976813 
L 111.888553 191.445089 
L 112.036056 190.598133 
L 112.18356 184.388936 
L 112.331063 185.841385 
L 112.478566 192.794938 
L 112.626069 192.162683 
L 112.773572 188.242948 
L 112.921076 191.519914 
L 113.068579 189.218362 
L 113.216082 190.647948 
L 113.363585 193.281043 
L 113.511088 193.775806 
L 113.658592 193.067676 
L 113.953598 195.605606 
L 114.101101 195.627652 
L 114.248604 195.892631 
L 114.543611 194.112565 
L 114.691114 197.291474 
L 114.838617 194.965764 
L 115.133624 196.252389 
L 115.42863 193.70954 
L 115.723636 199.128149 
L 116.018643 199.927271 
L 116.166146 195.34007 
L 116.313649 197.102074 
L 116.461152 197.338247 
L 117.051165 200.139346 
L 117.198668 200.388722 
L 117.346172 199.72473 
L 117.493675 201.097884 
L 117.641178 200.097433 
L 117.788681 202.10458 
L 117.936184 199.860472 
L 118.231191 202.18797 
L 118.378694 202.537339 
L 118.526197 202.330017 
L 118.6737 200.288543 
L 118.968707 204.48694 
L 119.11621 203.285154 
L 119.263713 200.821762 
L 119.411216 200.463881 
L 119.55872 204.264036 
L 119.853726 205.561965 
L 120.001229 204.768608 
L 120.148732 205.20735 
L 120.296236 201.193081 
L 120.443739 204.162556 
L 120.591242 201.81707 
L 120.738745 204.559237 
L 120.886248 200.97718 
L 121.033752 205.040305 
L 121.328758 205.94088 
L 121.476261 206.315878 
L 121.623764 205.310221 
L 121.771268 206.809705 
L 121.918771 206.491081 
L 122.066274 205.607641 
L 122.213777 209.172579 
L 122.36128 208.403739 
L 122.508784 205.350821 
L 122.80379 208.645965 
L 122.951293 210.0314 
L 123.098796 206.968844 
L 123.2463 207.354815 
L 123.393803 209.472438 
L 123.541306 209.480043 
L 123.688809 209.922821 
L 123.836312 211.131214 
L 123.983816 209.489202 
L 124.131319 211.673192 
L 124.426325 209.473411 
L 124.573828 210.533433 
L 124.721332 213.355404 
L 125.016338 210.833584 
L 125.163841 208.956727 
L 125.311344 209.544888 
L 125.458848 213.042017 
L 125.606351 213.859336 
L 125.753854 213.502721 
L 125.901357 214.12607 
L 126.04886 212.507733 
L 126.196364 212.851629 
L 126.343867 212.133809 
L 126.49137 208.909258 
L 126.638873 212.88383 
L 126.786376 211.741192 
L 127.081383 214.793506 
L 127.228886 213.86225 
L 127.376389 215.357128 
L 127.523892 213.872018 
L 127.671396 214.225433 
L 127.818899 213.945292 
L 127.966402 217.039695 
L 128.113905 216.411704 
L 128.261408 216.709815 
L 128.408912 216.49493 
L 128.556415 217.314948 
L 128.703918 213.742245 
L 128.851421 214.855872 
L 128.998924 218.492177 
L 129.146428 215.58857 
L 129.441434 217.542388 
L 129.588937 216.07241 
L 129.73644 217.654735 
L 129.883944 217.24502 
L 130.031447 218.81592 
L 130.17895 218.024996 
L 130.473956 220.173805 
L 130.62146 217.666109 
L 130.768963 218.595594 
L 130.916466 214.845727 
L 131.063969 219.826575 
L 131.211472 220.959635 
L 131.358976 219.507814 
L 131.506479 214.770267 
L 131.653982 219.04659 
L 131.801485 216.7866 
L 132.096492 221.386555 
L 132.391498 218.992822 
L 132.686504 221.59748 
L 132.834008 218.699792 
L 133.129014 222.08445 
L 133.276517 219.179045 
L 133.571524 221.365786 
L 133.719027 221.059771 
L 134.014033 223.838215 
L 134.161536 222.504572 
L 134.30904 224.682438 
L 134.456543 222.692664 
L 134.751549 224.636434 
L 134.899052 224.612392 
L 135.194059 222.546425 
L 135.341562 223.345888 
L 135.489065 220.451058 
L 135.636569 220.180654 
L 136.079078 225.356144 
L 136.226581 226.681269 
L 136.374085 226.643458 
L 136.669091 221.158212 
L 136.816594 225.380428 
L 136.964097 224.308143 
L 137.259104 226.72726 
L 137.406607 225.721486 
L 137.55411 227.014095 
L 137.701613 224.726171 
L 137.849117 224.558829 
L 138.144123 227.772795 
L 138.291626 226.793113 
L 138.439129 226.987309 
L 138.586633 225.844363 
L 138.734136 227.835812 
L 138.881639 223.661907 
L 139.029142 225.92897 
L 139.176645 224.630615 
L 139.324149 224.716432 
L 139.471652 228.527845 
L 139.619155 228.519699 
L 139.766658 228.350016 
L 140.061665 226.232869 
L 140.209168 229.41115 
L 140.356671 227.438311 
L 140.504174 229.648379 
L 140.651677 229.334281 
L 140.946684 227.402867 
L 141.094187 231.208222 
L 141.24169 231.711553 
L 141.389193 229.514468 
L 141.536697 231.40064 
L 141.6842 230.477003 
L 141.831703 231.199746 
L 141.979206 230.935079 
L 142.126709 231.145676 
L 142.274213 232.235824 
L 142.421716 231.993973 
L 142.569219 231.494017 
L 142.716722 227.21442 
L 142.864225 231.481647 
L 143.011729 230.662713 
L 143.159232 232.487771 
L 143.306735 229.300017 
L 143.454238 233.405166 
L 143.601741 232.394738 
L 143.749245 233.241299 
L 143.896748 233.264947 
L 144.044251 232.970235 
L 144.191754 234.35159 
L 144.339257 234.331507 
L 144.634264 231.964981 
L 144.781767 234.893637 
L 144.92927 232.919503 
L 145.076773 234.919176 
L 145.224277 232.951165 
L 145.37178 234.6377 
L 145.519283 234.669902 
L 145.666786 232.82895 
L 145.814289 234.34622 
L 145.961793 233.872947 
L 146.109296 236.239121 
L 146.256799 236.103858 
L 146.551805 233.830875 
L 146.699309 230.70029 
L 146.846812 231.945621 
L 146.994315 234.973103 
L 147.141818 234.740112 
L 147.289321 233.482359 
L 147.436825 234.383823 
L 147.584328 233.455746 
L 147.731831 235.995954 
L 147.879334 235.766648 
L 148.026837 238.271522 
L 148.174341 235.566502 
L 148.321844 236.137581 
L 148.469347 233.520699 
L 148.61685 233.041395 
L 148.764353 237.155005 
L 148.911857 235.764508 
L 149.05936 237.884489 
L 149.206863 237.494104 
L 149.354366 239.656387 
L 149.501869 235.527236 
L 149.649373 238.944578 
L 149.796876 236.870173 
L 149.944379 239.36221 
L 150.091882 237.367525 
L 150.239385 237.603212 
L 150.386889 235.20025 
L 150.534392 236.721876 
L 150.681895 236.352866 
L 150.829398 234.885173 
L 150.976901 234.711584 
L 151.124405 235.912446 
L 151.271908 239.135864 
L 151.566914 235.800163 
L 151.714417 239.129064 
L 152.009424 239.186818 
L 152.156927 241.106222 
L 152.30443 241.28984 
L 152.451933 240.716349 
L 152.599437 241.991982 
L 152.74694 239.817345 
L 153.041946 240.903405 
L 153.189449 241.518378 
L 153.336953 239.534088 
L 153.484456 241.572492 
L 153.779462 237.475798 
L 153.926965 242.020371 
L 154.074469 240.200163 
L 154.221972 241.978429 
L 154.516978 241.333632 
L 154.811985 239.47393 
L 155.106991 242.463005 
L 155.254494 241.610364 
L 155.401997 237.126726 
L 155.549501 243.1216 
L 155.844507 236.20691 
L 155.99201 242.533701 
L 156.139513 241.667431 
L 156.287017 242.137483 
L 156.43452 243.365197 
L 156.582023 242.10578 
L 156.729526 241.892935 
L 156.877029 242.970277 
L 157.024533 241.570991 
L 157.172036 244.341622 
L 157.319539 240.635871 
L 157.467042 244.95944 
L 157.614545 243.544747 
L 157.762049 244.556986 
L 157.909552 241.427031 
L 158.057055 244.059742 
L 158.204558 244.37766 
L 158.352061 246.034547 
L 158.647068 244.251277 
L 158.794571 244.321 
L 158.942074 243.922979 
L 159.237081 245.191309 
L 159.384584 243.146771 
L 159.67959 246.092932 
L 159.827093 243.308727 
L 159.974597 245.626394 
L 160.1221 243.035992 
L 160.417106 246.451797 
L 160.564609 246.283792 
L 160.712113 245.009732 
L 160.859616 247.347332 
L 161.007119 241.828792 
L 161.154622 242.875746 
L 161.302125 242.69426 
L 161.449629 246.385168 
L 161.597132 247.212824 
L 161.744635 244.493025 
L 162.039641 247.367005 
L 162.187145 246.960393 
L 162.334648 245.848313 
L 162.482151 247.277044 
L 162.629654 247.58878 
L 162.777157 247.559294 
L 162.924661 246.669975 
L 163.072164 248.574118 
L 163.36717 243.768825 
L 163.662177 248.613458 
L 163.80968 247.647971 
L 163.957183 249.994212 
L 164.104686 248.297966 
L 164.399693 248.406481 
L 164.547196 249.227534 
L 164.694699 248.306782 
L 164.989706 249.108848 
L 165.137209 247.460226 
L 165.284712 247.601389 
L 165.432215 247.278797 
L 165.579718 249.744646 
L 165.727222 244.659776 
L 165.874725 249.760379 
L 166.022228 249.645702 
L 166.169731 245.305437 
L 166.317234 250.516914 
L 166.612241 249.204756 
L 166.759744 250.215641 
L 166.907247 247.35946 
L 167.05475 250.466851 
L 167.202254 249.457808 
L 167.349757 250.60825 
L 167.644763 248.006672 
L 167.792266 251.584249 
L 167.93977 251.885964 
L 168.087273 250.210455 
L 168.234776 251.188358 
L 168.529782 249.563943 
L 168.824789 251.379287 
L 168.972292 249.443361 
L 169.267298 252.194735 
L 169.414802 250.550541 
L 169.562305 247.539888 
L 169.709808 250.840066 
L 169.857311 250.402819 
L 170.004814 250.468176 
L 170.152318 252.417548 
L 170.299821 248.521007 
L 170.447324 251.552643 
L 170.594827 248.900863 
L 170.74233 250.00434 
L 170.889834 248.248093 
L 171.037337 252.433232 
L 171.18484 253.335383 
L 171.332343 246.108399 
L 171.62735 251.02225 
L 171.774853 251.447153 
L 172.069859 253.6387 
L 172.217362 251.532903 
L 172.364866 254.085334 
L 172.512369 253.510928 
L 172.659872 253.443773 
L 172.807375 250.312131 
L 172.954878 253.526588 
L 173.102382 253.29749 
L 173.249885 253.879566 
L 173.397388 253.678453 
L 173.544891 254.711982 
L 173.692394 253.231095 
L 173.839898 253.073408 
L 173.987401 255.368997 
L 174.134904 254.697392 
L 174.282407 253.432446 
L 174.42991 254.681569 
L 174.577414 253.496623 
L 174.87242 254.510513 
L 175.019923 251.02361 
L 175.167426 251.758402 
L 175.31493 250.080406 
L 175.462433 256.138176 
L 175.609936 252.448561 
L 175.757439 254.069796 
L 175.904942 253.991608 
L 176.052446 253.389097 
L 176.199949 254.07137 
L 176.347452 256.865023 
L 176.494955 254.813533 
L 176.642458 256.618344 
L 176.789962 256.104568 
L 176.937465 253.149898 
L 177.084968 253.231446 
L 177.232471 253.720671 
L 177.527478 255.690272 
L 177.674981 256.208333 
L 177.969987 252.809526 
L 178.11749 256.86522 
L 178.264994 255.149682 
L 178.412497 257.198778 
L 178.56 256.404332 
L 178.707503 251.894401 
L 178.855006 256.242957 
L 179.150013 257.178926 
L 179.297516 249.255544 
L 179.445019 255.984918 
L 179.592522 255.884958 
L 179.740026 253.503889 
L 179.887529 256.146696 
L 180.035032 256.624111 
L 180.182535 259.036366 
L 180.477542 256.836406 
L 180.625045 258.521799 
L 180.772548 258.114087 
L 181.215058 252.491779 
L 181.510064 259.10143 
L 181.657567 258.974181 
L 181.80507 257.56167 
L 181.952574 258.26288 
L 182.100077 257.883009 
L 182.24758 259.006822 
L 182.395083 256.641108 
L 182.542586 256.627468 
L 182.69009 258.583064 
L 182.837593 256.243394 
L 182.985096 258.887563 
L 183.132599 258.530018 
L 183.280102 253.991137 
L 183.575109 259.204121 
L 183.722612 257.600064 
L 183.870115 257.400325 
L 184.017618 257.654515 
L 184.165122 257.518667 
L 184.312625 259.68053 
L 184.460128 259.29436 
L 184.607631 256.620311 
L 184.755134 260.304244 
L 184.902638 254.622024 
L 185.197644 260.132106 
L 185.345147 259.057882 
L 185.49265 259.738051 
L 185.640154 259.584432 
L 185.787657 261.246785 
L 185.93516 261.375202 
L 186.082663 261.073579 
L 186.230166 259.821191 
L 186.37767 256.787317 
L 186.525173 260.103698 
L 186.672676 258.80131 
L 186.820179 261.956328 
L 187.115186 259.142588 
L 187.410192 255.379367 
L 187.705198 261.45673 
L 187.852702 257.773818 
L 188.147708 260.253859 
L 188.295211 259.816426 
L 188.590218 262.072313 
L 188.737721 258.053012 
L 188.885224 259.918027 
L 189.032727 260.341131 
L 189.18023 260.405463 
L 189.327734 263.259458 
L 189.475237 260.659764 
L 189.62274 260.953355 
L 189.770243 261.83998 
L 189.917746 260.082729 
L 190.06525 261.331069 
L 190.212753 258.414568 
L 190.507759 261.78177 
L 190.802766 259.052844 
L 190.950269 261.903364 
L 191.097772 262.402453 
L 191.245275 260.941516 
L 191.392778 261.188347 
L 191.540282 262.329101 
L 191.687785 260.870318 
L 191.835288 262.032579 
L 191.982791 260.381926 
L 192.130294 262.890683 
L 192.277798 258.758113 
L 192.572804 263.792922 
L 192.720307 262.866543 
L 192.86781 257.918949 
L 193.015314 260.863005 
L 193.162817 260.450017 
L 193.31032 258.653312 
L 193.457823 263.426347 
L 193.605327 263.709984 
L 193.75283 261.524765 
L 193.900333 261.334002 
L 194.047836 261.383694 
L 194.342843 264.695317 
L 194.490346 262.39815 
L 194.637849 265.596373 
L 194.785352 264.343432 
L 194.932855 262.077051 
L 195.080359 263.326692 
L 195.227862 261.2937 
L 195.375365 264.554481 
L 195.522868 261.88582 
L 195.670371 264.134347 
L 195.965378 262.416216 
L 196.260384 263.796064 
L 196.407887 265.279191 
L 196.555391 263.798321 
L 196.702894 265.470486 
L 196.9979 262.376681 
L 197.145403 262.836805 
L 197.292907 265.457017 
L 197.735416 263.64298 
L 197.882919 264.728837 
L 198.030423 266.661652 
L 198.472932 263.951503 
L 198.620435 265.132659 
L 198.767939 265.280103 
L 198.915442 265.19806 
L 199.062945 266.121144 
L 199.210448 263.919021 
L 199.357951 267.165101 
L 199.505455 265.716046 
L 199.652958 265.990153 
L 199.800461 264.702662 
L 199.947964 264.688724 
L 200.095467 263.032157 
L 200.242971 258.829768 
L 200.390474 263.266708 
L 200.537977 262.904836 
L 200.68548 264.238939 
L 200.832983 264.182278 
L 200.980487 263.444443 
L 201.275493 265.951553 
L 201.422996 264.844353 
L 201.570499 267.243318 
L 201.718003 266.708161 
L 201.865506 268.607298 
L 202.308015 262.937908 
L 202.603022 268.033953 
L 202.750525 267.812275 
L 202.898028 266.714475 
L 203.045531 267.882143 
L 203.193035 266.678303 
L 203.340538 267.646387 
L 203.488041 263.761644 
L 203.635544 267.208878 
L 203.783047 267.021634 
L 203.930551 264.630503 
L 204.078054 267.886003 
L 204.225557 263.729881 
L 204.37306 264.600688 
L 204.520563 267.884942 
L 204.668067 268.353499 
L 204.963073 262.574363 
L 205.110576 264.303164 
L 205.258079 267.374898 
L 205.405583 266.727216 
L 205.700589 268.067885 
L 205.848092 261.305125 
L 205.995595 268.335663 
L 206.143099 268.305319 
L 206.290602 265.141783 
L 206.438105 267.36093 
L 206.733111 268.10049 
L 207.028118 263.838919 
L 207.175621 268.324377 
L 207.323124 266.612613 
L 207.470627 268.917912 
L 207.618131 266.216096 
L 207.765634 269.266832 
L 207.913137 269.693783 
L 208.06064 268.884217 
L 208.208143 267.162811 
L 208.355647 268.198595 
L 208.50315 270.551475 
L 208.798156 266.209815 
L 208.945659 268.849217 
L 209.093163 268.141604 
L 209.240666 268.820884 
L 209.388169 270.567876 
L 209.535672 268.278106 
L 209.683175 270.570265 
L 209.978182 265.755922 
L 210.125685 264.375331 
L 210.420691 269.270479 
L 210.715698 266.821562 
L 210.863201 267.229553 
L 211.010704 270.623355 
L 211.305711 268.359754 
L 211.453214 264.820626 
L 211.600717 268.078615 
L 211.74822 266.335866 
L 211.895723 267.248594 
L 212.043227 270.10602 
L 212.19073 266.883215 
L 212.338233 266.995066 
L 212.485736 269.269074 
L 212.633239 267.760514 
L 212.780743 269.280822 
L 212.928246 265.061763 
L 213.075749 266.193928 
L 213.223252 270.276427 
L 213.665762 271.147621 
L 214.108271 268.875956 
L 214.255775 268.993126 
L 214.403278 269.977577 
L 214.698284 265.57464 
L 214.845787 267.099175 
L 214.993291 266.471521 
L 215.140794 271.058644 
L 215.288297 269.418104 
L 215.4358 271.039475 
L 215.583303 271.177788 
L 215.730807 271.08004 
L 216.025813 268.403157 
L 216.173316 272.469006 
L 216.320819 267.995379 
L 216.468323 270.917883 
L 216.615826 270.186259 
L 216.763329 270.406848 
L 216.910832 271.641726 
L 217.058335 269.512822 
L 217.353342 272.034924 
L 217.648348 269.533314 
L 217.795851 271.440582 
L 218.385864 270.61139 
L 218.533367 273.891902 
L 218.680871 273.055594 
L 218.828374 269.766632 
L 219.12338 272.119265 
L 219.270883 272.085094 
L 219.418387 270.671715 
L 219.56589 271.668258 
L 219.713393 270.887145 
L 219.860896 268.3738 
L 220.008399 273.899531 
L 220.155903 271.759276 
L 220.303406 274.178291 
L 220.450909 269.769802 
L 220.598412 272.44978 
L 220.745915 269.37758 
L 220.893419 269.127249 
L 221.040922 272.916732 
L 221.188425 273.309452 
L 221.335928 273.371202 
L 221.630935 273.352357 
L 221.925941 270.798908 
L 222.073444 272.591151 
L 222.220948 272.236373 
L 222.368451 270.981166 
L 222.515954 272.577081 
L 222.663457 271.512877 
L 222.81096 272.437295 
L 222.958464 272.207709 
L 223.105967 270.121632 
L 223.548476 274.00281 
L 223.69598 273.242914 
L 223.990986 267.618073 
L 224.138489 269.349994 
L 224.285992 273.002891 
L 224.433496 272.693117 
L 224.580999 273.689117 
L 224.728502 272.884955 
L 224.876005 273.442293 
L 225.023508 272.557196 
L 225.318515 274.025143 
L 225.613521 271.611265 
L 225.908528 272.728688 
L 226.056031 264.363727 
L 226.203534 270.809538 
L 226.351037 271.347391 
L 226.49854 272.546638 
L 226.646044 272.538677 
L 226.94105 270.158356 
L 227.088553 274.587051 
L 227.236056 273.916583 
L 227.38356 272.216029 
L 227.531063 273.326856 
L 227.678566 275.59637 
L 227.826069 273.918748 
L 227.973572 273.806091 
L 228.121076 269.22388 
L 228.268579 274.016276 
L 228.416082 274.743233 
L 228.563585 274.610905 
L 228.711088 274.962038 
L 228.858592 274.603792 
L 229.006095 273.802302 
L 229.153598 274.727683 
L 229.301101 276.760985 
L 229.448604 276.169576 
L 229.743611 272.239042 
L 229.891114 273.784294 
L 230.038617 272.75263 
L 230.18612 274.631932 
L 230.333624 275.073349 
L 230.481127 274.788014 
L 230.62863 276.557792 
L 230.776133 272.017041 
L 230.923636 275.759832 
L 231.07114 276.027016 
L 231.218643 271.407435 
L 231.366146 273.381368 
L 231.513649 273.800468 
L 231.661152 274.693203 
L 231.956159 272.317669 
L 232.251165 277.79761 
L 232.398668 272.836684 
L 232.693675 275.970849 
L 232.841178 271.746399 
L 232.988681 274.783701 
L 233.283688 275.362641 
L 233.431191 273.245313 
L 233.578694 275.327409 
L 233.726197 273.387421 
L 233.8737 276.815721 
L 234.021204 272.938878 
L 234.168707 273.142741 
L 234.31621 271.41162 
L 234.463713 273.371377 
L 234.611216 272.88566 
L 234.75872 276.303845 
L 234.906223 276.733659 
L 235.053726 276.26767 
L 235.201229 276.604856 
L 235.348732 275.37083 
L 235.496236 275.209851 
L 235.643739 277.590992 
L 235.791242 277.247629 
L 235.938745 277.576493 
L 236.086248 274.533538 
L 236.233752 277.161166 
L 236.381255 276.742387 
L 236.528758 274.068165 
L 236.676261 277.500576 
L 236.971268 274.004483 
L 237.118771 276.229297 
L 237.266274 276.577434 
L 237.413777 273.527195 
L 237.56128 275.711546 
L 237.708784 275.683173 
L 237.856287 274.23944 
L 238.151293 277.578311 
L 238.298796 273.444614 
L 238.4463 276.667116 
L 238.593803 273.326574 
L 238.741306 278.809546 
L 238.888809 276.518202 
L 239.036312 276.251026 
L 239.183816 276.439058 
L 239.331319 276.828526 
L 239.626325 276.179706 
L 239.773828 271.995473 
L 240.068835 277.550641 
L 240.216338 273.750293 
L 240.363841 274.05632 
L 240.658848 278.045644 
L 240.806351 278.336346 
L 240.953854 277.249986 
L 241.101357 279.163 
L 241.24886 276.338253 
L 241.396364 277.473168 
L 241.543867 272.117267 
L 241.69137 278.599838 
L 241.838873 278.230098 
L 241.986376 273.229201 
L 242.13388 273.624101 
L 242.281383 279.232816 
L 242.428886 277.037378 
L 242.576389 276.652906 
L 242.723892 278.832252 
L 242.871396 276.264642 
L 243.166402 276.733385 
L 243.313905 279.453279 
L 243.756415 276.438304 
L 243.903918 278.538419 
L 244.051421 278.532664 
L 244.198924 277.820527 
L 244.346428 279.350544 
L 244.493931 279.113813 
L 244.641434 275.922397 
L 244.788937 279.608701 
L 244.93644 277.889228 
L 245.083944 278.545036 
L 245.37895 275.863652 
L 245.526453 278.067643 
L 245.673956 277.273486 
L 245.82146 275.563985 
L 245.968963 279.10496 
L 246.116466 275.842362 
L 246.263969 277.936951 
L 246.411472 277.738618 
L 246.558976 277.1639 
L 246.706479 278.038774 
L 246.853982 277.157254 
L 247.001485 274.501116 
L 247.148988 278.797608 
L 247.296492 276.756411 
L 247.443995 278.522738 
L 247.591498 277.418042 
L 247.739001 273.212874 
L 248.034008 281.158036 
L 248.329014 276.911218 
L 248.771524 280.120501 
L 249.06653 275.903241 
L 249.214033 274.924594 
L 249.50904 279.728753 
L 249.656543 277.639117 
L 249.804046 277.710726 
L 250.099052 279.357087 
L 250.246556 275.27251 
L 250.394059 276.43388 
L 250.541562 276.076382 
L 250.689065 279.521533 
L 250.836569 275.831617 
L 250.984072 278.448236 
L 251.131575 277.975262 
L 251.279078 278.002406 
L 251.426581 280.938157 
L 251.721588 278.519958 
L 251.869091 277.852095 
L 252.016594 280.1397 
L 252.311601 277.877055 
L 252.459104 278.564943 
L 252.75411 277.60793 
L 253.049117 280.268795 
L 253.19662 276.509132 
L 253.491626 280.035439 
L 253.639129 279.990675 
L 253.786633 278.387046 
L 253.934136 280.277684 
L 254.081639 278.375574 
L 254.524149 280.168261 
L 254.671652 279.821172 
L 254.819155 280.006542 
L 254.966658 278.972804 
L 255.114161 279.616106 
L 255.261665 277.949532 
L 255.409168 277.894715 
L 255.556671 280.962596 
L 255.704174 280.280604 
L 255.851677 281.032463 
L 256.146684 278.16847 
L 256.294187 279.811325 
L 256.44169 279.855567 
L 256.589193 277.959751 
L 256.736697 280.847815 
L 257.179206 275.109785 
L 257.326709 279.208302 
L 257.474213 278.674309 
L 257.621716 278.665692 
L 257.769219 280.266468 
L 258.064225 277.219032 
L 258.211729 280.654914 
L 258.359232 281.006198 
L 258.506735 282.606714 
L 258.654238 281.698752 
L 258.801741 278.673275 
L 258.949245 279.954013 
L 259.096748 279.109465 
L 259.244251 279.462467 
L 259.391754 280.960839 
L 259.539257 277.549838 
L 259.686761 278.191808 
L 259.834264 278.126295 
L 260.12927 280.523059 
L 260.276773 280.282138 
L 260.424277 277.823454 
L 260.719283 282.593268 
L 260.866786 280.760808 
L 261.014289 275.309789 
L 261.161793 281.207296 
L 261.309296 277.67249 
L 261.456799 282.558624 
L 261.751805 279.540753 
L 261.899309 280.937629 
L 262.046812 280.63383 
L 262.194315 279.076952 
L 262.341818 279.182732 
L 262.489321 283.444468 
L 262.636825 274.488679 
L 262.784328 282.726499 
L 262.931831 280.16668 
L 263.079334 283.221437 
L 263.226837 283.437265 
L 263.521844 280.808655 
L 263.669347 282.307815 
L 263.81685 280.867697 
L 263.964353 281.806047 
L 264.25936 278.819129 
L 264.406863 283.735071 
L 264.554366 282.321541 
L 264.849373 274.936662 
L 264.996876 282.359124 
L 265.144379 283.3062 
L 265.291882 279.80889 
L 265.586889 281.988696 
L 265.734392 281.554757 
L 265.881895 278.720122 
L 266.029398 284.096903 
L 266.324405 281.253826 
L 266.471908 281.704917 
L 266.619411 280.80353 
L 266.914417 281.318314 
L 267.209424 283.13062 
L 267.356927 281.166253 
L 267.50443 284.185477 
L 267.651933 283.589334 
L 267.799437 282.321042 
L 267.94694 282.403864 
L 268.094443 279.506012 
L 268.241946 283.218004 
L 268.389449 281.966724 
L 268.536953 282.242293 
L 268.684456 281.741723 
L 268.831959 284.186839 
L 268.979462 281.992979 
L 269.126965 282.30114 
L 269.274469 280.313876 
L 269.569475 284.515481 
L 269.716978 282.374213 
L 269.864481 284.362521 
L 270.011985 283.899863 
L 270.159488 278.886847 
L 270.306991 280.191922 
L 270.454494 280.351534 
L 270.601997 281.005899 
L 271.044507 278.611267 
L 271.339513 284.729101 
L 271.487017 282.044104 
L 271.63452 282.456864 
L 271.782023 282.305836 
L 271.929526 281.736884 
L 272.224533 282.762325 
L 272.372036 282.528271 
L 272.519539 283.720214 
L 272.814545 280.393146 
L 272.962049 281.918538 
L 273.109552 281.227439 
L 273.257055 279.92209 
L 273.404558 283.313113 
L 273.552061 280.324033 
L 273.699565 281.113448 
L 273.847068 279.585183 
L 274.289577 283.7194 
L 274.437081 277.624611 
L 274.584584 282.035437 
L 274.732087 281.421492 
L 274.87959 280.328226 
L 275.027093 282.439086 
L 275.174597 281.591326 
L 275.3221 279.252995 
L 275.617106 282.78862 
L 275.764609 284.392854 
L 275.912113 279.893691 
L 276.207119 284.653784 
L 276.354622 282.931616 
L 276.502125 284.148202 
L 276.649629 283.084483 
L 276.797132 283.451783 
L 276.944635 285.705983 
L 277.092138 283.946475 
L 277.239641 284.117092 
L 277.387145 279.437622 
L 277.534648 283.587012 
L 277.682151 283.849614 
L 277.829654 280.258313 
L 277.977157 283.977898 
L 278.124661 282.455069 
L 278.272164 282.738043 
L 278.419667 279.389462 
L 278.56717 283.264729 
L 278.714673 281.783229 
L 278.862177 283.038116 
L 279.00968 280.894091 
L 279.304686 285.038674 
L 279.45219 279.703025 
L 279.747196 284.033945 
L 279.894699 284.258465 
L 280.042202 284.148781 
L 280.337209 278.79454 
L 280.632215 284.789288 
L 280.927222 278.967115 
L 281.222228 284.309631 
L 281.369731 283.864379 
L 281.517234 278.56118 
L 281.664738 284.208408 
L 281.812241 283.77432 
L 281.959744 284.237717 
L 282.107247 282.185258 
L 282.402254 285.219478 
L 282.549757 284.66633 
L 282.69726 285.7813 
L 282.844763 282.820277 
L 282.992266 282.337824 
L 283.13977 283.345369 
L 283.287273 282.079055 
L 283.434776 282.365859 
L 283.582279 284.564024 
L 283.877286 281.176703 
L 284.024789 282.842286 
L 284.172292 282.419199 
L 284.319795 283.94697 
L 284.467298 282.314337 
L 284.614802 282.528041 
L 284.762305 285.896164 
L 284.909808 285.349466 
L 285.057311 284.18804 
L 285.204814 284.59172 
L 285.352318 284.328226 
L 285.499821 281.113841 
L 285.794827 284.450002 
L 286.089834 283.16002 
L 286.237337 283.636983 
L 286.38484 280.431647 
L 286.532343 282.239541 
L 286.679846 286.680546 
L 286.82735 285.647361 
L 286.974853 283.448352 
L 287.122356 283.476004 
L 287.269859 284.904651 
L 287.564866 282.867333 
L 287.712369 282.090069 
L 287.859872 284.475423 
L 288.007375 280.839089 
L 288.449885 286.567037 
L 288.597388 284.415435 
L 288.744891 285.641071 
L 288.892394 284.024244 
L 289.039898 285.935869 
L 289.187401 285.109133 
L 289.334904 283.465979 
L 289.482407 286.211332 
L 289.62991 285.47075 
L 289.777414 276.89178 
L 289.924917 286.624343 
L 290.07242 286.793138 
L 290.367426 283.874399 
L 290.662433 286.398188 
L 290.809936 284.24838 
L 290.957439 284.676874 
L 291.104942 283.098119 
L 291.399949 284.176665 
L 291.547452 282.077874 
L 291.694955 286.631693 
L 291.989962 284.239731 
L 292.284968 284.807089 
L 292.432471 287.174657 
L 292.579974 285.579135 
L 292.727478 286.706561 
L 292.874981 284.92207 
L 293.022484 286.937708 
L 293.169987 284.521058 
L 293.31749 284.015541 
L 293.464994 288.129628 
L 293.76 283.429481 
L 293.907503 285.178661 
L 294.055006 283.516109 
L 294.350013 285.925329 
L 294.645019 284.107307 
L 294.792522 287.121605 
L 295.235032 281.760218 
L 295.382535 283.84773 
L 295.530038 284.248332 
L 295.677542 281.488667 
L 295.972548 287.849065 
L 296.120051 287.553906 
L 296.267554 282.982129 
L 296.415058 286.868456 
L 296.562561 286.810487 
L 296.710064 287.269594 
L 296.857567 286.571024 
L 297.00507 284.918059 
L 297.152574 286.453759 
L 297.300077 285.825144 
L 297.44758 283.794096 
L 297.595083 286.395555 
L 297.742586 286.466638 
L 297.89009 284.384837 
L 298.185096 286.94761 
L 298.332599 287.288134 
L 298.480102 285.402846 
L 298.627606 285.8255 
L 298.775109 284.740897 
L 298.922612 287.67248 
L 299.070115 286.927058 
L 299.217618 284.683562 
L 299.365122 284.459627 
L 299.512625 280.574774 
L 299.807631 282.712507 
L 299.955134 287.627148 
L 300.250141 286.575229 
L 300.397644 286.57275 
L 300.545147 288.143062 
L 300.69265 285.428258 
L 300.840154 285.315759 
L 300.987657 285.610875 
L 301.13516 284.546761 
L 301.282663 282.370752 
L 301.430166 287.293367 
L 301.57767 285.485314 
L 301.725173 286.460628 
L 302.020179 285.046578 
L 302.167682 279.460673 
L 302.315186 284.266895 
L 302.462689 282.90595 
L 302.610192 285.002456 
L 303.052702 283.700703 
L 303.200205 287.283726 
L 303.347708 285.655378 
L 303.495211 287.632096 
L 303.642714 285.412585 
L 303.937721 287.321945 
L 304.085224 284.621878 
L 304.232727 288.573496 
L 304.38023 288.587393 
L 304.675237 285.643055 
L 304.82274 284.331851 
L 305.117746 287.574261 
L 305.412753 283.846934 
L 305.560256 286.718756 
L 305.707759 287.075566 
L 306.150269 284.045667 
L 306.297772 286.047289 
L 306.445275 285.470132 
L 306.592778 283.606517 
L 306.740282 285.800988 
L 306.887785 283.382266 
L 307.182791 284.846311 
L 307.330294 287.833893 
L 307.477798 285.686256 
L 307.625301 287.810648 
L 307.772804 286.658737 
L 307.920307 281.772601 
L 308.215314 286.837258 
L 308.362817 285.23731 
L 308.51032 289.284287 
L 308.657823 288.52945 
L 308.805327 286.265857 
L 308.95283 286.051849 
L 309.100333 289.090885 
L 309.395339 286.332642 
L 309.542843 286.43343 
L 309.837849 289.169974 
L 309.985352 283.948831 
L 310.132855 289.187816 
L 310.427862 287.07164 
L 310.575365 287.218058 
L 310.722868 286.892525 
L 310.870371 287.74545 
L 311.017875 286.528067 
L 311.165378 290.119833 
L 311.460384 286.189012 
L 311.755391 290.081722 
L 311.902894 288.74346 
L 312.050397 289.652218 
L 312.1979 289.299369 
L 312.345403 287.190221 
L 312.492907 287.665053 
L 312.64041 286.969431 
L 313.082919 281.28978 
L 313.377926 289.269446 
L 313.525429 288.891319 
L 313.672932 286.521707 
L 313.820435 288.501356 
L 313.967939 288.759423 
L 314.115442 284.57143 
L 314.262945 287.892678 
L 314.410448 288.384471 
L 314.557951 287.298173 
L 314.705455 288.754511 
L 314.852958 286.607184 
L 315.000461 289.740968 
L 315.442971 286.386369 
L 315.737977 287.945355 
L 315.88548 287.00739 
L 316.032983 287.594307 
L 316.180487 285.524722 
L 316.32799 287.244513 
L 316.475493 285.518157 
L 316.622996 288.213957 
L 316.770499 283.042857 
L 316.918003 287.981659 
L 317.065506 281.358019 
L 317.360512 289.91778 
L 317.508015 285.427056 
L 317.803022 285.909306 
L 317.950525 289.901427 
L 318.098028 285.806468 
L 318.245531 289.293902 
L 318.393035 288.511546 
L 318.540538 289.403413 
L 318.688041 284.815868 
L 318.835544 287.563971 
L 318.983047 287.29237 
L 319.130551 286.548915 
L 319.278054 288.07842 
L 319.425557 286.717512 
L 319.57306 289.536549 
L 319.720563 288.806815 
L 319.868067 289.903688 
L 320.163073 285.773504 
L 320.310576 288.492327 
L 320.458079 285.332614 
L 320.605583 287.806991 
L 320.753086 287.304895 
L 320.900589 288.59769 
L 321.048092 287.274369 
L 321.195595 287.064283 
L 321.343099 288.548241 
L 321.490602 287.617592 
L 321.638105 289.428369 
L 321.785608 287.011509 
L 321.933111 289.488144 
L 322.080615 289.677622 
L 322.228118 285.869356 
L 322.375621 289.825434 
L 322.523124 286.677782 
L 322.670627 288.306791 
L 322.818131 282.979118 
L 322.965634 284.016166 
L 323.113137 288.525889 
L 323.408143 286.869664 
L 323.555647 284.654558 
L 323.850653 289.932716 
L 323.998156 285.525185 
L 324.145659 288.757793 
L 324.293163 288.309595 
L 324.440666 287.253724 
L 324.588169 288.098442 
L 324.735672 289.805935 
L 325.030679 287.551119 
L 325.178182 285.77187 
L 325.325685 285.955916 
L 325.473188 287.558773 
L 325.620691 287.100004 
L 325.768195 290.202638 
L 325.915698 286.710175 
L 326.063201 286.315185 
L 326.210704 291.094561 
L 326.358207 289.646942 
L 326.505711 289.487486 
L 326.653214 288.892487 
L 326.800717 285.657191 
L 326.94822 286.874166 
L 327.095723 289.442384 
L 327.243227 288.458284 
L 327.39073 288.30698 
L 327.538233 287.586691 
L 327.685736 289.12695 
L 327.833239 287.212686 
L 327.980743 287.752032 
L 328.128246 292.002862 
L 328.275749 288.425056 
L 328.423252 288.061235 
L 328.570755 285.677657 
L 328.718259 287.898785 
L 328.865762 288.110226 
L 329.013265 285.647129 
L 329.308271 290.442863 
L 329.455775 286.316183 
L 329.603278 286.777295 
L 329.750781 287.728347 
L 329.898284 287.759461 
L 330.045787 285.747554 
L 330.193291 286.31468 
L 330.488297 290.962916 
L 330.930807 287.389604 
L 331.373316 291.524822 
L 331.520819 286.489953 
L 331.668323 286.386088 
L 331.815826 289.807804 
L 331.963329 289.505596 
L 332.110832 291.617908 
L 332.700845 285.451954 
L 332.995851 288.131956 
L 333.143355 284.734915 
L 333.290858 287.535691 
L 333.438361 286.763213 
L 333.733367 290.808522 
L 333.880871 289.956254 
L 334.028374 287.767632 
L 334.175877 289.924814 
L 334.32338 288.952606 
L 334.618387 290.558059 
L 335.060896 287.884256 
L 335.208399 289.565226 
L 335.355903 288.282816 
L 335.650909 290.236575 
L 335.798412 286.009482 
L 335.945915 289.993599 
L 336.093419 290.363456 
L 336.240922 289.516263 
L 336.388425 290.05329 
L 336.535928 286.295871 
L 336.683431 287.963063 
L 336.830935 282.450021 
L 336.978438 289.708482 
L 337.125941 289.913077 
L 337.273444 290.857775 
L 337.420948 287.763198 
L 337.568451 291.495178 
L 337.863457 287.835859 
L 338.01096 288.204349 
L 338.158464 290.646904 
L 338.305967 289.993051 
L 338.45347 287.867059 
L 338.600973 291.735929 
L 338.748476 290.836598 
L 338.89598 282.342654 
L 339.190986 290.142483 
L 339.338489 292.6355 
L 339.485992 291.350603 
L 339.780999 287.019023 
L 339.928502 291.520266 
L 340.076005 290.134828 
L 340.223508 292.525741 
L 340.518515 287.898265 
L 340.813521 292.315944 
L 340.961024 292.16398 
L 341.108528 287.128953 
L 341.256031 289.811866 
L 341.403534 289.522631 
L 341.551037 287.627999 
L 341.69854 289.912451 
L 341.846044 290.013697 
L 341.993547 285.768428 
L 342.14105 286.930099 
L 342.288553 285.816485 
L 342.58356 288.522258 
L 342.731063 288.867797 
L 342.878566 285.279997 
L 343.173572 290.330705 
L 343.321076 289.538608 
L 343.468579 289.738997 
L 343.616082 290.669114 
L 343.763585 289.624611 
L 344.058592 291.11057 
L 344.206095 287.386362 
L 344.353598 290.659065 
L 344.501101 289.192398 
L 344.648604 290.79415 
L 344.796108 289.350304 
L 344.943611 289.944657 
L 345.091114 289.355486 
L 345.238617 289.992093 
L 345.38612 292.546734 
L 345.533624 289.693658 
L 345.681127 289.174779 
L 345.82863 287.435962 
L 345.976133 290.504149 
L 346.27114 287.916464 
L 346.418643 291.461381 
L 346.713649 287.919132 
L 346.861152 291.071355 
L 347.008656 286.634554 
L 347.156159 291.005711 
L 347.303662 291.659241 
L 347.451165 287.607648 
L 347.598668 287.622334 
L 347.746172 287.213272 
L 347.893675 290.131458 
L 348.041178 289.496209 
L 348.188681 290.22419 
L 348.336184 292.349652 
L 348.483688 292.819338 
L 348.631191 291.377316 
L 348.778694 287.078869 
L 349.0737 291.367786 
L 349.221204 292.640607 
L 349.51621 288.101146 
L 349.663713 289.136549 
L 349.811216 288.999031 
L 349.95872 290.387784 
L 350.253726 283.365249 
L 350.548732 288.722298 
L 350.696236 287.773725 
L 350.991242 290.461451 
L 351.138745 289.386581 
L 351.286248 286.73303 
L 351.433752 290.795215 
L 351.581255 287.923846 
L 351.876261 291.042109 
L 352.023764 289.504904 
L 352.171268 290.141721 
L 352.318771 292.25355 
L 352.466274 292.463135 
L 352.76128 290.108454 
L 352.908784 291.336059 
L 353.056287 287.690277 
L 353.20379 291.932656 
L 353.351293 287.787904 
L 353.498796 290.36383 
L 353.6463 287.362282 
L 353.793803 290.003017 
L 353.941306 289.780067 
L 354.088809 291.465249 
L 354.236312 289.267123 
L 354.383816 288.944905 
L 354.531319 289.610788 
L 354.678822 288.397164 
L 354.826325 290.25959 
L 354.973828 289.712975 
L 355.268835 288.018027 
L 355.416338 288.543074 
L 355.563841 291.159566 
L 355.711344 289.400482 
L 356.006351 291.049328 
L 356.153854 288.28527 
L 356.301357 289.39126 
L 356.596364 287.587661 
L 356.743867 290.070018 
L 356.89137 290.095239 
L 357.038873 288.975696 
L 357.186376 291.466569 
L 357.628886 293.013156 
L 357.776389 290.960923 
L 357.923892 290.957995 
L 358.513905 287.246366 
L 358.661408 291.467278 
L 358.956415 290.802698 
L 359.103918 292.069009 
L 359.251421 289.794153 
L 359.546428 292.827341 
L 359.693931 293.199364 
L 359.841434 290.955131 
L 359.988937 291.125305 
L 360.13644 290.684409 
L 360.283944 291.43006 
L 360.431447 288.722955 
L 360.726453 291.59121 
L 360.873956 290.718372 
L 361.02146 291.305481 
L 361.168963 293.998114 
L 361.316466 290.487358 
L 361.463969 290.393133 
L 361.611472 285.565853 
L 361.758976 291.07942 
L 361.906479 289.483557 
L 362.053982 289.82274 
L 362.201485 291.636629 
L 362.348988 286.846159 
L 362.496492 289.042413 
L 362.643995 289.062243 
L 362.939001 291.834087 
L 363.086504 292.431425 
L 363.234008 290.973452 
L 363.381511 292.521341 
L 363.529014 290.758221 
L 363.676517 291.559168 
L 363.82402 288.57587 
L 364.119027 293.197929 
L 364.26653 286.351194 
L 364.414033 293.296154 
L 364.561536 292.500091 
L 364.856543 285.638047 
L 365.004046 290.687701 
L 365.446556 293.986576 
L 365.594059 289.459446 
L 366.184072 291.377345 
L 366.331575 289.167407 
L 366.479078 291.929458 
L 366.626581 288.857832 
L 366.774085 290.302305 
L 367.069091 287.89342 
L 367.216594 290.780953 
L 367.364097 290.329167 
L 367.511601 289.210353 
L 367.659104 286.23152 
L 367.806607 291.27019 
L 368.101613 291.018926 
L 368.249117 292.874547 
L 368.39662 289.066963 
L 368.544123 289.624264 
L 368.691626 292.057568 
L 368.986633 286.638082 
L 369.429142 291.505538 
L 369.724149 289.919613 
L 369.871652 291.098788 
L 370.019155 290.849852 
L 370.166658 289.896392 
L 370.314161 289.935714 
L 370.461665 293.607756 
L 370.756671 291.625691 
L 370.904174 292.866827 
L 371.051677 292.68785 
L 371.346684 293.345434 
L 371.494187 289.486222 
L 371.64169 289.376659 
L 371.789193 291.499096 
L 371.936697 291.098122 
L 372.0842 293.519168 
L 372.231703 290.308498 
L 372.526709 293.011196 
L 373.116722 289.6046 
L 373.411729 292.649288 
L 373.559232 290.937722 
L 373.706735 291.339696 
L 373.854238 289.299216 
L 374.001741 293.072549 
L 374.296748 290.892847 
L 374.444251 287.478634 
L 374.739257 293.942466 
L 374.886761 291.678244 
L 375.034264 292.732582 
L 375.181767 290.312411 
L 375.32927 292.960004 
L 375.476773 291.690106 
L 375.624277 291.821407 
L 375.77178 287.603444 
L 375.919283 290.938985 
L 376.066786 290.973952 
L 376.214289 290.265745 
L 376.361793 292.427766 
L 376.509296 292.715817 
L 376.656799 290.131537 
L 376.804302 293.630537 
L 376.951805 288.664212 
L 377.099309 291.225872 
L 377.246812 291.308931 
L 377.394315 292.983578 
L 377.541818 292.681045 
L 377.689321 293.704501 
L 377.836825 293.635232 
L 378.131831 287.265436 
L 378.279334 292.115491 
L 378.426837 290.356395 
L 378.574341 290.704093 
L 378.721844 290.712557 
L 378.869347 288.947494 
L 379.01685 294.351398 
L 379.45936 288.698719 
L 379.606863 287.846349 
L 379.901869 289.954389 
L 380.049373 289.880971 
L 380.196876 287.275353 
L 380.344379 293.563716 
L 380.491882 293.02899 
L 380.639385 288.778932 
L 380.786889 292.76716 
L 380.934392 293.433968 
L 381.081895 292.378138 
L 381.229398 293.020994 
L 381.376901 290.859102 
L 381.524405 293.646242 
L 381.671908 293.359799 
L 381.819411 291.212281 
L 382.114417 293.438477 
L 382.261921 293.072023 
L 382.409424 291.385853 
L 382.556927 287.632166 
L 382.70443 291.313178 
L 382.851933 291.06476 
L 382.999437 291.879789 
L 383.14694 293.720332 
L 383.294443 291.674144 
L 383.441946 294.990311 
L 383.736953 293.521849 
L 383.884456 293.32531 
L 384.031959 288.15955 
L 384.621972 294.207719 
L 384.769475 291.226997 
L 385.064481 295.06091 
L 385.211985 294.560448 
L 385.359488 291.284936 
L 385.506991 291.754293 
L 385.801997 292.944116 
L 385.949501 290.709409 
L 386.097004 291.992686 
L 386.244507 291.172969 
L 386.539513 293.881741 
L 386.687017 290.468744 
L 386.83452 292.413633 
L 386.982023 292.278429 
L 387.129526 290.86845 
L 387.277029 293.072453 
L 387.424533 290.548957 
L 387.572036 290.649955 
L 387.719539 290.108329 
L 387.867042 290.831201 
L 388.014545 290.60915 
L 388.162049 291.979215 
L 388.309552 291.878854 
L 388.457055 293.505923 
L 388.604558 292.196924 
L 388.752061 291.958602 
L 388.899565 290.327429 
L 389.047068 290.911058 
L 389.342074 294.753601 
L 389.489577 292.404266 
L 389.637081 293.21621 
L 389.784584 293.276687 
L 389.932087 290.67953 
L 390.374597 293.332474 
L 390.669603 289.893038 
L 391.112113 294.982233 
L 391.407119 291.66778 
L 391.554622 294.21965 
L 391.702125 292.241442 
L 391.849629 292.826992 
L 391.997132 291.01705 
L 392.144635 292.613326 
L 392.292138 295.488 
L 392.587145 291.655699 
L 392.734648 293.029582 
L 392.882151 291.646427 
L 393.029654 288.347664 
L 393.177157 292.128535 
L 393.324661 290.429761 
L 393.472164 291.530529 
L 393.619667 290.795945 
L 393.76717 291.436743 
L 393.914673 293.759627 
L 394.062177 291.661408 
L 394.20968 291.584187 
L 394.357183 295.196115 
L 394.504686 292.510024 
L 394.65219 292.666707 
L 394.799693 292.369691 
L 394.947196 294.691745 
L 395.094699 292.867719 
L 395.242202 293.20989 
L 395.537209 289.52569 
L 395.684712 292.265532 
L 395.832215 291.355147 
L 395.979718 293.471278 
L 396.274725 291.373074 
L 396.569731 294.350021 
L 396.717234 294.130495 
L 396.864738 292.834521 
L 397.012241 293.090489 
L 397.159744 291.315557 
L 397.307247 292.988169 
L 397.602254 285.681054 
L 397.749757 294.238364 
L 398.044763 290.61015 
L 398.192266 292.235852 
L 398.33977 291.343648 
L 398.487273 289.086214 
L 398.487273 289.086214 
" clip-path="url(#pdecda6b3a0)" style="fill: none; stroke: #1f77b4; stroke-opacity: 0.7; stroke-width: 1.5; stroke-linecap: square"/>
   </g>
   <g id="line2d_13">
    <path d="M 57.6 289.805935 
L 414.72 289.805935 
" clip-path="url(#pdecda6b3a0)" style="fill: none; stroke: #000000; stroke-width: 1.5; stroke-linecap: square"/>
   </g>
   <g id="patch_3">
    <path d="M 57.6 307.584 
L 57.6 41.472 
" style="fill: none; stroke: #000000; stroke-width: 0.8; stroke-linejoin: miter; stroke-linecap: square"/>
   </g>
   <g id="patch_4">
    <path d="M 57.6 307.584 
L 414.72 307.584 
" style="fill: none; stroke: #000000; stroke-width: 0.8; stroke-linejoin: miter; stroke-linecap: square"/>
   </g>
   <g id="legend_1">
    <g id="patch_5">
     <path d="M 230.20125 109.475125 
L 407.72 109.475125 
Q 409.72 109.475125 409.72 107.475125 
L 409.72 48.472 
Q 409.72 46.472 407.72 46.472 
L 230.20125 46.472 
Q 228.20125 46.472 228.20125 48.472 
L 228.20125 107.475125 
Q 228.20125 109.475125 230.20125 109.475125 
z
" style="fill: #ffffff; opacity: 0.8; stroke: #cccccc; stroke-linejoin: miter"/>
    </g>
    <g id="line2d_14">
     <path d="M 232.20125 54.570438 
L 242.20125 54.570438 
L 252.20125 54.570438 
" style="fill: none; stroke: #1f77b4; stroke-opacity: 0.7; stroke-width: 1.5; stroke-linecap: square"/>
    </g>
    <g id="text_14">
     <!-- Loss per batch -->
     <g transform="translate(260.20125 58.070438) scale(0.1 -0.1)">
      <defs>
       <path id="DejaVuSans-53" d="M 1159 525 
L 1159 -1331 
L 581 -1331 
L 581 3500 
L 1159 3500 
L 1159 2969 
Q 1341 3281 1617 3432 
Q 1894 3584 2278 3584 
Q 2916 3584 3314 3078 
Q 3713 2572 3713 1747 
Q 3713 922 3314 415 
Q 2916 -91 2278 -91 
Q 1894 -91 1617 61 
Q 1341 213 1159 525 
z
M 3116 1747 
Q 3116 2381 2855 2742 
Q 2594 3103 2138 3103 
Q 1681 3103 1420 2742 
Q 1159 2381 1159 1747 
Q 1159 1113 1420 752 
Q 1681 391 2138 391 
Q 2594 391 2855 752 
Q 3116 1113 3116 1747 
z
" transform="scale(0.015625)"/>
       <path id="DejaVuSans-55" d="M 2631 2963 
Q 2534 3019 2420 3045 
Q 2306 3072 2169 3072 
Q 1681 3072 1420 2755 
Q 1159 2438 1159 1844 
L 1159 0 
L 581 0 
L 581 3500 
L 1159 3500 
L 1159 2956 
Q 1341 3275 1631 3429 
Q 1922 3584 2338 3584 
Q 2397 3584 2469 3576 
Q 2541 3569 2628 3553 
L 2631 2963 
z
" transform="scale(0.015625)"/>
      </defs>
      <use xlink:href="#DejaVuSans-2f"/>
      <use xlink:href="#DejaVuSans-52" transform="translate(53.96875 0)"/>
      <use xlink:href="#DejaVuSans-56" transform="translate(115.15625 0)"/>
      <use xlink:href="#DejaVuSans-56" transform="translate(167.25 0)"/>
      <use xlink:href="#DejaVuSans-3" transform="translate(219.34375 0)"/>
      <use xlink:href="#DejaVuSans-53" transform="translate(251.125 0)"/>
      <use xlink:href="#DejaVuSans-48" transform="translate(314.609375 0)"/>
      <use xlink:href="#DejaVuSans-55" transform="translate(376.140625 0)"/>
      <use xlink:href="#DejaVuSans-3" transform="translate(417.25 0)"/>
      <use xlink:href="#DejaVuSans-45" transform="translate(449.03125 0)"/>
      <use xlink:href="#DejaVuSans-44" transform="translate(512.515625 0)"/>
      <use xlink:href="#DejaVuSans-57" transform="translate(573.796875 0)"/>
      <use xlink:href="#DejaVuSans-46" transform="translate(613 0)"/>
      <use xlink:href="#DejaVuSans-4b" transform="translate(667.984375 0)"/>
     </g>
    </g>
    <g id="PathCollection_2">
     <g>
      <use xlink:href="#ma1718e2365" x="242.20125" y="70.446219" style="fill: #1f77b4; stroke: #1f77b4"/>
     </g>
    </g>
    <g id="text_15">
     <!-- Loss at training start -->
     <g transform="translate(260.20125 73.071219) scale(0.1 -0.1)">
      <use xlink:href="#DejaVuSans-2f"/>
      <use xlink:href="#DejaVuSans-52" transform="translate(53.96875 0)"/>
      <use xlink:href="#DejaVuSans-56" transform="translate(115.15625 0)"/>
      <use xlink:href="#DejaVuSans-56" transform="translate(167.25 0)"/>
      <use xlink:href="#DejaVuSans-3" transform="translate(219.34375 0)"/>
      <use xlink:href="#DejaVuSans-44" transform="translate(251.125 0)"/>
      <use xlink:href="#DejaVuSans-57" transform="translate(312.40625 0)"/>
      <use xlink:href="#DejaVuSans-3" transform="translate(351.609375 0)"/>
      <use xlink:href="#DejaVuSans-57" transform="translate(383.390625 0)"/>
      <use xlink:href="#DejaVuSans-55" transform="translate(422.59375 0)"/>
      <use xlink:href="#DejaVuSans-44" transform="translate(463.703125 0)"/>
      <use xlink:href="#DejaVuSans-4c" transform="translate(524.984375 0)"/>
      <use xlink:href="#DejaVuSans-51" transform="translate(552.765625 0)"/>
      <use xlink:href="#DejaVuSans-4c" transform="translate(616.140625 0)"/>
      <use xlink:href="#DejaVuSans-51" transform="translate(643.921875 0)"/>
      <use xlink:href="#DejaVuSans-4a" transform="translate(707.296875 0)"/>
      <use xlink:href="#DejaVuSans-3" transform="translate(770.78125 0)"/>
      <use xlink:href="#DejaVuSans-56" transform="translate(802.5625 0)"/>
      <use xlink:href="#DejaVuSans-57" transform="translate(854.65625 0)"/>
      <use xlink:href="#DejaVuSans-44" transform="translate(893.859375 0)"/>
      <use xlink:href="#DejaVuSans-55" transform="translate(955.140625 0)"/>
      <use xlink:href="#DejaVuSans-57" transform="translate(996.25 0)"/>
     </g>
    </g>
    <g id="PathCollection_3">
     <defs>
      <path id="m6dd50633eb" d="M 0 3 
C 0.795609 3 1.55874 2.683901 2.12132 2.12132 
C 2.683901 1.55874 3 0.795609 3 0 
C 3 -0.795609 2.683901 -1.55874 2.12132 -2.12132 
C 1.55874 -2.683901 0.795609 -3 0 -3 
C -0.795609 -3 -1.55874 -2.683901 -2.12132 -2.12132 
C -2.683901 -1.55874 -3 -0.795609 -3 0 
C -3 0.795609 -2.683901 1.55874 -2.12132 2.12132 
C -1.55874 2.683901 -0.795609 3 0 3 
z
" style="stroke: #ff7f0e"/>
     </defs>
     <g>
      <use xlink:href="#m6dd50633eb" x="242.20125" y="85.447" style="fill: #ff7f0e; stroke: #ff7f0e"/>
     </g>
    </g>
    <g id="text_16">
     <!-- Loss at pass boundaries -->
     <g transform="translate(260.20125 88.072) scale(0.1 -0.1)">
      <use xlink:href="#DejaVuSans-2f"/>
      <use xlink:href="#DejaVuSans-52" transform="translate(53.96875 0)"/>
      <use xlink:href="#DejaVuSans-56" transform="translate(115.15625 0)"/>
      <use xlink:href="#DejaVuSans-56" transform="translate(167.25 0)"/>
      <use xlink:href="#DejaVuSans-3" transform="translate(219.34375 0)"/>
      <use xlink:href="#DejaVuSans-44" transform="translate(251.125 0)"/>
      <use xlink:href="#DejaVuSans-57" transform="translate(312.40625 0)"/>
      <use xlink:href="#DejaVuSans-3" transform="translate(351.609375 0)"/>
      <use xlink:href="#DejaVuSans-53" transform="translate(383.390625 0)"/>
      <use xlink:href="#DejaVuSans-44" transform="translate(446.875 0)"/>
      <use xlink:href="#DejaVuSans-56" transform="translate(508.15625 0)"/>
      <use xlink:href="#DejaVuSans-56" transform="translate(560.25 0)"/>
      <use xlink:href="#DejaVuSans-3" transform="translate(612.34375 0)"/>
      <use xlink:href="#DejaVuSans-45" transform="translate(644.125 0)"/>
      <use xlink:href="#DejaVuSans-52" transform="translate(707.609375 0)"/>
      <use xlink:href="#DejaVuSans-58" transform="translate(768.796875 0)"/>
      <use xlink:href="#DejaVuSans-51" transform="translate(832.171875 0)"/>
      <use xlink:href="#DejaVuSans-47" transform="translate(895.546875 0)"/>
      <use xlink:href="#DejaVuSans-44" transform="translate(959.03125 0)"/>
      <use xlink:href="#DejaVuSans-55" transform="translate(1020.3125 0)"/>
      <use xlink:href="#DejaVuSans-4c" transform="translate(1061.421875 0)"/>
      <use xlink:href="#DejaVuSans-48" transform="translate(1089.203125 0)"/>
      <use xlink:href="#DejaVuSans-56" transform="translate(1150.734375 0)"/>
     </g>
    </g>
    <g id="line2d_15">
     <path d="M 232.20125 99.572781 
L 242.20125 99.572781 
L 252.20125 99.572781 
" style="fill: none; stroke: #000000; stroke-width: 1.5; stroke-linecap: square"/>
    </g>
    <g id="text_17">
     <!-- Early-stopping reference loss -->
     <g transform="translate(260.20125 103.072781) scale(0.1 -0.1)">
      <defs>
       <path id="DejaVuSans-28" d="M 628 4666 
L 3578 4666 
L 3578 4134 
L 1259 4134 
L 1259 2753 
L 3481 2753 
L 3481 2222 
L 1259 2222 
L 1259 531 
L 3634 531 
L 3634 0 
L 628 0 
L 628 4666 
z
" transform="scale(0.015625)"/>
       <path id="DejaVuSans-5c" d="M 2059 -325 
Q 1816 -950 1584 -1140 
Q 1353 -1331 966 -1331 
L 506 -1331 
L 506 -850 
L 844 -850 
Q 1081 -850 1212 -737 
Q 1344 -625 1503 -206 
L 1606 56 
L 191 3500 
L 800 3500 
L 1894 763 
L 2988 3500 
L 3597 3500 
L 2059 -325 
z
" transform="scale(0.015625)"/>
       <path id="DejaVuSans-10" d="M 313 2009 
L 1997 2009 
L 1997 1497 
L 313 1497 
L 313 2009 
z
" transform="scale(0.015625)"/>
       <path id="DejaVuSans-49" d="M 2375 4863 
L 2375 4384 
L 1825 4384 
Q 1516 4384 1395 4259 
Q 1275 4134 1275 3809 
L 1275 3500 
L 2222 3500 
L 2222 3053 
L 1275 3053 
L 1275 0 
L 697 0 
L 697 3053 
L 147 3053 
L 147 3500 
L 697 3500 
L 697 3744 
Q 697 4328 969 4595 
Q 1241 4863 1831 4863 
L 2375 4863 
z
" transform="scale(0.015625)"/>
      </defs>
      <use xlink:href="#DejaVuSans-28"/>
      <use xlink:href="#DejaVuSans-44" transform="translate(63.1875 0)"/>
      <use xlink:href="#DejaVuSans-55" transform="translate(124.46875 0)"/>
      <use xlink:href="#DejaVuSans-4f" transform="translate(165.578125 0)"/>
      <use xlink:href="#DejaVuSans-5c" transform="translate(193.359375 0)"/>
      <use xlink:href="#DejaVuSans-10" transform="translate(250.796875 0)"/>
      <use xlink:href="#DejaVuSans-56" transform="translate(286.875 0)"/>
      <use xlink:href="#DejaVuSans-57" transform="translate(338.96875 0)"/>
      <use xlink:href="#DejaVuSans-52" transform="translate(378.171875 0)"/>
      <use xlink:href="#DejaVuSans-53" transform="translate(439.359375 0)"/>
      <use xlink:href="#DejaVuSans-53" transform="translate(502.84375 0)"/>
      <use xlink:href="#DejaVuSans-4c" transform="translate(566.328125 0)"/>
      <use xlink:href="#DejaVuSans-51" transform="translate(594.109375 0)"/>
      <use xlink:href="#DejaVuSans-4a" transform="translate(657.484375 0)"/>
      <use xlink:href="#DejaVuSans-3" transform="translate(720.96875 0)"/>
      <use xlink:href="#DejaVuSans-55" transform="translate(752.75 0)"/>
      <use xlink:href="#DejaVuSans-48" transform="translate(791.65625 0)"/>
      <use xlink:href="#DejaVuSans-49" transform="translate(853.1875 0)"/>
      <use xlink:href="#DejaVuSans-48" transform="translate(888.390625 0)"/>
      <use xlink:href="#DejaVuSans-55" transform="translate(949.921875 0)"/>
      <use xlink:href="#DejaVuSans-48" transform="translate(988.828125 0)"/>
      <use xlink:href="#DejaVuSans-51" transform="translate(1050.359375 0)"/>
      <use xlink:href="#DejaVuSans-46" transform="translate(1113.734375 0)"/>
      <use xlink:href="#DejaVuSans-48" transform="translate(1168.71875 0)"/>
      <use xlink:href="#DejaVuSans-3" transform="translate(1230.25 0)"/>
      <use xlink:href="#DejaVuSans-4f" transform="translate(1262.03125 0)"/>
      <use xlink:href="#DejaVuSans-52" transform="translate(1289.8125 0)"/>
      <use xlink:href="#DejaVuSans-56" transform="translate(1351 0)"/>
      <use xlink:href="#DejaVuSans-56" transform="translate(1403.09375 0)"/>
     </g>
    </g>
   </g>
   <g id="PathCollection_4">
    <g clip-path="url(#pdecda6b3a0)">
     <use xlink:href="#m6dd50633eb" x="88.583047" y="129.481545" style="fill: #ff7f0e; stroke: #ff7f0e"/>
     <use xlink:href="#m6dd50633eb" x="103.333367" y="174.854533" style="fill: #ff7f0e; stroke: #ff7f0e"/>
     <use xlink:href="#m6dd50633eb" x="118.083688" y="201.099104" style="fill: #ff7f0e; stroke: #ff7f0e"/>
     <use xlink:href="#m6dd50633eb" x="132.834008" y="218.699792" style="fill: #ff7f0e; stroke: #ff7f0e"/>
     <use xlink:href="#m6dd50633eb" x="147.584328" y="233.455746" style="fill: #ff7f0e; stroke: #ff7f0e"/>
     <use xlink:href="#m6dd50633eb" x="162.334648" y="245.848313" style="fill: #ff7f0e; stroke: #ff7f0e"/>
     <use xlink:href="#m6dd50633eb" x="177.084968" y="253.231446" style="fill: #ff7f0e; stroke: #ff7f0e"/>
     <use xlink:href="#m6dd50633eb" x="191.835288" y="262.032579" style="fill: #ff7f0e; stroke: #ff7f0e"/>
     <use xlink:href="#m6dd50633eb" x="206.585608" y="267.812535" style="fill: #ff7f0e; stroke: #ff7f0e"/>
     <use xlink:href="#m6dd50633eb" x="236.233752" y="277.161166" style="fill: #ff7f0e; stroke: #ff7f0e"/>
     <use xlink:href="#m6dd50633eb" x="250.984072" y="278.448236" style="fill: #ff7f0e; stroke: #ff7f0e"/>
     <use xlink:href="#m6dd50633eb" x="265.734392" y="281.554757" style="fill: #ff7f0e; stroke: #ff7f0e"/>
     <use xlink:href="#m6dd50633eb" x="280.484712" y="282.189688" style="fill: #ff7f0e; stroke: #ff7f0e"/>
     <use xlink:href="#m6dd50633eb" x="295.235032" y="281.760218" style="fill: #ff7f0e; stroke: #ff7f0e"/>
     <use xlink:href="#m6dd50633eb" x="309.985352" y="283.948831" style="fill: #ff7f0e; stroke: #ff7f0e"/>
     <use xlink:href="#m6dd50633eb" x="324.735672" y="289.805935" style="fill: #ff7f0e; stroke: #ff7f0e"/>
     <use xlink:href="#m6dd50633eb" x="339.485992" y="291.350603" style="fill: #ff7f0e; stroke: #ff7f0e"/>
     <use xlink:href="#m6dd50633eb" x="354.236312" y="289.267123" style="fill: #ff7f0e; stroke: #ff7f0e"/>
     <use xlink:href="#m6dd50633eb" x="368.986633" y="286.638082" style="fill: #ff7f0e; stroke: #ff7f0e"/>
     <use xlink:href="#m6dd50633eb" x="383.736953" y="293.521849" style="fill: #ff7f0e; stroke: #ff7f0e"/>
    </g>
   </g>
  </g>
 </g>
 <defs>
  <clipPath id="pdecda6b3a0">
   <rect x="57.6" y="41.472" width="357.12" height="266.112"/>
  </clipPath>
 </defs>
</svg>
