<?xml version="1.0" encoding="utf-8" standalone="no"?>
<!DOCTYPE svg PUBLIC "-//W3C//DTD SVG 1.1//EN"
  "http://www.w3.org/Graphics/SVG/1.1/DTD/svg11.dtd">
<svg xmlns:xlink="http://www.w3.org/1999/xlink" width="460.8pt" height="345.6pt" viewBox="0 0 460.8 345.6" xmlns="http://www.w3.org/2000/svg" version="1.1">
 <metadata>
  <rdf:RDF xmlns:dc="http://purl.org/dc/elements/1.1/" xmlns:cc="http://creativecommons.org/ns#" xmlns:rdf="http://www.w3.org/1999/02/22-rdf-syntax-ns#">
   <cc:Work>
    <dc:type rdf:resource="http://purl.org/dc/dcmitype/StillImage"/>
    <dc:date>2026-09-14T20:33:44.902548</dc:date>
    <dc:format>image/svg+xml</dc:format>
    <dc:creator>
     <cc:Agent>
      <dc:title>Matplotlib v3.11.2, https://matplotlib.org/</dc:title>
     </cc:Agent>
    </dc:creator>
   </cc:Work>
  </rdf:RDF>
 </metadata>
 <defs>
  <style type="text/css">*{stroke-linejoin: round; stroke-linecap: butt}</style>
 </defs>
 <g id="figure_1">
  <g id="patch_1">
   <path d="M 0 345.6 
L 460.8 345.6 
L 460.8 0 
L 0 0 
z
" style="fill: #ffffff"/>
  </g>
  <g id="axes_1">
   <g id="patch_2">
    <path d="M 57.6 307.584 
L 414.72 307.584 
L 414.72 41.472 
L 57.6 41.472 
z
" style="fill: #ffffff"/>
   </g>
   <g id="PathCollection_1">
    <defs>
     <path id="mc935ae37f4" d="M 0 3 
C 0.795609 3 1.55874 2.683901 2.12132 2.12132 
C 2.683901 1.55874 3 0.795609 3 0 
C 3 -0.795609 2.683901 -1.55874 2.12132 -2.12132 
C 1.55874 -2.683901 0.795609 -3 0 -3 
C -0.795609 -3 -1.55874 -2.683901 -2.12132 -2.12132 
C -2.683901 -1.55874 -3 -0.795609 -3 0 
C -3 0.795609 -2.683901 1.55874 -2.12132 2.12132 
C -1.55874 2.683901 -0.795609 3 0 3 
z
" style="stroke: #1f77b4"/>
    </defs>
    <g clip-path="url(#p69df2d4ed2)">
     <use xlink:href="#mc935ae37f4" x="73.832727" y="53.568" style="fill: #1f77b4; stroke: #1f77b4"/>
     <use xlink:href="#mc935ae37f4" x="236.241123" y="273.254394" style="fill: #1f77b4; stroke: #1f77b4"/>
    </g>
   </g>
   <g id="matplotlib.axis_1">
    <g id="xtick_1">
     <g id="line2d_1">
      <defs>
       <path id="m984d1325a3" d="M 0 0 
L 0 3.5 
" style="stroke: #000000; stroke-width: 0.8"/>
      </defs>
      <g>
       <use xlink:href="#m984d1325a3" x="73.832727" y="307.584" style="stroke: #000000; stroke-width: 0.8"/>
      </g>
     </g>
     <g id="text_1">
      <!-- 0 -->
      <g transform="translate(70.651477 322.181656) scale(0.1 -0.1)">
       <defs>
        <path id="DejaVuSans-13" d="M 2034 4250 
Q 1547 4250 1301 3770 
Q 1056 3291 1056 2328 
Q 1056 1369 1301 889 
Q 1547 409 2034 409 
Q 2525 409 2770 889 
Q 3016 1369 3016 2328 
Q 3016 3291 2770 3770 
Q 2525 4250 2034 4250 
z
M 2034 4750 
Q 2819 4750 3233 4129 
Q 3647 3509 3647 2328 
Q 3647 1150 3233 529 
Q 2819 -91 2034 -91 
Q 1250 -91 836 529 
Q 422 1150 422 2328 
Q 422 3509 836 4129 
Q 1250 4750 2034 4750 
z
" transform="scale(0.015625)"/>
       </defs>
       <use xlink:href="#DejaVuSans-13"/>
      </g>
     </g>
    </g>
    <g id="xtick_2">
     <g id="line2d_2">
      <g>
       <use xlink:href="#m984d1325a3" x="114.394265" y="307.584" style="stroke: #000000; stroke-width: 0.8"/>
      </g>
     </g>
     <g id="text_2">
      <!-- 250 -->
      <g transform="translate(104.850515 322.181656) scale(0.1 -0.1)">
       <defs>
        <path id="DejaVuSans-15" d="M 1228 531 
L 3431 531 
L 3431 0 
L 469 0 
L 469 531 
Q 828 903 1448 1529 
Q 2069 2156 2228 2338 
Q 2531 2678 2651 2914 
Q 2772 3150 2772 3378 
Q 2772 3750 2511 3984 
Q 2250 4219 1831 4219 
Q 1534 4219 1204 4116 
Q 875 4013 500 3803 
L 500 4441 
Q 881 4594 1212 4672 
Q 1544 4750 1819 4750 
Q 2544 4750 2975 4387 
Q 3406 4025 3406 3419 
Q 3406 3131 3298 2873 
Q 3191 2616 2906 2266 
Q 2828 2175 2409 1742 
Q 1991 1309 1228 531 
z
" transform="scale(0.015625)"/>
        <path id="DejaVuSans-18" d="M 691 4666 
L 3169 4666 
L 3169 4134 
L 1269 4134 
L 1269 2991 
Q 1406 3038 1543 3061 
Q 1681 3084 1819 3084 
Q 2600 3084 3056 2656 
Q 3513 2228 3513 1497 
Q 3513 744 3044 326 
Q 2575 -91 1722 -91 
Q 1428 -91 1123 -41 
Q 819 9 494 109 
L 494 744 
Q 775 591 1075 516 
Q 1375 441 1709 441 
Q 2250 441 2565 725 
Q 2881 1009 2881 1497 
Q 2881 1984 2565 2268 
Q 2250 2553 1709 2553 
Q 1456 2553 1204 2497 
Q 953 2441 691 2322 
L 691 4666 
z
" transform="scale(0.015625)"/>
       </defs>
       <use xlink:href="#DejaVuSans-15"/>
       <use xlink:href="#DejaVuSans-18" transform="translate(63.625 0)"/>
       <use xlink:href="#DejaVuSans-13" transform="translate(127.25 0)"/>
      </g>
     </g>
    </g>
    <g id="xtick_3">
     <g id="line2d_3">
      <g>
       <use xlink:href="#m984d1325a3" x="154.955802" y="307.584" style="stroke: #000000; stroke-width: 0.8"/>
      </g>
     </g>
     <g id="text_3">
      <!-- 500 -->
      <g transform="translate(145.412052 322.181656) scale(0.1 -0.1)">
       <use xlink:href="#DejaVuSans-18"/>
       <use xlink:href="#DejaVuSans-13" transform="translate(63.625 0)"/>
       <use xlink:href="#DejaVuSans-13" transform="translate(127.25 0)"/>
      </g>
     </g>
    </g>
    <g id="xtick_4">
     <g id="line2d_4">
      <g>
       <use xlink:href="#m984d1325a3" x="195.51734" y="307.584" style="stroke: #000000; stroke-width: 0.8"/>
      </g>
     </g>
     <g id="text_4">
      <!-- 750 -->
      <g transform="translate(185.97359 322.181656) scale(0.1 -0.1)">
       <defs>
        <path id="DejaVuSans-1a" d="M 525 4666 
L 3525 4666 
L 3525 4397 
L 1831 0 
L 1172 0 
L 2766 4134 
L 525 4134 
L 525 4666 
z
" transform="scale(0.015625)"/>
       </defs>
       <use xlink:href="#DejaVuSans-1a"/>
       <use xlink:href="#DejaVuSans-18" transform="translate(63.625 0)"/>
       <use xlink:href="#DejaVuSans-13" transform="translate(127.25 0)"/>
      </g>
     </g>
    </g>
    <g id="xtick_5">
     <g id="line2d_5">
      <g>
       <use xlink:href="#m984d1325a3" x="236.078877" y="307.584" style="stroke: #000000; stroke-width: 0.8"/>
      </g>
     </g>
     <g id="text_5">
      <!-- 1000 -->
      <g transform="translate(223.353877 322.181656) scale(0.1 -0.1)">
       <defs>
        <path id="DejaVuSans-14" d="M 794 531 
L 1825 531 
L 1825 4091 
L 703 3866 
L 703 4441 
L 1819 4666 
L 2450 4666 
L 2450 531 
L 3481 531 
L 3481 0 
L 794 0 
L 794 531 
z
" transform="scale(0.015625)"/>
       </defs>
       <use xlink:href="#DejaVuSans-14"/>
       <use xlink:href="#DejaVuSans-13" transform="translate(63.625 0)"/>
       <use xlink:href="#DejaVuSans-13" transform="translate(127.25 0)"/>
       <use xlink:href="#DejaVuSans-13" transform="translate(190.875 0)"/>
      </g>
     </g>
    </g>
    <g id="xtick_6">
     <g id="line2d_6">
      <g>
       <use xlink:href="#m984d1325a3" x="276.640414" y="307.584" style="stroke: #000000; stroke-width: 0.8"/>
      </g>
     </g>
     <g id="text_6">
      <!-- 1250 -->
      <g transform="translate(263.915414 322.181656) scale(0.1 -0.1)">
       <use xlink:href="#DejaVuSans-14"/>
       <use xlink:href="#DejaVuSans-15" transform="translate(63.625 0)"/>
       <use xlink:href="#DejaVuSans-18" transform="translate(127.25 0)"/>
       <use xlink:href="#DejaVuSans-13" transform="translate(190.875 0)"/>
      </g>
     </g>
    </g>
    <g id="xtick_7">
     <g id="line2d_7">
      <g>
       <use xlink:href="#m984d1325a3" x="317.201952" y="307.584" style="stroke: #000000; stroke-width: 0.8"/>
      </g>
     </g>
     <g id="text_7">
      <!-- 1500 -->
      <g transform="translate(304.476952 322.181656) scale(0.1 -0.1)">
       <use xlink:href="#DejaVuSans-14"/>
       <use xlink:href="#DejaVuSans-18" transform="translate(63.625 0)"/>
       <use xlink:href="#DejaVuSans-13" transform="translate(127.25 0)"/>
       <use xlink:href="#DejaVuSans-13" transform="translate(190.875 0)"/>
      </g>
     </g>
    </g>
    <g id="xtick_8">
     <g id="line2d_8">
      <g>
       <use xlink:href="#m984d1325a3" x="357.763489" y="307.584" style="stroke: #000000; stroke-width: 0.8"/>
      </g>
     </g>
     <g id="text_8">
      <!-- 1750 -->
      <g transform="translate(345.038489 322.181656) scale(0.1 -0.1)">
       <use xlink:href="#DejaVuSans-14"/>
       <use xlink:href="#DejaVuSans-1a" transform="translate(63.625 0)"/>
       <use xlink:href="#DejaVuSans-18" transform="translate(127.25 0)"/>
       <use xlink:href="#DejaVuSans-13" transform="translate(190.875 0)"/>
      </g>
     </g>
    </g>
    <g id="xtick_9">
     <g id="line2d_9">
      <g>
       <use xlink:href="#m984d1325a3" x="398.325027" y="307.584" style="stroke: #000000; stroke-width: 0.8"/>
      </g>
     </g>
     <g id="text_9">
      <!-- 2000 -->
      <g transform="translate(385.600027 322.181656) scale(0.1 -0.1)">
       <use xlink:href="#DejaVuSans-15"/>
       <use xlink:href="#DejaVuSans-13" transform="translate(63.625 0)"/>
       <use xlink:href="#DejaVuSans-13" transform="translate(127.25 0)"/>
       <use xlink:href="#DejaVuSans-13" transform="translate(190.875 0)"/>
      </g>
     </g>
    </g>
    <g id="text_10">
     <!-- Log index (~batch index) -->
     <g transform="translate(172.892031 336.182437) scale(0.1 -0.1)">
      <defs>
       <path id="DejaVuSans-2f" d="M 628 4666 
L 1259 4666 
L 1259 531 
L 3531 531 
L 3531 0 
L 628 0 
L 628 4666 
z
" transform="scale(0.015625)"/>
       <path id="DejaVuSans-52" d="M 1959 3097 
Q 1497 3097 1228 2736 
Q 959 2375 959 1747 
Q 959 1119 1226 758 
Q 1494 397 1959 397 
Q 2419 397 2687 759 
Q 2956 1122 2956 1747 
Q 2956 2369 2687 2733 
Q 2419 3097 1959 3097 
z
M 1959 3584 
Q 2709 3584 3137 3096 
Q 3566 2609 3566 1747 
Q 3566 888 3137 398 
Q 2709 -91 1959 -91 
Q 1206 -91 779 398 
Q 353 888 353 1747 
Q 353 2609 779 3096 
Q 1206 3584 1959 3584 
z
" transform="scale(0.015625)"/>
       <path id="DejaVuSans-4a" d="M 2906 1791 
Q 2906 2416 2648 2759 
Q 2391 3103 1925 3103 
Q 1463 3103 1205 2759 
Q 947 2416 947 1791 
Q 947 1169 1205 825 
Q 1463 481 1925 481 
Q 2391 481 2648 825 
Q 2906 1169 2906 1791 
z
M 3481 434 
Q 3481 -459 3084 -895 
Q 2688 -1331 1869 -1331 
Q 1566 -1331 1297 -1286 
Q 1028 -1241 775 -1147 
L 775 -588 
Q 1028 -725 1275 -790 
Q 1522 -856 1778 -856 
Q 2344 -856 2625 -561 
Q 2906 -266 2906 331 
L 2906 616 
Q 2728 306 2450 153 
Q 2172 0 1784 0 
Q 1141 0 747 490 
Q 353 981 353 1791 
Q 353 2603 747 3093 
Q 1141 3584 1784 3584 
Q 2172 3584 2450 3431 
Q 2728 3278 2906 2969 
L 2906 3500 
L 3481 3500 
L 3481 434 
z
" transform="scale(0.015625)"/>
       <path id="DejaVuSans-3" transform="scale(0.015625)"/>
       <path id="DejaVuSans-4c" d="M 603 3500 
L 1178 3500 
L 1178 0 
L 603 0 
L 603 3500 
z
M 603 4863 
L 1178 4863 
L 1178 4134 
L 603 4134 
L 603 4863 
z
" transform="scale(0.015625)"/>
       <path id="DejaVuSans-51" d="M 3513 2113 
L 3513 0 
L 2938 0 
L 2938 2094 
Q 2938 2591 2744 2837 
Q 2550 3084 2163 3084 
Q 1697 3084 1428 2787 
Q 1159 2491 1159 1978 
L 1159 0 
L 581 0 
L 581 3500 
L 1159 3500 
L 1159 2956 
Q 1366 3272 1645 3428 
Q 1925 3584 2291 3584 
Q 2894 3584 3203 3211 
Q 3513 2838 3513 2113 
z
" transform="scale(0.015625)"/>
       <path id="DejaVuSans-47" d="M 2906 2969 
L 2906 4863 
L 3481 4863 
L 3481 0 
L 2906 0 
L 2906 525 
Q 2725 213 2448 61 
Q 2172 -91 1784 -91 
Q 1150 -91 751 415 
Q 353 922 353 1747 
Q 353 2572 751 3078 
Q 1150 3584 1784 3584 
Q 2172 3584 2448 3432 
Q 2725 3281 2906 2969 
z
M 947 1747 
Q 947 1113 1208 752 
Q 1469 391 1925 391 
Q 2381 391 2643 752 
Q 2906 1113 2906 1747 
Q 2906 2381 2643 2742 
Q 2381 3103 1925 3103 
Q 1469 3103 1208 2742 
Q 947 2381 947 1747 
z
" transform="scale(0.015625)"/>
       <path id="DejaVuSans-48" d="M 3597 1894 
L 3597 1613 
L 953 1613 
Q 991 1019 1311 708 
Q 1631 397 2203 397 
Q 2534 397 2845 478 
Q 3156 559 3463 722 
L 3463 178 
Q 3153 47 2828 -22 
Q 2503 -91 2169 -91 
Q 1331 -91 842 396 
Q 353 884 353 1716 
Q 353 2575 817 3079 
Q 1281 3584 2069 3584 
Q 2775 3584 3186 3129 
Q 3597 2675 3597 1894 
z
M 3022 2063 
Q 3016 2534 2758 2815 
Q 2500 3097 2075 3097 
Q 1594 3097 1305 2825 
Q 1016 2553 972 2059 
L 3022 2063 
z
" transform="scale(0.015625)"/>
       <path id="DejaVuSans-5b" d="M 3513 3500 
L 2247 1797 
L 3578 0 
L 2900 0 
L 1881 1375 
L 863 0 
L 184 0 
L 1544 1831 
L 300 3500 
L 978 3500 
L 1906 2253 
L 2834 3500 
L 3513 3500 
z
" transform="scale(0.015625)"/>
       <path id="DejaVuSans-b" d="M 1984 4856 
Q 1566 4138 1362 3434 
Q 1159 2731 1159 2009 
Q 1159 1288 1364 580 
Q 1569 -128 1984 -844 
L 1484 -844 
Q 1016 -109 783 600 
Q 550 1309 550 2009 
Q 550 2706 781 3412 
Q 1013 4119 1484 4856 
L 1984 4856 
z
" transform="scale(0.015625)"/>
       <path id="DejaVuSans-61" d="M 4684 2553 
L 4684 1997 
Q 4356 1750 4076 1644 
Q 3797 1538 3494 1538 
Q 3150 1538 2694 1722 
Q 2659 1734 2644 1741 
Q 2622 1750 2575 1766 
Q 2091 1959 1797 1959 
Q 1522 1959 1253 1839 
Q 984 1719 678 1459 
L 678 2016 
Q 1006 2263 1286 2370 
Q 1566 2478 1869 2478 
Q 2213 2478 2672 2291 
Q 2703 2278 2719 2272 
Q 2744 2263 2788 2247 
Q 3272 2053 3566 2053 
Q 3834 2053 4098 2172 
Q 4363 2291 4684 2553 
z
" transform="scale(0.015625)"/>
       <path id="DejaVuSans-45" d="M 3116 1747 
Q 3116 2381 2855 2742 
Q 2594 3103 2138 3103 
Q 1681 3103 1420 2742 
Q 1159 2381 1159 1747 
Q 1159 1113 1420 752 
Q 1681 391 2138 391 
Q 2594 391 2855 752 
Q 3116 1113 3116 1747 
z
M 1159 2969 
Q 1341 3281 1617 3432 
Q 1894 3584 2278 3584 
Q 2916 3584 3314 3078 
Q 3713 2572 3713 1747 
Q 3713 922 3314 415 
Q 2916 -91 2278 -91 
Q 1894 -91 1617 61 
Q 1341 213 1159 525 
L 1159 0 
L 581 0 
L 581 4863 
L 1159 4863 
L 1159 2969 
z
" transform="scale(0.015625)"/>
       <path id="DejaVuSans-44" d="M 2194 1759 
Q 1497 1759 1228 1600 
Q 959 1441 959 1056 
Q 959 750 1161 570 
Q 1363 391 1709 391 
Q 2188 391 2477 730 
Q 2766 1069 2766 1631 
L 2766 1759 
L 2194 1759 
z
M 3341 1997 
L 3341 0 
L 2766 0 
L 2766 531 
Q 2569 213 2275 61 
Q 1981 -91 1556 -91 
Q 1019 -91 701 211 
Q 384 513 384 1019 
Q 384 1609 779 1909 
Q 1175 2209 1959 2209 
L 2766 2209 
L 2766 2266 
Q 2766 2663 2505 2880 
Q 2244 3097 1772 3097 
Q 1472 3097 1187 3025 
Q 903 2953 641 2809 
L 641 3341 
Q 956 3463 1253 3523 
Q 1550 3584 1831 3584 
Q 2591 3584 2966 3190 
Q 3341 2797 3341 1997 
z
" transform="scale(0.015625)"/>
       <path id="DejaVuSans-57" d="M 1172 4494 
L 1172 3500 
L 2356 3500 
L 2356 3053 
L 1172 3053 
L 1172 1153 
Q 1172 725 1289 603 
Q 1406 481 1766 481 
L 2356 481 
L 2356 0 
L 1766 0 
Q 1100 0 847 248 
Q 594 497 594 1153 
L 594 3053 
L 172 3053 
L 172 3500 
L 594 3500 
L 594 4494 
L 1172 4494 
z
" transform="scale(0.015625)"/>
       <path id="DejaVuSans-46" d="M 3122 3366 
L 3122 2828 
Q 2878 2963 2633 3030 
Q 2388 3097 2138 3097 
Q 1578 3097 1268 2742 
Q 959 2388 959 1747 
Q 959 1106 1268 751 
Q 1578 397 2138 397 
Q 2388 397 2633 464 
Q 2878 531 3122 666 
L 3122 134 
Q 2881 22 2623 -34 
Q 2366 -91 2075 -91 
Q 1284 -91 818 406 
Q 353 903 353 1747 
Q 353 2603 823 3093 
Q 1294 3584 2113 3584 
Q 2378 3584 2631 3529 
Q 2884 3475 3122 3366 
z
" transform="scale(0.015625)"/>
       <path id="DejaVuSans-4b" d="M 3513 2113 
L 3513 0 
L 2938 0 
L 2938 2094 
Q 2938 2591 2744 2837 
Q 2550 3084 2163 3084 
Q 1697 3084 1428 2787 
Q 1159 2491 1159 1978 
L 1159 0 
L 581 0 
L 581 4863 
L 1159 4863 
L 1159 2956 
Q 1366 3272 1645 3428 
Q 1925 3584 2291 3584 
Q 2894 3584 3203 3211 
Q 3513 2838 3513 2113 
z
" transform="scale(0.015625)"/>
       <path id="DejaVuSans-c" d="M 513 4856 
L 1013 4856 
Q 1481 4119 1714 3412 
Q 1947 2706 1947 2009 
Q 1947 1309 1714 600 
Q 1481 -109 1013 -844 
L 513 -844 
Q 928 -128 1133 580 
Q 1338 1288 1338 2009 
Q 1338 2731 1133 3434 
Q 928 4138 513 4856 
z
" transform="scale(0.015625)"/>
      </defs>
      <use xlink:href="#DejaVuSans-2f"/>
      <use xlink:href="#DejaVuSans-52" transform="translate(53.96875 0)"/>
      <use xlink:href="#DejaVuSans-4a" transform="translate(115.15625 0)"/>
      <use xlink:href="#DejaVuSans-3" transform="translate(178.640625 0)"/>
      <use xlink:href="#DejaVuSans-4c" transform="translate(210.421875 0)"/>
      <use xlink:href="#DejaVuSans-51" transform="translate(238.203125 0)"/>
      <use xlink:href="#DejaVuSans-47" transform="translate(301.578125 0)"/>
      <use xlink:href="#DejaVuSans-48" transform="translate(365.0625 0)"/>
      <use xlink:href="#DejaVuSans-5b" transform="translate(424.84375 0)"/>
      <use xlink:href="#DejaVuSans-3" transform="translate(484.03125 0)"/>
      <use xlink:href="#DejaVuSans-b" transform="translate(515.8125 0)"/>
      <use xlink:href="#DejaVuSans-61" transform="translate(554.828125 0)"/>
      <use xlink:href="#DejaVuSans-45" transform="translate(638.625 0)"/>
      <use xlink:href="#DejaVuSans-44" transform="translate(702.109375 0)"/>
      <use xlink:href="#DejaVuSans-57" transform="translate(763.390625 0)"/>
      <use xlink:href="#DejaVuSans-46" transform="translate(802.59375 0)"/>
      <use xlink:href="#DejaVuSans-4b" transform="translate(857.578125 0)"/>
      <use xlink:href="#DejaVuSans-3" transform="translate(920.953125 0)"/>
      <use xlink:href="#DejaVuSans-4c" transform="translate(952.734375 0)"/>
      <use xlink:href="#DejaVuSans-51" transform="translate(980.515625 0)"/>
      <use xlink:href="#DejaVuSans-47" transform="translate(1043.890625 0)"/>
      <use xlink:href="#DejaVuSans-48" transform="translate(1107.375 0)"/>
      <use xlink:href="#DejaVuSans-5b" transform="translate(1167.15625 0)"/>
      <use xlink:href="#DejaVuSans-c" transform="translate(1226.34375 0)"/>
     </g>
    </g>
   </g>
   <g id="matplotlib.axis_2">
    <g id="ytick_1">
     <g id="line2d_10">
      <defs>
       <path id="m03ed283937" d="M 0 0 
L -3.5 0 
" style="stroke: #000000; stroke-width: 0.8"/>
      </defs>
      <g>
       <use xlink:href="#m03ed283937" x="57.6" y="306.138559" style="stroke: #000000; stroke-width: 0.8"/>
      </g>
     </g>
     <g id="text_11">
      <!-- 3.4 -->
      <g transform="translate(34.696875 309.937387) scale(0.1 -0.1)">
       <defs>
        <path id="DejaVuSans-16" d="M 2597 2516 
Q 3050 2419 3304 2112 
Q 3559 1806 3559 1356 
Q 3559 666 3084 287 
Q 2609 -91 1734 -91 
Q 1441 -91 1130 -33 
Q 819 25 488 141 
L 488 750 
Q 750 597 1062 519 
Q 1375 441 1716 441 
Q 2309 441 2620 675 
Q 2931 909 2931 1356 
Q 2931 1769 2642 2001 
Q 2353 2234 1838 2234 
L 1294 2234 
L 1294 2753 
L 1863 2753 
Q 2328 2753 2575 2939 
Q 2822 3125 2822 3475 
Q 2822 3834 2567 4026 
Q 2313 4219 1838 4219 
Q 1578 4219 1281 4162 
Q 984 4106 628 3988 
L 628 4550 
Q 988 4650 1302 4700 
Q 1616 4750 1894 4750 
Q 2613 4750 3031 4423 
Q 3450 4097 3450 3541 
Q 3450 3153 3228 2886 
Q 3006 2619 2597 2516 
z
" transform="scale(0.015625)"/>
        <path id="DejaVuSans-11" d="M 684 794 
L 1344 794 
L 1344 0 
L 684 0 
L 684 794 
z
" transform="scale(0.015625)"/>
        <path id="DejaVuSans-17" d="M 2419 4116 
L 825 1625 
L 2419 1625 
L 2419 4116 
z
M 2253 4666 
L 3047 4666 
L 3047 1625 
L 3713 1625 
L 3713 1100 
L 3047 1100 
L 3047 0 
L 2419 0 
L 2419 1100 
L 313 1100 
L 313 1709 
L 2253 4666 
z
" transform="scale(0.015625)"/>
       </defs>
       <use xlink:href="#DejaVuSans-16"/>
       <use xlink:href="#DejaVuSans-11" transform="translate(63.625 0)"/>
       <use xlink:href="#DejaVuSans-17" transform="translate(95.40625 0)"/>
      </g>
     </g>
    </g>
    <g id="ytick_2">
     <g id="line2d_11">
      <g>
       <use xlink:href="#m03ed283937" x="57.6" y="254.648268" style="stroke: #000000; stroke-width: 0.8"/>
      </g>
     </g>
     <g id="text_12">
      <!-- 3.6 -->
      <g transform="translate(34.696875 258.447096) scale(0.1 -0.1)">
       <defs>
        <path id="DejaVuSans-19" d="M 2113 2584 
Q 1688 2584 1439 2293 
Q 1191 2003 1191 1497 
Q 1191 994 1439 701 
Q 1688 409 2113 409 
Q 2538 409 2786 701 
Q 3034 994 3034 1497 
Q 3034 2003 2786 2293 
Q 2538 2584 2113 2584 
z
M 3366 4563 
L 3366 3988 
Q 3128 4100 2886 4159 
Q 2644 4219 2406 4219 
Q 1781 4219 1451 3797 
Q 1122 3375 1075 2522 
Q 1259 2794 1537 2939 
Q 1816 3084 2150 3084 
Q 2853 3084 3261 2657 
Q 3669 2231 3669 1497 
Q 3669 778 3244 343 
Q 2819 -91 2113 -91 
Q 1303 -91 875 529 
Q 447 1150 447 2328 
Q 447 3434 972 4092 
Q 1497 4750 2381 4750 
Q 2619 4750 2861 4703 
Q 3103 4656 3366 4563 
z
" transform="scale(0.015625)"/>
       </defs>
       <use xlink:href="#DejaVuSans-16"/>
       <use xlink:href="#DejaVuSans-11" transform="translate(63.625 0)"/>
       <use xlink:href="#DejaVuSans-19" transform="translate(95.40625 0)"/>
      </g>
     </g>
    </g>
    <g id="ytick_3">
     <g id="line2d_12">
      <g>
       <use xlink:href="#m03ed283937" x="57.6" y="203.157977" style="stroke: #000000; stroke-width: 0.8"/>
      </g>
     </g>
     <g id="text_13">
      <!-- 3.8 -->
      <g transform="translate(34.696875 206.956805) scale(0.1 -0.1)">
       <defs>
        <path id="DejaVuSans-1b" d="M 2034 2216 
Q 1584 2216 1326 1975 
Q 1069 1734 1069 1313 
Q 1069 891 1326 650 
Q 1584 409 2034 409 
Q 2484 409 2743 651 
Q 3003 894 3003 1313 
Q 3003 1734 2745 1975 
Q 2488 2216 2034 2216 
z
M 1403 2484 
Q 997 2584 770 2862 
Q 544 3141 544 3541 
Q 544 4100 942 4425 
Q 1341 4750 2034 4750 
Q 2731 4750 3128 4425 
Q 3525 4100 3525 3541 
Q 3525 3141 3298 2862 
Q 3072 2584 2669 2484 
Q 3125 2378 3379 2068 
Q 3634 1759 3634 1313 
Q 3634 634 3220 271 
Q 2806 -91 2034 -91 
Q 1263 -91 848 271 
Q 434 634 434 1313 
Q 434 1759 690 2068 
Q 947 2378 1403 2484 
z
M 1172 3481 
Q 1172 3119 1398 2916 
Q 1625 2713 2034 2713 
Q 2441 2713 2670 2916 
Q 2900 3119 2900 3481 
Q 2900 3844 2670 4047 
Q 2441 4250 2034 4250 
Q 1625 4250 1398 4047 
Q 1172 3844 1172 3481 
z
" transform="scale(0.015625)"/>
       </defs>
       <use xlink:href="#DejaVuSans-16"/>
       <use xlink:href="#DejaVuSans-11" transform="translate(63.625 0)"/>
       <use xlink:href="#DejaVuSans-1b" transform="translate(95.40625 0)"/>
      </g>
     </g>
    </g>
    <g id="ytick_4">
     <g id="line2d_13">
      <g>
       <use xlink:href="#m03ed283937" x="57.6" y="151.667685" style="stroke: #000000; stroke-width: 0.8"/>
      </g>
     </g>
     <g id="text_14">
      <!-- 4.0 -->
      <g transform="translate(34.696875 155.466513) scale(0.1 -0.1)">
       <use xlink:href="#DejaVuSans-17"/>
       <use xlink:href="#DejaVuSans-11" transform="translate(63.625 0)"/>
       <use xlink:href="#DejaVuSans-13" transform="translate(95.40625 0)"/>
      </g>
     </g>
    </g>
    <g id="ytick_5">
     <g id="line2d_14">
      <g>
       <use xlink:href="#m03ed283937" x="57.6" y="100.177394" style="stroke: #000000; stroke-width: 0.8"/>
      </g>
     </g>
     <g id="text_15">
      <!-- 4.2 -->
      <g transform="translate(34.696875 103.976222) scale(0.1 -0.1)">
       <use xlink:href="#DejaVuSans-17"/>
       <use xlink:href="#DejaVuSans-11" transform="translate(63.625 0)"/>
       <use xlink:href="#DejaVuSans-15" transform="translate(95.40625 0)"/>
      </g>
     </g>
    </g>
    <g id="ytick_6">
     <g id="line2d_15">
      <g>
       <use xlink:href="#m03ed283937" x="57.6" y="48.687103" style="stroke: #000000; stroke-width: 0.8"/>
      </g>
     </g>
     <g id="text_16">
      <!-- 4.4 -->
      <g transform="translate(34.696875 52.485931) scale(0.1 -0.1)">
       <use xlink:href="#DejaVuSans-17"/>
       <use xlink:href="#DejaVuSans-11" transform="translate(63.625 0)"/>
       <use xlink:href="#DejaVuSans-17" transform="translate(95.40625 0)"/>
      </g>
     </g>
    </g>
    <g id="text_17">
     <!-- Loss value -->
     <g transform="translate(28.294531 200.742063) rotate(-90) scale(0.1 -0.1)">
      <defs>
       <path id="DejaVuSans-56" d="M 2834 3397 
L 2834 2853 
Q 2591 2978 2328 3040 
Q 2066 3103 1784 3103 
Q 1356 3103 1142 2972 
Q 928 2841 928 2578 
Q 928 2378 1081 2264 
Q 1234 2150 1697 2047 
L 1894 2003 
Q 2506 1872 2764 1633 
Q 3022 1394 3022 966 
Q 3022 478 2636 193 
Q 2250 -91 1575 -91 
Q 1294 -91 989 -36 
Q 684 19 347 128 
L 347 722 
Q 666 556 975 473 
Q 1284 391 1588 391 
Q 1994 391 2212 530 
Q 2431 669 2431 922 
Q 2431 1156 2273 1281 
Q 2116 1406 1581 1522 
L 1381 1569 
Q 847 1681 609 1914 
Q 372 2147 372 2553 
Q 372 3047 722 3315 
Q 1072 3584 1716 3584 
Q 2034 3584 2315 3537 
Q 2597 3491 2834 3397 
z
" transform="scale(0.015625)"/>
       <path id="DejaVuSans-59" d="M 191 3500 
L 800 3500 
L 1894 563 
L 2988 3500 
L 3597 3500 
L 2284 0 
L 1503 0 
L 191 3500 
z
" transform="scale(0.015625)"/>
       <path id="DejaVuSans-4f" d="M 603 4863 
L 1178 4863 
L 1178 0 
L 603 0 
L 603 4863 
z
" transform="scale(0.015625)"/>
       <path id="DejaVuSans-58" d="M 544 1381 
L 544 3500 
L 1119 3500 
L 1119 1403 
Q 1119 906 1312 657 
Q 1506 409 1894 409 
Q 2359 409 2629 706 
Q 2900 1003 2900 1516 
L 2900 3500 
L 3475 3500 
L 3475 0 
L 2900 0 
L 2900 538 
Q 2691 219 2414 64 
Q 2138 -91 1772 -91 
Q 1169 -91 856 284 
Q 544 659 544 1381 
z
M 1991 3584 
L 1991 3584 
z
" transform="scale(0.015625)"/>
      </defs>
      <use xlink:href="#DejaVuSans-2f"/>
      <use xlink:href="#DejaVuSans-52" transform="translate(53.96875 0)"/>
      <use xlink:href="#DejaVuSans-56" transform="translate(115.15625 0)"/>
      <use xlink:href="#DejaVuSans-56" transform="translate(167.25 0)"/>
      <use xlink:href="#DejaVuSans-3" transform="translate(219.34375 0)"/>
      <use xlink:href="#DejaVuSans-59" transform="translate(251.125 0)"/>
      <use xlink:href="#DejaVuSans-44" transform="translate(310.3125 0)"/>
      <use xlink:href="#DejaVuSans-4f" transform="translate(371.59375 0)"/>
      <use xlink:href="#DejaVuSans-58" transform="translate(399.375 0)"/>
      <use xlink:href="#DejaVuSans-48" transform="translate(462.75 0)"/>
     </g>
    </g>
   </g>
   <g id="line2d_16">
    <path d="M 73.994973 53.960033 
L 74.319466 58.85401 
L 75.130696 64.385484 
L 75.292943 64.707369 
L 75.617435 66.585153 
L 75.779681 66.608884 
L 75.941927 69.561682 
L 76.104173 69.593189 
L 76.26642 69.422544 
L 76.428666 71.828765 
L 76.590912 70.355636 
L 77.07765 75.246075 
L 77.239896 76.57502 
L 77.402143 76.851379 
L 77.726635 78.710322 
L 77.888881 78.360909 
L 78.213373 82.143151 
L 78.375619 82.25566 
L 78.537866 80.486185 
L 78.700112 84.106497 
L 78.862358 85.211659 
L 79.024604 83.726633 
L 79.18685 86.735933 
L 79.349096 86.97575 
L 79.511343 87.515682 
L 79.835835 90.025277 
L 79.998081 91.053117 
L 80.160327 90.356523 
L 80.322573 91.473458 
L 80.484819 91.768923 
L 80.809312 94.881749 
L 80.971558 95.840959 
L 81.133804 95.177436 
L 81.29605 96.998259 
L 81.458296 96.9731 
L 81.620542 96.817741 
L 81.782789 99.45402 
L 81.945035 98.353577 
L 82.431773 102.225584 
L 82.594019 101.933033 
L 82.756266 102.398059 
L 82.918512 104.895589 
L 83.243004 105.290558 
L 83.40525 105.156729 
L 83.567496 104.098726 
L 83.729742 107.286602 
L 83.891989 108.220758 
L 84.054235 106.187477 
L 84.216481 109.244474 
L 84.378727 109.515052 
L 84.540973 111.373606 
L 84.703219 111.922185 
L 84.865465 112.026673 
L 85.027712 111.929481 
L 85.189958 112.482348 
L 85.352204 114.651981 
L 85.51445 114.928785 
L 85.676696 115.980631 
L 85.838942 115.799469 
L 86.487927 118.329863 
L 86.650173 117.813845 
L 86.812419 118.283366 
L 86.974665 121.436722 
L 87.299158 121.558834 
L 87.461404 122.798898 
L 87.62365 122.81872 
L 87.785896 122.318775 
L 87.948142 123.451183 
L 88.110388 123.360506 
L 88.434881 125.899451 
L 88.597127 124.985219 
L 88.921619 127.987509 
L 89.083865 126.744074 
L 89.246111 129.306541 
L 89.408358 128.982746 
L 89.73285 130.569484 
L 90.057342 130.293642 
L 90.219588 130.1245 
L 90.381835 129.090954 
L 90.544081 133.435432 
L 90.706327 131.732061 
L 91.030819 134.269051 
L 91.193065 135.381901 
L 91.517558 133.619812 
L 91.679804 135.865281 
L 91.84205 135.849916 
L 92.004296 138.91291 
L 92.166542 138.810379 
L 92.491034 140.357921 
L 92.653281 138.878471 
L 92.977773 140.907387 
L 93.140019 141.244863 
L 93.302265 141.083455 
L 93.626758 143.074376 
L 93.789004 141.931952 
L 93.95125 144.499328 
L 94.113496 142.883828 
L 94.275742 145.269892 
L 94.437988 145.232322 
L 94.600234 146.588101 
L 94.762481 146.555745 
L 94.924727 145.601957 
L 95.086973 147.052237 
L 95.249219 147.196689 
L 95.411465 146.68442 
L 95.573711 146.669444 
L 95.735957 150.272974 
L 95.898204 149.431049 
L 96.06045 147.834956 
L 96.222696 148.136686 
L 96.384942 150.733008 
L 96.709434 151.711768 
L 96.871681 151.700882 
L 97.196173 153.180015 
L 97.358419 153.20265 
L 97.520665 154.714944 
L 97.845157 152.798786 
L 98.16965 154.660096 
L 98.494142 155.293656 
L 98.656388 154.967034 
L 98.818634 155.959516 
L 98.98088 156.006092 
L 99.143127 157.687121 
L 99.305373 154.468004 
L 99.629865 160.363477 
L 99.792111 159.304571 
L 100.116604 161.244568 
L 100.27885 160.789141 
L 100.603342 161.238771 
L 100.765588 160.039597 
L 100.927834 161.370321 
L 101.09008 156.7277 
L 101.414573 163.822267 
L 101.901311 162.482954 
L 102.063557 162.405305 
L 102.38805 165.104596 
L 102.550296 164.450875 
L 102.712542 166.634866 
L 102.874788 165.130525 
L 103.19928 167.840965 
L 103.361527 167.287959 
L 103.523773 168.304181 
L 103.686019 168.350205 
L 103.848265 169.595885 
L 104.010511 166.858451 
L 104.172757 170.353027 
L 104.335003 169.852677 
L 104.49725 169.796682 
L 104.659496 171.877107 
L 104.821742 170.712522 
L 104.983988 172.008187 
L 105.146234 171.563485 
L 105.30848 167.528144 
L 105.470726 170.142356 
L 105.632973 169.887965 
L 105.795219 173.54003 
L 105.957465 173.81649 
L 106.119711 173.652323 
L 106.281957 173.203242 
L 106.444203 171.678144 
L 106.768696 176.297416 
L 106.930942 174.123566 
L 107.093188 177.126548 
L 107.255434 174.851937 
L 107.579926 177.803977 
L 107.742173 177.552768 
L 107.904419 178.32706 
L 108.066665 178.493796 
L 108.228911 177.816104 
L 108.391157 176.599968 
L 108.553403 180.089719 
L 108.715649 180.091798 
L 108.877896 179.884451 
L 109.040142 180.461529 
L 109.202388 179.090571 
L 109.52688 181.046601 
L 109.689126 176.448678 
L 110.013619 180.765768 
L 110.338111 183.091598 
L 110.500357 182.776963 
L 110.662603 182.068203 
L 110.824849 183.74169 
L 110.987096 184.041828 
L 111.311588 182.791709 
L 111.473834 182.636151 
L 111.63608 185.147159 
L 111.798326 184.450022 
L 111.960572 186.710652 
L 112.285065 182.115238 
L 112.771803 188.002316 
L 113.096295 187.45732 
L 113.258542 183.729179 
L 113.420788 184.467136 
L 113.74528 189.678305 
L 113.907526 188.105814 
L 114.069772 188.114311 
L 114.232019 186.187752 
L 114.394265 189.384937 
L 114.556511 190.12865 
L 114.718757 187.01202 
L 114.881003 189.898176 
L 115.043249 190.257578 
L 115.205495 193.065045 
L 115.367742 192.398375 
L 115.529988 190.3237 
L 115.692234 190.803753 
L 115.85448 190.605924 
L 116.016726 190.772092 
L 116.178972 191.801787 
L 116.341218 193.678965 
L 116.503465 193.578514 
L 116.665711 193.158814 
L 116.827957 191.448366 
L 116.990203 195.638296 
L 117.152449 194.358664 
L 117.314695 195.553358 
L 117.476942 195.231298 
L 117.639188 196.263599 
L 117.801434 194.750522 
L 117.96368 195.652854 
L 118.125926 195.872258 
L 118.288172 195.507097 
L 118.450418 196.058545 
L 118.612665 193.193251 
L 118.937157 198.655962 
L 119.099403 197.205296 
L 119.423895 198.15253 
L 119.586141 198.749177 
L 119.748388 200.017706 
L 119.910634 197.788235 
L 120.07288 198.935493 
L 120.397372 198.774573 
L 120.721865 198.890926 
L 120.884111 199.781837 
L 121.046357 199.933968 
L 121.370849 201.114276 
L 121.533095 200.21187 
L 121.857588 195.230123 
L 122.019834 201.446654 
L 122.344326 203.663588 
L 122.506572 197.859372 
L 122.668818 202.777956 
L 122.831064 197.267741 
L 122.993311 198.009477 
L 123.155557 203.36258 
L 123.317803 203.007178 
L 123.480049 204.861837 
L 123.642295 203.737477 
L 123.804541 204.272438 
L 124.129034 198.670716 
L 124.453526 205.677805 
L 124.615772 201.181859 
L 125.264757 207.648132 
L 125.589249 204.51191 
L 125.751495 203.83577 
L 125.913741 204.641505 
L 126.075987 206.600195 
L 126.238234 203.866521 
L 126.40048 207.983994 
L 126.562726 208.726866 
L 126.724972 205.595395 
L 127.049464 208.306412 
L 127.211711 208.716548 
L 127.536203 208.798049 
L 127.698449 208.1279 
L 127.860695 204.665028 
L 128.185187 210.408892 
L 128.347434 210.080859 
L 128.671926 208.14085 
L 128.834172 208.630937 
L 128.996418 211.172381 
L 129.158664 210.337765 
L 129.32091 212.574234 
L 129.483157 212.420115 
L 129.645403 211.139367 
L 129.807649 211.590962 
L 129.969895 208.196876 
L 130.132141 212.540434 
L 130.294387 212.43651 
L 130.61888 213.670437 
L 130.781126 213.313437 
L 130.943372 213.385745 
L 131.105618 212.746488 
L 131.267864 212.775506 
L 131.592357 214.793233 
L 131.754603 213.514044 
L 132.079095 214.996837 
L 132.241341 214.142166 
L 132.403587 215.49362 
L 132.565833 215.786891 
L 132.72808 215.418711 
L 133.052572 215.684598 
L 133.214818 213.062406 
L 133.377064 214.545897 
L 133.53931 211.424331 
L 134.026049 218.013329 
L 134.188295 218.901808 
L 134.350541 216.752745 
L 134.512787 217.446108 
L 134.675033 215.460237 
L 134.83728 219.781026 
L 134.999526 217.948858 
L 135.161772 217.872545 
L 135.324018 219.606032 
L 135.486264 216.77133 
L 135.810756 219.224385 
L 135.973003 217.293046 
L 136.135249 218.069342 
L 136.297495 219.70765 
L 136.459741 218.85892 
L 136.621987 217.289681 
L 136.784233 219.364414 
L 136.946479 219.326109 
L 137.108726 221.633535 
L 137.270972 220.148879 
L 137.433218 220.171809 
L 137.75771 223.2221 
L 137.919956 219.897432 
L 138.082203 221.452649 
L 138.244449 221.809439 
L 138.406695 221.856441 
L 138.568941 222.576072 
L 138.731187 221.30201 
L 138.893433 222.566502 
L 139.055679 222.180554 
L 139.217926 224.609414 
L 139.380172 221.741919 
L 139.542418 222.570242 
L 139.704664 218.091423 
L 139.86691 222.361069 
L 140.029156 222.527169 
L 140.191402 223.388266 
L 140.353649 225.323528 
L 140.515895 225.10979 
L 140.678141 224.388617 
L 140.840387 225.146906 
L 141.002633 223.437998 
L 141.164879 225.184142 
L 141.327126 220.036223 
L 141.489372 223.547206 
L 141.651618 223.08935 
L 141.813864 225.235224 
L 142.138356 219.085579 
L 142.462849 223.64117 
L 142.787341 225.738591 
L 142.949587 222.898176 
L 143.111833 226.386377 
L 143.274079 225.577992 
L 143.436325 227.575555 
L 143.598572 227.62869 
L 143.923064 222.861983 
L 144.08531 227.78111 
L 144.247556 227.002332 
L 144.409802 227.744803 
L 144.572049 227.098572 
L 144.734295 230.282272 
L 144.896541 227.252648 
L 145.058787 227.004989 
L 145.383279 229.299817 
L 145.545525 228.848678 
L 145.707772 227.956098 
L 145.870018 229.94622 
L 146.032264 228.99401 
L 146.19451 230.126701 
L 146.519002 223.450621 
L 146.681248 230.847376 
L 146.843495 231.265596 
L 147.005741 229.592343 
L 147.167987 231.734744 
L 147.330233 229.487195 
L 147.492479 229.110988 
L 147.654725 229.097331 
L 147.816972 231.66693 
L 148.141464 231.270782 
L 148.30371 231.321213 
L 148.465956 230.704587 
L 148.628202 230.541227 
L 148.790448 232.70499 
L 148.952695 231.701159 
L 149.114941 227.097057 
L 149.439433 232.80764 
L 149.601679 231.493402 
L 149.763925 233.444134 
L 150.088418 231.348276 
L 150.250664 231.319193 
L 150.41291 231.592938 
L 150.575156 232.637868 
L 150.737402 234.683513 
L 150.899648 233.541558 
L 151.061895 234.709838 
L 151.386387 233.308837 
L 151.710879 235.910398 
L 151.873125 235.309161 
L 152.035371 236.425857 
L 152.197618 235.229906 
L 152.359864 236.363332 
L 152.52211 234.463548 
L 152.846602 233.356763 
L 153.171094 235.868166 
L 153.333341 233.646046 
L 153.495587 236.878795 
L 153.657833 236.249507 
L 153.820079 236.504472 
L 153.982325 237.497738 
L 154.144571 233.735779 
L 154.306818 236.108536 
L 154.469064 236.458136 
L 154.63131 235.97419 
L 154.793556 238.444397 
L 154.955802 236.811481 
L 155.118048 238.700886 
L 155.604787 234.503292 
L 155.767033 234.815165 
L 155.929279 237.757992 
L 156.091525 237.486125 
L 156.253771 233.957148 
L 156.416017 236.860422 
L 156.578264 237.633591 
L 156.74051 239.047769 
L 156.902756 238.94487 
L 157.065002 235.961706 
L 157.389494 240.152667 
L 157.55174 237.226677 
L 157.713987 239.000242 
L 157.876233 238.778235 
L 158.038479 240.103051 
L 158.200725 237.889716 
L 158.362971 238.828525 
L 158.525217 241.418609 
L 158.687464 240.29655 
L 158.84971 238.330809 
L 159.011956 241.050777 
L 159.174202 236.338773 
L 159.336448 240.150899 
L 159.498694 241.21546 
L 159.66094 241.037764 
L 159.823187 239.828378 
L 159.985433 240.416088 
L 160.147679 241.44023 
L 160.309925 238.04585 
L 160.472171 241.094794 
L 160.634417 240.63098 
L 160.796663 241.735511 
L 160.95891 234.854446 
L 161.283402 239.575719 
L 161.445648 239.406521 
L 161.607894 241.066482 
L 161.932387 238.768666 
L 162.094633 232.728829 
L 162.256879 240.359479 
L 162.419125 241.99779 
L 162.581371 241.851181 
L 162.743617 242.011388 
L 162.905863 243.296961 
L 163.06811 239.882703 
L 163.230356 240.110752 
L 163.392602 242.30103 
L 163.554848 242.429976 
L 163.717094 243.33966 
L 163.87934 243.13082 
L 164.041586 245.342871 
L 164.366079 241.101863 
L 164.528325 243.888086 
L 164.690571 244.351977 
L 164.852817 244.470946 
L 165.015063 245.451267 
L 165.17731 245.072409 
L 165.339556 238.777248 
L 165.501802 244.297975 
L 165.664048 243.806638 
L 165.98854 241.37366 
L 166.150786 243.825522 
L 166.313033 243.953016 
L 166.475279 240.225881 
L 166.637525 245.942624 
L 166.799771 246.988197 
L 166.962017 246.919602 
L 167.124263 244.514909 
L 167.448756 246.508409 
L 167.773248 247.318314 
L 167.935494 246.574518 
L 168.09774 244.601175 
L 168.259986 246.184526 
L 168.584479 245.439453 
L 168.746725 243.093221 
L 168.908971 247.458834 
L 169.233463 245.336001 
L 169.395709 246.689537 
L 169.557956 242.682763 
L 169.720202 244.616623 
L 169.882448 244.070405 
L 170.044694 245.223306 
L 170.20694 243.490439 
L 170.531432 248.735558 
L 170.693679 247.20713 
L 170.855925 250.242286 
L 171.180417 248.046675 
L 171.342663 248.260335 
L 171.504909 246.633393 
L 171.667156 249.302635 
L 171.829402 245.884808 
L 171.991648 249.752645 
L 172.153894 247.791837 
L 172.31614 250.479328 
L 172.640632 246.856345 
L 172.802879 247.854634 
L 172.965125 247.529852 
L 173.127371 250.09113 
L 173.451863 246.567865 
L 173.614109 247.144563 
L 173.776355 249.392566 
L 173.938602 248.352581 
L 174.100848 250.364948 
L 174.263094 249.783988 
L 174.42534 251.832145 
L 174.587586 251.628197 
L 174.749832 251.847678 
L 175.236571 249.757155 
L 175.398817 251.381715 
L 175.561063 250.852122 
L 175.723309 252.04058 
L 175.885555 247.501899 
L 176.047802 251.092679 
L 176.210048 250.383425 
L 176.372294 251.391279 
L 176.53454 251.261612 
L 176.696786 252.100765 
L 177.021278 249.231409 
L 177.183525 249.142624 
L 177.508017 251.327832 
L 177.832509 251.172068 
L 177.994755 253.576917 
L 178.157001 251.217808 
L 178.319248 250.482435 
L 178.481494 251.866018 
L 178.805986 250.57079 
L 178.968232 253.015561 
L 179.130478 251.18669 
L 179.292725 252.077748 
L 179.454971 252.246206 
L 179.617217 246.966977 
L 179.779463 251.437303 
L 179.941709 249.692055 
L 180.103955 251.416042 
L 180.266201 250.647313 
L 180.428448 247.73634 
L 180.590694 252.927264 
L 180.915186 250.273248 
L 181.077432 251.705067 
L 181.239678 251.791266 
L 181.564171 253.573267 
L 181.726417 255.031205 
L 181.888663 254.508737 
L 182.050909 250.073919 
L 182.213155 254.881438 
L 182.375401 254.807463 
L 182.537648 249.853245 
L 182.699894 251.320813 
L 182.86214 254.326739 
L 183.024386 252.358818 
L 183.186632 255.205434 
L 183.348878 255.250405 
L 183.511124 249.038946 
L 183.673371 249.243843 
L 183.835617 250.055159 
L 184.322355 256.989248 
L 184.484601 254.915616 
L 184.646847 255.000922 
L 184.809094 253.983686 
L 185.133586 255.375644 
L 185.295832 255.335317 
L 185.458078 254.867427 
L 185.782571 256.526557 
L 185.944817 254.227371 
L 186.269309 256.892751 
L 186.431555 252.375131 
L 186.593801 258.25743 
L 186.756047 255.865553 
L 186.918294 257.715518 
L 187.08054 255.259055 
L 187.242786 257.205372 
L 187.405032 257.342063 
L 187.567278 253.87543 
L 187.729524 257.273954 
L 187.89177 256.95989 
L 188.054017 258.583683 
L 188.216263 257.354445 
L 188.378509 257.853523 
L 188.703001 254.864489 
L 189.027494 258.023418 
L 189.18974 256.998823 
L 189.351986 253.811999 
L 189.514232 258.625634 
L 189.676478 258.282191 
L 190.00097 255.760337 
L 190.163217 258.748637 
L 190.487709 255.585395 
L 190.649955 255.734125 
L 190.812201 256.469374 
L 191.136693 259.12808 
L 191.461186 256.068247 
L 191.623432 259.236699 
L 191.785678 260.180338 
L 191.947924 258.942555 
L 192.11017 259.626435 
L 192.272417 257.903179 
L 192.434663 258.485674 
L 192.596909 256.843535 
L 192.759155 256.686573 
L 193.083647 261.77159 
L 193.245893 259.170426 
L 193.40814 260.070715 
L 193.570386 259.915604 
L 193.732632 258.135682 
L 193.894878 257.663013 
L 194.057124 260.140056 
L 194.21937 259.432656 
L 194.381616 257.295501 
L 194.543863 251.301871 
L 194.706109 258.502974 
L 194.868355 260.000495 
L 195.030601 255.591536 
L 195.355093 259.929526 
L 195.51734 258.2054 
L 195.679586 259.287129 
L 195.841832 261.680042 
L 196.166324 255.368068 
L 196.32857 260.276794 
L 196.490816 260.733249 
L 196.653063 254.656232 
L 196.815309 261.086674 
L 196.977555 260.663425 
L 197.139801 258.284164 
L 197.302047 257.75747 
L 197.464293 261.941775 
L 197.626539 258.221701 
L 197.788786 258.196527 
L 197.951032 261.530897 
L 198.113278 261.661992 
L 198.43777 259.843216 
L 198.600016 261.818477 
L 198.762263 261.658839 
L 199.086755 259.629415 
L 199.249001 260.534249 
L 199.411247 262.933416 
L 199.573493 262.935778 
L 199.735739 258.814132 
L 199.897986 264.136135 
L 200.060232 262.928209 
L 200.222478 263.417346 
L 200.54697 261.826918 
L 200.709216 262.987216 
L 201.033709 261.473177 
L 201.195955 254.733604 
L 201.520447 263.844889 
L 201.682693 263.059025 
L 201.844939 261.25028 
L 202.007185 263.377957 
L 202.169432 261.788185 
L 202.331678 263.695582 
L 202.493924 260.974252 
L 202.818416 263.852526 
L 202.980662 259.014278 
L 203.142909 264.043518 
L 203.305155 262.222256 
L 203.467401 261.853373 
L 203.791893 263.886918 
L 203.954139 264.13262 
L 204.116385 263.185779 
L 204.278632 264.660789 
L 204.603124 258.547295 
L 204.927616 264.67828 
L 205.089862 264.426104 
L 205.252108 265.251962 
L 205.414355 264.203641 
L 205.576601 265.688865 
L 205.738847 265.107014 
L 205.901093 263.076889 
L 206.063339 266.187332 
L 206.387832 264.093506 
L 206.550078 263.822765 
L 206.712324 261.77697 
L 206.87457 266.183535 
L 207.036816 262.99334 
L 207.361308 265.86562 
L 207.523555 264.243691 
L 207.685801 266.598587 
L 207.848047 266.744434 
L 208.010293 261.724782 
L 208.172539 265.65306 
L 208.334785 265.19711 
L 208.497031 264.125383 
L 208.659278 267.182343 
L 208.821524 265.116118 
L 208.98377 265.736166 
L 209.146016 262.320831 
L 209.308262 264.218601 
L 209.470508 263.671511 
L 209.632755 262.350407 
L 209.957247 264.146166 
L 210.281739 267.649946 
L 210.606231 264.011625 
L 210.930724 267.88638 
L 211.09297 265.298717 
L 211.255216 268.760611 
L 211.417462 266.490931 
L 211.579708 266.343187 
L 211.741954 268.496539 
L 211.904201 268.186992 
L 212.066447 267.178537 
L 212.228693 264.518946 
L 212.390939 265.129244 
L 212.553185 266.671105 
L 212.877678 264.906397 
L 213.039924 266.298126 
L 213.20217 264.799564 
L 213.364416 266.659022 
L 213.688908 262.639803 
L 213.851154 266.572582 
L 214.013401 263.528678 
L 214.175647 263.362846 
L 214.337893 266.517158 
L 214.500139 264.759215 
L 214.662385 267.678814 
L 214.824631 267.002043 
L 214.986877 267.424818 
L 215.149124 265.429691 
L 215.473616 266.851516 
L 215.635862 266.304734 
L 215.960354 267.893116 
L 216.122601 266.729549 
L 216.284847 269.350032 
L 216.609339 267.927817 
L 217.096077 263.25877 
L 217.258324 268.020348 
L 217.42057 267.248661 
L 217.582816 268.599055 
L 217.745062 268.584191 
L 217.907308 265.283035 
L 218.069554 264.800326 
L 218.2318 268.666239 
L 218.394047 268.766605 
L 218.556293 267.205526 
L 218.718539 270.638055 
L 218.880785 269.586537 
L 219.043031 267.456622 
L 219.205277 270.371476 
L 219.367524 270.140683 
L 219.52977 266.875097 
L 219.692016 267.747678 
L 219.854262 269.259967 
L 220.016508 267.447813 
L 220.178754 270.260492 
L 220.341 269.469023 
L 220.503247 269.692415 
L 220.665493 270.302617 
L 220.827739 269.874736 
L 220.989985 264.364197 
L 221.152231 267.67507 
L 221.476723 269.36465 
L 221.63897 267.822077 
L 221.801216 271.028143 
L 221.963462 271.079419 
L 222.125708 270.447391 
L 222.612447 266.981909 
L 222.774693 271.759355 
L 222.936939 264.7156 
L 223.099185 267.220185 
L 223.261431 266.479141 
L 223.423677 270.618409 
L 223.585923 269.143729 
L 223.74817 270.346924 
L 223.910416 269.489098 
L 224.072662 271.738042 
L 224.234908 268.568752 
L 224.397154 270.541287 
L 224.5594 270.649663 
L 224.721646 271.648861 
L 224.883893 270.826805 
L 225.046139 270.767981 
L 225.208385 268.793696 
L 225.370631 270.304168 
L 225.532877 268.234503 
L 225.857369 271.584845 
L 226.019616 270.167447 
L 226.181862 273.062289 
L 226.506354 264.671511 
L 226.6686 269.478798 
L 226.830846 269.648345 
L 226.993093 269.313626 
L 227.155339 272.182652 
L 227.479831 269.832231 
L 227.642077 271.091236 
L 227.804323 271.054414 
L 227.966569 270.318434 
L 228.128816 271.541754 
L 228.291062 269.671598 
L 228.453308 272.698455 
L 228.615554 269.960613 
L 228.940046 271.426577 
L 229.102292 271.72608 
L 229.426785 267.51131 
L 229.589031 267.836148 
L 229.751277 268.75912 
L 229.913523 267.803849 
L 230.075769 271.33379 
L 230.238016 270.809245 
L 230.400262 274.022455 
L 230.562508 272.924672 
L 230.724754 273.367083 
L 230.887 271.380652 
L 231.049246 271.939782 
L 231.535985 269.548566 
L 231.698231 267.570585 
L 232.022723 271.355673 
L 232.184969 271.326156 
L 232.347215 271.495198 
L 232.671708 271.567687 
L 232.833954 269.840692 
L 232.9962 270.273205 
L 233.158446 271.976611 
L 233.320692 269.135034 
L 233.645185 272.758357 
L 233.807431 273.229177 
L 233.969677 274.334096 
L 234.131923 273.820717 
L 234.456415 272.212335 
L 234.618662 271.961597 
L 234.780908 269.282415 
L 234.943154 274.270021 
L 235.1054 274.787045 
L 235.267646 272.880748 
L 235.429892 273.050097 
L 235.592138 273.418196 
L 235.754385 273.4039 
L 235.916631 270.413744 
L 236.078877 273.254394 
L 236.403369 274.126595 
L 236.565615 270.578265 
L 236.727862 273.768553 
L 237.2146 270.946319 
L 237.376846 275.574591 
L 237.539092 274.675057 
L 237.701338 272.422272 
L 237.863585 274.684202 
L 238.025831 272.68512 
L 238.188077 274.612082 
L 238.512569 268.716464 
L 238.674815 272.08416 
L 238.837061 272.668849 
L 238.999308 272.116511 
L 239.161554 272.824561 
L 239.3238 272.59628 
L 239.486046 275.776303 
L 239.648292 270.533633 
L 239.972785 275.670641 
L 240.135031 273.02697 
L 240.297277 273.699997 
L 240.459523 273.777459 
L 240.621769 276.453824 
L 240.784015 274.394768 
L 240.946261 274.089387 
L 241.108508 276.398319 
L 241.270754 276.461095 
L 241.433 275.162038 
L 241.595246 269.435774 
L 241.757492 275.953842 
L 241.919738 272.79277 
L 242.081984 273.959261 
L 242.244231 276.359517 
L 242.406477 275.956333 
L 242.568723 273.158878 
L 242.730969 276.472076 
L 242.893215 275.383149 
L 243.217708 271.765702 
L 243.379954 274.370324 
L 243.704446 273.369935 
L 243.866692 275.572283 
L 244.028938 276.152161 
L 244.353431 275.730107 
L 244.515677 274.262084 
L 244.840169 275.303007 
L 245.002415 274.718475 
L 245.164661 276.481283 
L 245.326907 276.220595 
L 245.489154 274.757141 
L 245.6514 277.041609 
L 245.813646 274.271452 
L 245.975892 276.640796 
L 246.138138 272.598381 
L 246.300384 277.669748 
L 246.624877 275.535987 
L 246.949369 277.62177 
L 247.273861 272.15275 
L 247.436107 271.198324 
L 247.7606 276.422288 
L 247.922846 270.352029 
L 248.085092 274.6321 
L 248.247338 275.549122 
L 248.409584 278.419288 
L 248.57183 277.865202 
L 248.734077 276.877719 
L 248.896323 278.903868 
L 249.058569 274.286789 
L 249.220815 276.224314 
L 249.383061 276.500292 
L 249.545307 277.842204 
L 249.707553 276.955352 
L 249.8698 277.104747 
L 250.032046 273.648947 
L 250.194292 277.727903 
L 250.356538 275.368702 
L 250.518784 276.203976 
L 250.68103 276.425408 
L 250.843277 277.656035 
L 251.005523 275.510089 
L 251.167769 277.373896 
L 251.330015 277.129701 
L 251.492261 273.615918 
L 251.654507 279.084972 
L 251.816753 275.857866 
L 251.979 275.396759 
L 252.141246 278.413396 
L 252.303492 277.595436 
L 252.465738 275.631699 
L 252.627984 275.155938 
L 252.79023 277.538192 
L 252.952476 276.059065 
L 253.114723 275.726671 
L 253.276969 277.945441 
L 253.601461 273.389427 
L 253.763707 277.537271 
L 253.925953 276.676493 
L 254.0882 280.213594 
L 254.250446 278.83354 
L 254.412692 278.523538 
L 254.737184 274.127921 
L 254.89943 271.843923 
L 255.061676 271.851649 
L 255.386169 276.760955 
L 255.548415 277.717915 
L 255.710661 276.577806 
L 255.872907 274.038958 
L 256.035153 273.329915 
L 256.197399 278.951703 
L 256.521892 275.871828 
L 256.684138 279.763912 
L 256.846384 278.670139 
L 257.00863 280.032821 
L 257.170876 272.607882 
L 257.333123 278.478838 
L 257.495369 275.272025 
L 257.819861 279.165623 
L 258.144353 276.897253 
L 258.306599 278.703765 
L 258.468846 278.293323 
L 258.793338 274.60854 
L 258.955584 275.015323 
L 259.11783 279.655062 
L 259.280076 279.660755 
L 259.442322 278.582768 
L 259.604569 279.650957 
L 259.766815 279.025112 
L 259.929061 275.886011 
L 260.091307 278.049888 
L 260.253553 276.399674 
L 260.415799 276.448995 
L 260.578046 278.312856 
L 260.740292 278.72993 
L 260.902538 277.963508 
L 261.22703 280.339019 
L 261.551522 276.092014 
L 261.713769 279.208787 
L 261.876015 278.497192 
L 262.362753 281.955447 
L 262.849492 278.158023 
L 263.011738 279.124981 
L 263.33623 279.150762 
L 263.498476 278.801292 
L 263.660722 277.902842 
L 263.822969 281.424472 
L 264.309707 278.475053 
L 264.471953 278.350072 
L 264.958692 281.568858 
L 265.283184 278.850296 
L 265.44543 279.301838 
L 265.607676 281.314506 
L 265.769922 279.503481 
L 265.932168 274.173634 
L 266.256661 279.518733 
L 266.418907 279.941521 
L 266.581153 280.703023 
L 266.743399 275.537403 
L 266.905645 281.514464 
L 267.067892 281.61681 
L 267.230138 280.443805 
L 267.392384 282.061885 
L 267.55463 281.650568 
L 267.716876 280.630339 
L 267.879122 277.253438 
L 268.041368 277.844266 
L 268.203615 281.458622 
L 268.365861 281.581364 
L 268.528107 278.66095 
L 268.690353 278.511748 
L 268.852599 279.093969 
L 269.014845 281.586537 
L 269.339338 278.918759 
L 269.66383 280.837505 
L 269.826076 278.330022 
L 269.988322 282.425323 
L 270.312815 278.583995 
L 270.637307 282.69378 
L 270.799553 276.375943 
L 271.286291 282.393539 
L 271.77303 277.653214 
L 271.935276 277.668583 
L 272.097522 275.311406 
L 272.259768 280.131409 
L 272.422014 281.553576 
L 272.584261 281.460885 
L 272.746507 280.772584 
L 272.908753 281.02561 
L 273.070999 282.306468 
L 273.233245 279.055078 
L 273.557737 281.82638 
L 273.719984 280.776384 
L 273.88223 278.744684 
L 274.044476 278.83958 
L 274.206722 281.980897 
L 274.368968 281.616347 
L 274.693461 279.784718 
L 274.855707 277.511683 
L 275.017953 280.279973 
L 275.180199 277.889135 
L 275.504691 283.291491 
L 275.666937 281.20108 
L 275.99143 283.579636 
L 276.153676 281.472567 
L 276.315922 281.537869 
L 276.478168 283.346542 
L 276.640414 279.793398 
L 276.80266 280.411092 
L 276.964907 283.19087 
L 277.289399 280.266757 
L 277.451645 282.084787 
L 277.613891 277.97462 
L 277.776137 283.78196 
L 277.938384 278.097137 
L 278.10063 277.738556 
L 278.425122 281.997053 
L 278.587368 278.787646 
L 278.749614 281.534123 
L 279.236353 283.139774 
L 279.398599 281.446811 
L 279.560845 281.226911 
L 279.723091 279.067058 
L 280.047583 282.568044 
L 280.20983 281.070785 
L 280.534322 283.697427 
L 280.696568 282.482889 
L 280.858814 284.108239 
L 281.02106 281.407237 
L 281.183307 280.932318 
L 281.345553 282.986743 
L 281.507799 280.906634 
L 281.670045 280.706819 
L 281.832291 278.944952 
L 282.156783 283.502439 
L 282.31903 282.903201 
L 282.481276 280.675394 
L 282.643522 283.205193 
L 282.805768 283.475685 
L 282.968014 282.178657 
L 283.13026 281.898527 
L 283.454753 283.130873 
L 283.616999 280.304653 
L 283.779245 280.798023 
L 283.941491 283.500796 
L 284.103737 277.838479 
L 284.265983 282.268245 
L 284.42823 282.042694 
L 284.590476 283.342829 
L 284.752722 283.744823 
L 285.077214 280.790846 
L 285.23946 282.22299 
L 285.401706 281.355503 
L 285.563953 281.502638 
L 285.726199 284.412826 
L 286.212937 278.533141 
L 286.375183 283.750775 
L 286.537429 281.331558 
L 286.699676 282.988189 
L 286.861922 281.51097 
L 287.024168 281.285598 
L 287.186414 285.038019 
L 287.34866 282.101117 
L 287.510906 283.2123 
L 287.673153 279.692472 
L 287.997645 285.008565 
L 288.159891 284.250137 
L 288.484383 281.183628 
L 288.646629 284.056356 
L 288.808876 281.297662 
L 288.971122 284.649986 
L 289.133368 281.645893 
L 289.295614 284.795869 
L 289.45786 280.385547 
L 289.620106 284.310029 
L 289.782352 282.135113 
L 289.944599 285.215025 
L 290.106845 284.943752 
L 290.269091 285.070086 
L 290.431337 283.844292 
L 290.593583 284.703022 
L 290.755829 283.407804 
L 290.918076 281.056563 
L 291.242568 285.195526 
L 291.404814 284.413744 
L 291.56706 281.769638 
L 291.729306 284.959491 
L 291.891552 283.781436 
L 292.053799 280.449826 
L 292.216045 281.889726 
L 292.378291 285.586804 
L 292.540537 283.699932 
L 292.702783 283.526586 
L 292.865029 283.815978 
L 293.027275 284.371697 
L 293.189522 282.003719 
L 293.351768 284.89313 
L 293.514014 282.563823 
L 293.67626 283.991765 
L 293.838506 280.901763 
L 294.162999 286.753729 
L 294.487491 281.258678 
L 294.649737 283.328096 
L 294.811983 280.552469 
L 294.974229 279.756065 
L 295.136475 283.327587 
L 295.298722 281.945737 
L 295.460968 279.082129 
L 295.623214 285.266752 
L 295.78546 284.458499 
L 295.947706 284.273342 
L 296.109952 282.102821 
L 296.596691 286.856091 
L 296.758937 285.606026 
L 296.921183 286.28908 
L 297.083429 284.925926 
L 297.245675 279.163153 
L 297.407921 282.961597 
L 297.570168 281.631523 
L 297.732414 286.086277 
L 297.89466 284.986459 
L 298.056906 282.963612 
L 298.219152 287.113714 
L 298.381398 286.003011 
L 298.543645 286.89247 
L 298.705891 284.551822 
L 298.868137 285.019167 
L 299.354875 279.048966 
L 299.517121 280.004537 
L 299.841614 286.275522 
L 300.00386 285.856991 
L 300.166106 282.983805 
L 300.328352 284.090018 
L 300.490598 287.112918 
L 300.652844 287.106254 
L 300.977337 283.52271 
L 301.301829 286.787544 
L 301.626321 283.470994 
L 301.788568 283.66112 
L 301.950814 286.759684 
L 302.275306 282.396618 
L 302.437552 286.54035 
L 302.599798 287.028294 
L 303.086537 282.597368 
L 303.411029 285.686898 
L 303.897767 287.746685 
L 304.060014 284.640911 
L 304.22226 287.275432 
L 304.546752 281.177348 
L 304.871244 287.042131 
L 305.033491 283.818328 
L 305.195737 283.221615 
L 305.357983 283.890094 
L 305.844721 287.909784 
L 306.006967 282.946484 
L 306.169214 286.813339 
L 306.33146 280.966478 
L 306.655952 283.983458 
L 306.818198 286.215444 
L 306.980444 285.434306 
L 307.14269 286.893406 
L 307.304937 283.28026 
L 307.629429 288.75797 
L 307.791675 286.551491 
L 307.953921 288.487035 
L 308.116167 285.419197 
L 308.44066 283.838385 
L 308.602906 284.895616 
L 308.765152 280.680059 
L 308.927398 282.288293 
L 309.089644 285.243067 
L 309.25189 285.053148 
L 309.414137 285.706495 
L 309.576383 284.88554 
L 309.738629 286.3955 
L 309.900875 284.465849 
L 310.063121 284.96306 
L 310.225367 285.907777 
L 310.387613 284.896368 
L 310.54986 286.35411 
L 310.874352 286.837803 
L 311.036598 285.306011 
L 311.198844 282.004444 
L 311.36109 284.158215 
L 311.523337 287.861812 
L 311.685583 283.677697 
L 311.847829 287.073719 
L 312.010075 286.535299 
L 312.172321 288.421902 
L 312.334567 283.785965 
L 312.65906 287.511628 
L 312.821306 286.680421 
L 312.983552 287.237049 
L 313.145798 286.636266 
L 313.308044 283.771033 
L 313.47029 283.94002 
L 313.794783 287.271817 
L 313.957029 286.587344 
L 314.119275 285.196812 
L 314.443767 287.067294 
L 314.606013 286.348359 
L 314.76826 282.163712 
L 314.930506 287.169877 
L 315.092752 288.616029 
L 315.417244 286.661661 
L 315.57949 288.288574 
L 315.741736 287.978707 
L 316.066229 282.028039 
L 316.228475 282.671809 
L 316.552967 289.109507 
L 316.715213 288.425455 
L 316.877459 285.880377 
L 317.201952 287.221933 
L 317.364198 287.258366 
L 317.526444 285.464868 
L 317.68869 286.464129 
L 317.850936 288.162455 
L 318.013182 287.364362 
L 318.337675 284.66704 
L 318.499921 286.946815 
L 318.662167 287.242745 
L 318.824413 285.678669 
L 318.986659 287.718368 
L 319.148906 287.802414 
L 319.311152 285.791759 
L 319.473398 285.631265 
L 319.635644 286.554717 
L 319.79789 289.298913 
L 319.960136 288.715096 
L 320.122382 288.930947 
L 320.284629 287.050295 
L 320.446875 286.975716 
L 320.609121 286.018283 
L 320.771367 287.23254 
L 320.933613 285.77874 
L 321.095859 287.577157 
L 321.258105 286.31524 
L 321.420352 288.952845 
L 321.582598 285.879975 
L 321.744844 289.783115 
L 321.90709 284.163028 
L 322.231582 284.337857 
L 322.393829 283.702836 
L 322.556075 288.183355 
L 322.718321 289.423115 
L 322.880567 288.487227 
L 323.042813 289.691227 
L 323.205059 286.347945 
L 323.367305 289.517981 
L 323.691798 286.949205 
L 323.854044 286.600752 
L 324.01629 285.839368 
L 324.340782 285.785029 
L 324.665275 287.578732 
L 324.827521 283.428216 
L 324.989767 286.525987 
L 325.152013 283.427655 
L 325.314259 289.183181 
L 325.476505 288.918001 
L 325.638752 287.226446 
L 325.800998 287.763352 
L 325.963244 288.735762 
L 326.12549 285.942707 
L 326.287736 290.522546 
L 326.449982 288.084714 
L 326.774475 287.215928 
L 326.936721 289.34943 
L 327.098967 289.92498 
L 327.423459 285.468327 
L 327.585705 288.931918 
L 327.747951 283.94086 
L 327.910198 286.951405 
L 328.072444 284.248689 
L 328.23469 287.812622 
L 328.396936 286.674849 
L 328.559182 286.629161 
L 328.721428 287.304828 
L 328.883675 289.491263 
L 329.208167 287.497131 
L 329.370413 287.820988 
L 329.532659 290.000798 
L 329.694905 289.415099 
L 329.857151 288.204431 
L 330.019398 288.967086 
L 330.181644 287.343726 
L 330.34389 282.986447 
L 330.668382 287.199893 
L 330.992874 285.810492 
L 331.155121 286.691623 
L 331.317367 282.8925 
L 331.479613 288.122112 
L 331.641859 285.06478 
L 331.804105 286.066036 
L 331.966351 286.137906 
L 332.128598 286.874405 
L 332.290844 288.851111 
L 332.45309 286.197638 
L 332.777582 288.413683 
L 333.102074 286.198152 
L 333.264321 289.81934 
L 333.426567 290.259868 
L 333.588813 288.238589 
L 333.751059 289.010001 
L 333.913305 286.092451 
L 334.075551 286.350652 
L 334.237797 284.914504 
L 334.400044 288.600628 
L 334.56229 287.934554 
L 334.724536 290.264564 
L 334.886782 289.78331 
L 335.049028 290.355537 
L 335.211274 289.584614 
L 335.373521 291.331099 
L 335.535767 288.492324 
L 335.698013 290.713049 
L 336.022505 285.4852 
L 336.184751 287.799375 
L 336.509244 287.51599 
L 336.67149 290.681633 
L 336.833736 288.541214 
L 336.995982 288.561323 
L 337.158228 290.627483 
L 337.320474 290.085932 
L 337.48272 290.937413 
L 337.644967 288.118797 
L 337.807213 288.967765 
L 337.969459 288.873872 
L 338.131705 289.299043 
L 338.293951 287.475245 
L 338.456197 287.933523 
L 338.618444 289.308639 
L 338.78069 288.806917 
L 338.942936 286.340147 
L 339.105182 286.486943 
L 339.267428 289.091659 
L 339.429674 286.395783 
L 339.754167 289.767126 
L 339.916413 290.04643 
L 340.078659 288.480106 
L 340.240905 288.549888 
L 340.565397 290.575464 
L 340.727643 287.881948 
L 340.88989 287.871626 
L 341.052136 289.972949 
L 341.214382 290.475157 
L 341.376628 289.493632 
L 341.538874 286.21834 
L 341.70112 289.675381 
L 341.863366 289.577722 
L 342.025613 287.972985 
L 342.187859 289.305109 
L 342.350105 287.562359 
L 342.512351 287.285756 
L 342.674597 286.100972 
L 342.836843 289.64253 
L 343.161336 290.105123 
L 343.323582 287.069256 
L 343.972566 289.283897 
L 344.134813 290.049824 
L 344.459305 288.847863 
L 344.621551 289.422631 
L 344.783797 287.122342 
L 344.946043 289.125622 
L 345.108289 288.76151 
L 345.270536 283.295129 
L 345.432782 289.28687 
L 345.595028 281.141359 
L 345.757274 287.557477 
L 346.081766 290.340168 
L 346.568505 287.018058 
L 346.730751 288.64067 
L 346.892997 288.258786 
L 347.055243 291.744238 
L 347.217489 290.700298 
L 347.379736 291.908381 
L 347.541982 288.717275 
L 347.704228 291.045981 
L 347.866474 290.404797 
L 348.02872 289.138891 
L 348.353212 292.593085 
L 348.515459 289.695357 
L 348.677705 289.343312 
L 348.839951 289.652888 
L 349.002197 289.214128 
L 349.164443 290.417049 
L 349.488936 284.965315 
L 349.651182 289.496776 
L 349.813428 290.126458 
L 349.975674 289.317924 
L 350.13792 292.284052 
L 350.300166 290.059735 
L 350.462412 290.795227 
L 350.624659 285.011452 
L 350.786905 288.166185 
L 350.949151 288.679988 
L 351.111397 289.904937 
L 351.273643 292.338378 
L 351.435889 291.893639 
L 351.598135 287.261686 
L 351.760382 289.541606 
L 351.922628 290.161673 
L 352.24712 287.245402 
L 352.571612 290.014921 
L 352.733859 290.22435 
L 352.896105 291.171693 
L 353.058351 289.530013 
L 353.220597 289.248558 
L 353.382843 291.709811 
L 353.707335 289.046266 
L 353.869582 289.963383 
L 354.031828 286.714709 
L 354.194074 289.518918 
L 354.35632 289.174357 
L 354.518566 292.189477 
L 354.680812 290.437547 
L 354.843058 290.694887 
L 355.005305 291.438928 
L 355.167551 292.769386 
L 355.329797 290.195827 
L 355.492043 291.759685 
L 355.654289 291.412333 
L 355.816535 290.773781 
L 355.978782 288.283956 
L 356.141028 291.986678 
L 356.46552 285.192752 
L 356.627766 285.201546 
L 356.952258 288.847245 
L 357.114505 286.339266 
L 357.438997 289.694657 
L 357.601243 290.180152 
L 357.763489 287.166 
L 357.925735 290.659746 
L 358.087981 290.583751 
L 358.250228 289.490826 
L 358.412474 292.519441 
L 358.57472 289.215535 
L 358.736966 290.301437 
L 358.899212 288.982064 
L 359.061458 288.601528 
L 359.223705 287.054369 
L 359.385951 292.13335 
L 359.548197 287.603022 
L 359.710443 290.385636 
L 359.872689 288.876838 
L 360.034935 289.358046 
L 360.197181 288.746296 
L 360.359428 287.560758 
L 360.521674 292.762911 
L 360.846166 288.293229 
L 361.008412 289.073709 
L 361.170658 288.560812 
L 361.332904 289.067532 
L 361.657397 287.363935 
L 361.819643 290.919805 
L 361.981889 290.762093 
L 362.144135 289.296836 
L 362.306381 290.088107 
L 362.468628 291.908802 
L 362.630874 287.47461 
L 363.117612 291.469506 
L 363.279858 289.597056 
L 363.442104 290.139543 
L 363.604351 289.283939 
L 363.766597 289.800177 
L 363.928843 292.283961 
L 364.091089 290.659684 
L 364.253335 290.494523 
L 364.415581 290.624093 
L 364.577827 290.191781 
L 364.740074 288.725438 
L 364.90232 281.092309 
L 365.226812 291.885674 
L 365.551304 293.564452 
L 365.71355 292.51636 
L 365.875797 293.115844 
L 366.038043 289.1595 
L 366.200289 289.487905 
L 366.362535 290.908585 
L 366.524781 289.417109 
L 366.687027 291.225368 
L 366.849274 289.92386 
L 367.01152 289.771364 
L 367.173766 293.093864 
L 367.336012 290.09212 
L 367.498258 290.760633 
L 367.660504 292.805555 
L 367.82275 291.845259 
L 367.984997 286.185883 
L 368.147243 284.480653 
L 368.309489 290.048953 
L 368.471735 290.164258 
L 368.633981 289.439708 
L 368.796227 289.776327 
L 368.958473 292.922277 
L 369.12072 288.73746 
L 369.282966 290.210568 
L 369.445212 290.539849 
L 369.607458 289.827897 
L 369.769704 286.768003 
L 369.93195 294.084402 
L 370.094197 291.097814 
L 370.256443 291.843712 
L 370.580935 287.710604 
L 370.743181 289.61653 
L 370.905427 289.912677 
L 371.067673 292.916586 
L 371.22992 292.141067 
L 371.392166 290.210501 
L 371.554412 291.597815 
L 371.716658 291.501544 
L 371.878904 291.758317 
L 372.203396 288.505249 
L 372.527889 291.356537 
L 372.690135 288.6232 
L 373.014627 293.03016 
L 373.176873 292.668049 
L 373.33912 287.072764 
L 373.501366 292.487926 
L 373.663612 292.016791 
L 373.825858 290.716783 
L 374.15035 293.980985 
L 374.474843 292.56164 
L 374.637089 292.314431 
L 374.799335 288.774477 
L 374.961581 293.65656 
L 375.123827 290.975758 
L 375.286073 291.133097 
L 375.448319 289.957994 
L 375.610566 293.451067 
L 375.935058 290.209881 
L 376.097304 288.123271 
L 376.421796 293.160616 
L 376.746289 294.617952 
L 376.908535 291.347896 
L 377.070781 293.196954 
L 377.233027 289.945044 
L 377.557519 292.182536 
L 377.719766 293.231585 
L 378.044258 288.702933 
L 378.36875 292.158248 
L 378.530996 288.219739 
L 378.693242 291.211696 
L 378.855489 289.243172 
L 379.017735 289.522848 
L 379.179981 287.87278 
L 379.342227 291.687513 
L 379.504473 291.343357 
L 379.666719 292.829434 
L 379.828966 289.853625 
L 379.991212 289.38133 
L 380.153458 291.076875 
L 380.315704 291.12635 
L 380.47795 292.482063 
L 380.640196 292.635455 
L 380.802442 291.866776 
L 380.964689 291.706021 
L 381.126935 294.039058 
L 381.289181 293.939703 
L 381.451427 289.592703 
L 381.613673 291.647512 
L 381.775919 291.280844 
L 381.938165 291.738866 
L 382.100412 293.403 
L 382.262658 289.821704 
L 382.424904 291.128514 
L 382.58715 291.249324 
L 382.749396 291.702617 
L 382.911642 291.036734 
L 383.073889 292.598453 
L 383.236135 292.758088 
L 383.398381 291.483326 
L 383.560627 294.522536 
L 383.885119 290.838339 
L 384.047365 292.580278 
L 384.209612 290.471553 
L 384.534104 291.826002 
L 384.69635 293.43368 
L 384.858596 292.59542 
L 385.020842 293.237229 
L 385.183088 291.548446 
L 385.345335 293.521864 
L 385.832073 291.690939 
L 385.994319 291.716708 
L 386.318812 289.553976 
L 386.481058 293.403 
L 386.643304 291.392056 
L 386.80555 286.669546 
L 386.967796 293.647634 
L 387.130042 290.400347 
L 387.292288 293.215237 
L 387.454535 291.711771 
L 387.616781 293.960491 
L 387.941273 289.563422 
L 388.103519 293.021549 
L 388.428011 289.373308 
L 388.752504 294.32272 
L 388.91475 288.347219 
L 389.239242 292.082585 
L 389.401488 291.085727 
L 389.563734 293.785685 
L 389.725981 291.35892 
L 389.888227 294.44939 
L 390.050473 291.357193 
L 390.212719 293.698528 
L 390.374965 293.302465 
L 390.537211 294.453996 
L 390.699458 294.17634 
L 391.186196 287.100036 
L 391.348442 287.179747 
L 391.672934 293.927325 
L 391.835181 294.167406 
L 391.997427 291.657951 
L 392.159673 291.789925 
L 392.321919 292.683097 
L 392.484165 289.314591 
L 392.646411 291.179804 
L 392.808657 290.806249 
L 392.970904 290.793299 
L 393.13315 292.813201 
L 393.295396 290.382794 
L 393.457642 292.357465 
L 393.619888 289.668023 
L 393.782134 294.211949 
L 393.944381 292.329959 
L 394.106627 294.113776 
L 394.268873 290.139243 
L 394.593365 291.384103 
L 394.755611 289.083825 
L 394.917857 291.34019 
L 395.080104 289.822608 
L 395.24235 293.866348 
L 395.404596 293.531069 
L 395.566842 291.392868 
L 395.729088 293.626224 
L 395.891334 290.729502 
L 396.05358 293.911787 
L 396.215827 291.050288 
L 396.378073 294.461731 
L 396.540319 295.488 
L 396.864811 290.383495 
L 397.027057 290.789555 
L 397.189304 293.865785 
L 397.35155 291.935906 
L 397.513796 292.455028 
L 397.676042 291.136066 
L 397.838288 294.476866 
L 398.16278 290.733813 
L 398.487273 292.154689 
L 398.487273 292.154689 
" clip-path="url(#p69df2d4ed2)" style="fill: none; stroke: #1f77b4; stroke-opacity: 0.7; stroke-width: 1.5; stroke-linecap: square"/>
   </g>
   <g id="line2d_17">
    <path d="M 57.6 287.258366 
L 414.72 287.258366 
" clip-path="url(#p69df2d4ed2)" style="fill: none; stroke: #000000; stroke-width: 1.5; stroke-linecap: square"/>
   </g>
   <g id="patch_3">
    <path d="M 57.6 307.584 
L 57.6 41.472 
" style="fill: none; stroke: #000000; stroke-width: 0.8; stroke-linejoin: miter; stroke-linecap: square"/>
   </g>
   <g id="patch_4">
    <path d="M 57.6 307.584 
L 414.72 307.584 
" style="fill: none; stroke: #000000; stroke-width: 0.8; stroke-linejoin: miter; stroke-linecap: square"/>
   </g>
   <g id="legend_1">
    <g id="patch_5">
     <path d="M 230.20125 109.475125 
L 407.72 109.475125 
Q 409.72 109.475125 409.72 107.475125 
L 409.72 48.472 
Q 409.72 46.472 407.72 46.472 
L 230.20125 46.472 
Q 228.20125 46.472 228.20125 48.472 
L 228.20125 107.475125 
Q 228.20125 109.475125 230.20125 109.475125 
z
" style="fill: #ffffff; opacity: 0.8; stroke: #cccccc; stroke-linejoin: miter"/>
    </g>
    <g id="line2d_18">
     <path d="M 232.20125 54.570438 
L 242.20125 54.570438 
L 252.20125 54.570438 
" style="fill: none; stroke: #1f77b4; stroke-opacity: 0.7; stroke-width: 1.5; stroke-linecap: square"/>
    </g>
    <g id="text_18">
     <!-- Loss per batch -->
     <g transform="translate(260.20125 58.070438) scale(0.1 -0.1)">
      <defs>
       <path id="DejaVuSans-53" d="M 1159 525 
L 1159 -1331 
L 581 -1331 
L 581 3500 
L 1159 3500 
L 1159 2969 
Q 1341 3281 1617 3432 
Q 1894 3584 2278 3584 
Q 2916 3584 3314 3078 
Q 3713 2572 3713 1747 
Q 3713 922 3314 415 
Q 2916 -91 2278 -91 
Q 1894 -91 1617 61 
Q 1341 213 1159 525 
z
M 3116 1747 
Q 3116 2381 2855 2742 
Q 2594 3103 2138 3103 
Q 1681 3103 1420 2742 
Q 1159 2381 1159 1747 
Q 1159 1113 1420 752 
Q 1681 391 2138 391 
Q 2594 391 2855 752 
Q 3116 1113 3116 1747 
z
" transform="scale(0.015625)"/>
       <path id="DejaVuSans-55" d="M 2631 2963 
Q 2534 3019 2420 3045 
Q 2306 3072 2169 3072 
Q 1681 3072 1420 2755 
Q 1159 2438 1159 1844 
L 1159 0 
L 581 0 
L 581 3500 
L 1159 3500 
L 1159 2956 
Q 1341 3275 1631 3429 
Q 1922 3584 2338 3584 
Q 2397 3584 2469 3576 
Q 2541 3569 2628 3553 
L 2631 2963 
z
" transform="scale(0.015625)"/>
      </defs>
      <use xlink:href="#DejaVuSans-2f"/>
      <use xlink:href="#DejaVuSans-52" transform="translate(53.96875 0)"/>
      <use xlink:href="#DejaVuSans-56" transform="translate(115.15625 0)"/>
      <use xlink:href="#DejaVuSans-56" transform="translate(167.25 0)"/>
      <use xlink:href="#DejaVuSans-3" transform="translate(219.34375 0)"/>
      <use xlink:href="#DejaVuSans-53" transform="translate(251.125 0)"/>
      <use xlink:href="#DejaVuSans-48" transform="translate(314.609375 0)"/>
      <use xlink:href="#DejaVuSans-55" transform="translate(376.140625 0)"/>
      <use xlink:href="#DejaVuSans-3" transform="translate(417.25 0)"/>
      <use xlink:href="#DejaVuSans-45" transform="translate(449.03125 0)"/>
      <use xlink:href="#DejaVuSans-44" transform="translate(512.515625 0)"/>
      <use xlink:href="#DejaVuSans-57" transform="translate(573.796875 0)"/>
      <use xlink:href="#DejaVuSans-46" transform="translate(613 0)"/>
      <use xlink:href="#DejaVuSans-4b" transform="translate(667.984375 0)"/>
     </g>
    </g>
    <g id="PathCollection_2">
     <g>
      <use xlink:href="#mc935ae37f4" x="242.20125" y="70.446219" style="fill: #1f77b4; stroke: #1f77b4"/>
     </g>
    </g>
    <g id="text_19">
     <!-- Loss at training start -->
     <g transform="translate(260.20125 73.071219) scale(0.1 -0.1)">
      <use xlink:href="#DejaVuSans-2f"/>
      <use xlink:href="#DejaVuSans-52" transform="translate(53.96875 0)"/>
      <use xlink:href="#DejaVuSans-56" transform="translate(115.15625 0)"/>
      <use xlink:href="#DejaVuSans-56" transform="translate(167.25 0)"/>
      <use xlink:href="#DejaVuSans-3" transform="translate(219.34375 0)"/>
      <use xlink:href="#DejaVuSans-44" transform="translate(251.125 0)"/>
      <use xlink:href="#DejaVuSans-57" transform="translate(312.40625 0)"/>
      <use xlink:href="#DejaVuSans-3" transform="translate(351.609375 0)"/>
      <use xlink:href="#DejaVuSans-57" transform="translate(383.390625 0)"/>
      <use xlink:href="#DejaVuSans-55" transform="translate(422.59375 0)"/>
      <use xlink:href="#DejaVuSans-44" transform="translate(463.703125 0)"/>
      <use xlink:href="#DejaVuSans-4c" transform="translate(524.984375 0)"/>
      <use xlink:href="#DejaVuSans-51" transform="translate(552.765625 0)"/>
      <use xlink:href="#DejaVuSans-4c" transform="translate(616.140625 0)"/>
      <use xlink:href="#DejaVuSans-51" transform="translate(643.921875 0)"/>
      <use xlink:href="#DejaVuSans-4a" transform="translate(707.296875 0)"/>
      <use xlink:href="#DejaVuSans-3" transform="translate(770.78125 0)"/>
      <use xlink:href="#DejaVuSans-56" transform="translate(802.5625 0)"/>
      <use xlink:href="#DejaVuSans-57" transform="translate(854.65625 0)"/>
      <use xlink:href="#DejaVuSans-44" transform="translate(893.859375 0)"/>
      <use xlink:href="#DejaVuSans-55" transform="translate(955.140625 0)"/>
      <use xlink:href="#DejaVuSans-57" transform="translate(996.25 0)"/>
     </g>
    </g>
    <g id="PathCollection_3">
     <defs>
      <path id="m36b6b1d5d5" d="M 0 3 
C 0.795609 3 1.55874 2.683901 2.12132 2.12132 
C 2.683901 1.55874 3 0.795609 3 0 
C 3 -0.795609 2.683901 -1.55874 2.12132 -2.12132 
C 1.55874 -2.683901 0.795609 -3 0 -3 
C -0.795609 -3 -1.55874 -2.683901 -2.12132 -2.12132 
C -2.683901 -1.55874 -3 -0.795609 -3 0 
C -3 0.795609 -2.683901 1.55874 -2.12132 2.12132 
C -1.55874 2.683901 -0.795609 3 0 3 
z
" style="stroke: #ff7f0e"/>
     </defs>
     <g>
      <use xlink:href="#m36b6b1d5d5" x="242.20125" y="85.447" style="fill: #ff7f0e; stroke: #ff7f0e"/>
     </g>
    </g>
    <g id="text_20">
     <!-- Loss at pass boundaries -->
     <g transform="translate(260.20125 88.072) scale(0.1 -0.1)">
      <use xlink:href="#DejaVuSans-2f"/>
      <use xlink:href="#DejaVuSans-52" transform="translate(53.96875 0)"/>
      <use xlink:href="#DejaVuSans-56" transform="translate(115.15625 0)"/>
      <use xlink:href="#DejaVuSans-56" transform="translate(167.25 0)"/>
      <use xlink:href="#DejaVuSans-3" transform="translate(219.34375 0)"/>
      <use xlink:href="#DejaVuSans-44" transform="translate(251.125 0)"/>
      <use xlink:href="#DejaVuSans-57" transform="translate(312.40625 0)"/>
      <use xlink:href="#DejaVuSans-3" transform="translate(351.609375 0)"/>
      <use xlink:href="#DejaVuSans-53" transform="translate(383.390625 0)"/>
      <use xlink:href="#DejaVuSans-44" transform="translate(446.875 0)"/>
      <use xlink:href="#DejaVuSans-56" transform="translate(508.15625 0)"/>
      <use xlink:href="#DejaVuSans-56" transform="translate(560.25 0)"/>
      <use xlink:href="#DejaVuSans-3" transform="translate(612.34375 0)"/>
      <use xlink:href="#DejaVuSans-45" transform="translate(644.125 0)"/>
      <use xlink:href="#DejaVuSans-52" transform="translate(707.609375 0)"/>
      <use xlink:href="#DejaVuSans-58" transform="translate(768.796875 0)"/>
      <use xlink:href="#DejaVuSans-51" transform="translate(832.171875 0)"/>
      <use xlink:href="#DejaVuSans-47" transform="translate(895.546875 0)"/>
      <use xlink:href="#DejaVuSans-44" transform="translate(959.03125 0)"/>
      <use xlink:href="#DejaVuSans-55" transform="translate(1020.3125 0)"/>
      <use xlink:href="#DejaVuSans-4c" transform="translate(1061.421875 0)"/>
      <use xlink:href="#DejaVuSans-48" transform="translate(1089.203125 0)"/>
      <use xlink:href="#DejaVuSans-56" transform="translate(1150.734375 0)"/>
     </g>
    </g>
    <g id="line2d_19">
     <path d="M 232.20125 99.572781 
L 242.20125 99.572781 
L 252.20125 99.572781 
" style="fill: none; stroke: #000000; stroke-width: 1.5; stroke-linecap: square"/>
    </g>
    <g id="text_21">
     <!-- Early-stopping reference loss -->
     <g transform="translate(260.20125 103.072781) scale(0.1 -0.1)">
      <defs>
       <path id="DejaVuSans-28" d="M 628 4666 
L 3578 4666 
L 3578 4134 
L 1259 4134 
L 1259 2753 
L 3481 2753 
L 3481 2222 
L 1259 2222 
L 1259 531 
L 3634 531 
L 3634 0 
L 628 0 
L 628 4666 
z
" transform="scale(0.015625)"/>
       <path id="DejaVuSans-5c" d="M 2059 -325 
Q 1816 -950 1584 -1140 
Q 1353 -1331 966 -1331 
L 506 -1331 
L 506 -850 
L 844 -850 
Q 1081 -850 1212 -737 
Q 1344 -625 1503 -206 
L 1606 56 
L 191 3500 
L 800 3500 
L 1894 763 
L 2988 3500 
L 3597 3500 
L 2059 -325 
z
" transform="scale(0.015625)"/>
       <path id="DejaVuSans-10" d="M 313 2009 
L 1997 2009 
L 1997 1497 
L 313 1497 
L 313 2009 
z
" transform="scale(0.015625)"/>
       <path id="DejaVuSans-49" d="M 2375 4863 
L 2375 4384 
L 1825 4384 
Q 1516 4384 1395 4259 
Q 1275 4134 1275 3809 
L 1275 3500 
L 2222 3500 
L 2222 3053 
L 1275 3053 
L 1275 0 
L 697 0 
L 697 3053 
L 147 3053 
L 147 3500 
L 697 3500 
L 697 3744 
Q 697 4328 969 4595 
Q 1241 4863 1831 4863 
L 2375 4863 
z
" transform="scale(0.015625)"/>
      </defs>
      <use xlink:href="#DejaVuSans-28"/>
      <use xlink:href="#DejaVuSans-44" transform="translate(63.1875 0)"/>
      <use xlink:href="#DejaVuSans-55" transform="translate(124.46875 0)"/>
      <use xlink:href="#DejaVuSans-4f" transform="translate(165.578125 0)"/>
      <use xlink:href="#DejaVuSans-5c" transform="translate(193.359375 0)"/>
      <use xlink:href="#DejaVuSans-10" transform="translate(250.796875 0)"/>
      <use xlink:href="#DejaVuSans-56" transform="translate(286.875 0)"/>
      <use xlink:href="#DejaVuSans-57" transform="translate(338.96875 0)"/>
      <use xlink:href="#DejaVuSans-52" transform="translate(378.171875 0)"/>
      <use xlink:href="#DejaVuSans-53" transform="translate(439.359375 0)"/>
      <use xlink:href="#DejaVuSans-53" transform="translate(502.84375 0)"/>
      <use xlink:href="#DejaVuSans-4c" transform="translate(566.328125 0)"/>
      <use xlink:href="#DejaVuSans-51" transform="translate(594.109375 0)"/>
      <use xlink:href="#DejaVuSans-4a" transform="translate(657.484375 0)"/>
      <use xlink:href="#DejaVuSans-3" transform="translate(720.96875 0)"/>
      <use xlink:href="#DejaVuSans-55" transform="translate(752.75 0)"/>
      <use xlink:href="#DejaVuSans-48" transform="translate(791.65625 0)"/>
      <use xlink:href="#DejaVuSans-49" transform="translate(853.1875 0)"/>
      <use xlink:href="#DejaVuSans-48" transform="translate(888.390625 0)"/>
      <use xlink:href="#DejaVuSans-55" transform="translate(949.921875 0)"/>
      <use xlink:href="#DejaVuSans-48" transform="translate(988.828125 0)"/>
      <use xlink:href="#DejaVuSans-51" transform="translate(1050.359375 0)"/>
      <use xlink:href="#DejaVuSans-46" transform="translate(1113.734375 0)"/>
      <use xlink:href="#DejaVuSans-48" transform="translate(1168.71875 0)"/>
      <use xlink:href="#DejaVuSans-3" transform="translate(1230.25 0)"/>
      <use xlink:href="#DejaVuSans-4f" transform="translate(1262.03125 0)"/>
      <use xlink:href="#DejaVuSans-52" transform="translate(1289.8125 0)"/>
      <use xlink:href="#DejaVuSans-56" transform="translate(1351 0)"/>
      <use xlink:href="#DejaVuSans-56" transform="translate(1403.09375 0)"/>
     </g>
    </g>
   </g>
   <g id="PathCollection_4">
    <g clip-path="url(#p69df2d4ed2)">
     <use xlink:href="#m36b6b1d5d5" x="90.057342" y="130.293642" style="fill: #ff7f0e; stroke: #ff7f0e"/>
     <use xlink:href="#m36b6b1d5d5" x="106.281957" y="173.203242" style="fill: #ff7f0e; stroke: #ff7f0e"/>
     <use xlink:href="#m36b6b1d5d5" x="122.506572" y="197.859372" style="fill: #ff7f0e; stroke: #ff7f0e"/>
     <use xlink:href="#m36b6b1d5d5" x="138.731187" y="221.30201" style="fill: #ff7f0e; stroke: #ff7f0e"/>
     <use xlink:href="#m36b6b1d5d5" x="154.955802" y="236.811481" style="fill: #ff7f0e; stroke: #ff7f0e"/>
     <use xlink:href="#m36b6b1d5d5" x="171.180417" y="248.046675" style="fill: #ff7f0e; stroke: #ff7f0e"/>
     <use xlink:href="#m36b6b1d5d5" x="187.405032" y="257.342063" style="fill: #ff7f0e; stroke: #ff7f0e"/>
     <use xlink:href="#m36b6b1d5d5" x="203.629647" y="263.066712" style="fill: #ff7f0e; stroke: #ff7f0e"/>
     <use xlink:href="#m36b6b1d5d5" x="219.854262" y="269.259967" style="fill: #ff7f0e; stroke: #ff7f0e"/>
     <use xlink:href="#m36b6b1d5d5" x="252.465738" y="275.631699" style="fill: #ff7f0e; stroke: #ff7f0e"/>
     <use xlink:href="#m36b6b1d5d5" x="268.690353" y="278.511748" style="fill: #ff7f0e; stroke: #ff7f0e"/>
     <use xlink:href="#m36b6b1d5d5" x="284.914968" y="282.031814" style="fill: #ff7f0e; stroke: #ff7f0e"/>
     <use xlink:href="#m36b6b1d5d5" x="301.139583" y="285.376927" style="fill: #ff7f0e; stroke: #ff7f0e"/>
     <use xlink:href="#m36b6b1d5d5" x="317.364198" y="287.258366" style="fill: #ff7f0e; stroke: #ff7f0e"/>
     <use xlink:href="#m36b6b1d5d5" x="333.588813" y="288.238589" style="fill: #ff7f0e; stroke: #ff7f0e"/>
     <use xlink:href="#m36b6b1d5d5" x="349.813428" y="290.126458" style="fill: #ff7f0e; stroke: #ff7f0e"/>
     <use xlink:href="#m36b6b1d5d5" x="366.038043" y="289.1595" style="fill: #ff7f0e; stroke: #ff7f0e"/>
     <use xlink:href="#m36b6b1d5d5" x="382.262658" y="289.821704" style="fill: #ff7f0e; stroke: #ff7f0e"/>
    </g>
   </g>
  </g>
 </g>
 <defs>
  <clipPath id="p69df2d4ed2">
   <rect x="57.6" y="41.472" width="357.12" height="266.112"/>
  </clipPath>
 </defs>
</svg>
