<?xml version="1.0" encoding="utf-8" standalone="no"?>
<!DOCTYPE svg PUBLIC "-//W3C//DTD SVG 1.1//EN"
  "http://www.w3.org/Graphics/SVG/1.1/DTD/svg11.dtd">
<svg xmlns:xlink="http://www.w3.org/1999/xlink" width="460.8pt" height="345.6pt" viewBox="0 0 460.8 345.6" xmlns="http://www.w3.org/2000/svg" version="1.1">
 <metadata>
  <rdf:RDF xmlns:dc="http://purl.org/dc/elements/1.1/" xmlns:cc="http://creativecommons.org/ns#" xmlns:rdf="http://www.w3.org/1999/02/22-rdf-syntax-ns#">
   <cc:Work>
    <dc:type rdf:resource="http://purl.org/dc/dcmitype/StillImage"/>
    <dc:date>2026-09-24T14:05:09.874204</dc:date>
    <dc:format>image/svg+xml</dc:format>
    <dc:creator>
     <cc:Agent>
      <dc:title>Matplotlib v3.11.2, https://matplotlib.org/</dc:title>
     </cc:Agent>
    </dc:creator>
   </cc:Work>
  </rdf:RDF>
 </metadata>
 <defs>
  <style type="text/css">*{stroke-linejoin: round; stroke-linecap: butt}</style>
 </defs>
 <g id="figure_1">
  <g id="patch_1">
   <path d="M 0 345.6 
L 460.8 345.6 
L 460.8 0 
L 0 0 
z
" style="fill: #ffffff"/>
  </g>
  <g id="axes_1">
   <g id="patch_2">
    <path d="M 57.6 307.584 
L 414.72 307.584 
L 414.72 41.472 
L 57.6 41.472 
z
" style="fill: #ffffff"/>
   </g>
   <g id="PathCollection_1">
    <defs>
     <path id="m07901933ab" d="M 0 3 
C 0.795609 3 1.55874 2.683901 2.12132 2.12132 
C 2.683901 1.55874 3 0.795609 3 0 
C 3 -0.795609 2.683901 -1.55874 2.12132 -2.12132 
C 1.55874 -2.683901 0.795609 -3 0 -3 
C -0.795609 -3 -1.55874 -2.683901 -2.12132 -2.12132 
C -2.683901 -1.55874 -3 -0.795609 -3 0 
C -3 0.795609 -2.683901 1.55874 -2.12132 2.12132 
C -1.55874 2.683901 -0.795609 3 0 3 
z
" style="stroke: #1f77b4"/>
    </defs>
    <g clip-path="url(#p40fa6c45c3)">
     <use xlink:href="#m07901933ab" x="73.832727" y="53.568" style="fill: #1f77b4; stroke: #1f77b4"/>
     <use xlink:href="#m07901933ab" x="228.511071" y="273.733563" style="fill: #1f77b4; stroke: #1f77b4"/>
    </g>
   </g>
   <g id="matplotlib.axis_1">
    <g id="xtick_1">
     <g id="line2d_1">
      <defs>
       <path id="m4b80198eff" d="M 0 0 
L 0 3.5 
" style="stroke: #000000; stroke-width: 0.8"/>
      </defs>
      <g>
       <use xlink:href="#m4b80198eff" x="73.832727" y="307.584" style="stroke: #000000; stroke-width: 0.8"/>
      </g>
     </g>
     <g id="text_1">
      <!-- 0 -->
      <g transform="translate(70.651477 322.181656) scale(0.1 -0.1)">
       <defs>
        <path id="DejaVuSans-13" d="M 2034 4250 
Q 1547 4250 1301 3770 
Q 1056 3291 1056 2328 
Q 1056 1369 1301 889 
Q 1547 409 2034 409 
Q 2525 409 2770 889 
Q 3016 1369 3016 2328 
Q 3016 3291 2770 3770 
Q 2525 4250 2034 4250 
z
M 2034 4750 
Q 2819 4750 3233 4129 
Q 3647 3509 3647 2328 
Q 3647 1150 3233 529 
Q 2819 -91 2034 -91 
Q 1250 -91 836 529 
Q 422 1150 422 2328 
Q 422 3509 836 4129 
Q 1250 4750 2034 4750 
z
" transform="scale(0.015625)"/>
       </defs>
       <use xlink:href="#DejaVuSans-13"/>
      </g>
     </g>
    </g>
    <g id="xtick_2">
     <g id="line2d_2">
      <g>
       <use xlink:href="#m4b80198eff" x="151.094637" y="307.584" style="stroke: #000000; stroke-width: 0.8"/>
      </g>
     </g>
     <g id="text_2">
      <!-- 500 -->
      <g transform="translate(141.550887 322.181656) scale(0.1 -0.1)">
       <defs>
        <path id="DejaVuSans-18" d="M 691 4666 
L 3169 4666 
L 3169 4134 
L 1269 4134 
L 1269 2991 
Q 1406 3038 1543 3061 
Q 1681 3084 1819 3084 
Q 2600 3084 3056 2656 
Q 3513 2228 3513 1497 
Q 3513 744 3044 326 
Q 2575 -91 1722 -91 
Q 1428 -91 1123 -41 
Q 819 9 494 109 
L 494 744 
Q 775 591 1075 516 
Q 1375 441 1709 441 
Q 2250 441 2565 725 
Q 2881 1009 2881 1497 
Q 2881 1984 2565 2268 
Q 2250 2553 1709 2553 
Q 1456 2553 1204 2497 
Q 953 2441 691 2322 
L 691 4666 
z
" transform="scale(0.015625)"/>
       </defs>
       <use xlink:href="#DejaVuSans-18"/>
       <use xlink:href="#DejaVuSans-13" transform="translate(63.625 0)"/>
       <use xlink:href="#DejaVuSans-13" transform="translate(127.25 0)"/>
      </g>
     </g>
    </g>
    <g id="xtick_3">
     <g id="line2d_3">
      <g>
       <use xlink:href="#m4b80198eff" x="228.356547" y="307.584" style="stroke: #000000; stroke-width: 0.8"/>
      </g>
     </g>
     <g id="text_3">
      <!-- 1000 -->
      <g transform="translate(215.631547 322.181656) scale(0.1 -0.1)">
       <defs>
        <path id="DejaVuSans-14" d="M 794 531 
L 1825 531 
L 1825 4091 
L 703 3866 
L 703 4441 
L 1819 4666 
L 2450 4666 
L 2450 531 
L 3481 531 
L 3481 0 
L 794 0 
L 794 531 
z
" transform="scale(0.015625)"/>
       </defs>
       <use xlink:href="#DejaVuSans-14"/>
       <use xlink:href="#DejaVuSans-13" transform="translate(63.625 0)"/>
       <use xlink:href="#DejaVuSans-13" transform="translate(127.25 0)"/>
       <use xlink:href="#DejaVuSans-13" transform="translate(190.875 0)"/>
      </g>
     </g>
    </g>
    <g id="xtick_4">
     <g id="line2d_4">
      <g>
       <use xlink:href="#m4b80198eff" x="305.618457" y="307.584" style="stroke: #000000; stroke-width: 0.8"/>
      </g>
     </g>
     <g id="text_4">
      <!-- 1500 -->
      <g transform="translate(292.893457 322.181656) scale(0.1 -0.1)">
       <use xlink:href="#DejaVuSans-14"/>
       <use xlink:href="#DejaVuSans-18" transform="translate(63.625 0)"/>
       <use xlink:href="#DejaVuSans-13" transform="translate(127.25 0)"/>
       <use xlink:href="#DejaVuSans-13" transform="translate(190.875 0)"/>
      </g>
     </g>
    </g>
    <g id="xtick_5">
     <g id="line2d_5">
      <g>
       <use xlink:href="#m4b80198eff" x="382.880367" y="307.584" style="stroke: #000000; stroke-width: 0.8"/>
      </g>
     </g>
     <g id="text_5">
      <!-- 2000 -->
      <g transform="translate(370.155367 322.181656) scale(0.1 -0.1)">
       <defs>
        <path id="DejaVuSans-15" d="M 1228 531 
L 3431 531 
L 3431 0 
L 469 0 
L 469 531 
Q 828 903 1448 1529 
Q 2069 2156 2228 2338 
Q 2531 2678 2651 2914 
Q 2772 3150 2772 3378 
Q 2772 3750 2511 3984 
Q 2250 4219 1831 4219 
Q 1534 4219 1204 4116 
Q 875 4013 500 3803 
L 500 4441 
Q 881 4594 1212 4672 
Q 1544 4750 1819 4750 
Q 2544 4750 2975 4387 
Q 3406 4025 3406 3419 
Q 3406 3131 3298 2873 
Q 3191 2616 2906 2266 
Q 2828 2175 2409 1742 
Q 1991 1309 1228 531 
z
" transform="scale(0.015625)"/>
       </defs>
       <use xlink:href="#DejaVuSans-15"/>
       <use xlink:href="#DejaVuSans-13" transform="translate(63.625 0)"/>
       <use xlink:href="#DejaVuSans-13" transform="translate(127.25 0)"/>
       <use xlink:href="#DejaVuSans-13" transform="translate(190.875 0)"/>
      </g>
     </g>
    </g>
    <g id="text_6">
     <!-- Log index (~batch index) -->
     <g transform="translate(172.892031 336.182437) scale(0.1 -0.1)">
      <defs>
       <path id="DejaVuSans-2f" d="M 628 4666 
L 1259 4666 
L 1259 531 
L 3531 531 
L 3531 0 
L 628 0 
L 628 4666 
z
" transform="scale(0.015625)"/>
       <path id="DejaVuSans-52" d="M 1959 3097 
Q 1497 3097 1228 2736 
Q 959 2375 959 1747 
Q 959 1119 1226 758 
Q 1494 397 1959 397 
Q 2419 397 2687 759 
Q 2956 1122 2956 1747 
Q 2956 2369 2687 2733 
Q 2419 3097 1959 3097 
z
M 1959 3584 
Q 2709 3584 3137 3096 
Q 3566 2609 3566 1747 
Q 3566 888 3137 398 
Q 2709 -91 1959 -91 
Q 1206 -91 779 398 
Q 353 888 353 1747 
Q 353 2609 779 3096 
Q 1206 3584 1959 3584 
z
" transform="scale(0.015625)"/>
       <path id="DejaVuSans-4a" d="M 2906 1791 
Q 2906 2416 2648 2759 
Q 2391 3103 1925 3103 
Q 1463 3103 1205 2759 
Q 947 2416 947 1791 
Q 947 1169 1205 825 
Q 1463 481 1925 481 
Q 2391 481 2648 825 
Q 2906 1169 2906 1791 
z
M 3481 434 
Q 3481 -459 3084 -895 
Q 2688 -1331 1869 -1331 
Q 1566 -1331 1297 -1286 
Q 1028 -1241 775 -1147 
L 775 -588 
Q 1028 -725 1275 -790 
Q 1522 -856 1778 -856 
Q 2344 -856 2625 -561 
Q 2906 -266 2906 331 
L 2906 616 
Q 2728 306 2450 153 
Q 2172 0 1784 0 
Q 1141 0 747 490 
Q 353 981 353 1791 
Q 353 2603 747 3093 
Q 1141 3584 1784 3584 
Q 2172 3584 2450 3431 
Q 2728 3278 2906 2969 
L 2906 3500 
L 3481 3500 
L 3481 434 
z
" transform="scale(0.015625)"/>
       <path id="DejaVuSans-3" transform="scale(0.015625)"/>
       <path id="DejaVuSans-4c" d="M 603 3500 
L 1178 3500 
L 1178 0 
L 603 0 
L 603 3500 
z
M 603 4863 
L 1178 4863 
L 1178 4134 
L 603 4134 
L 603 4863 
z
" transform="scale(0.015625)"/>
       <path id="DejaVuSans-51" d="M 3513 2113 
L 3513 0 
L 2938 0 
L 2938 2094 
Q 2938 2591 2744 2837 
Q 2550 3084 2163 3084 
Q 1697 3084 1428 2787 
Q 1159 2491 1159 1978 
L 1159 0 
L 581 0 
L 581 3500 
L 1159 3500 
L 1159 2956 
Q 1366 3272 1645 3428 
Q 1925 3584 2291 3584 
Q 2894 3584 3203 3211 
Q 3513 2838 3513 2113 
z
" transform="scale(0.015625)"/>
       <path id="DejaVuSans-47" d="M 2906 2969 
L 2906 4863 
L 3481 4863 
L 3481 0 
L 2906 0 
L 2906 525 
Q 2725 213 2448 61 
Q 2172 -91 1784 -91 
Q 1150 -91 751 415 
Q 353 922 353 1747 
Q 353 2572 751 3078 
Q 1150 3584 1784 3584 
Q 2172 3584 2448 3432 
Q 2725 3281 2906 2969 
z
M 947 1747 
Q 947 1113 1208 752 
Q 1469 391 1925 391 
Q 2381 391 2643 752 
Q 2906 1113 2906 1747 
Q 2906 2381 2643 2742 
Q 2381 3103 1925 3103 
Q 1469 3103 1208 2742 
Q 947 2381 947 1747 
z
" transform="scale(0.015625)"/>
       <path id="DejaVuSans-48" d="M 3597 1894 
L 3597 1613 
L 953 1613 
Q 991 1019 1311 708 
Q 1631 397 2203 397 
Q 2534 397 2845 478 
Q 3156 559 3463 722 
L 3463 178 
Q 3153 47 2828 -22 
Q 2503 -91 2169 -91 
Q 1331 -91 842 396 
Q 353 884 353 1716 
Q 353 2575 817 3079 
Q 1281 3584 2069 3584 
Q 2775 3584 3186 3129 
Q 3597 2675 3597 1894 
z
M 3022 2063 
Q 3016 2534 2758 2815 
Q 2500 3097 2075 3097 
Q 1594 3097 1305 2825 
Q 1016 2553 972 2059 
L 3022 2063 
z
" transform="scale(0.015625)"/>
       <path id="DejaVuSans-5b" d="M 3513 3500 
L 2247 1797 
L 3578 0 
L 2900 0 
L 1881 1375 
L 863 0 
L 184 0 
L 1544 1831 
L 300 3500 
L 978 3500 
L 1906 2253 
L 2834 3500 
L 3513 3500 
z
" transform="scale(0.015625)"/>
       <path id="DejaVuSans-b" d="M 1984 4856 
Q 1566 4138 1362 3434 
Q 1159 2731 1159 2009 
Q 1159 1288 1364 580 
Q 1569 -128 1984 -844 
L 1484 -844 
Q 1016 -109 783 600 
Q 550 1309 550 2009 
Q 550 2706 781 3412 
Q 1013 4119 1484 4856 
L 1984 4856 
z
" transform="scale(0.015625)"/>
       <path id="DejaVuSans-61" d="M 4684 2553 
L 4684 1997 
Q 4356 1750 4076 1644 
Q 3797 1538 3494 1538 
Q 3150 1538 2694 1722 
Q 2659 1734 2644 1741 
Q 2622 1750 2575 1766 
Q 2091 1959 1797 1959 
Q 1522 1959 1253 1839 
Q 984 1719 678 1459 
L 678 2016 
Q 1006 2263 1286 2370 
Q 1566 2478 1869 2478 
Q 2213 2478 2672 2291 
Q 2703 2278 2719 2272 
Q 2744 2263 2788 2247 
Q 3272 2053 3566 2053 
Q 3834 2053 4098 2172 
Q 4363 2291 4684 2553 
z
" transform="scale(0.015625)"/>
       <path id="DejaVuSans-45" d="M 3116 1747 
Q 3116 2381 2855 2742 
Q 2594 3103 2138 3103 
Q 1681 3103 1420 2742 
Q 1159 2381 1159 1747 
Q 1159 1113 1420 752 
Q 1681 391 2138 391 
Q 2594 391 2855 752 
Q 3116 1113 3116 1747 
z
M 1159 2969 
Q 1341 3281 1617 3432 
Q 1894 3584 2278 3584 
Q 2916 3584 3314 3078 
Q 3713 2572 3713 1747 
Q 3713 922 3314 415 
Q 2916 -91 2278 -91 
Q 1894 -91 1617 61 
Q 1341 213 1159 525 
L 1159 0 
L 581 0 
L 581 4863 
L 1159 4863 
L 1159 2969 
z
" transform="scale(0.015625)"/>
       <path id="DejaVuSans-44" d="M 2194 1759 
Q 1497 1759 1228 1600 
Q 959 1441 959 1056 
Q 959 750 1161 570 
Q 1363 391 1709 391 
Q 2188 391 2477 730 
Q 2766 1069 2766 1631 
L 2766 1759 
L 2194 1759 
z
M 3341 1997 
L 3341 0 
L 2766 0 
L 2766 531 
Q 2569 213 2275 61 
Q 1981 -91 1556 -91 
Q 1019 -91 701 211 
Q 384 513 384 1019 
Q 384 1609 779 1909 
Q 1175 2209 1959 2209 
L 2766 2209 
L 2766 2266 
Q 2766 2663 2505 2880 
Q 2244 3097 1772 3097 
Q 1472 3097 1187 3025 
Q 903 2953 641 2809 
L 641 3341 
Q 956 3463 1253 3523 
Q 1550 3584 1831 3584 
Q 2591 3584 2966 3190 
Q 3341 2797 3341 1997 
z
" transform="scale(0.015625)"/>
       <path id="DejaVuSans-57" d="M 1172 4494 
L 1172 3500 
L 2356 3500 
L 2356 3053 
L 1172 3053 
L 1172 1153 
Q 1172 725 1289 603 
Q 1406 481 1766 481 
L 2356 481 
L 2356 0 
L 1766 0 
Q 1100 0 847 248 
Q 594 497 594 1153 
L 594 3053 
L 172 3053 
L 172 3500 
L 594 3500 
L 594 4494 
L 1172 4494 
z
" transform="scale(0.015625)"/>
       <path id="DejaVuSans-46" d="M 3122 3366 
L 3122 2828 
Q 2878 2963 2633 3030 
Q 2388 3097 2138 3097 
Q 1578 3097 1268 2742 
Q 959 2388 959 1747 
Q 959 1106 1268 751 
Q 1578 397 2138 397 
Q 2388 397 2633 464 
Q 2878 531 3122 666 
L 3122 134 
Q 2881 22 2623 -34 
Q 2366 -91 2075 -91 
Q 1284 -91 818 406 
Q 353 903 353 1747 
Q 353 2603 823 3093 
Q 1294 3584 2113 3584 
Q 2378 3584 2631 3529 
Q 2884 3475 3122 3366 
z
" transform="scale(0.015625)"/>
       <path id="DejaVuSans-4b" d="M 3513 2113 
L 3513 0 
L 2938 0 
L 2938 2094 
Q 2938 2591 2744 2837 
Q 2550 3084 2163 3084 
Q 1697 3084 1428 2787 
Q 1159 2491 1159 1978 
L 1159 0 
L 581 0 
L 581 4863 
L 1159 4863 
L 1159 2956 
Q 1366 3272 1645 3428 
Q 1925 3584 2291 3584 
Q 2894 3584 3203 3211 
Q 3513 2838 3513 2113 
z
" transform="scale(0.015625)"/>
       <path id="DejaVuSans-c" d="M 513 4856 
L 1013 4856 
Q 1481 4119 1714 3412 
Q 1947 2706 1947 2009 
Q 1947 1309 1714 600 
Q 1481 -109 1013 -844 
L 513 -844 
Q 928 -128 1133 580 
Q 1338 1288 1338 2009 
Q 1338 2731 1133 3434 
Q 928 4138 513 4856 
z
" transform="scale(0.015625)"/>
      </defs>
      <use xlink:href="#DejaVuSans-2f"/>
      <use xlink:href="#DejaVuSans-52" transform="translate(53.96875 0)"/>
      <use xlink:href="#DejaVuSans-4a" transform="translate(115.15625 0)"/>
      <use xlink:href="#DejaVuSans-3" transform="translate(178.640625 0)"/>
      <use xlink:href="#DejaVuSans-4c" transform="translate(210.421875 0)"/>
      <use xlink:href="#DejaVuSans-51" transform="translate(238.203125 0)"/>
      <use xlink:href="#DejaVuSans-47" transform="translate(301.578125 0)"/>
      <use xlink:href="#DejaVuSans-48" transform="translate(365.0625 0)"/>
      <use xlink:href="#DejaVuSans-5b" transform="translate(424.84375 0)"/>
      <use xlink:href="#DejaVuSans-3" transform="translate(484.03125 0)"/>
      <use xlink:href="#DejaVuSans-b" transform="translate(515.8125 0)"/>
      <use xlink:href="#DejaVuSans-61" transform="translate(554.828125 0)"/>
      <use xlink:href="#DejaVuSans-45" transform="translate(638.625 0)"/>
      <use xlink:href="#DejaVuSans-44" transform="translate(702.109375 0)"/>
      <use xlink:href="#DejaVuSans-57" transform="translate(763.390625 0)"/>
      <use xlink:href="#DejaVuSans-46" transform="translate(802.59375 0)"/>
      <use xlink:href="#DejaVuSans-4b" transform="translate(857.578125 0)"/>
      <use xlink:href="#DejaVuSans-3" transform="translate(920.953125 0)"/>
      <use xlink:href="#DejaVuSans-4c" transform="translate(952.734375 0)"/>
      <use xlink:href="#DejaVuSans-51" transform="translate(980.515625 0)"/>
      <use xlink:href="#DejaVuSans-47" transform="translate(1043.890625 0)"/>
      <use xlink:href="#DejaVuSans-48" transform="translate(1107.375 0)"/>
      <use xlink:href="#DejaVuSans-5b" transform="translate(1167.15625 0)"/>
      <use xlink:href="#DejaVuSans-c" transform="translate(1226.34375 0)"/>
     </g>
    </g>
   </g>
   <g id="matplotlib.axis_2">
    <g id="ytick_1">
     <g id="line2d_6">
      <defs>
       <path id="m0eca71e853" d="M 0 0 
L -3.5 0 
" style="stroke: #000000; stroke-width: 0.8"/>
      </defs>
      <g>
       <use xlink:href="#m0eca71e853" x="57.6" y="305.449276" style="stroke: #000000; stroke-width: 0.8"/>
      </g>
     </g>
     <g id="text_7">
      <!-- 3.4 -->
      <g transform="translate(34.696875 309.248104) scale(0.1 -0.1)">
       <defs>
        <path id="DejaVuSans-16" d="M 2597 2516 
Q 3050 2419 3304 2112 
Q 3559 1806 3559 1356 
Q 3559 666 3084 287 
Q 2609 -91 1734 -91 
Q 1441 -91 1130 -33 
Q 819 25 488 141 
L 488 750 
Q 750 597 1062 519 
Q 1375 441 1716 441 
Q 2309 441 2620 675 
Q 2931 909 2931 1356 
Q 2931 1769 2642 2001 
Q 2353 2234 1838 2234 
L 1294 2234 
L 1294 2753 
L 1863 2753 
Q 2328 2753 2575 2939 
Q 2822 3125 2822 3475 
Q 2822 3834 2567 4026 
Q 2313 4219 1838 4219 
Q 1578 4219 1281 4162 
Q 984 4106 628 3988 
L 628 4550 
Q 988 4650 1302 4700 
Q 1616 4750 1894 4750 
Q 2613 4750 3031 4423 
Q 3450 4097 3450 3541 
Q 3450 3153 3228 2886 
Q 3006 2619 2597 2516 
z
" transform="scale(0.015625)"/>
        <path id="DejaVuSans-11" d="M 684 794 
L 1344 794 
L 1344 0 
L 684 0 
L 684 794 
z
" transform="scale(0.015625)"/>
        <path id="DejaVuSans-17" d="M 2419 4116 
L 825 1625 
L 2419 1625 
L 2419 4116 
z
M 2253 4666 
L 3047 4666 
L 3047 1625 
L 3713 1625 
L 3713 1100 
L 3047 1100 
L 3047 0 
L 2419 0 
L 2419 1100 
L 313 1100 
L 313 1709 
L 2253 4666 
z
" transform="scale(0.015625)"/>
       </defs>
       <use xlink:href="#DejaVuSans-16"/>
       <use xlink:href="#DejaVuSans-11" transform="translate(63.625 0)"/>
       <use xlink:href="#DejaVuSans-17" transform="translate(95.40625 0)"/>
      </g>
     </g>
    </g>
    <g id="ytick_2">
     <g id="line2d_7">
      <g>
       <use xlink:href="#m0eca71e853" x="57.6" y="254.099505" style="stroke: #000000; stroke-width: 0.8"/>
      </g>
     </g>
     <g id="text_8">
      <!-- 3.6 -->
      <g transform="translate(34.696875 257.898333) scale(0.1 -0.1)">
       <defs>
        <path id="DejaVuSans-19" d="M 2113 2584 
Q 1688 2584 1439 2293 
Q 1191 2003 1191 1497 
Q 1191 994 1439 701 
Q 1688 409 2113 409 
Q 2538 409 2786 701 
Q 3034 994 3034 1497 
Q 3034 2003 2786 2293 
Q 2538 2584 2113 2584 
z
M 3366 4563 
L 3366 3988 
Q 3128 4100 2886 4159 
Q 2644 4219 2406 4219 
Q 1781 4219 1451 3797 
Q 1122 3375 1075 2522 
Q 1259 2794 1537 2939 
Q 1816 3084 2150 3084 
Q 2853 3084 3261 2657 
Q 3669 2231 3669 1497 
Q 3669 778 3244 343 
Q 2819 -91 2113 -91 
Q 1303 -91 875 529 
Q 447 1150 447 2328 
Q 447 3434 972 4092 
Q 1497 4750 2381 4750 
Q 2619 4750 2861 4703 
Q 3103 4656 3366 4563 
z
" transform="scale(0.015625)"/>
       </defs>
       <use xlink:href="#DejaVuSans-16"/>
       <use xlink:href="#DejaVuSans-11" transform="translate(63.625 0)"/>
       <use xlink:href="#DejaVuSans-19" transform="translate(95.40625 0)"/>
      </g>
     </g>
    </g>
    <g id="ytick_3">
     <g id="line2d_8">
      <g>
       <use xlink:href="#m0eca71e853" x="57.6" y="202.749735" style="stroke: #000000; stroke-width: 0.8"/>
      </g>
     </g>
     <g id="text_9">
      <!-- 3.8 -->
      <g transform="translate(34.696875 206.548563) scale(0.1 -0.1)">
       <defs>
        <path id="DejaVuSans-1b" d="M 2034 2216 
Q 1584 2216 1326 1975 
Q 1069 1734 1069 1313 
Q 1069 891 1326 650 
Q 1584 409 2034 409 
Q 2484 409 2743 651 
Q 3003 894 3003 1313 
Q 3003 1734 2745 1975 
Q 2488 2216 2034 2216 
z
M 1403 2484 
Q 997 2584 770 2862 
Q 544 3141 544 3541 
Q 544 4100 942 4425 
Q 1341 4750 2034 4750 
Q 2731 4750 3128 4425 
Q 3525 4100 3525 3541 
Q 3525 3141 3298 2862 
Q 3072 2584 2669 2484 
Q 3125 2378 3379 2068 
Q 3634 1759 3634 1313 
Q 3634 634 3220 271 
Q 2806 -91 2034 -91 
Q 1263 -91 848 271 
Q 434 634 434 1313 
Q 434 1759 690 2068 
Q 947 2378 1403 2484 
z
M 1172 3481 
Q 1172 3119 1398 2916 
Q 1625 2713 2034 2713 
Q 2441 2713 2670 2916 
Q 2900 3119 2900 3481 
Q 2900 3844 2670 4047 
Q 2441 4250 2034 4250 
Q 1625 4250 1398 4047 
Q 1172 3844 1172 3481 
z
" transform="scale(0.015625)"/>
       </defs>
       <use xlink:href="#DejaVuSans-16"/>
       <use xlink:href="#DejaVuSans-11" transform="translate(63.625 0)"/>
       <use xlink:href="#DejaVuSans-1b" transform="translate(95.40625 0)"/>
      </g>
     </g>
    </g>
    <g id="ytick_4">
     <g id="line2d_9">
      <g>
       <use xlink:href="#m0eca71e853" x="57.6" y="151.399964" style="stroke: #000000; stroke-width: 0.8"/>
      </g>
     </g>
     <g id="text_10">
      <!-- 4.0 -->
      <g transform="translate(34.696875 155.198792) scale(0.1 -0.1)">
       <use xlink:href="#DejaVuSans-17"/>
       <use xlink:href="#DejaVuSans-11" transform="translate(63.625 0)"/>
       <use xlink:href="#DejaVuSans-13" transform="translate(95.40625 0)"/>
      </g>
     </g>
    </g>
    <g id="ytick_5">
     <g id="line2d_10">
      <g>
       <use xlink:href="#m0eca71e853" x="57.6" y="100.050194" style="stroke: #000000; stroke-width: 0.8"/>
      </g>
     </g>
     <g id="text_11">
      <!-- 4.2 -->
      <g transform="translate(34.696875 103.849022) scale(0.1 -0.1)">
       <use xlink:href="#DejaVuSans-17"/>
       <use xlink:href="#DejaVuSans-11" transform="translate(63.625 0)"/>
       <use xlink:href="#DejaVuSans-15" transform="translate(95.40625 0)"/>
      </g>
     </g>
    </g>
    <g id="ytick_6">
     <g id="line2d_11">
      <g>
       <use xlink:href="#m0eca71e853" x="57.6" y="48.700423" style="stroke: #000000; stroke-width: 0.8"/>
      </g>
     </g>
     <g id="text_12">
      <!-- 4.4 -->
      <g transform="translate(34.696875 52.499251) scale(0.1 -0.1)">
       <use xlink:href="#DejaVuSans-17"/>
       <use xlink:href="#DejaVuSans-11" transform="translate(63.625 0)"/>
       <use xlink:href="#DejaVuSans-17" transform="translate(95.40625 0)"/>
      </g>
     </g>
    </g>
    <g id="text_13">
     <!-- Loss value -->
     <g transform="translate(28.294531 200.742063) rotate(-90) scale(0.1 -0.1)">
      <defs>
       <path id="DejaVuSans-56" d="M 2834 3397 
L 2834 2853 
Q 2591 2978 2328 3040 
Q 2066 3103 1784 3103 
Q 1356 3103 1142 2972 
Q 928 2841 928 2578 
Q 928 2378 1081 2264 
Q 1234 2150 1697 2047 
L 1894 2003 
Q 2506 1872 2764 1633 
Q 3022 1394 3022 966 
Q 3022 478 2636 193 
Q 2250 -91 1575 -91 
Q 1294 -91 989 -36 
Q 684 19 347 128 
L 347 722 
Q 666 556 975 473 
Q 1284 391 1588 391 
Q 1994 391 2212 530 
Q 2431 669 2431 922 
Q 2431 1156 2273 1281 
Q 2116 1406 1581 1522 
L 1381 1569 
Q 847 1681 609 1914 
Q 372 2147 372 2553 
Q 372 3047 722 3315 
Q 1072 3584 1716 3584 
Q 2034 3584 2315 3537 
Q 2597 3491 2834 3397 
z
" transform="scale(0.015625)"/>
       <path id="DejaVuSans-59" d="M 191 3500 
L 800 3500 
L 1894 563 
L 2988 3500 
L 3597 3500 
L 2284 0 
L 1503 0 
L 191 3500 
z
" transform="scale(0.015625)"/>
       <path id="DejaVuSans-4f" d="M 603 4863 
L 1178 4863 
L 1178 0 
L 603 0 
L 603 4863 
z
" transform="scale(0.015625)"/>
       <path id="DejaVuSans-58" d="M 544 1381 
L 544 3500 
L 1119 3500 
L 1119 1403 
Q 1119 906 1312 657 
Q 1506 409 1894 409 
Q 2359 409 2629 706 
Q 2900 1003 2900 1516 
L 2900 3500 
L 3475 3500 
L 3475 0 
L 2900 0 
L 2900 538 
Q 2691 219 2414 64 
Q 2138 -91 1772 -91 
Q 1169 -91 856 284 
Q 544 659 544 1381 
z
M 1991 3584 
L 1991 3584 
z
" transform="scale(0.015625)"/>
      </defs>
      <use xlink:href="#DejaVuSans-2f"/>
      <use xlink:href="#DejaVuSans-52" transform="translate(53.96875 0)"/>
      <use xlink:href="#DejaVuSans-56" transform="translate(115.15625 0)"/>
      <use xlink:href="#DejaVuSans-56" transform="translate(167.25 0)"/>
      <use xlink:href="#DejaVuSans-3" transform="translate(219.34375 0)"/>
      <use xlink:href="#DejaVuSans-59" transform="translate(251.125 0)"/>
      <use xlink:href="#DejaVuSans-44" transform="translate(310.3125 0)"/>
      <use xlink:href="#DejaVuSans-4f" transform="translate(371.59375 0)"/>
      <use xlink:href="#DejaVuSans-58" transform="translate(399.375 0)"/>
      <use xlink:href="#DejaVuSans-48" transform="translate(462.75 0)"/>
     </g>
    </g>
   </g>
   <g id="line2d_12">
    <path d="M 73.987251 56.928693 
L 74.141775 58.195481 
L 74.296299 56.84837 
L 74.450823 59.91261 
L 74.605346 59.876517 
L 75.068918 63.22446 
L 75.223442 65.312332 
L 75.377965 65.497299 
L 75.532489 64.471794 
L 75.841537 67.157185 
L 75.996061 68.022572 
L 76.305108 71.715575 
L 76.459632 71.702585 
L 76.923204 75.236701 
L 77.077727 75.958112 
L 77.232251 76.058905 
L 77.541299 78.06259 
L 77.695823 79.489478 
L 77.850347 78.902281 
L 78.00487 80.588417 
L 78.159394 80.773767 
L 78.313918 80.446709 
L 78.468442 81.322944 
L 78.622966 83.922227 
L 78.932013 85.498886 
L 79.395585 88.927896 
L 79.550109 88.251107 
L 79.704632 90.760221 
L 79.859156 90.669511 
L 80.631775 95.415785 
L 80.786299 95.307793 
L 80.940823 94.65126 
L 81.249871 97.340984 
L 81.404394 97.884448 
L 81.558918 99.922562 
L 81.713442 99.608721 
L 82.177014 102.858366 
L 82.331537 101.873632 
L 82.486061 103.928274 
L 82.640585 101.639895 
L 82.795109 103.745739 
L 82.949633 104.32881 
L 83.104156 100.629944 
L 83.413204 107.342415 
L 83.567728 107.418301 
L 83.722252 109.976795 
L 83.876776 109.667424 
L 84.031299 111.161778 
L 84.340347 111.460979 
L 84.494871 111.308199 
L 84.803918 113.415988 
L 84.958442 113.88668 
L 85.112966 113.340374 
L 85.576538 116.538585 
L 85.731061 115.761055 
L 86.040109 118.718359 
L 86.194633 119.034657 
L 86.349157 120.846916 
L 86.50368 119.941195 
L 86.658204 118.315844 
L 86.967252 123.387561 
L 87.121776 123.102207 
L 87.430823 124.977947 
L 87.585347 125.533946 
L 87.739871 125.586454 
L 87.894395 124.981837 
L 88.048919 127.223883 
L 88.51249 126.338188 
L 88.821538 128.616533 
L 88.976062 127.615298 
L 89.130585 129.134104 
L 89.285109 132.012753 
L 89.439633 128.792624 
L 89.594157 131.124343 
L 89.748681 130.268618 
L 89.903205 131.73192 
L 90.057728 131.681825 
L 90.212252 134.183005 
L 90.366776 132.845229 
L 90.5213 134.795047 
L 90.675824 134.613233 
L 90.830347 135.712877 
L 90.984871 138.028557 
L 91.139395 137.995717 
L 91.293919 139.138182 
L 91.602967 138.891312 
L 91.75749 137.882902 
L 92.221062 141.020222 
L 92.530109 142.447183 
L 92.684633 142.017188 
L 92.993681 143.565491 
L 93.148205 142.983689 
L 93.457252 145.208914 
L 93.611776 145.000516 
L 93.920824 147.080192 
L 94.075348 145.972679 
L 94.229871 147.505468 
L 94.384395 147.051063 
L 94.538919 148.376758 
L 94.693443 146.861088 
L 94.847967 149.738829 
L 95.002491 148.354414 
L 95.466062 151.532815 
L 95.620586 152.235646 
L 95.77511 151.471855 
L 95.929634 151.346928 
L 96.084157 151.485886 
L 96.393205 154.152693 
L 96.547729 152.785131 
L 96.856776 155.118271 
L 97.0113 154.921294 
L 97.165824 156.92574 
L 97.320348 155.792476 
L 97.629396 157.882413 
L 97.938443 155.930329 
L 98.247491 158.752564 
L 98.402015 160.334662 
L 98.711062 158.482597 
L 98.865586 160.95176 
L 99.174634 158.298651 
L 99.329158 161.318734 
L 99.483681 161.054807 
L 99.638205 160.491248 
L 99.792729 160.766655 
L 99.947253 162.108179 
L 100.101777 160.331375 
L 100.2563 162.963463 
L 100.410824 161.709367 
L 100.719872 164.375723 
L 100.874396 164.329135 
L 101.02892 165.090207 
L 101.183443 166.574801 
L 101.337967 163.73519 
L 101.492491 166.463802 
L 101.647015 166.313196 
L 101.801539 166.944711 
L 101.956062 168.62212 
L 102.110586 168.592372 
L 102.26511 169.472683 
L 102.419634 167.254061 
L 102.728682 169.588062 
L 102.883205 168.651103 
L 103.037729 171.287203 
L 103.192253 169.209491 
L 103.501301 172.734902 
L 103.964872 171.25238 
L 104.119396 173.324264 
L 104.27392 173.605265 
L 104.428444 169.562066 
L 104.582967 169.913344 
L 104.892015 174.308434 
L 105.046539 174.537791 
L 105.201063 173.676128 
L 105.355587 175.287767 
L 105.51011 175.39243 
L 105.819158 177.614565 
L 105.973682 177.740656 
L 106.128206 175.818391 
L 106.282729 178.689957 
L 106.591777 177.977647 
L 106.746301 178.574434 
L 106.900825 178.353361 
L 107.055349 177.789344 
L 107.209872 179.158097 
L 107.364396 179.171228 
L 107.51892 177.194106 
L 107.673444 178.593054 
L 107.827968 181.274572 
L 107.982491 181.225991 
L 108.291539 179.993864 
L 108.600587 181.597716 
L 108.755111 183.120975 
L 108.909634 178.148635 
L 109.064158 178.984391 
L 109.373206 183.617191 
L 109.52773 183.040231 
L 109.682253 183.092959 
L 109.836777 184.987766 
L 109.991301 184.946686 
L 110.145825 186.557327 
L 110.300349 181.623877 
L 110.454873 186.442819 
L 110.609396 186.459868 
L 110.76392 185.864974 
L 110.918444 187.419221 
L 111.072968 187.096511 
L 111.227492 185.02249 
L 111.382015 186.767161 
L 111.536539 185.696048 
L 111.691063 187.172903 
L 111.845587 184.347023 
L 112.000111 188.282326 
L 112.154635 188.112927 
L 112.309158 187.424509 
L 112.463682 187.414906 
L 112.618206 189.619256 
L 112.77273 189.371924 
L 113.081778 189.507434 
L 113.236301 190.978519 
L 113.390825 188.886133 
L 113.545349 191.110861 
L 113.854397 192.431991 
L 114.00892 191.40162 
L 114.472492 193.832757 
L 114.627016 191.420456 
L 114.936063 194.345817 
L 115.090587 192.898581 
L 115.245111 195.432864 
L 115.554159 191.770727 
L 115.708682 192.254536 
L 115.863206 193.819442 
L 116.01773 189.609072 
L 116.172254 196.268844 
L 116.326778 195.292877 
L 116.481302 196.474623 
L 116.635825 195.031358 
L 116.790349 198.247701 
L 116.944873 198.280251 
L 117.099397 196.860631 
L 117.253921 197.535368 
L 117.408444 196.782027 
L 117.562968 198.301263 
L 117.717492 198.202446 
L 117.872016 194.798489 
L 118.181064 198.537464 
L 118.335587 193.134973 
L 118.490111 199.509947 
L 118.644635 200.484729 
L 118.799159 197.561267 
L 118.953683 199.224821 
L 119.108206 198.344052 
L 119.26273 201.690365 
L 119.417254 200.454475 
L 119.571778 201.221548 
L 119.726302 200.327305 
L 119.880826 200.275065 
L 120.035349 201.649324 
L 120.189873 199.751579 
L 120.344397 201.689442 
L 120.498921 200.918341 
L 120.653445 202.979696 
L 120.807968 201.055135 
L 121.117016 204.242296 
L 121.27154 204.217809 
L 121.426064 201.623627 
L 121.580588 205.383126 
L 121.735111 204.88941 
L 121.889635 202.095909 
L 122.198683 201.49263 
L 122.507731 205.446779 
L 122.662254 205.652975 
L 122.816778 205.246548 
L 122.971302 206.998431 
L 123.125826 204.31728 
L 123.28035 208.310395 
L 123.434873 205.84935 
L 123.589397 207.661714 
L 123.743921 206.498313 
L 123.898445 207.003156 
L 124.052969 208.019234 
L 124.207493 206.701278 
L 124.362016 209.600498 
L 124.671064 206.13377 
L 124.825588 208.597903 
L 125.134635 207.389746 
L 125.289159 210.379395 
L 125.598207 208.994752 
L 125.752731 209.396797 
L 125.907255 210.342965 
L 126.216302 207.016181 
L 126.370826 205.904983 
L 126.52535 211.00158 
L 126.679874 211.372192 
L 126.834397 212.061382 
L 126.988921 209.882267 
L 127.143445 211.164313 
L 127.452493 207.929183 
L 127.916064 213.965917 
L 128.070588 211.977712 
L 128.225112 213.827395 
L 128.379636 213.795778 
L 128.843207 210.602481 
L 128.997731 210.950235 
L 129.152255 215.12764 
L 129.306779 213.701373 
L 129.461302 214.398157 
L 129.615826 214.515686 
L 129.77035 216.330022 
L 129.924874 215.73615 
L 130.079398 214.566206 
L 130.233922 215.967538 
L 130.388445 215.430291 
L 130.542969 218.098134 
L 130.852017 210.362505 
L 131.006541 214.590446 
L 131.161064 214.320479 
L 131.315588 211.425269 
L 131.624636 217.609 
L 131.77916 216.386369 
L 131.933684 216.520823 
L 132.242731 218.908238 
L 132.397255 218.210183 
L 132.551779 218.514398 
L 132.706303 219.634015 
L 132.860826 219.798142 
L 133.01535 218.95542 
L 133.169874 218.95991 
L 133.324398 220.417892 
L 133.478922 218.147951 
L 133.633446 221.309361 
L 133.787969 218.968577 
L 133.942493 220.575048 
L 134.097017 218.903259 
L 134.251541 220.618053 
L 134.406065 216.880592 
L 134.560588 219.933106 
L 134.715112 219.794861 
L 134.869636 220.470681 
L 135.02416 219.647961 
L 135.333208 221.775886 
L 135.487731 219.421943 
L 135.642255 220.573552 
L 135.796779 223.518461 
L 135.951303 223.377408 
L 136.26035 219.06713 
L 136.569398 223.88832 
L 136.723922 222.19817 
L 136.878446 224.29871 
L 137.03297 222.87171 
L 137.187493 225.320799 
L 137.496541 222.807269 
L 137.805589 223.83231 
L 137.960113 222.8997 
L 138.114636 223.463978 
L 138.26916 224.580695 
L 138.423684 224.548965 
L 138.578208 226.58913 
L 138.732732 221.145636 
L 138.887255 221.189644 
L 139.041779 222.400175 
L 139.350827 226.619534 
L 139.505351 226.356995 
L 139.659875 226.88799 
L 139.814398 226.275876 
L 139.968922 227.320952 
L 140.27797 226.35513 
L 140.432494 225.52181 
L 140.587017 226.740044 
L 140.741541 225.748936 
L 140.896065 225.706746 
L 141.050589 227.5727 
L 141.205113 227.20533 
L 141.359637 227.473452 
L 141.51416 226.413005 
L 141.668684 226.955262 
L 141.977732 229.175655 
L 142.132256 229.201136 
L 142.286779 224.777156 
L 142.595827 229.21585 
L 142.750351 228.433758 
L 142.904875 229.146323 
L 143.059399 226.882518 
L 143.213922 229.083188 
L 143.368446 228.823272 
L 143.52297 227.334637 
L 143.677494 229.563055 
L 143.832018 228.83396 
L 143.986541 230.917787 
L 144.141065 229.81805 
L 144.295589 230.18338 
L 144.450113 230.834931 
L 144.604637 230.233792 
L 144.913684 232.622111 
L 145.068208 226.686481 
L 145.222732 231.339272 
L 145.53178 232.221341 
L 145.686303 229.57009 
L 145.840827 230.889162 
L 145.995351 227.872 
L 146.149875 231.782459 
L 146.304399 232.550396 
L 146.458923 228.902548 
L 146.613446 232.740799 
L 146.76797 232.926123 
L 146.922494 232.576613 
L 147.077018 232.831778 
L 147.231542 232.39306 
L 147.540589 233.051 
L 147.695113 233.133692 
L 147.849637 230.638566 
L 148.004161 232.60555 
L 148.158685 230.695748 
L 148.467732 236.227926 
L 148.77678 232.789303 
L 148.931304 232.750701 
L 149.085828 235.102237 
L 149.394875 235.986279 
L 149.703923 232.149913 
L 149.858447 232.470093 
L 150.167494 235.43684 
L 150.476542 231.796094 
L 150.631066 235.480599 
L 150.78559 235.832749 
L 150.940113 232.692665 
L 151.094637 236.110657 
L 151.249161 236.723421 
L 151.403685 238.460564 
L 151.712732 235.693381 
L 151.867256 235.517975 
L 152.02178 236.995657 
L 152.176304 235.580594 
L 152.330828 237.569502 
L 152.485352 236.194477 
L 152.639875 237.315112 
L 152.794399 236.900404 
L 152.948923 239.228612 
L 153.257971 235.675612 
L 153.567018 240.478975 
L 153.876066 238.048532 
L 154.03059 238.780242 
L 154.339637 237.225927 
L 154.494161 236.897623 
L 154.648685 238.702786 
L 154.803209 239.119499 
L 155.112257 241.163851 
L 155.26678 240.883886 
L 155.421304 238.720985 
L 155.575828 234.218903 
L 155.730352 236.152128 
L 155.884876 241.38758 
L 156.039399 241.579842 
L 156.193923 240.107751 
L 156.348447 237.35827 
L 156.502971 239.952389 
L 156.657495 239.628946 
L 156.812019 241.410607 
L 156.966542 241.693348 
L 157.27559 240.424278 
L 157.430114 242.158087 
L 157.739161 241.243696 
L 157.893685 243.243418 
L 158.048209 237.744422 
L 158.202733 238.619128 
L 158.357257 242.07003 
L 158.511781 242.355371 
L 158.666304 239.965692 
L 158.975352 244.334399 
L 159.129876 243.530381 
L 159.2844 241.442806 
L 159.438923 242.718021 
L 159.593447 239.134791 
L 159.747971 243.402955 
L 159.902495 243.626244 
L 160.057019 241.567253 
L 160.211543 244.357393 
L 160.366066 242.989941 
L 160.52059 243.634246 
L 160.675114 245.295007 
L 160.829638 240.991109 
L 160.984162 242.823711 
L 161.138685 243.074127 
L 161.293209 239.087197 
L 161.447733 243.453343 
L 161.602257 241.978073 
L 161.756781 243.080195 
L 161.911305 245.81683 
L 162.065828 244.910966 
L 162.220352 239.953884 
L 162.374876 244.488789 
L 162.5294 240.011732 
L 162.838447 244.935809 
L 162.992971 244.103731 
L 163.147495 244.349452 
L 163.456543 242.511013 
L 163.611067 242.557956 
L 163.76559 244.832022 
L 163.920114 245.467069 
L 164.229162 245.454749 
L 164.53821 246.252564 
L 164.847257 244.120281 
L 165.001781 245.300308 
L 165.156305 245.149212 
L 165.310829 247.091189 
L 165.465352 245.268407 
L 165.619876 248.515334 
L 165.928924 247.328864 
L 166.083448 247.949121 
L 166.237972 245.311637 
L 166.392495 248.338934 
L 166.547019 247.115132 
L 166.701543 246.924469 
L 166.856067 242.207169 
L 167.010591 247.925823 
L 167.319638 241.977873 
L 167.474162 247.992543 
L 167.628686 249.281527 
L 167.78321 245.225633 
L 167.937734 246.870497 
L 168.092257 246.972072 
L 168.246781 249.944107 
L 168.401305 243.986117 
L 168.555829 248.944738 
L 168.710353 247.740124 
L 169.0194 250.150164 
L 169.173924 249.415949 
L 169.328448 249.823409 
L 169.482972 248.487906 
L 169.637496 250.217896 
L 169.792019 247.19269 
L 169.946543 251.874452 
L 170.255591 247.226136 
L 170.410115 246.648834 
L 170.719162 250.989604 
L 171.02821 250.257782 
L 171.182734 252.141993 
L 171.337258 251.192237 
L 171.491781 243.305501 
L 171.646305 251.450967 
L 171.955353 250.292027 
L 172.109877 250.452543 
L 172.264401 248.137662 
L 172.573448 251.92916 
L 172.727972 251.442428 
L 172.882496 251.647948 
L 173.03702 248.857034 
L 173.191543 250.106914 
L 173.346067 247.888678 
L 173.655115 253.506106 
L 173.809639 250.273071 
L 173.964163 250.408873 
L 174.118686 252.760989 
L 174.27321 252.163963 
L 174.427734 253.191504 
L 174.736782 250.376535 
L 174.891305 252.852478 
L 175.045829 253.332877 
L 175.200353 251.272557 
L 175.354877 252.378852 
L 175.509401 252.213836 
L 175.663925 252.328087 
L 175.818448 251.293919 
L 175.972972 254.689411 
L 176.28202 246.947025 
L 176.591067 252.617256 
L 176.745591 254.57134 
L 176.900115 253.61658 
L 177.054639 254.631878 
L 177.363687 251.702281 
L 177.51821 255.303198 
L 177.827258 251.777751 
L 177.981782 254.448314 
L 178.136306 253.128479 
L 178.290829 252.803758 
L 178.445353 255.590636 
L 178.599877 255.432149 
L 178.754401 253.671383 
L 178.908925 256.063448 
L 179.063449 255.472151 
L 179.217972 256.138144 
L 179.52702 256.360671 
L 179.681544 255.850742 
L 179.836068 257.217667 
L 179.990591 255.203347 
L 180.145115 256.672209 
L 180.299639 250.679573 
L 180.454163 253.609315 
L 180.608687 254.201364 
L 180.763211 255.947255 
L 180.917734 251.869738 
L 181.072258 252.764779 
L 181.226782 256.622612 
L 181.381306 253.939128 
L 181.53583 254.394342 
L 181.844877 257.305129 
L 181.999401 255.586255 
L 182.153925 255.417093 
L 182.308449 257.612803 
L 182.462973 256.896699 
L 182.617496 255.162911 
L 182.77202 256.284944 
L 182.926544 253.821762 
L 183.081068 255.0743 
L 183.235592 257.558719 
L 183.390116 256.579901 
L 183.699163 254.054915 
L 183.853687 257.749914 
L 184.162735 256.541837 
L 184.471782 258.607622 
L 184.626306 258.141907 
L 184.78083 256.764865 
L 184.935354 253.242502 
L 185.089878 253.909086 
L 185.244401 256.514507 
L 185.398925 256.80846 
L 185.553449 258.355192 
L 185.707973 257.951406 
L 185.862497 256.383778 
L 186.01702 259.229476 
L 186.326068 255.599668 
L 186.480592 257.617853 
L 186.635116 256.623339 
L 186.78964 257.635016 
L 186.944163 256.66235 
L 187.098687 257.523868 
L 187.253211 259.716719 
L 187.407735 258.716521 
L 187.562259 256.838362 
L 187.716782 259.300467 
L 187.871306 259.272472 
L 188.02583 259.698511 
L 188.180354 259.655776 
L 188.334878 259.737274 
L 188.489402 258.074665 
L 188.643925 260.549638 
L 188.798449 256.089775 
L 188.952973 255.978085 
L 189.107497 259.760363 
L 189.262021 257.681317 
L 189.416545 259.732851 
L 189.571068 258.519151 
L 189.725592 259.835426 
L 189.880116 256.41172 
L 190.189164 258.556018 
L 190.498211 259.980846 
L 190.652735 261.912204 
L 190.807259 261.255237 
L 190.961783 261.174999 
L 191.116307 259.202791 
L 191.27083 261.567966 
L 191.425354 261.347875 
L 191.579878 261.887442 
L 191.734402 263.045587 
L 191.888926 259.151813 
L 192.043449 261.438362 
L 192.197973 259.294875 
L 192.352497 261.948438 
L 192.507021 261.071912 
L 192.661545 261.035542 
L 192.970592 257.55153 
L 193.125116 258.294105 
L 193.27964 259.674956 
L 193.588688 260.107424 
L 193.743211 262.834617 
L 194.206783 259.665647 
L 194.361307 259.580311 
L 194.515831 256.504886 
L 194.824878 263.324141 
L 194.979402 263.455571 
L 195.133926 259.681402 
L 195.28845 259.609379 
L 195.597497 263.607946 
L 195.752021 260.801807 
L 195.906545 264.030669 
L 196.370116 257.621011 
L 196.52464 260.634202 
L 196.679164 260.741025 
L 196.833688 261.293389 
L 197.142735 263.886537 
L 197.297259 258.595831 
L 197.760831 264.903188 
L 197.915355 265.181828 
L 198.069878 261.758605 
L 198.224402 262.540281 
L 198.378926 260.399189 
L 198.687974 265.333947 
L 198.842498 263.262676 
L 198.997021 264.62037 
L 199.151545 263.180489 
L 199.306069 264.780585 
L 199.615117 260.079685 
L 199.76964 262.964815 
L 200.233212 265.735845 
L 200.387736 263.543154 
L 200.696783 265.464206 
L 200.851307 265.217121 
L 201.005831 265.981423 
L 201.160355 263.422075 
L 201.314879 265.897709 
L 201.623926 262.512032 
L 201.77845 262.070452 
L 201.932974 262.749054 
L 202.087498 265.426708 
L 202.242022 262.461391 
L 202.396545 262.888473 
L 202.551069 265.200273 
L 202.705593 263.333334 
L 202.860117 264.118472 
L 203.014641 264.148058 
L 203.169164 261.411857 
L 203.478212 264.685907 
L 203.632736 266.915628 
L 203.78726 261.122371 
L 203.941784 266.013924 
L 204.096307 261.664091 
L 204.250831 262.971104 
L 204.405355 265.575115 
L 204.559879 265.833107 
L 204.714403 268.42249 
L 204.868926 265.744604 
L 205.02345 268.098144 
L 205.177974 264.323008 
L 205.332498 265.645502 
L 205.487022 264.986521 
L 205.796069 266.14719 
L 205.950593 263.333365 
L 206.105117 265.672223 
L 206.259641 260.337668 
L 206.414165 263.89967 
L 206.568689 264.152035 
L 206.723212 265.729082 
L 206.877736 265.359115 
L 207.186784 267.744686 
L 207.341308 266.782615 
L 207.495831 264.783134 
L 207.804879 268.110624 
L 207.959403 264.988202 
L 208.113927 267.01307 
L 208.268451 265.456509 
L 208.422974 266.601061 
L 208.732022 262.770109 
L 209.04107 267.957748 
L 209.350117 267.227322 
L 209.504641 267.276239 
L 209.659165 267.495492 
L 209.813689 262.354475 
L 209.968213 268.604937 
L 210.122736 266.827619 
L 210.27726 268.134088 
L 210.431784 267.832064 
L 210.586308 266.824155 
L 210.740832 269.096218 
L 210.895355 268.092398 
L 211.049879 265.251435 
L 211.204403 268.503828 
L 211.358927 267.905 
L 211.513451 266.577408 
L 211.667975 269.606652 
L 211.822498 267.920708 
L 211.977022 268.360918 
L 212.131546 266.563261 
L 212.28607 268.929101 
L 212.440594 267.871741 
L 212.595117 267.708002 
L 212.904165 266.461653 
L 213.058689 263.405891 
L 213.213213 268.890008 
L 213.367737 269.128164 
L 213.52226 269.035375 
L 213.676784 267.556516 
L 213.831308 263.427012 
L 214.140356 271.498954 
L 214.294879 269.427868 
L 214.449403 269.365906 
L 214.603927 269.814311 
L 214.758451 267.999372 
L 214.912975 268.887514 
L 215.067499 267.242797 
L 215.222022 270.471996 
L 215.376546 269.42298 
L 215.53107 266.917382 
L 215.685594 268.824539 
L 215.840118 268.922478 
L 215.994642 271.393052 
L 216.303689 266.849909 
L 216.612737 270.823194 
L 216.767261 270.005202 
L 216.921784 270.673311 
L 217.230832 268.792019 
L 217.385356 269.310633 
L 217.53988 270.931686 
L 217.694404 269.922912 
L 217.848927 269.865077 
L 218.157975 270.404813 
L 218.467023 269.041877 
L 218.621546 266.700999 
L 218.77607 270.911825 
L 218.930594 269.648919 
L 219.085118 270.860272 
L 219.239642 269.874906 
L 219.394166 272.627877 
L 219.548689 268.297594 
L 219.703213 271.694535 
L 219.857737 271.728773 
L 220.012261 271.94591 
L 220.321308 264.892719 
L 220.475832 270.794045 
L 220.78488 272.467271 
L 221.093928 270.701479 
L 221.248451 267.784038 
L 221.402975 271.331343 
L 221.712023 269.63663 
L 221.866547 271.050041 
L 222.02107 268.35167 
L 222.175594 269.886108 
L 222.330118 273.476063 
L 222.484642 269.930612 
L 222.639166 270.32877 
L 222.79369 271.988872 
L 223.102737 269.899238 
L 223.257261 273.415285 
L 223.566309 269.987732 
L 223.720833 272.464324 
L 223.875356 271.290801 
L 224.02988 271.601525 
L 224.184404 267.63151 
L 224.338928 266.786841 
L 224.493452 270.115715 
L 224.647975 269.045089 
L 224.802499 272.092152 
L 224.957023 272.183434 
L 225.111547 273.21235 
L 225.266071 272.480187 
L 225.420595 269.292661 
L 225.729642 273.53377 
L 225.884166 274.665964 
L 226.03869 271.218126 
L 226.193214 271.61722 
L 226.502261 273.552189 
L 226.656785 272.639443 
L 226.965833 272.870448 
L 227.120357 272.916732 
L 227.27488 273.089392 
L 227.429404 272.599482 
L 227.583928 264.938276 
L 227.738452 272.249634 
L 228.047499 270.625835 
L 228.202023 270.590411 
L 228.356547 273.733563 
L 228.665595 268.072002 
L 228.820119 271.10293 
L 228.974642 267.968548 
L 229.129166 271.51984 
L 229.28369 272.386162 
L 229.438214 274.029144 
L 229.592738 274.364521 
L 229.747261 272.902252 
L 229.901785 273.002768 
L 230.056309 274.049438 
L 230.210833 272.607967 
L 230.365357 272.292798 
L 230.519881 271.354233 
L 230.674404 274.557495 
L 230.983452 271.530227 
L 231.137976 273.457306 
L 231.2925 269.188829 
L 231.447023 269.204917 
L 232.065119 276.15664 
L 232.219643 273.040131 
L 232.374166 273.725669 
L 232.52869 272.61078 
L 232.837738 275.205212 
L 232.992262 273.459014 
L 233.146786 273.100254 
L 233.301309 274.690278 
L 233.455833 270.949261 
L 233.610357 274.937487 
L 233.919405 272.795783 
L 234.073928 270.166609 
L 234.228452 275.490746 
L 234.382976 275.343887 
L 234.5375 275.933397 
L 234.692024 274.18131 
L 234.846548 274.244921 
L 235.155595 276.609118 
L 235.464643 273.361931 
L 235.619167 275.4777 
L 235.77369 275.938036 
L 235.928214 275.595252 
L 236.082738 274.724497 
L 236.237262 273.016093 
L 236.391786 275.007931 
L 236.54631 274.3614 
L 236.855357 272.376273 
L 237.164405 275.999334 
L 237.318929 273.194061 
L 237.473452 277.351296 
L 237.7825 271.77767 
L 237.937024 275.750299 
L 238.246072 271.418194 
L 238.400595 274.865866 
L 238.709643 272.191159 
L 238.864167 272.251974 
L 239.173214 275.542328 
L 239.327738 276.056622 
L 239.636786 274.555097 
L 239.79131 274.881325 
L 239.945834 276.570125 
L 240.100357 272.778926 
L 240.254881 275.857116 
L 240.409405 275.251308 
L 240.563929 276.053457 
L 240.718453 273.724007 
L 240.872977 275.718428 
L 241.182024 273.043309 
L 241.336548 277.106162 
L 241.491072 276.660653 
L 241.645596 277.336859 
L 241.954643 276.351363 
L 242.263691 270.995523 
L 242.572739 277.286606 
L 242.727262 277.445811 
L 242.881786 277.198149 
L 243.190834 274.905401 
L 243.345358 274.10594 
L 243.499881 277.451519 
L 243.808929 278.46136 
L 243.963453 275.584932 
L 244.272501 278.045392 
L 244.427024 276.882428 
L 244.581548 277.164282 
L 244.736072 275.626116 
L 244.890596 277.452982 
L 245.04512 272.563166 
L 245.199643 278.126227 
L 245.354167 276.434628 
L 245.508691 278.769968 
L 245.817739 273.340296 
L 245.972263 276.067086 
L 246.28131 277.403878 
L 246.435834 276.585788 
L 246.590358 276.637292 
L 246.744882 276.418434 
L 246.899405 277.65409 
L 247.053929 276.804186 
L 247.517501 271.036845 
L 247.672025 274.849414 
L 247.981072 276.05764 
L 248.135596 275.748775 
L 248.444644 278.816877 
L 248.599167 276.140268 
L 248.908215 277.565762 
L 249.062739 277.665318 
L 249.217263 276.336725 
L 249.371787 273.705465 
L 249.52631 274.949058 
L 249.680834 275.101481 
L 249.835358 275.95725 
L 249.989882 278.692858 
L 250.144406 279.311238 
L 250.29893 277.354549 
L 250.453453 277.666708 
L 250.607977 273.391305 
L 250.917025 278.148643 
L 251.071549 277.606336 
L 251.226072 278.527935 
L 251.380596 277.44442 
L 251.53512 278.055022 
L 251.689644 279.37851 
L 251.844168 278.167161 
L 251.998692 279.192096 
L 252.153215 278.294965 
L 252.307739 278.771394 
L 252.462263 277.487521 
L 252.616787 279.157465 
L 252.771311 279.006357 
L 252.925834 277.156426 
L 253.080358 280.789596 
L 253.234882 277.454991 
L 253.389406 280.119045 
L 253.54393 278.819079 
L 253.698454 279.320191 
L 253.852977 280.310203 
L 254.162025 279.743477 
L 254.316549 278.599108 
L 254.625596 280.555408 
L 254.78012 277.097161 
L 254.934644 280.680044 
L 255.089168 278.132721 
L 255.243692 279.749287 
L 255.398216 279.790584 
L 255.552739 280.212896 
L 255.861787 278.207747 
L 256.170835 279.634084 
L 256.325358 281.191382 
L 256.634406 276.763873 
L 256.78893 276.127713 
L 256.943454 277.632708 
L 257.097978 277.304114 
L 257.252501 281.057821 
L 257.407025 279.820627 
L 257.561549 280.692965 
L 257.716073 278.808284 
L 257.870597 279.113562 
L 258.025121 276.812284 
L 258.488692 280.170978 
L 258.643216 278.726914 
L 258.79774 275.297875 
L 258.952263 278.615897 
L 259.261311 273.541477 
L 259.570359 281.556391 
L 259.724883 274.719172 
L 260.03393 279.524231 
L 260.188454 277.540407 
L 260.497502 281.49051 
L 260.806549 278.157415 
L 260.961073 277.873986 
L 261.115597 276.237443 
L 261.424645 277.965761 
L 261.579168 278.04748 
L 261.888216 281.077362 
L 262.04274 279.993404 
L 262.197264 281.828878 
L 262.351787 280.476754 
L 262.506311 276.120644 
L 262.660835 276.283181 
L 262.815359 276.966127 
L 262.969883 279.975678 
L 263.124407 279.73063 
L 263.27893 280.112651 
L 263.433454 279.412419 
L 263.742502 280.653599 
L 263.897026 280.433118 
L 264.206073 281.697053 
L 264.515121 279.163671 
L 264.669645 281.078294 
L 264.824169 273.311328 
L 264.978692 282.055194 
L 265.133216 279.742351 
L 265.28774 279.774507 
L 265.596788 280.513278 
L 265.751311 278.161233 
L 265.905835 283.498469 
L 266.214883 282.26783 
L 266.369407 282.773956 
L 266.523931 279.367783 
L 266.832978 283.233936 
L 267.142026 278.533242 
L 267.29655 279.853442 
L 267.451074 282.135643 
L 267.605597 279.966991 
L 267.914645 282.184291 
L 268.069169 283.004355 
L 268.378216 278.841524 
L 268.53274 278.974713 
L 268.687264 278.899625 
L 268.841788 279.061279 
L 268.996312 280.659167 
L 269.150836 279.560952 
L 269.305359 282.594006 
L 269.459883 283.329475 
L 269.614407 282.162054 
L 269.768931 278.98521 
L 269.923455 278.714818 
L 270.077978 281.287833 
L 270.232502 281.464637 
L 270.387026 280.140862 
L 270.54155 280.743611 
L 270.696074 277.589829 
L 270.850598 277.44272 
L 271.005121 275.54127 
L 271.159645 281.412543 
L 271.314169 280.555544 
L 271.468693 281.841343 
L 271.623217 284.190965 
L 271.77774 279.277594 
L 271.932264 278.681518 
L 272.086788 282.527885 
L 272.241312 281.711993 
L 272.395836 282.981894 
L 272.55036 282.333072 
L 272.704883 277.224058 
L 272.859407 281.101052 
L 273.013931 278.710411 
L 273.168455 281.542611 
L 273.322979 281.3288 
L 273.477502 283.689823 
L 273.78655 281.749547 
L 273.941074 282.26979 
L 274.095598 283.948556 
L 274.250122 280.428371 
L 274.404645 283.715811 
L 274.559169 282.269012 
L 274.713693 283.469407 
L 275.022741 282.06486 
L 275.177265 281.13531 
L 275.331788 283.456054 
L 275.640836 283.924378 
L 275.79536 281.845706 
L 275.949884 284.267483 
L 276.104407 281.198953 
L 276.258931 281.168158 
L 276.413455 275.518613 
L 276.567979 276.401951 
L 276.722503 282.29229 
L 276.877027 280.384038 
L 277.186074 284.418686 
L 277.340598 282.113392 
L 277.495122 283.955658 
L 277.649646 279.422348 
L 277.958693 284.559008 
L 278.422265 281.061326 
L 278.576789 282.306284 
L 278.731312 280.131367 
L 278.885836 285.019956 
L 279.194884 279.392683 
L 279.349408 283.28436 
L 279.503931 281.48724 
L 279.658455 284.072302 
L 279.812979 281.679597 
L 279.967503 282.122571 
L 280.122027 280.909635 
L 280.585598 284.457105 
L 280.740122 282.465352 
L 280.894646 283.381626 
L 281.04917 282.975262 
L 281.203693 283.045215 
L 281.358217 279.607644 
L 281.667265 282.904163 
L 281.821789 284.613773 
L 282.130836 284.074796 
L 282.28536 282.528598 
L 282.594408 283.932594 
L 282.903455 282.524188 
L 283.057979 283.965939 
L 283.212503 281.061411 
L 283.367027 282.381185 
L 283.521551 285.695764 
L 283.676075 281.424843 
L 283.830598 282.14889 
L 283.985122 284.547834 
L 284.139646 280.012268 
L 284.603218 285.05797 
L 284.757741 283.659286 
L 284.912265 279.912494 
L 285.066789 281.257543 
L 285.221313 286.101916 
L 285.375837 283.738125 
L 285.53036 277.169157 
L 285.684884 284.94665 
L 285.839408 283.451522 
L 285.993932 283.071452 
L 286.30298 284.2517 
L 286.457503 285.947016 
L 286.612027 283.968816 
L 286.766551 278.788224 
L 286.921075 283.993523 
L 287.075599 285.061564 
L 287.230122 282.569057 
L 287.384646 283.435548 
L 287.53917 281.250454 
L 287.693694 284.718275 
L 287.848218 282.058384 
L 288.002742 284.072058 
L 288.157265 281.464465 
L 288.466313 285.514062 
L 288.620837 284.406467 
L 288.775361 284.313072 
L 288.929884 284.583769 
L 289.238932 282.092544 
L 289.393456 284.305312 
L 289.54798 284.640351 
L 289.702504 286.122226 
L 289.857027 284.292841 
L 290.166075 287.083936 
L 290.320599 283.638569 
L 290.475123 286.248637 
L 290.629646 282.231765 
L 291.247742 286.503314 
L 291.556789 282.7449 
L 291.711313 282.908652 
L 292.020361 285.659401 
L 292.329409 279.911303 
L 292.638456 285.358102 
L 292.79298 285.957057 
L 292.947504 283.146842 
L 293.102028 285.375193 
L 293.256551 283.74676 
L 293.411075 283.822185 
L 293.565599 282.863174 
L 293.720123 280.274049 
L 293.874647 280.938566 
L 294.029171 284.075338 
L 294.183694 282.099735 
L 294.338218 282.218135 
L 294.80179 286.30536 
L 294.956313 284.947475 
L 295.110837 286.447298 
L 295.265361 284.499399 
L 295.419885 285.853039 
L 295.574409 284.05698 
L 295.728933 284.44656 
L 295.883456 286.495265 
L 296.03798 286.337655 
L 296.192504 283.791764 
L 296.347028 284.32697 
L 296.501552 285.553621 
L 296.965123 283.6734 
L 297.119647 281.806765 
L 297.583218 285.252232 
L 297.737742 282.855151 
L 298.04679 286.689002 
L 298.201314 286.20082 
L 298.355837 285.00529 
L 298.510361 285.124673 
L 298.664885 285.525435 
L 298.973933 283.077952 
L 299.128457 282.625245 
L 299.437504 284.083783 
L 299.592028 286.619178 
L 299.746552 285.920719 
L 299.901076 280.596883 
L 300.210123 285.408926 
L 300.364647 287.278817 
L 300.519171 285.810451 
L 300.673695 285.870561 
L 300.828219 285.584423 
L 300.982742 286.825056 
L 301.137266 286.559157 
L 301.29179 287.086129 
L 301.446314 282.410239 
L 301.600838 283.951958 
L 301.755362 283.386881 
L 301.909885 286.024767 
L 302.064409 283.451182 
L 302.218933 286.555727 
L 302.373457 287.34685 
L 302.682504 285.978574 
L 302.837028 288.951666 
L 302.991552 285.623028 
L 303.146076 286.63601 
L 303.3006 286.712719 
L 303.455124 283.594546 
L 303.764171 286.806446 
L 304.073219 285.68012 
L 304.227743 284.7875 
L 304.382266 287.110582 
L 304.53679 283.840745 
L 304.691314 283.783557 
L 305.000362 287.983288 
L 305.154886 287.53291 
L 305.309409 287.661487 
L 305.463933 287.341503 
L 305.618457 286.059877 
L 305.772981 282.528189 
L 305.927505 284.795561 
L 306.082028 288.833877 
L 306.236552 287.40196 
L 306.391076 287.985319 
L 306.5456 283.528977 
L 306.854648 285.780429 
L 307.163695 287.484038 
L 307.318219 286.273674 
L 307.472743 288.060842 
L 307.78179 283.898238 
L 307.936314 286.334537 
L 308.090838 281.214749 
L 308.245362 283.247436 
L 308.399886 281.805865 
L 308.863457 287.307251 
L 309.017981 285.847494 
L 309.481553 287.963556 
L 309.636076 284.183345 
L 309.945124 286.568547 
L 310.099648 286.331176 
L 310.254172 284.806664 
L 310.408695 286.280404 
L 310.563219 288.874876 
L 310.717743 282.019042 
L 311.026791 287.465095 
L 311.181315 286.631831 
L 311.335838 285.154243 
L 311.490362 287.253987 
L 311.644886 287.463981 
L 311.79941 285.915763 
L 311.953934 288.088256 
L 312.262981 282.147837 
L 312.417505 287.889991 
L 312.572029 287.241965 
L 312.726553 283.721139 
L 313.0356 288.110057 
L 313.190124 288.285934 
L 313.344648 287.256493 
L 313.499172 284.942397 
L 313.653696 284.432584 
L 313.808219 287.566747 
L 313.962743 285.580166 
L 314.117267 287.520079 
L 314.580839 288.65963 
L 314.735362 286.463471 
L 315.04441 288.46004 
L 315.198934 288.468585 
L 315.353458 285.811304 
L 315.662505 287.117963 
L 315.817029 289.008168 
L 316.126077 287.014104 
L 316.280601 284.643499 
L 316.435124 284.962413 
L 316.589648 289.641881 
L 316.898696 287.682704 
L 317.05322 287.976362 
L 317.207743 284.134722 
L 317.362267 288.299438 
L 317.516791 285.436258 
L 317.671315 288.798411 
L 317.825839 289.21498 
L 317.980363 289.008716 
L 318.28941 285.326389 
L 318.598458 289.452041 
L 318.752982 287.622578 
L 318.907506 288.463526 
L 319.062029 286.722296 
L 319.216553 287.317742 
L 319.371077 285.738829 
L 319.525601 289.40471 
L 319.680125 285.489394 
L 319.834648 288.034069 
L 320.29822 284.933292 
L 320.452744 289.966249 
L 320.607268 286.592996 
L 320.761791 285.64817 
L 320.916315 286.014122 
L 321.070839 285.13556 
L 321.225363 288.299926 
L 321.53441 285.187974 
L 321.688934 288.752892 
L 321.843458 289.437274 
L 321.997982 282.876767 
L 322.152506 288.764596 
L 322.461553 288.975964 
L 322.616077 285.753065 
L 322.770601 290.00773 
L 322.925125 287.651597 
L 323.234172 290.156155 
L 323.388696 289.503568 
L 323.697744 290.243343 
L 323.852268 289.338486 
L 324.006792 286.997677 
L 324.161315 288.111858 
L 324.315839 285.668232 
L 324.470363 289.829685 
L 324.624887 288.341052 
L 324.779411 288.014188 
L 325.088458 285.944431 
L 325.242982 281.282728 
L 325.397506 282.585502 
L 325.55203 285.219088 
L 325.706554 283.643779 
L 326.015601 288.803772 
L 326.170125 288.595515 
L 326.324649 290.207859 
L 326.479173 288.916087 
L 326.633697 285.427552 
L 326.78822 289.593682 
L 326.942744 288.32117 
L 327.097268 285.418489 
L 327.251792 288.449286 
L 327.406316 287.188669 
L 327.715363 289.310346 
L 327.869887 289.263056 
L 328.178935 285.262313 
L 328.333459 289.07335 
L 328.487982 288.627723 
L 328.642506 289.364089 
L 328.79703 289.255244 
L 328.951554 286.008803 
L 329.106078 286.121696 
L 329.260601 285.267455 
L 329.415125 286.067216 
L 329.569649 290.397426 
L 329.878697 289.966771 
L 330.033221 291.381996 
L 330.187744 287.774587 
L 330.342268 288.956631 
L 330.496792 289.001207 
L 330.651316 287.997385 
L 330.80584 286.232515 
L 330.960363 289.064899 
L 331.269411 290.161127 
L 331.578459 286.193159 
L 331.732983 287.144259 
L 331.887506 289.888166 
L 332.04203 287.715372 
L 332.351078 290.10093 
L 332.505602 287.713699 
L 332.660125 289.019574 
L 332.814649 288.815103 
L 332.969173 289.393633 
L 333.123697 287.152031 
L 333.278221 286.739857 
L 333.432745 290.694083 
L 333.741792 286.769607 
L 334.05084 289.477448 
L 334.205364 289.782126 
L 334.359887 287.743783 
L 334.514411 289.375472 
L 334.668935 289.311017 
L 334.823459 284.578173 
L 334.977983 289.317708 
L 335.132507 288.222978 
L 335.28703 285.254019 
L 335.441554 290.555124 
L 335.596078 284.984603 
L 335.750602 290.762972 
L 336.05965 287.256653 
L 336.214173 291.059992 
L 336.368697 287.429604 
L 336.523221 287.444342 
L 336.677745 289.662558 
L 336.832269 283.802986 
L 337.141316 289.932341 
L 337.29584 288.034965 
L 337.450364 288.88882 
L 337.604888 288.297881 
L 337.759412 288.864395 
L 337.913935 287.016746 
L 338.068459 287.85055 
L 338.222983 287.741203 
L 338.377507 291.010954 
L 338.686554 287.122182 
L 338.995602 292.103761 
L 339.150126 289.531686 
L 339.30465 290.278771 
L 339.459174 290.343208 
L 339.768221 289.279558 
L 340.077269 290.563689 
L 340.695364 287.012147 
L 340.849888 286.851815 
L 341.004412 286.488371 
L 341.158936 288.1868 
L 341.313459 284.05915 
L 341.467983 286.218269 
L 341.622507 290.361751 
L 341.777031 290.51595 
L 341.931555 289.436223 
L 342.086078 291.84902 
L 342.240602 291.184832 
L 342.395126 285.870727 
L 342.54965 288.828539 
L 342.704174 288.337327 
L 342.858698 291.186474 
L 343.013221 290.890185 
L 343.322269 286.747057 
L 343.476793 291.489348 
L 343.631317 290.330287 
L 343.785841 290.381229 
L 343.940364 287.43352 
L 344.249412 290.541019 
L 344.403936 290.416712 
L 344.55846 288.923183 
L 344.712983 290.7831 
L 344.867507 286.75316 
L 345.022031 290.413667 
L 345.176555 287.196997 
L 345.331079 288.321882 
L 345.640126 283.261371 
L 345.949174 290.606762 
L 346.103698 289.256361 
L 346.258222 290.371497 
L 346.412745 290.584458 
L 346.567269 289.894544 
L 346.721793 291.275126 
L 346.876317 291.629068 
L 347.030841 291.13602 
L 347.185365 288.393802 
L 347.494412 292.029066 
L 347.648936 286.510746 
L 347.80346 291.286735 
L 347.957984 287.434501 
L 348.112507 287.775763 
L 348.267031 288.544569 
L 348.421555 289.974785 
L 348.576079 288.033067 
L 348.730603 290.781507 
L 348.885127 288.301917 
L 349.03965 291.19229 
L 349.194174 286.145567 
L 349.348698 289.223119 
L 349.657746 290.153631 
L 349.812269 289.805285 
L 349.966793 288.774951 
L 350.121317 290.875426 
L 350.275841 290.589958 
L 350.739412 288.688643 
L 350.893936 290.582234 
L 351.202984 288.018313 
L 351.357508 290.871652 
L 351.512032 288.779601 
L 351.666555 292.767855 
L 351.821079 289.948352 
L 351.975603 291.387639 
L 352.130127 286.569768 
L 352.284651 291.378955 
L 352.439174 288.76996 
L 352.593698 291.612748 
L 352.748222 290.688626 
L 352.902746 291.931206 
L 353.211794 290.009708 
L 353.366317 290.035455 
L 353.520841 287.411698 
L 353.675365 290.488675 
L 353.829889 289.993757 
L 353.984413 290.583792 
L 354.138936 288.237805 
L 354.29346 288.025402 
L 354.447984 287.435894 
L 354.757032 289.262779 
L 354.911556 287.143118 
L 355.066079 291.982361 
L 355.220603 291.890943 
L 355.375127 290.698024 
L 355.684175 292.68053 
L 355.838698 291.571463 
L 355.993222 288.365546 
L 356.147746 291.152083 
L 356.30227 290.162685 
L 356.456794 290.538952 
L 356.611318 292.168925 
L 356.920365 289.256009 
L 357.229413 292.998626 
L 357.383937 292.343358 
L 357.53846 288.853528 
L 357.692984 289.081999 
L 357.847508 287.428186 
L 358.002032 289.376213 
L 358.156556 288.249959 
L 358.31108 289.915701 
L 358.465603 290.326793 
L 358.620127 289.168352 
L 358.774651 290.742 
L 358.929175 286.007061 
L 359.238222 292.11273 
L 359.54727 287.915027 
L 359.701794 290.714972 
L 359.856318 288.122282 
L 360.010842 290.403609 
L 360.165365 288.88118 
L 360.319889 292.481714 
L 360.474413 289.457858 
L 360.628937 289.100089 
L 360.783461 292.653658 
L 361.092508 291.374963 
L 361.247032 291.412263 
L 361.401556 292.226894 
L 361.55608 286.732236 
L 361.865127 291.105484 
L 362.019651 289.7376 
L 362.174175 291.050766 
L 362.328699 291.275523 
L 362.483223 293.070779 
L 362.637747 291.318553 
L 363.101318 291.107996 
L 363.255842 289.790583 
L 363.564889 291.021506 
L 363.719413 292.036195 
L 364.028461 289.471137 
L 364.182985 292.938377 
L 364.337509 292.372153 
L 364.492032 288.759276 
L 364.646556 290.230216 
L 364.80108 288.143701 
L 364.955604 288.896306 
L 365.110128 282.912268 
L 365.573699 293.328079 
L 365.882747 288.717413 
L 366.037271 290.47738 
L 366.191794 282.875824 
L 366.346318 290.375058 
L 366.500842 292.084626 
L 366.655366 292.256914 
L 366.80989 292.87061 
L 366.964413 288.467491 
L 367.273461 292.437754 
L 367.427985 292.41526 
L 367.737033 290.948582 
L 367.891556 286.060583 
L 368.200604 292.164383 
L 368.355128 291.739326 
L 368.509652 293.299692 
L 368.664176 293.071691 
L 368.818699 288.033585 
L 368.973223 293.211006 
L 369.127747 290.125307 
L 369.282271 291.226354 
L 369.436795 290.711167 
L 369.591318 292.432252 
L 369.900366 288.451532 
L 370.05489 292.783871 
L 370.209414 292.465892 
L 370.518461 288.927914 
L 370.672985 288.797271 
L 370.827509 292.886022 
L 370.982033 292.035062 
L 371.136557 288.412153 
L 371.29108 289.427516 
L 371.445604 288.631427 
L 371.754652 292.855221 
L 371.909176 290.497114 
L 372.0637 293.470069 
L 372.218223 291.745789 
L 372.372747 292.450673 
L 372.681795 290.140691 
L 372.836319 291.287475 
L 372.990842 289.163508 
L 373.145366 291.545251 
L 373.29989 290.349882 
L 373.454414 293.011153 
L 373.608938 291.608914 
L 373.763462 294.254614 
L 373.917985 294.067987 
L 374.072509 293.704717 
L 374.227033 290.039088 
L 374.381557 291.247734 
L 374.536081 293.985743 
L 374.690604 291.814 
L 374.845128 294.25781 
L 375.3087 287.367016 
L 375.463224 291.626175 
L 375.617747 292.765283 
L 375.772271 291.187472 
L 375.926795 291.681911 
L 376.081319 289.26146 
L 376.235843 292.84712 
L 376.390366 293.19718 
L 376.54489 289.053695 
L 376.699414 291.368403 
L 376.853938 288.444942 
L 377.008462 291.525595 
L 377.162986 292.071984 
L 377.317509 288.319232 
L 377.472033 293.046689 
L 377.781081 289.292167 
L 377.935605 290.185896 
L 378.090129 292.825116 
L 378.244652 291.032205 
L 378.399176 291.113981 
L 378.5537 290.639177 
L 378.708224 289.396208 
L 378.862748 293.984968 
L 379.017271 290.460564 
L 379.171795 292.52271 
L 379.326319 292.32139 
L 379.480843 290.828143 
L 379.635367 293.765429 
L 379.789891 290.394831 
L 379.944414 293.658358 
L 380.098938 291.202466 
L 380.253462 291.915788 
L 380.407986 292.031563 
L 380.56251 289.588461 
L 380.717033 289.088753 
L 380.871557 290.849136 
L 381.026081 289.54384 
L 381.180605 291.019645 
L 381.489653 291.40872 
L 381.644176 289.869587 
L 381.7987 294.419695 
L 381.953224 291.72119 
L 382.107748 291.661058 
L 382.262272 293.856221 
L 382.416795 289.227221 
L 382.571319 292.729965 
L 383.034891 290.342426 
L 383.189415 293.362452 
L 383.498462 292.662111 
L 383.652986 289.80262 
L 383.80751 291.425995 
L 383.962034 290.673293 
L 384.116557 294.452943 
L 384.271081 290.970287 
L 384.425605 291.342942 
L 384.734653 288.332848 
L 385.0437 293.039001 
L 385.198224 292.666781 
L 385.352748 288.257377 
L 385.661796 291.366349 
L 385.81632 291.480156 
L 385.970843 293.377793 
L 386.434415 291.269007 
L 386.588939 288.999639 
L 386.743462 291.93344 
L 386.897986 290.971342 
L 387.05251 293.473028 
L 387.207034 289.507938 
L 387.361558 291.384169 
L 387.516082 294.887708 
L 387.670605 292.191418 
L 387.825129 293.68616 
L 387.979653 290.162364 
L 388.134177 290.608998 
L 388.288701 293.447429 
L 388.443224 293.619511 
L 388.597748 294.416081 
L 388.752272 291.275392 
L 388.906796 292.607986 
L 389.06132 291.917271 
L 389.215844 292.906295 
L 389.370367 291.234889 
L 389.524891 292.470997 
L 389.679415 289.85918 
L 389.988463 294.318399 
L 390.29751 291.872765 
L 390.452034 291.750344 
L 390.606558 291.774916 
L 390.915606 287.942116 
L 391.070129 292.972085 
L 391.379177 290.58474 
L 391.533701 287.199199 
L 391.997272 293.920876 
L 392.151796 291.423809 
L 392.30632 291.361348 
L 392.615368 293.631606 
L 393.078939 293.068577 
L 393.387987 289.797091 
L 393.54251 292.993417 
L 393.697034 291.607985 
L 393.851558 292.504494 
L 394.006082 290.875701 
L 394.160606 295.148858 
L 394.31513 290.527374 
L 394.469653 289.549936 
L 394.624177 290.134858 
L 394.933225 294.102775 
L 395.087749 293.57485 
L 395.242273 293.544752 
L 395.396796 290.841797 
L 395.860368 295.488 
L 396.014892 291.184506 
L 396.169415 294.376858 
L 396.323939 292.32249 
L 396.478463 288.372719 
L 396.787511 290.757878 
L 396.942035 292.492928 
L 397.096558 286.988953 
L 397.251082 292.947343 
L 397.405606 291.21667 
L 397.56013 294.188747 
L 397.869177 291.869489 
L 398.023701 293.355467 
L 398.178225 292.114679 
L 398.332749 292.916471 
L 398.487273 292.592637 
L 398.487273 292.592637 
" clip-path="url(#p40fa6c45c3)" style="fill: none; stroke: #1f77b4; stroke-opacity: 0.7; stroke-width: 1.5; stroke-linecap: square"/>
   </g>
   <g id="line2d_13">
    <path d="M 57.6 288.299926 
L 414.72 288.299926 
" clip-path="url(#p40fa6c45c3)" style="fill: none; stroke: #000000; stroke-width: 1.5; stroke-linecap: square"/>
   </g>
   <g id="patch_3">
    <path d="M 57.6 307.584 
L 57.6 41.472 
" style="fill: none; stroke: #000000; stroke-width: 0.8; stroke-linejoin: miter; stroke-linecap: square"/>
   </g>
   <g id="patch_4">
    <path d="M 57.6 307.584 
L 414.72 307.584 
" style="fill: none; stroke: #000000; stroke-width: 0.8; stroke-linejoin: miter; stroke-linecap: square"/>
   </g>
   <g id="legend_1">
    <g id="patch_5">
     <path d="M 230.20125 109.475125 
L 407.72 109.475125 
Q 409.72 109.475125 409.72 107.475125 
L 409.72 48.472 
Q 409.72 46.472 407.72 46.472 
L 230.20125 46.472 
Q 228.20125 46.472 228.20125 48.472 
L 228.20125 107.475125 
Q 228.20125 109.475125 230.20125 109.475125 
z
" style="fill: #ffffff; opacity: 0.8; stroke: #cccccc; stroke-linejoin: miter"/>
    </g>
    <g id="line2d_14">
     <path d="M 232.20125 54.570438 
L 242.20125 54.570438 
L 252.20125 54.570438 
" style="fill: none; stroke: #1f77b4; stroke-opacity: 0.7; stroke-width: 1.5; stroke-linecap: square"/>
    </g>
    <g id="text_14">
     <!-- Loss per batch -->
     <g transform="translate(260.20125 58.070438) scale(0.1 -0.1)">
      <defs>
       <path id="DejaVuSans-53" d="M 1159 525 
L 1159 -1331 
L 581 -1331 
L 581 3500 
L 1159 3500 
L 1159 2969 
Q 1341 3281 1617 3432 
Q 1894 3584 2278 3584 
Q 2916 3584 3314 3078 
Q 3713 2572 3713 1747 
Q 3713 922 3314 415 
Q 2916 -91 2278 -91 
Q 1894 -91 1617 61 
Q 1341 213 1159 525 
z
M 3116 1747 
Q 3116 2381 2855 2742 
Q 2594 3103 2138 3103 
Q 1681 3103 1420 2742 
Q 1159 2381 1159 1747 
Q 1159 1113 1420 752 
Q 1681 391 2138 391 
Q 2594 391 2855 752 
Q 3116 1113 3116 1747 
z
" transform="scale(0.015625)"/>
       <path id="DejaVuSans-55" d="M 2631 2963 
Q 2534 3019 2420 3045 
Q 2306 3072 2169 3072 
Q 1681 3072 1420 2755 
Q 1159 2438 1159 1844 
L 1159 0 
L 581 0 
L 581 3500 
L 1159 3500 
L 1159 2956 
Q 1341 3275 1631 3429 
Q 1922 3584 2338 3584 
Q 2397 3584 2469 3576 
Q 2541 3569 2628 3553 
L 2631 2963 
z
" transform="scale(0.015625)"/>
      </defs>
      <use xlink:href="#DejaVuSans-2f"/>
      <use xlink:href="#DejaVuSans-52" transform="translate(53.96875 0)"/>
      <use xlink:href="#DejaVuSans-56" transform="translate(115.15625 0)"/>
      <use xlink:href="#DejaVuSans-56" transform="translate(167.25 0)"/>
      <use xlink:href="#DejaVuSans-3" transform="translate(219.34375 0)"/>
      <use xlink:href="#DejaVuSans-53" transform="translate(251.125 0)"/>
      <use xlink:href="#DejaVuSans-48" transform="translate(314.609375 0)"/>
      <use xlink:href="#DejaVuSans-55" transform="translate(376.140625 0)"/>
      <use xlink:href="#DejaVuSans-3" transform="translate(417.25 0)"/>
      <use xlink:href="#DejaVuSans-45" transform="translate(449.03125 0)"/>
      <use xlink:href="#DejaVuSans-44" transform="translate(512.515625 0)"/>
      <use xlink:href="#DejaVuSans-57" transform="translate(573.796875 0)"/>
      <use xlink:href="#DejaVuSans-46" transform="translate(613 0)"/>
      <use xlink:href="#DejaVuSans-4b" transform="translate(667.984375 0)"/>
     </g>
    </g>
    <g id="PathCollection_2">
     <g>
      <use xlink:href="#m07901933ab" x="242.20125" y="70.446219" style="fill: #1f77b4; stroke: #1f77b4"/>
     </g>
    </g>
    <g id="text_15">
     <!-- Loss at training start -->
     <g transform="translate(260.20125 73.071219) scale(0.1 -0.1)">
      <use xlink:href="#DejaVuSans-2f"/>
      <use xlink:href="#DejaVuSans-52" transform="translate(53.96875 0)"/>
      <use xlink:href="#DejaVuSans-56" transform="translate(115.15625 0)"/>
      <use xlink:href="#DejaVuSans-56" transform="translate(167.25 0)"/>
      <use xlink:href="#DejaVuSans-3" transform="translate(219.34375 0)"/>
      <use xlink:href="#DejaVuSans-44" transform="translate(251.125 0)"/>
      <use xlink:href="#DejaVuSans-57" transform="translate(312.40625 0)"/>
      <use xlink:href="#DejaVuSans-3" transform="translate(351.609375 0)"/>
      <use xlink:href="#DejaVuSans-57" transform="translate(383.390625 0)"/>
      <use xlink:href="#DejaVuSans-55" transform="translate(422.59375 0)"/>
      <use xlink:href="#DejaVuSans-44" transform="translate(463.703125 0)"/>
      <use xlink:href="#DejaVuSans-4c" transform="translate(524.984375 0)"/>
      <use xlink:href="#DejaVuSans-51" transform="translate(552.765625 0)"/>
      <use xlink:href="#DejaVuSans-4c" transform="translate(616.140625 0)"/>
      <use xlink:href="#DejaVuSans-51" transform="translate(643.921875 0)"/>
      <use xlink:href="#DejaVuSans-4a" transform="translate(707.296875 0)"/>
      <use xlink:href="#DejaVuSans-3" transform="translate(770.78125 0)"/>
      <use xlink:href="#DejaVuSans-56" transform="translate(802.5625 0)"/>
      <use xlink:href="#DejaVuSans-57" transform="translate(854.65625 0)"/>
      <use xlink:href="#DejaVuSans-44" transform="translate(893.859375 0)"/>
      <use xlink:href="#DejaVuSans-55" transform="translate(955.140625 0)"/>
      <use xlink:href="#DejaVuSans-57" transform="translate(996.25 0)"/>
     </g>
    </g>
    <g id="PathCollection_3">
     <defs>
      <path id="mccc3242ba0" d="M 0 3 
C 0.795609 3 1.55874 2.683901 2.12132 2.12132 
C 2.683901 1.55874 3 0.795609 3 0 
C 3 -0.795609 2.683901 -1.55874 2.12132 -2.12132 
C 1.55874 -2.683901 0.795609 -3 0 -3 
C -0.795609 -3 -1.55874 -2.683901 -2.12132 -2.12132 
C -2.683901 -1.55874 -3 -0.795609 -3 0 
C -3 0.795609 -2.683901 1.55874 -2.12132 2.12132 
C -1.55874 2.683901 -0.795609 3 0 3 
z
" style="stroke: #ff7f0e"/>
     </defs>
     <g>
      <use xlink:href="#mccc3242ba0" x="242.20125" y="85.447" style="fill: #ff7f0e; stroke: #ff7f0e"/>
     </g>
    </g>
    <g id="text_16">
     <!-- Loss at pass boundaries -->
     <g transform="translate(260.20125 88.072) scale(0.1 -0.1)">
      <use xlink:href="#DejaVuSans-2f"/>
      <use xlink:href="#DejaVuSans-52" transform="translate(53.96875 0)"/>
      <use xlink:href="#DejaVuSans-56" transform="translate(115.15625 0)"/>
      <use xlink:href="#DejaVuSans-56" transform="translate(167.25 0)"/>
      <use xlink:href="#DejaVuSans-3" transform="translate(219.34375 0)"/>
      <use xlink:href="#DejaVuSans-44" transform="translate(251.125 0)"/>
      <use xlink:href="#DejaVuSans-57" transform="translate(312.40625 0)"/>
      <use xlink:href="#DejaVuSans-3" transform="translate(351.609375 0)"/>
      <use xlink:href="#DejaVuSans-53" transform="translate(383.390625 0)"/>
      <use xlink:href="#DejaVuSans-44" transform="translate(446.875 0)"/>
      <use xlink:href="#DejaVuSans-56" transform="translate(508.15625 0)"/>
      <use xlink:href="#DejaVuSans-56" transform="translate(560.25 0)"/>
      <use xlink:href="#DejaVuSans-3" transform="translate(612.34375 0)"/>
      <use xlink:href="#DejaVuSans-45" transform="translate(644.125 0)"/>
      <use xlink:href="#DejaVuSans-52" transform="translate(707.609375 0)"/>
      <use xlink:href="#DejaVuSans-58" transform="translate(768.796875 0)"/>
      <use xlink:href="#DejaVuSans-51" transform="translate(832.171875 0)"/>
      <use xlink:href="#DejaVuSans-47" transform="translate(895.546875 0)"/>
      <use xlink:href="#DejaVuSans-44" transform="translate(959.03125 0)"/>
      <use xlink:href="#DejaVuSans-55" transform="translate(1020.3125 0)"/>
      <use xlink:href="#DejaVuSans-4c" transform="translate(1061.421875 0)"/>
      <use xlink:href="#DejaVuSans-48" transform="translate(1089.203125 0)"/>
      <use xlink:href="#DejaVuSans-56" transform="translate(1150.734375 0)"/>
     </g>
    </g>
    <g id="line2d_15">
     <path d="M 232.20125 99.572781 
L 242.20125 99.572781 
L 252.20125 99.572781 
" style="fill: none; stroke: #000000; stroke-width: 1.5; stroke-linecap: square"/>
    </g>
    <g id="text_17">
     <!-- Early-stopping reference loss -->
     <g transform="translate(260.20125 103.072781) scale(0.1 -0.1)">
      <defs>
       <path id="DejaVuSans-28" d="M 628 4666 
L 3578 4666 
L 3578 4134 
L 1259 4134 
L 1259 2753 
L 3481 2753 
L 3481 2222 
L 1259 2222 
L 1259 531 
L 3634 531 
L 3634 0 
L 628 0 
L 628 4666 
z
" transform="scale(0.015625)"/>
       <path id="DejaVuSans-5c" d="M 2059 -325 
Q 1816 -950 1584 -1140 
Q 1353 -1331 966 -1331 
L 506 -1331 
L 506 -850 
L 844 -850 
Q 1081 -850 1212 -737 
Q 1344 -625 1503 -206 
L 1606 56 
L 191 3500 
L 800 3500 
L 1894 763 
L 2988 3500 
L 3597 3500 
L 2059 -325 
z
" transform="scale(0.015625)"/>
       <path id="DejaVuSans-10" d="M 313 2009 
L 1997 2009 
L 1997 1497 
L 313 1497 
L 313 2009 
z
" transform="scale(0.015625)"/>
       <path id="DejaVuSans-49" d="M 2375 4863 
L 2375 4384 
L 1825 4384 
Q 1516 4384 1395 4259 
Q 1275 4134 1275 3809 
L 1275 3500 
L 2222 3500 
L 2222 3053 
L 1275 3053 
L 1275 0 
L 697 0 
L 697 3053 
L 147 3053 
L 147 3500 
L 697 3500 
L 697 3744 
Q 697 4328 969 4595 
Q 1241 4863 1831 4863 
L 2375 4863 
z
" transform="scale(0.015625)"/>
      </defs>
      <use xlink:href="#DejaVuSans-28"/>
      <use xlink:href="#DejaVuSans-44" transform="translate(63.1875 0)"/>
      <use xlink:href="#DejaVuSans-55" transform="translate(124.46875 0)"/>
      <use xlink:href="#DejaVuSans-4f" transform="translate(165.578125 0)"/>
      <use xlink:href="#DejaVuSans-5c" transform="translate(193.359375 0)"/>
      <use xlink:href="#DejaVuSans-10" transform="translate(250.796875 0)"/>
      <use xlink:href="#DejaVuSans-56" transform="translate(286.875 0)"/>
      <use xlink:href="#DejaVuSans-57" transform="translate(338.96875 0)"/>
      <use xlink:href="#DejaVuSans-52" transform="translate(378.171875 0)"/>
      <use xlink:href="#DejaVuSans-53" transform="translate(439.359375 0)"/>
      <use xlink:href="#DejaVuSans-53" transform="translate(502.84375 0)"/>
      <use xlink:href="#DejaVuSans-4c" transform="translate(566.328125 0)"/>
      <use xlink:href="#DejaVuSans-51" transform="translate(594.109375 0)"/>
      <use xlink:href="#DejaVuSans-4a" transform="translate(657.484375 0)"/>
      <use xlink:href="#DejaVuSans-3" transform="translate(720.96875 0)"/>
      <use xlink:href="#DejaVuSans-55" transform="translate(752.75 0)"/>
      <use xlink:href="#DejaVuSans-48" transform="translate(791.65625 0)"/>
      <use xlink:href="#DejaVuSans-49" transform="translate(853.1875 0)"/>
      <use xlink:href="#DejaVuSans-48" transform="translate(888.390625 0)"/>
      <use xlink:href="#DejaVuSans-55" transform="translate(949.921875 0)"/>
      <use xlink:href="#DejaVuSans-48" transform="translate(988.828125 0)"/>
      <use xlink:href="#DejaVuSans-51" transform="translate(1050.359375 0)"/>
      <use xlink:href="#DejaVuSans-46" transform="translate(1113.734375 0)"/>
      <use xlink:href="#DejaVuSans-48" transform="translate(1168.71875 0)"/>
      <use xlink:href="#DejaVuSans-3" transform="translate(1230.25 0)"/>
      <use xlink:href="#DejaVuSans-4f" transform="translate(1262.03125 0)"/>
      <use xlink:href="#DejaVuSans-52" transform="translate(1289.8125 0)"/>
      <use xlink:href="#DejaVuSans-56" transform="translate(1351 0)"/>
      <use xlink:href="#DejaVuSans-56" transform="translate(1403.09375 0)"/>
     </g>
    </g>
   </g>
   <g id="PathCollection_4">
    <g clip-path="url(#p40fa6c45c3)">
     <use xlink:href="#mccc3242ba0" x="89.285109" y="132.012753" style="fill: #ff7f0e; stroke: #ff7f0e"/>
     <use xlink:href="#mccc3242ba0" x="104.737491" y="172.091994" style="fill: #ff7f0e; stroke: #ff7f0e"/>
     <use xlink:href="#mccc3242ba0" x="120.189873" y="199.751579" style="fill: #ff7f0e; stroke: #ff7f0e"/>
     <use xlink:href="#mccc3242ba0" x="135.642255" y="220.573552" style="fill: #ff7f0e; stroke: #ff7f0e"/>
     <use xlink:href="#mccc3242ba0" x="151.094637" y="236.110657" style="fill: #ff7f0e; stroke: #ff7f0e"/>
     <use xlink:href="#mccc3242ba0" x="166.547019" y="247.115132" style="fill: #ff7f0e; stroke: #ff7f0e"/>
     <use xlink:href="#mccc3242ba0" x="181.999401" y="255.586255" style="fill: #ff7f0e; stroke: #ff7f0e"/>
     <use xlink:href="#mccc3242ba0" x="197.451783" y="260.96877" style="fill: #ff7f0e; stroke: #ff7f0e"/>
     <use xlink:href="#mccc3242ba0" x="212.904165" y="266.461653" style="fill: #ff7f0e; stroke: #ff7f0e"/>
     <use xlink:href="#mccc3242ba0" x="243.963453" y="275.584932" style="fill: #ff7f0e; stroke: #ff7f0e"/>
     <use xlink:href="#mccc3242ba0" x="259.415835" y="277.38715" style="fill: #ff7f0e; stroke: #ff7f0e"/>
     <use xlink:href="#mccc3242ba0" x="274.868217" y="282.901556" style="fill: #ff7f0e; stroke: #ff7f0e"/>
     <use xlink:href="#mccc3242ba0" x="290.320599" y="283.638569" style="fill: #ff7f0e; stroke: #ff7f0e"/>
     <use xlink:href="#mccc3242ba0" x="305.772981" y="282.528189" style="fill: #ff7f0e; stroke: #ff7f0e"/>
     <use xlink:href="#mccc3242ba0" x="321.225363" y="288.299926" style="fill: #ff7f0e; stroke: #ff7f0e"/>
     <use xlink:href="#mccc3242ba0" x="336.677745" y="289.662558" style="fill: #ff7f0e; stroke: #ff7f0e"/>
     <use xlink:href="#mccc3242ba0" x="352.130127" y="286.569768" style="fill: #ff7f0e; stroke: #ff7f0e"/>
     <use xlink:href="#mccc3242ba0" x="367.582509" y="291.439281" style="fill: #ff7f0e; stroke: #ff7f0e"/>
     <use xlink:href="#mccc3242ba0" x="383.034891" y="290.342426" style="fill: #ff7f0e; stroke: #ff7f0e"/>
    </g>
   </g>
  </g>
 </g>
 <defs>
  <clipPath id="p40fa6c45c3">
   <rect x="57.6" y="41.472" width="357.12" height="266.112"/>
  </clipPath>
 </defs>
</svg>
