<?xml version="1.0" encoding="utf-8" standalone="no"?>
<!DOCTYPE svg PUBLIC "-//W3C//DTD SVG 1.1//EN"
  "http://www.w3.org/Graphics/SVG/1.1/DTD/svg11.dtd">
<svg xmlns:xlink="http://www.w3.org/1999/xlink" width="460.8pt" height="345.6pt" viewBox="0 0 460.8 345.6" xmlns="http://www.w3.org/2000/svg" version="1.1">
 <metadata>
  <rdf:RDF xmlns:dc="http://purl.org/dc/elements/1.1/" xmlns:cc="http://creativecommons.org/ns#" xmlns:rdf="http://www.w3.org/1999/02/22-rdf-syntax-ns#">
   <cc:Work>
    <dc:type rdf:resource="http://purl.org/dc/dcmitype/StillImage"/>
    <dc:date>2026-09-17T11:55:43.017151</dc:date>
    <dc:format>image/svg+xml</dc:format>
    <dc:creator>
     <cc:Agent>
      <dc:title>Matplotlib v3.11.2, https://matplotlib.org/</dc:title>
     </cc:Agent>
    </dc:creator>
   </cc:Work>
  </rdf:RDF>
 </metadata>
 <defs>
  <style type="text/css">*{stroke-linejoin: round; stroke-linecap: butt}</style>
 </defs>
 <g id="figure_1">
  <g id="patch_1">
   <path d="M 0 345.6 
L 460.8 345.6 
L 460.8 0 
L 0 0 
z
" style="fill: #ffffff"/>
  </g>
  <g id="axes_1">
   <g id="patch_2">
    <path d="M 57.6 307.584 
L 414.72 307.584 
L 414.72 41.472 
L 57.6 41.472 
z
" style="fill: #ffffff"/>
   </g>
   <g id="PathCollection_1">
    <defs>
     <path id="mf65e7380aa" d="M 0 3 
C 0.795609 3 1.55874 2.683901 2.12132 2.12132 
C 2.683901 1.55874 3 0.795609 3 0 
C 3 -0.795609 2.683901 -1.55874 2.12132 -2.12132 
C 1.55874 -2.683901 0.795609 -3 0 -3 
C -0.795609 -3 -1.55874 -2.683901 -2.12132 -2.12132 
C -2.683901 -1.55874 -3 -0.795609 -3 0 
C -3 0.795609 -2.683901 1.55874 -2.12132 2.12132 
C -1.55874 2.683901 -0.795609 3 0 3 
z
" style="stroke: #1f77b4"/>
    </defs>
    <g clip-path="url(#ped9f9be586)">
     <use xlink:href="#mf65e7380aa" x="73.832727" y="53.568" style="fill: #1f77b4; stroke: #1f77b4"/>
     <use xlink:href="#mf65e7380aa" x="221.483431" y="271.881924" style="fill: #1f77b4; stroke: #1f77b4"/>
    </g>
   </g>
   <g id="matplotlib.axis_1">
    <g id="xtick_1">
     <g id="line2d_1">
      <defs>
       <path id="mb5a8f22821" d="M 0 0 
L 0 3.5 
" style="stroke: #000000; stroke-width: 0.8"/>
      </defs>
      <g>
       <use xlink:href="#mb5a8f22821" x="73.832727" y="307.584" style="stroke: #000000; stroke-width: 0.8"/>
      </g>
     </g>
     <g id="text_1">
      <!-- 0 -->
      <g transform="translate(70.651477 322.181656) scale(0.1 -0.1)">
       <defs>
        <path id="DejaVuSans-13" d="M 2034 4250 
Q 1547 4250 1301 3770 
Q 1056 3291 1056 2328 
Q 1056 1369 1301 889 
Q 1547 409 2034 409 
Q 2525 409 2770 889 
Q 3016 1369 3016 2328 
Q 3016 3291 2770 3770 
Q 2525 4250 2034 4250 
z
M 2034 4750 
Q 2819 4750 3233 4129 
Q 3647 3509 3647 2328 
Q 3647 1150 3233 529 
Q 2819 -91 2034 -91 
Q 1250 -91 836 529 
Q 422 1150 422 2328 
Q 422 3509 836 4129 
Q 1250 4750 2034 4750 
z
" transform="scale(0.015625)"/>
       </defs>
       <use xlink:href="#DejaVuSans-13"/>
      </g>
     </g>
    </g>
    <g id="xtick_2">
     <g id="line2d_2">
      <g>
       <use xlink:href="#mb5a8f22821" x="147.584328" y="307.584" style="stroke: #000000; stroke-width: 0.8"/>
      </g>
     </g>
     <g id="text_2">
      <!-- 500 -->
      <g transform="translate(138.040578 322.181656) scale(0.1 -0.1)">
       <defs>
        <path id="DejaVuSans-18" d="M 691 4666 
L 3169 4666 
L 3169 4134 
L 1269 4134 
L 1269 2991 
Q 1406 3038 1543 3061 
Q 1681 3084 1819 3084 
Q 2600 3084 3056 2656 
Q 3513 2228 3513 1497 
Q 3513 744 3044 326 
Q 2575 -91 1722 -91 
Q 1428 -91 1123 -41 
Q 819 9 494 109 
L 494 744 
Q 775 591 1075 516 
Q 1375 441 1709 441 
Q 2250 441 2565 725 
Q 2881 1009 2881 1497 
Q 2881 1984 2565 2268 
Q 2250 2553 1709 2553 
Q 1456 2553 1204 2497 
Q 953 2441 691 2322 
L 691 4666 
z
" transform="scale(0.015625)"/>
       </defs>
       <use xlink:href="#DejaVuSans-18"/>
       <use xlink:href="#DejaVuSans-13" transform="translate(63.625 0)"/>
       <use xlink:href="#DejaVuSans-13" transform="translate(127.25 0)"/>
      </g>
     </g>
    </g>
    <g id="xtick_3">
     <g id="line2d_3">
      <g>
       <use xlink:href="#mb5a8f22821" x="221.335928" y="307.584" style="stroke: #000000; stroke-width: 0.8"/>
      </g>
     </g>
     <g id="text_3">
      <!-- 1000 -->
      <g transform="translate(208.610928 322.181656) scale(0.1 -0.1)">
       <defs>
        <path id="DejaVuSans-14" d="M 794 531 
L 1825 531 
L 1825 4091 
L 703 3866 
L 703 4441 
L 1819 4666 
L 2450 4666 
L 2450 531 
L 3481 531 
L 3481 0 
L 794 0 
L 794 531 
z
" transform="scale(0.015625)"/>
       </defs>
       <use xlink:href="#DejaVuSans-14"/>
       <use xlink:href="#DejaVuSans-13" transform="translate(63.625 0)"/>
       <use xlink:href="#DejaVuSans-13" transform="translate(127.25 0)"/>
       <use xlink:href="#DejaVuSans-13" transform="translate(190.875 0)"/>
      </g>
     </g>
    </g>
    <g id="xtick_4">
     <g id="line2d_4">
      <g>
       <use xlink:href="#mb5a8f22821" x="295.087529" y="307.584" style="stroke: #000000; stroke-width: 0.8"/>
      </g>
     </g>
     <g id="text_4">
      <!-- 1500 -->
      <g transform="translate(282.362529 322.181656) scale(0.1 -0.1)">
       <use xlink:href="#DejaVuSans-14"/>
       <use xlink:href="#DejaVuSans-18" transform="translate(63.625 0)"/>
       <use xlink:href="#DejaVuSans-13" transform="translate(127.25 0)"/>
       <use xlink:href="#DejaVuSans-13" transform="translate(190.875 0)"/>
      </g>
     </g>
    </g>
    <g id="xtick_5">
     <g id="line2d_5">
      <g>
       <use xlink:href="#mb5a8f22821" x="368.839129" y="307.584" style="stroke: #000000; stroke-width: 0.8"/>
      </g>
     </g>
     <g id="text_5">
      <!-- 2000 -->
      <g transform="translate(356.114129 322.181656) scale(0.1 -0.1)">
       <defs>
        <path id="DejaVuSans-15" d="M 1228 531 
L 3431 531 
L 3431 0 
L 469 0 
L 469 531 
Q 828 903 1448 1529 
Q 2069 2156 2228 2338 
Q 2531 2678 2651 2914 
Q 2772 3150 2772 3378 
Q 2772 3750 2511 3984 
Q 2250 4219 1831 4219 
Q 1534 4219 1204 4116 
Q 875 4013 500 3803 
L 500 4441 
Q 881 4594 1212 4672 
Q 1544 4750 1819 4750 
Q 2544 4750 2975 4387 
Q 3406 4025 3406 3419 
Q 3406 3131 3298 2873 
Q 3191 2616 2906 2266 
Q 2828 2175 2409 1742 
Q 1991 1309 1228 531 
z
" transform="scale(0.015625)"/>
       </defs>
       <use xlink:href="#DejaVuSans-15"/>
       <use xlink:href="#DejaVuSans-13" transform="translate(63.625 0)"/>
       <use xlink:href="#DejaVuSans-13" transform="translate(127.25 0)"/>
       <use xlink:href="#DejaVuSans-13" transform="translate(190.875 0)"/>
      </g>
     </g>
    </g>
    <g id="text_6">
     <!-- Log index (~batch index) -->
     <g transform="translate(172.892031 336.182437) scale(0.1 -0.1)">
      <defs>
       <path id="DejaVuSans-2f" d="M 628 4666 
L 1259 4666 
L 1259 531 
L 3531 531 
L 3531 0 
L 628 0 
L 628 4666 
z
" transform="scale(0.015625)"/>
       <path id="DejaVuSans-52" d="M 1959 3097 
Q 1497 3097 1228 2736 
Q 959 2375 959 1747 
Q 959 1119 1226 758 
Q 1494 397 1959 397 
Q 2419 397 2687 759 
Q 2956 1122 2956 1747 
Q 2956 2369 2687 2733 
Q 2419 3097 1959 3097 
z
M 1959 3584 
Q 2709 3584 3137 3096 
Q 3566 2609 3566 1747 
Q 3566 888 3137 398 
Q 2709 -91 1959 -91 
Q 1206 -91 779 398 
Q 353 888 353 1747 
Q 353 2609 779 3096 
Q 1206 3584 1959 3584 
z
" transform="scale(0.015625)"/>
       <path id="DejaVuSans-4a" d="M 2906 1791 
Q 2906 2416 2648 2759 
Q 2391 3103 1925 3103 
Q 1463 3103 1205 2759 
Q 947 2416 947 1791 
Q 947 1169 1205 825 
Q 1463 481 1925 481 
Q 2391 481 2648 825 
Q 2906 1169 2906 1791 
z
M 3481 434 
Q 3481 -459 3084 -895 
Q 2688 -1331 1869 -1331 
Q 1566 -1331 1297 -1286 
Q 1028 -1241 775 -1147 
L 775 -588 
Q 1028 -725 1275 -790 
Q 1522 -856 1778 -856 
Q 2344 -856 2625 -561 
Q 2906 -266 2906 331 
L 2906 616 
Q 2728 306 2450 153 
Q 2172 0 1784 0 
Q 1141 0 747 490 
Q 353 981 353 1791 
Q 353 2603 747 3093 
Q 1141 3584 1784 3584 
Q 2172 3584 2450 3431 
Q 2728 3278 2906 2969 
L 2906 3500 
L 3481 3500 
L 3481 434 
z
" transform="scale(0.015625)"/>
       <path id="DejaVuSans-3" transform="scale(0.015625)"/>
       <path id="DejaVuSans-4c" d="M 603 3500 
L 1178 3500 
L 1178 0 
L 603 0 
L 603 3500 
z
M 603 4863 
L 1178 4863 
L 1178 4134 
L 603 4134 
L 603 4863 
z
" transform="scale(0.015625)"/>
       <path id="DejaVuSans-51" d="M 3513 2113 
L 3513 0 
L 2938 0 
L 2938 2094 
Q 2938 2591 2744 2837 
Q 2550 3084 2163 3084 
Q 1697 3084 1428 2787 
Q 1159 2491 1159 1978 
L 1159 0 
L 581 0 
L 581 3500 
L 1159 3500 
L 1159 2956 
Q 1366 3272 1645 3428 
Q 1925 3584 2291 3584 
Q 2894 3584 3203 3211 
Q 3513 2838 3513 2113 
z
" transform="scale(0.015625)"/>
       <path id="DejaVuSans-47" d="M 2906 2969 
L 2906 4863 
L 3481 4863 
L 3481 0 
L 2906 0 
L 2906 525 
Q 2725 213 2448 61 
Q 2172 -91 1784 -91 
Q 1150 -91 751 415 
Q 353 922 353 1747 
Q 353 2572 751 3078 
Q 1150 3584 1784 3584 
Q 2172 3584 2448 3432 
Q 2725 3281 2906 2969 
z
M 947 1747 
Q 947 1113 1208 752 
Q 1469 391 1925 391 
Q 2381 391 2643 752 
Q 2906 1113 2906 1747 
Q 2906 2381 2643 2742 
Q 2381 3103 1925 3103 
Q 1469 3103 1208 2742 
Q 947 2381 947 1747 
z
" transform="scale(0.015625)"/>
       <path id="DejaVuSans-48" d="M 3597 1894 
L 3597 1613 
L 953 1613 
Q 991 1019 1311 708 
Q 1631 397 2203 397 
Q 2534 397 2845 478 
Q 3156 559 3463 722 
L 3463 178 
Q 3153 47 2828 -22 
Q 2503 -91 2169 -91 
Q 1331 -91 842 396 
Q 353 884 353 1716 
Q 353 2575 817 3079 
Q 1281 3584 2069 3584 
Q 2775 3584 3186 3129 
Q 3597 2675 3597 1894 
z
M 3022 2063 
Q 3016 2534 2758 2815 
Q 2500 3097 2075 3097 
Q 1594 3097 1305 2825 
Q 1016 2553 972 2059 
L 3022 2063 
z
" transform="scale(0.015625)"/>
       <path id="DejaVuSans-5b" d="M 3513 3500 
L 2247 1797 
L 3578 0 
L 2900 0 
L 1881 1375 
L 863 0 
L 184 0 
L 1544 1831 
L 300 3500 
L 978 3500 
L 1906 2253 
L 2834 3500 
L 3513 3500 
z
" transform="scale(0.015625)"/>
       <path id="DejaVuSans-b" d="M 1984 4856 
Q 1566 4138 1362 3434 
Q 1159 2731 1159 2009 
Q 1159 1288 1364 580 
Q 1569 -128 1984 -844 
L 1484 -844 
Q 1016 -109 783 600 
Q 550 1309 550 2009 
Q 550 2706 781 3412 
Q 1013 4119 1484 4856 
L 1984 4856 
z
" transform="scale(0.015625)"/>
       <path id="DejaVuSans-61" d="M 4684 2553 
L 4684 1997 
Q 4356 1750 4076 1644 
Q 3797 1538 3494 1538 
Q 3150 1538 2694 1722 
Q 2659 1734 2644 1741 
Q 2622 1750 2575 1766 
Q 2091 1959 1797 1959 
Q 1522 1959 1253 1839 
Q 984 1719 678 1459 
L 678 2016 
Q 1006 2263 1286 2370 
Q 1566 2478 1869 2478 
Q 2213 2478 2672 2291 
Q 2703 2278 2719 2272 
Q 2744 2263 2788 2247 
Q 3272 2053 3566 2053 
Q 3834 2053 4098 2172 
Q 4363 2291 4684 2553 
z
" transform="scale(0.015625)"/>
       <path id="DejaVuSans-45" d="M 3116 1747 
Q 3116 2381 2855 2742 
Q 2594 3103 2138 3103 
Q 1681 3103 1420 2742 
Q 1159 2381 1159 1747 
Q 1159 1113 1420 752 
Q 1681 391 2138 391 
Q 2594 391 2855 752 
Q 3116 1113 3116 1747 
z
M 1159 2969 
Q 1341 3281 1617 3432 
Q 1894 3584 2278 3584 
Q 2916 3584 3314 3078 
Q 3713 2572 3713 1747 
Q 3713 922 3314 415 
Q 2916 -91 2278 -91 
Q 1894 -91 1617 61 
Q 1341 213 1159 525 
L 1159 0 
L 581 0 
L 581 4863 
L 1159 4863 
L 1159 2969 
z
" transform="scale(0.015625)"/>
       <path id="DejaVuSans-44" d="M 2194 1759 
Q 1497 1759 1228 1600 
Q 959 1441 959 1056 
Q 959 750 1161 570 
Q 1363 391 1709 391 
Q 2188 391 2477 730 
Q 2766 1069 2766 1631 
L 2766 1759 
L 2194 1759 
z
M 3341 1997 
L 3341 0 
L 2766 0 
L 2766 531 
Q 2569 213 2275 61 
Q 1981 -91 1556 -91 
Q 1019 -91 701 211 
Q 384 513 384 1019 
Q 384 1609 779 1909 
Q 1175 2209 1959 2209 
L 2766 2209 
L 2766 2266 
Q 2766 2663 2505 2880 
Q 2244 3097 1772 3097 
Q 1472 3097 1187 3025 
Q 903 2953 641 2809 
L 641 3341 
Q 956 3463 1253 3523 
Q 1550 3584 1831 3584 
Q 2591 3584 2966 3190 
Q 3341 2797 3341 1997 
z
" transform="scale(0.015625)"/>
       <path id="DejaVuSans-57" d="M 1172 4494 
L 1172 3500 
L 2356 3500 
L 2356 3053 
L 1172 3053 
L 1172 1153 
Q 1172 725 1289 603 
Q 1406 481 1766 481 
L 2356 481 
L 2356 0 
L 1766 0 
Q 1100 0 847 248 
Q 594 497 594 1153 
L 594 3053 
L 172 3053 
L 172 3500 
L 594 3500 
L 594 4494 
L 1172 4494 
z
" transform="scale(0.015625)"/>
       <path id="DejaVuSans-46" d="M 3122 3366 
L 3122 2828 
Q 2878 2963 2633 3030 
Q 2388 3097 2138 3097 
Q 1578 3097 1268 2742 
Q 959 2388 959 1747 
Q 959 1106 1268 751 
Q 1578 397 2138 397 
Q 2388 397 2633 464 
Q 2878 531 3122 666 
L 3122 134 
Q 2881 22 2623 -34 
Q 2366 -91 2075 -91 
Q 1284 -91 818 406 
Q 353 903 353 1747 
Q 353 2603 823 3093 
Q 1294 3584 2113 3584 
Q 2378 3584 2631 3529 
Q 2884 3475 3122 3366 
z
" transform="scale(0.015625)"/>
       <path id="DejaVuSans-4b" d="M 3513 2113 
L 3513 0 
L 2938 0 
L 2938 2094 
Q 2938 2591 2744 2837 
Q 2550 3084 2163 3084 
Q 1697 3084 1428 2787 
Q 1159 2491 1159 1978 
L 1159 0 
L 581 0 
L 581 4863 
L 1159 4863 
L 1159 2956 
Q 1366 3272 1645 3428 
Q 1925 3584 2291 3584 
Q 2894 3584 3203 3211 
Q 3513 2838 3513 2113 
z
" transform="scale(0.015625)"/>
       <path id="DejaVuSans-c" d="M 513 4856 
L 1013 4856 
Q 1481 4119 1714 3412 
Q 1947 2706 1947 2009 
Q 1947 1309 1714 600 
Q 1481 -109 1013 -844 
L 513 -844 
Q 928 -128 1133 580 
Q 1338 1288 1338 2009 
Q 1338 2731 1133 3434 
Q 928 4138 513 4856 
z
" transform="scale(0.015625)"/>
      </defs>
      <use xlink:href="#DejaVuSans-2f"/>
      <use xlink:href="#DejaVuSans-52" transform="translate(53.96875 0)"/>
      <use xlink:href="#DejaVuSans-4a" transform="translate(115.15625 0)"/>
      <use xlink:href="#DejaVuSans-3" transform="translate(178.640625 0)"/>
      <use xlink:href="#DejaVuSans-4c" transform="translate(210.421875 0)"/>
      <use xlink:href="#DejaVuSans-51" transform="translate(238.203125 0)"/>
      <use xlink:href="#DejaVuSans-47" transform="translate(301.578125 0)"/>
      <use xlink:href="#DejaVuSans-48" transform="translate(365.0625 0)"/>
      <use xlink:href="#DejaVuSans-5b" transform="translate(424.84375 0)"/>
      <use xlink:href="#DejaVuSans-3" transform="translate(484.03125 0)"/>
      <use xlink:href="#DejaVuSans-b" transform="translate(515.8125 0)"/>
      <use xlink:href="#DejaVuSans-61" transform="translate(554.828125 0)"/>
      <use xlink:href="#DejaVuSans-45" transform="translate(638.625 0)"/>
      <use xlink:href="#DejaVuSans-44" transform="translate(702.109375 0)"/>
      <use xlink:href="#DejaVuSans-57" transform="translate(763.390625 0)"/>
      <use xlink:href="#DejaVuSans-46" transform="translate(802.59375 0)"/>
      <use xlink:href="#DejaVuSans-4b" transform="translate(857.578125 0)"/>
      <use xlink:href="#DejaVuSans-3" transform="translate(920.953125 0)"/>
      <use xlink:href="#DejaVuSans-4c" transform="translate(952.734375 0)"/>
      <use xlink:href="#DejaVuSans-51" transform="translate(980.515625 0)"/>
      <use xlink:href="#DejaVuSans-47" transform="translate(1043.890625 0)"/>
      <use xlink:href="#DejaVuSans-48" transform="translate(1107.375 0)"/>
      <use xlink:href="#DejaVuSans-5b" transform="translate(1167.15625 0)"/>
      <use xlink:href="#DejaVuSans-c" transform="translate(1226.34375 0)"/>
     </g>
    </g>
   </g>
   <g id="matplotlib.axis_2">
    <g id="ytick_1">
     <g id="line2d_6">
      <defs>
       <path id="md366e09c36" d="M 0 0 
L -3.5 0 
" style="stroke: #000000; stroke-width: 0.8"/>
      </defs>
      <g>
       <use xlink:href="#md366e09c36" x="57.6" y="304.993818" style="stroke: #000000; stroke-width: 0.8"/>
      </g>
     </g>
     <g id="text_7">
      <!-- 3.4 -->
      <g transform="translate(34.696875 308.792646) scale(0.1 -0.1)">
       <defs>
        <path id="DejaVuSans-16" d="M 2597 2516 
Q 3050 2419 3304 2112 
Q 3559 1806 3559 1356 
Q 3559 666 3084 287 
Q 2609 -91 1734 -91 
Q 1441 -91 1130 -33 
Q 819 25 488 141 
L 488 750 
Q 750 597 1062 519 
Q 1375 441 1716 441 
Q 2309 441 2620 675 
Q 2931 909 2931 1356 
Q 2931 1769 2642 2001 
Q 2353 2234 1838 2234 
L 1294 2234 
L 1294 2753 
L 1863 2753 
Q 2328 2753 2575 2939 
Q 2822 3125 2822 3475 
Q 2822 3834 2567 4026 
Q 2313 4219 1838 4219 
Q 1578 4219 1281 4162 
Q 984 4106 628 3988 
L 628 4550 
Q 988 4650 1302 4700 
Q 1616 4750 1894 4750 
Q 2613 4750 3031 4423 
Q 3450 4097 3450 3541 
Q 3450 3153 3228 2886 
Q 3006 2619 2597 2516 
z
" transform="scale(0.015625)"/>
        <path id="DejaVuSans-11" d="M 684 794 
L 1344 794 
L 1344 0 
L 684 0 
L 684 794 
z
" transform="scale(0.015625)"/>
        <path id="DejaVuSans-17" d="M 2419 4116 
L 825 1625 
L 2419 1625 
L 2419 4116 
z
M 2253 4666 
L 3047 4666 
L 3047 1625 
L 3713 1625 
L 3713 1100 
L 3047 1100 
L 3047 0 
L 2419 0 
L 2419 1100 
L 313 1100 
L 313 1709 
L 2253 4666 
z
" transform="scale(0.015625)"/>
       </defs>
       <use xlink:href="#DejaVuSans-16"/>
       <use xlink:href="#DejaVuSans-11" transform="translate(63.625 0)"/>
       <use xlink:href="#DejaVuSans-17" transform="translate(95.40625 0)"/>
      </g>
     </g>
    </g>
    <g id="ytick_2">
     <g id="line2d_7">
      <g>
       <use xlink:href="#md366e09c36" x="57.6" y="253.7369" style="stroke: #000000; stroke-width: 0.8"/>
      </g>
     </g>
     <g id="text_8">
      <!-- 3.6 -->
      <g transform="translate(34.696875 257.535728) scale(0.1 -0.1)">
       <defs>
        <path id="DejaVuSans-19" d="M 2113 2584 
Q 1688 2584 1439 2293 
Q 1191 2003 1191 1497 
Q 1191 994 1439 701 
Q 1688 409 2113 409 
Q 2538 409 2786 701 
Q 3034 994 3034 1497 
Q 3034 2003 2786 2293 
Q 2538 2584 2113 2584 
z
M 3366 4563 
L 3366 3988 
Q 3128 4100 2886 4159 
Q 2644 4219 2406 4219 
Q 1781 4219 1451 3797 
Q 1122 3375 1075 2522 
Q 1259 2794 1537 2939 
Q 1816 3084 2150 3084 
Q 2853 3084 3261 2657 
Q 3669 2231 3669 1497 
Q 3669 778 3244 343 
Q 2819 -91 2113 -91 
Q 1303 -91 875 529 
Q 447 1150 447 2328 
Q 447 3434 972 4092 
Q 1497 4750 2381 4750 
Q 2619 4750 2861 4703 
Q 3103 4656 3366 4563 
z
" transform="scale(0.015625)"/>
       </defs>
       <use xlink:href="#DejaVuSans-16"/>
       <use xlink:href="#DejaVuSans-11" transform="translate(63.625 0)"/>
       <use xlink:href="#DejaVuSans-19" transform="translate(95.40625 0)"/>
      </g>
     </g>
    </g>
    <g id="ytick_3">
     <g id="line2d_8">
      <g>
       <use xlink:href="#md366e09c36" x="57.6" y="202.479981" style="stroke: #000000; stroke-width: 0.8"/>
      </g>
     </g>
     <g id="text_9">
      <!-- 3.8 -->
      <g transform="translate(34.696875 206.278809) scale(0.1 -0.1)">
       <defs>
        <path id="DejaVuSans-1b" d="M 2034 2216 
Q 1584 2216 1326 1975 
Q 1069 1734 1069 1313 
Q 1069 891 1326 650 
Q 1584 409 2034 409 
Q 2484 409 2743 651 
Q 3003 894 3003 1313 
Q 3003 1734 2745 1975 
Q 2488 2216 2034 2216 
z
M 1403 2484 
Q 997 2584 770 2862 
Q 544 3141 544 3541 
Q 544 4100 942 4425 
Q 1341 4750 2034 4750 
Q 2731 4750 3128 4425 
Q 3525 4100 3525 3541 
Q 3525 3141 3298 2862 
Q 3072 2584 2669 2484 
Q 3125 2378 3379 2068 
Q 3634 1759 3634 1313 
Q 3634 634 3220 271 
Q 2806 -91 2034 -91 
Q 1263 -91 848 271 
Q 434 634 434 1313 
Q 434 1759 690 2068 
Q 947 2378 1403 2484 
z
M 1172 3481 
Q 1172 3119 1398 2916 
Q 1625 2713 2034 2713 
Q 2441 2713 2670 2916 
Q 2900 3119 2900 3481 
Q 2900 3844 2670 4047 
Q 2441 4250 2034 4250 
Q 1625 4250 1398 4047 
Q 1172 3844 1172 3481 
z
" transform="scale(0.015625)"/>
       </defs>
       <use xlink:href="#DejaVuSans-16"/>
       <use xlink:href="#DejaVuSans-11" transform="translate(63.625 0)"/>
       <use xlink:href="#DejaVuSans-1b" transform="translate(95.40625 0)"/>
      </g>
     </g>
    </g>
    <g id="ytick_4">
     <g id="line2d_9">
      <g>
       <use xlink:href="#md366e09c36" x="57.6" y="151.223062" style="stroke: #000000; stroke-width: 0.8"/>
      </g>
     </g>
     <g id="text_10">
      <!-- 4.0 -->
      <g transform="translate(34.696875 155.02189) scale(0.1 -0.1)">
       <use xlink:href="#DejaVuSans-17"/>
       <use xlink:href="#DejaVuSans-11" transform="translate(63.625 0)"/>
       <use xlink:href="#DejaVuSans-13" transform="translate(95.40625 0)"/>
      </g>
     </g>
    </g>
    <g id="ytick_5">
     <g id="line2d_10">
      <g>
       <use xlink:href="#md366e09c36" x="57.6" y="99.966144" style="stroke: #000000; stroke-width: 0.8"/>
      </g>
     </g>
     <g id="text_11">
      <!-- 4.2 -->
      <g transform="translate(34.696875 103.764972) scale(0.1 -0.1)">
       <use xlink:href="#DejaVuSans-17"/>
       <use xlink:href="#DejaVuSans-11" transform="translate(63.625 0)"/>
       <use xlink:href="#DejaVuSans-15" transform="translate(95.40625 0)"/>
      </g>
     </g>
    </g>
    <g id="ytick_6">
     <g id="line2d_11">
      <g>
       <use xlink:href="#md366e09c36" x="57.6" y="48.709225" style="stroke: #000000; stroke-width: 0.8"/>
      </g>
     </g>
     <g id="text_12">
      <!-- 4.4 -->
      <g transform="translate(34.696875 52.508053) scale(0.1 -0.1)">
       <use xlink:href="#DejaVuSans-17"/>
       <use xlink:href="#DejaVuSans-11" transform="translate(63.625 0)"/>
       <use xlink:href="#DejaVuSans-17" transform="translate(95.40625 0)"/>
      </g>
     </g>
    </g>
    <g id="text_13">
     <!-- Loss value -->
     <g transform="translate(28.294531 200.742063) rotate(-90) scale(0.1 -0.1)">
      <defs>
       <path id="DejaVuSans-56" d="M 2834 3397 
L 2834 2853 
Q 2591 2978 2328 3040 
Q 2066 3103 1784 3103 
Q 1356 3103 1142 2972 
Q 928 2841 928 2578 
Q 928 2378 1081 2264 
Q 1234 2150 1697 2047 
L 1894 2003 
Q 2506 1872 2764 1633 
Q 3022 1394 3022 966 
Q 3022 478 2636 193 
Q 2250 -91 1575 -91 
Q 1294 -91 989 -36 
Q 684 19 347 128 
L 347 722 
Q 666 556 975 473 
Q 1284 391 1588 391 
Q 1994 391 2212 530 
Q 2431 669 2431 922 
Q 2431 1156 2273 1281 
Q 2116 1406 1581 1522 
L 1381 1569 
Q 847 1681 609 1914 
Q 372 2147 372 2553 
Q 372 3047 722 3315 
Q 1072 3584 1716 3584 
Q 2034 3584 2315 3537 
Q 2597 3491 2834 3397 
z
" transform="scale(0.015625)"/>
       <path id="DejaVuSans-59" d="M 191 3500 
L 800 3500 
L 1894 563 
L 2988 3500 
L 3597 3500 
L 2284 0 
L 1503 0 
L 191 3500 
z
" transform="scale(0.015625)"/>
       <path id="DejaVuSans-4f" d="M 603 4863 
L 1178 4863 
L 1178 0 
L 603 0 
L 603 4863 
z
" transform="scale(0.015625)"/>
       <path id="DejaVuSans-58" d="M 544 1381 
L 544 3500 
L 1119 3500 
L 1119 1403 
Q 1119 906 1312 657 
Q 1506 409 1894 409 
Q 2359 409 2629 706 
Q 2900 1003 2900 1516 
L 2900 3500 
L 3475 3500 
L 3475 0 
L 2900 0 
L 2900 538 
Q 2691 219 2414 64 
Q 2138 -91 1772 -91 
Q 1169 -91 856 284 
Q 544 659 544 1381 
z
M 1991 3584 
L 1991 3584 
z
" transform="scale(0.015625)"/>
      </defs>
      <use xlink:href="#DejaVuSans-2f"/>
      <use xlink:href="#DejaVuSans-52" transform="translate(53.96875 0)"/>
      <use xlink:href="#DejaVuSans-56" transform="translate(115.15625 0)"/>
      <use xlink:href="#DejaVuSans-56" transform="translate(167.25 0)"/>
      <use xlink:href="#DejaVuSans-3" transform="translate(219.34375 0)"/>
      <use xlink:href="#DejaVuSans-59" transform="translate(251.125 0)"/>
      <use xlink:href="#DejaVuSans-44" transform="translate(310.3125 0)"/>
      <use xlink:href="#DejaVuSans-4f" transform="translate(371.59375 0)"/>
      <use xlink:href="#DejaVuSans-58" transform="translate(399.375 0)"/>
      <use xlink:href="#DejaVuSans-48" transform="translate(462.75 0)"/>
     </g>
    </g>
   </g>
   <g id="line2d_12">
    <path d="M 73.98023 53.880187 
L 74.275237 58.273562 
L 74.717746 62.262426 
L 74.86525 62.055464 
L 75.012753 63.294412 
L 75.160256 62.465062 
L 75.455262 67.230371 
L 75.750269 69.433497 
L 75.897772 70.667241 
L 76.045275 70.811082 
L 76.192778 71.826324 
L 76.340282 73.801468 
L 76.487785 73.624357 
L 76.782791 76.385831 
L 76.930294 77.202403 
L 77.077798 77.299259 
L 77.225301 78.483409 
L 77.372804 78.679388 
L 77.66781 81.173697 
L 77.815314 80.15828 
L 78.11032 84.097646 
L 78.55283 86.049905 
L 78.700333 87.874927 
L 78.847836 87.881049 
L 79.142843 88.827023 
L 79.290346 90.699594 
L 79.437849 91.139528 
L 79.585352 90.84649 
L 79.732855 87.462503 
L 80.027862 92.915629 
L 80.322868 96.381243 
L 80.470371 95.288187 
L 80.765378 97.923559 
L 81.060384 98.7733 
L 81.207887 98.805349 
L 81.355391 98.216703 
L 81.650397 100.994014 
L 82.092907 103.517382 
L 82.24041 104.935263 
L 82.535416 105.582515 
L 82.977926 108.213216 
L 83.272932 109.229021 
L 83.420435 108.977273 
L 83.567939 107.436068 
L 83.715442 111.810273 
L 83.862945 111.869204 
L 84.010448 113.394078 
L 84.157951 113.717475 
L 84.305455 113.348392 
L 84.452958 115.110097 
L 84.600461 114.282833 
L 84.747964 115.789947 
L 84.895467 115.345876 
L 85.042971 113.07714 
L 85.337977 118.560536 
L 85.48548 118.232038 
L 85.92799 121.148274 
L 86.075493 120.720467 
L 86.222996 122.66471 
L 86.370499 122.253342 
L 86.518003 123.040784 
L 86.665506 124.478447 
L 86.813009 124.731468 
L 86.960512 123.826091 
L 87.108015 124.42123 
L 87.255519 126.826792 
L 87.403022 126.034591 
L 87.550525 125.960672 
L 87.698028 127.935934 
L 88.140538 125.500555 
L 88.288041 128.38619 
L 88.435544 128.591072 
L 88.730551 131.643343 
L 89.025557 132.288886 
L 89.320563 134.376441 
L 89.468067 132.025729 
L 89.61557 134.394959 
L 89.763073 134.0898 
L 89.910576 135.652914 
L 90.058079 134.117314 
L 90.205583 137.30051 
L 90.353086 137.72594 
L 90.795595 140.108724 
L 90.943099 135.769892 
L 91.090602 140.688404 
L 91.238105 141.273629 
L 91.533111 140.214488 
L 91.828118 143.034077 
L 91.975621 140.335405 
L 92.270627 144.472482 
L 92.418131 145.173911 
L 92.565634 145.112404 
L 92.713137 146.179944 
L 92.86064 145.902696 
L 93.008143 144.91982 
L 93.30315 147.939557 
L 93.450653 147.859136 
L 93.598156 148.902793 
L 94.040666 144.550654 
L 94.188169 149.192208 
L 94.335672 149.496988 
L 94.483175 148.207916 
L 94.630679 151.188479 
L 94.778182 151.315005 
L 94.925685 151.021321 
L 95.073188 149.668848 
L 95.220691 153.097402 
L 95.515698 153.998507 
L 95.663201 152.989549 
L 95.810704 153.098101 
L 95.958207 152.960065 
L 96.105711 154.728731 
L 96.253214 153.593668 
L 96.54822 157.337592 
L 96.695723 155.688155 
L 96.99073 156.608057 
L 97.138233 159.300903 
L 97.285736 158.178676 
L 97.433239 158.599905 
L 97.580743 159.975639 
L 97.728246 158.905799 
L 97.875749 159.499466 
L 98.023252 160.893884 
L 98.170755 160.418353 
L 98.318259 162.404712 
L 98.465762 162.789948 
L 98.613265 161.845699 
L 98.908271 162.838823 
L 99.055775 164.792234 
L 99.203278 162.950126 
L 99.350781 164.04816 
L 99.498284 161.712284 
L 99.793291 164.610392 
L 99.940794 163.291549 
L 100.088297 165.551977 
L 100.2358 163.502018 
L 100.383303 165.936519 
L 100.530807 165.610439 
L 100.67831 168.282027 
L 100.825813 167.485503 
L 100.973316 165.087841 
L 101.120819 168.403814 
L 101.268323 166.783808 
L 101.415826 167.471849 
L 101.563329 170.354969 
L 101.710832 169.549595 
L 101.858335 170.699672 
L 102.300845 168.683463 
L 102.448348 167.992291 
L 102.595851 170.072324 
L 102.743355 169.017456 
L 102.890858 171.392966 
L 103.038361 169.190872 
L 103.333367 174.508273 
L 103.480871 174.769231 
L 103.775877 173.607978 
L 103.92338 174.812936 
L 104.218387 174.232746 
L 104.36589 175.52052 
L 104.513393 175.664424 
L 104.660896 174.900812 
L 104.808399 177.979181 
L 104.955903 178.278929 
L 105.103406 176.25335 
L 105.250909 178.208086 
L 105.398412 176.551953 
L 105.545915 178.532307 
L 105.693419 178.789323 
L 105.840922 179.896513 
L 106.135928 178.549922 
L 106.430935 180.840481 
L 106.578438 180.017623 
L 106.873444 181.078532 
L 107.020948 181.173772 
L 107.168451 182.800873 
L 107.315954 182.764453 
L 107.463457 181.384608 
L 107.758464 184.710765 
L 108.05347 183.603978 
L 108.200973 185.037962 
L 108.49598 180.961068 
L 108.643483 184.94024 
L 108.790986 185.528216 
L 108.938489 186.774446 
L 109.085992 185.927621 
L 109.233496 182.304411 
L 109.380999 187.128286 
L 109.676005 183.668635 
L 110.118515 189.494056 
L 110.266018 188.33831 
L 110.413521 189.672094 
L 110.561024 186.171393 
L 110.856031 188.774243 
L 111.003534 186.12278 
L 111.29854 190.924846 
L 111.446044 190.924581 
L 111.74105 191.410428 
L 111.888553 190.18004 
L 112.036056 187.949074 
L 112.18356 191.223636 
L 112.478566 192.132076 
L 112.626069 193.497885 
L 112.921076 189.884143 
L 113.216082 193.417882 
L 113.363585 193.796801 
L 113.511088 192.18012 
L 113.806095 194.284659 
L 113.953598 194.006688 
L 114.248604 195.323374 
L 114.396108 194.120622 
L 114.543611 194.623865 
L 114.691114 194.34189 
L 114.838617 194.743976 
L 115.133624 197.794147 
L 115.281127 195.680604 
L 115.42863 199.208904 
L 115.723636 197.880492 
L 115.87114 193.118791 
L 116.018643 197.380034 
L 116.166146 195.347808 
L 116.313649 198.16573 
L 116.461152 196.515857 
L 116.756159 199.815992 
L 116.903662 200.489023 
L 117.051165 200.279755 
L 117.198668 200.858419 
L 117.346172 200.089432 
L 117.493675 200.420777 
L 117.641178 201.749187 
L 117.788681 200.779951 
L 117.936184 202.155591 
L 118.083688 201.098534 
L 118.231191 198.664511 
L 118.378694 200.218821 
L 118.526197 195.931509 
L 118.821204 203.632144 
L 118.968707 202.76973 
L 119.11621 203.579088 
L 119.411216 200.2075 
L 119.55872 204.033932 
L 119.706223 204.741896 
L 119.853726 203.133951 
L 120.001229 205.802016 
L 120.148732 201.988603 
L 120.296236 204.964611 
L 120.443739 203.188539 
L 120.591242 205.650526 
L 120.886248 206.245282 
L 121.181255 204.875897 
L 121.328758 208.065604 
L 121.623764 205.060541 
L 121.771268 203.454612 
L 122.066274 207.849961 
L 122.36128 208.477582 
L 122.508784 208.315541 
L 122.656287 209.43654 
L 122.80379 208.180652 
L 122.951293 209.659269 
L 123.098796 209.404153 
L 123.2463 209.67712 
L 123.393803 209.50875 
L 123.688809 209.684482 
L 123.836312 209.789581 
L 123.983816 210.791603 
L 124.131319 206.304556 
L 124.278822 210.818824 
L 124.426325 211.111717 
L 124.573828 210.964068 
L 124.721332 209.778551 
L 125.163841 213.555722 
L 125.311344 213.444427 
L 125.458848 210.692554 
L 125.606351 213.184133 
L 125.753854 213.635544 
L 126.04886 214.880385 
L 126.196364 213.056942 
L 126.49137 215.464615 
L 126.638873 213.459951 
L 126.786376 214.845348 
L 126.93388 213.822106 
L 127.081383 213.931418 
L 127.228886 215.736732 
L 127.376389 215.619103 
L 127.523892 213.340198 
L 127.671396 213.908957 
L 127.818899 215.736794 
L 127.966402 213.758343 
L 128.113905 215.756403 
L 128.261408 214.485277 
L 128.408912 215.140755 
L 128.556415 218.169557 
L 128.703918 214.550816 
L 128.851421 215.801141 
L 128.998924 218.608393 
L 129.293931 215.51457 
L 129.441434 214.399781 
L 129.588937 216.163818 
L 129.73644 214.730948 
L 129.883944 218.172225 
L 130.031447 216.390032 
L 130.17895 219.007701 
L 130.326453 217.459595 
L 130.473956 219.267963 
L 130.62146 217.384924 
L 130.768963 217.066576 
L 130.916466 220.808556 
L 131.063969 218.899386 
L 131.211472 211.958831 
L 131.358976 219.677978 
L 131.506479 215.359734 
L 131.653982 219.146042 
L 131.801485 220.030641 
L 131.948988 222.133007 
L 132.096492 221.228416 
L 132.243995 218.104217 
L 132.391498 220.184758 
L 132.539001 220.081918 
L 132.686504 218.532048 
L 132.834008 215.670054 
L 133.129014 222.128927 
L 133.276517 221.686297 
L 133.42402 222.759748 
L 133.571524 219.058374 
L 133.719027 223.938645 
L 134.014033 222.51924 
L 134.161536 223.225463 
L 134.30904 218.995857 
L 134.456543 222.413038 
L 134.604046 221.968368 
L 134.751549 223.765939 
L 134.899052 223.692953 
L 135.046556 225.328346 
L 135.194059 223.929944 
L 135.341562 224.427951 
L 135.636569 220.196185 
L 135.784072 226.260253 
L 136.079078 220.727983 
L 136.374085 227.362609 
L 136.669091 225.012018 
L 136.964097 227.353473 
L 137.111601 227.0363 
L 137.259104 220.987067 
L 137.406607 225.269554 
L 137.55411 224.649284 
L 137.701613 228.396444 
L 137.849117 227.252139 
L 137.99662 228.059614 
L 138.144123 226.334653 
L 138.291626 229.507504 
L 138.439129 228.511849 
L 138.586633 228.776128 
L 138.734136 228.438301 
L 138.881639 228.54872 
L 139.324149 225.502812 
L 139.471652 228.340423 
L 139.619155 226.765757 
L 139.766658 227.781474 
L 139.914161 229.856261 
L 140.061665 230.051721 
L 140.209168 227.365495 
L 140.356671 227.627382 
L 140.504174 228.822992 
L 140.651677 228.714377 
L 140.799181 230.292675 
L 140.946684 227.685933 
L 141.24169 231.476836 
L 141.389193 229.813286 
L 141.536697 231.417876 
L 141.831703 231.250707 
L 141.979206 231.856743 
L 142.126709 225.658163 
L 142.421716 232.946206 
L 142.716722 228.234055 
L 142.864225 231.450898 
L 143.159232 230.741474 
L 143.306735 232.199088 
L 143.454238 230.642417 
L 143.601741 233.356393 
L 143.749245 231.804141 
L 143.896748 232.361356 
L 144.044251 232.175319 
L 144.191754 233.11146 
L 144.339257 232.96896 
L 144.486761 232.492129 
L 144.634264 232.936853 
L 144.781767 231.031149 
L 145.076773 235.263331 
L 145.224277 232.079573 
L 145.37178 233.672679 
L 145.519283 233.613753 
L 145.666786 233.935802 
L 145.814289 235.503098 
L 145.961793 230.150283 
L 146.109296 235.113517 
L 146.256799 234.953294 
L 146.404302 235.112527 
L 146.551805 232.923774 
L 146.846812 236.637278 
L 146.994315 236.275741 
L 147.141818 236.474735 
L 147.289321 233.48803 
L 147.436825 237.285258 
L 147.731831 236.153213 
L 147.879334 231.701128 
L 148.026837 236.521258 
L 148.174341 231.933783 
L 148.321844 236.807181 
L 148.469347 233.962988 
L 148.61685 237.717702 
L 148.764353 237.33645 
L 148.911857 236.601327 
L 149.05936 237.258018 
L 149.206863 238.635741 
L 149.354366 238.074138 
L 149.501869 234.858412 
L 149.649373 237.620704 
L 149.796876 237.770926 
L 149.944379 236.775797 
L 150.091882 239.379873 
L 150.239385 236.538274 
L 150.534392 239.459339 
L 150.681895 239.883172 
L 150.829398 238.694548 
L 150.976901 240.160391 
L 151.124405 238.854511 
L 151.271908 239.30602 
L 151.419411 233.982898 
L 151.566914 238.882714 
L 151.714417 238.700114 
L 151.861921 239.776719 
L 152.009424 236.698962 
L 152.30443 241.657416 
L 152.451933 239.096705 
L 152.599437 239.499339 
L 152.74694 242.394945 
L 153.041946 239.907702 
L 153.189449 242.241257 
L 153.336953 240.728213 
L 153.631959 240.918014 
L 153.779462 241.794796 
L 153.926965 241.042956 
L 154.074469 241.740966 
L 154.221972 239.593083 
L 154.369475 242.036187 
L 154.516978 242.063122 
L 154.664481 242.404104 
L 154.811985 239.950379 
L 154.959488 241.283121 
L 155.106991 238.563425 
L 155.254494 238.496167 
L 155.401997 239.476516 
L 155.549501 242.235507 
L 155.697004 240.68502 
L 156.139513 244.920732 
L 156.43452 241.150481 
L 156.582023 240.08222 
L 156.729526 243.992382 
L 156.877029 241.88056 
L 157.024533 242.779095 
L 157.172036 239.691829 
L 157.614545 243.135221 
L 157.762049 242.648134 
L 158.057055 244.099443 
L 158.204558 241.416529 
L 158.352061 242.251688 
L 158.499565 241.744116 
L 158.647068 241.929906 
L 158.942074 245.277378 
L 159.089577 244.877845 
L 159.237081 244.888404 
L 159.384584 239.069571 
L 159.67959 247.01284 
L 159.827093 244.122366 
L 159.974597 246.088915 
L 160.1221 246.194968 
L 160.269603 245.642112 
L 160.417106 246.503494 
L 160.564609 243.85163 
L 160.712113 247.369384 
L 160.859616 247.824965 
L 161.154622 242.618643 
L 161.449629 246.28459 
L 161.744635 246.392022 
L 161.892138 248.104857 
L 162.039641 247.838553 
L 162.334648 245.662156 
L 162.629654 248.110739 
L 162.777157 248.050318 
L 163.072164 245.030671 
L 163.219667 246.93657 
L 163.36717 245.518667 
L 163.514673 243.006628 
L 163.662177 248.536758 
L 163.80968 247.559334 
L 163.957183 248.231574 
L 164.104686 246.341961 
L 164.25219 246.263246 
L 164.399693 249.979038 
L 164.694699 245.493615 
L 164.989706 250.195289 
L 165.137209 250.04712 
L 165.284712 251.264705 
L 165.579718 248.400785 
L 165.727222 249.154792 
L 165.874725 246.855463 
L 166.022228 249.660428 
L 166.169731 247.52661 
L 166.317234 250.791068 
L 166.464738 250.54443 
L 166.612241 246.584349 
L 166.759744 250.730527 
L 166.907247 249.442811 
L 167.05475 251.512747 
L 167.202254 251.033621 
L 167.349757 251.673893 
L 167.49726 248.597749 
L 167.644763 250.819951 
L 167.792266 244.507003 
L 168.087273 251.562222 
L 168.382279 248.449718 
L 168.529782 249.10372 
L 168.677286 252.578094 
L 168.824789 250.098492 
L 168.972292 253.137419 
L 169.267298 252.040516 
L 169.414802 251.532237 
L 169.562305 248.287989 
L 169.709808 252.170378 
L 169.857311 251.028268 
L 170.004814 252.952865 
L 170.152318 249.877547 
L 170.299821 250.886886 
L 170.447324 248.75585 
L 170.74233 252.949568 
L 170.889834 250.56778 
L 171.037337 252.161513 
L 171.18484 249.771674 
L 171.332343 249.560292 
L 171.479846 252.374932 
L 171.62735 252.404152 
L 171.774853 252.570481 
L 171.922356 252.562935 
L 172.069859 252.159763 
L 172.217362 250.274922 
L 172.364866 250.592432 
L 172.659872 253.178837 
L 172.954878 250.376439 
L 173.102382 255.441341 
L 173.249885 251.786034 
L 173.397388 252.592915 
L 173.544891 246.863328 
L 173.839898 253.923594 
L 173.987401 253.909376 
L 174.134904 251.639256 
L 174.282407 255.977862 
L 174.42991 253.928023 
L 174.577414 255.056699 
L 174.724917 254.935096 
L 174.87242 254.993578 
L 175.019923 253.334292 
L 175.31493 255.963974 
L 175.462433 255.16095 
L 175.609936 255.416845 
L 175.757439 255.146202 
L 175.904942 255.189539 
L 176.347452 249.688793 
L 176.494955 254.273516 
L 176.642458 253.893262 
L 176.789962 255.772764 
L 177.084968 254.20671 
L 177.527478 256.638128 
L 177.674981 254.269601 
L 177.822484 257.872631 
L 177.969987 255.110689 
L 178.11749 255.912958 
L 178.264994 257.526249 
L 178.412497 255.780468 
L 178.56 255.448499 
L 178.707503 256.64522 
L 179.150013 255.851113 
L 179.297516 258.103589 
L 179.445019 258.235606 
L 179.592522 254.365574 
L 179.740026 256.4063 
L 179.887529 255.967404 
L 180.182535 256.165773 
L 180.330038 257.636777 
L 180.625045 257.926436 
L 180.772548 258.740014 
L 180.920051 254.934969 
L 181.067554 257.710394 
L 181.215058 255.306191 
L 181.362561 256.273844 
L 181.510064 258.706975 
L 181.657567 258.396858 
L 181.80507 258.492052 
L 181.952574 254.064029 
L 182.100077 257.466088 
L 182.24758 256.355795 
L 182.395083 259.933253 
L 182.542586 257.22483 
L 182.69009 259.875761 
L 182.837593 257.573618 
L 182.985096 257.194356 
L 183.132599 258.216179 
L 183.280102 258.425821 
L 183.427606 259.787198 
L 183.575109 259.200663 
L 183.722612 259.408537 
L 183.870115 256.901109 
L 184.017618 259.865525 
L 184.165122 259.838384 
L 184.312625 257.925639 
L 184.460128 258.68196 
L 184.755134 254.795887 
L 184.902638 259.717822 
L 185.050141 259.988281 
L 185.197644 261.530063 
L 185.345147 261.597054 
L 185.49265 257.04551 
L 185.640154 257.561101 
L 185.787657 260.912079 
L 185.93516 260.375667 
L 186.082663 260.516477 
L 186.230166 258.010921 
L 186.37767 259.952034 
L 186.672676 260.49321 
L 186.967682 259.305896 
L 187.115186 258.452054 
L 187.262689 256.915281 
L 187.410192 257.778988 
L 187.557695 255.819277 
L 188.000205 262.630135 
L 188.295211 259.556639 
L 188.442714 262.143606 
L 188.590218 260.177724 
L 188.737721 262.342446 
L 188.885224 255.093653 
L 189.18023 261.871698 
L 189.327734 260.096334 
L 189.475237 260.402312 
L 189.62274 261.159906 
L 189.770243 259.35266 
L 189.917746 263.468198 
L 190.06525 262.13629 
L 190.212753 263.813917 
L 190.360256 261.004875 
L 190.507759 260.848908 
L 190.655262 262.265395 
L 190.802766 258.578295 
L 190.950269 263.499815 
L 191.245275 260.629472 
L 191.392778 263.137194 
L 191.540282 262.180112 
L 191.687785 259.508254 
L 191.835288 264.2243 
L 191.982791 263.771694 
L 192.130294 264.724853 
L 192.277798 262.324967 
L 192.425301 263.814738 
L 192.572804 261.886735 
L 192.720307 262.76882 
L 192.86781 260.983606 
L 193.015314 264.333957 
L 193.162817 265.019104 
L 193.457823 259.690329 
L 193.75283 261.835145 
L 193.900333 261.169109 
L 194.047836 258.80768 
L 194.195339 265.195821 
L 194.342843 263.579359 
L 194.490346 263.829066 
L 194.637849 263.070813 
L 194.785352 263.049474 
L 194.932855 261.605417 
L 195.080359 262.857488 
L 195.227862 260.836166 
L 195.375365 265.838317 
L 195.522868 264.301789 
L 195.670371 264.906517 
L 195.817875 263.320996 
L 196.112881 262.890253 
L 196.260384 259.315709 
L 196.555391 264.784928 
L 196.702894 262.785583 
L 196.850397 265.764559 
L 196.9979 265.611062 
L 197.145403 265.770788 
L 197.292907 264.248832 
L 197.44041 264.565665 
L 197.587913 267.047523 
L 197.735416 266.130433 
L 197.882919 266.119611 
L 198.030423 265.72656 
L 198.325429 258.772991 
L 198.472932 262.740976 
L 198.620435 262.003537 
L 198.915442 266.995937 
L 199.062945 265.404829 
L 199.210448 265.461676 
L 199.357951 266.970298 
L 199.505455 260.514328 
L 199.652958 265.472778 
L 199.947964 264.00907 
L 200.095467 265.011022 
L 200.242971 264.435368 
L 200.390474 265.679222 
L 200.537977 265.695828 
L 200.68548 267.629748 
L 200.832983 264.492319 
L 200.980487 265.321795 
L 201.12799 264.104704 
L 201.275493 267.171924 
L 201.422996 266.904309 
L 201.570499 267.208232 
L 201.718003 265.795584 
L 202.160512 268.685652 
L 202.308015 265.119882 
L 202.455519 265.485039 
L 202.603022 260.805344 
L 202.898028 267.196316 
L 203.045531 265.845168 
L 203.340538 269.123596 
L 203.488041 265.719878 
L 203.635544 265.087453 
L 203.783047 267.199617 
L 203.930551 266.879179 
L 204.078054 264.020132 
L 204.37306 268.260086 
L 204.520563 265.52924 
L 204.668067 268.523561 
L 204.81557 266.382802 
L 204.963073 266.366157 
L 205.110576 259.9838 
L 205.258079 265.401953 
L 205.405583 266.285412 
L 205.553086 266.09935 
L 205.700589 267.079421 
L 205.848092 266.972293 
L 205.995595 266.537907 
L 206.143099 264.597996 
L 206.585608 269.065909 
L 206.733111 268.590352 
L 206.880615 269.769929 
L 207.175621 267.339372 
L 207.323124 268.051897 
L 207.470627 268.212533 
L 207.618131 266.96198 
L 207.765634 264.572498 
L 208.208143 268.949108 
L 208.355647 268.540797 
L 208.50315 265.61746 
L 208.650653 268.584163 
L 208.798156 269.149539 
L 208.945659 270.772928 
L 209.093163 270.884906 
L 209.388169 266.463034 
L 209.683175 269.681884 
L 209.830679 269.281517 
L 209.978182 269.537712 
L 210.125685 271.083876 
L 210.420691 267.671058 
L 210.568195 266.118948 
L 210.863201 270.523521 
L 211.010704 267.592492 
L 211.158207 271.534013 
L 211.453214 267.379659 
L 211.600717 270.757813 
L 211.895723 264.739729 
L 212.043227 270.09519 
L 212.19073 270.638619 
L 212.338233 272.096478 
L 212.485736 269.492338 
L 212.633239 270.802684 
L 212.780743 270.766671 
L 213.075749 269.234688 
L 213.223252 269.058534 
L 213.370755 270.003891 
L 213.518259 266.565243 
L 213.813265 270.092105 
L 213.960768 268.967125 
L 214.108271 271.681178 
L 214.255775 272.089257 
L 214.403278 271.343319 
L 214.698284 266.931011 
L 214.993291 271.736469 
L 215.140794 269.946565 
L 215.288297 272.16441 
L 215.4358 271.951701 
L 215.730807 269.111739 
L 215.87831 270.89115 
L 216.025813 269.950286 
L 216.173316 271.983648 
L 216.320819 271.917571 
L 216.615826 269.113355 
L 216.910832 270.787762 
L 217.058335 273.395936 
L 217.205839 271.929802 
L 217.353342 272.656942 
L 217.648348 272.054988 
L 217.795851 270.581915 
L 217.943355 266.869919 
L 218.090858 271.814052 
L 218.238361 271.264481 
L 218.385864 272.004316 
L 218.533367 272.083973 
L 218.680871 270.613281 
L 219.12338 273.750587 
L 219.270883 270.789958 
L 219.418387 273.579363 
L 219.56589 271.688732 
L 219.713393 272.00086 
L 219.860896 273.983407 
L 220.008399 272.244669 
L 220.155903 273.276489 
L 220.303406 268.052111 
L 220.450909 273.116945 
L 220.598412 272.392327 
L 220.745915 269.470464 
L 220.893419 272.924691 
L 221.188425 270.080183 
L 221.335928 271.881924 
L 221.630935 272.538331 
L 222.073444 274.762366 
L 222.220948 274.404261 
L 222.368451 273.151951 
L 222.515954 273.267563 
L 222.663457 272.794186 
L 222.81096 274.407019 
L 222.958464 273.512072 
L 223.105967 273.629468 
L 223.25347 272.373452 
L 223.400973 274.91613 
L 223.548476 274.873564 
L 223.843483 272.954133 
L 223.990986 273.970489 
L 224.138489 273.731548 
L 224.285992 274.967472 
L 224.433496 272.194441 
L 224.580999 272.569249 
L 224.876005 272.400766 
L 225.171012 272.870915 
L 225.318515 270.670721 
L 225.761024 274.347213 
L 225.908528 274.256124 
L 226.056031 273.557904 
L 226.203534 273.710475 
L 226.351037 274.688308 
L 226.49854 274.771891 
L 226.646044 270.801384 
L 226.793547 270.30506 
L 226.94105 271.862088 
L 227.088553 276.258694 
L 227.236056 275.790944 
L 227.38356 274.009883 
L 227.531063 275.706007 
L 227.678566 275.363699 
L 227.826069 272.465943 
L 227.973572 271.872001 
L 228.121076 275.750582 
L 228.268579 273.462486 
L 228.416082 273.205635 
L 228.563585 273.447947 
L 228.711088 276.354812 
L 228.858592 276.07187 
L 229.006095 274.286716 
L 229.153598 274.104387 
L 229.301101 272.875117 
L 229.448604 274.476711 
L 229.596108 274.296028 
L 229.743611 274.457061 
L 229.891114 272.832498 
L 230.038617 274.925933 
L 230.18612 275.066077 
L 230.333624 271.28753 
L 230.481127 274.262517 
L 230.62863 274.42756 
L 230.923636 272.928868 
L 231.07114 273.360333 
L 231.218643 275.573868 
L 231.366146 274.076232 
L 231.513649 276.275697 
L 231.808656 272.163742 
L 232.103662 275.029802 
L 232.251165 271.865003 
L 232.398668 275.443372 
L 232.546172 272.937779 
L 232.693675 272.527247 
L 232.841178 273.151019 
L 232.988681 269.405947 
L 233.136184 276.614756 
L 233.431191 274.789368 
L 233.578694 274.005726 
L 233.726197 275.847519 
L 233.8737 274.307039 
L 234.021204 269.662837 
L 234.168707 273.020123 
L 234.31621 271.375242 
L 234.611216 274.335964 
L 234.75872 273.860893 
L 234.906223 274.194846 
L 235.053726 276.900925 
L 235.201229 274.564189 
L 235.348732 278.349049 
L 235.496236 276.133306 
L 235.643739 276.294793 
L 235.791242 276.923332 
L 236.086248 274.83701 
L 236.381255 276.932116 
L 236.528758 273.876691 
L 236.676261 267.995515 
L 236.823764 277.868033 
L 237.118771 276.068984 
L 237.266274 275.934644 
L 237.413777 277.268961 
L 237.56128 274.456268 
L 237.708784 274.320648 
L 237.856287 277.281282 
L 238.00379 274.882763 
L 238.151293 275.351202 
L 238.298796 277.703667 
L 238.4463 276.587206 
L 238.593803 278.276074 
L 238.741306 274.111286 
L 238.888809 274.889184 
L 239.036312 277.565021 
L 239.183816 275.388395 
L 239.331319 275.661611 
L 239.478822 277.619735 
L 239.626325 276.82467 
L 239.773828 277.681819 
L 239.921332 275.440583 
L 240.068835 278.012806 
L 240.216338 275.307495 
L 240.363841 279.235736 
L 240.511344 278.988553 
L 240.658848 277.529487 
L 240.806351 278.814167 
L 240.953854 272.846009 
L 241.24886 277.636517 
L 241.396364 276.558152 
L 241.543867 277.148742 
L 241.69137 275.708608 
L 241.838873 275.809616 
L 241.986376 273.541134 
L 242.13388 277.313928 
L 242.428886 274.839657 
L 242.576389 278.42281 
L 242.871396 277.723871 
L 243.018899 277.313097 
L 243.166402 278.827133 
L 243.313905 275.489154 
L 243.461408 275.019286 
L 243.756415 277.911731 
L 243.903918 275.766318 
L 244.051421 278.201252 
L 244.198924 278.47878 
L 244.346428 275.879811 
L 244.641434 278.635044 
L 244.788937 278.695412 
L 244.93644 273.397785 
L 245.083944 278.280906 
L 245.231447 274.91829 
L 245.526453 279.609425 
L 245.673956 277.736838 
L 245.82146 277.793277 
L 245.968963 280.230304 
L 246.116466 275.969324 
L 246.263969 278.347216 
L 246.411472 276.277707 
L 246.853982 277.244877 
L 247.148988 280.818727 
L 247.443995 280.198331 
L 247.591498 277.659478 
L 247.886504 278.767486 
L 248.034008 278.10675 
L 248.181511 278.009961 
L 248.329014 276.214142 
L 248.62402 280.077636 
L 248.771524 277.302845 
L 248.919027 277.495089 
L 249.06653 280.625532 
L 249.214033 279.251804 
L 249.361536 279.604509 
L 249.50904 277.999718 
L 249.656543 279.095711 
L 249.804046 279.01597 
L 249.951549 277.513151 
L 250.099052 280.871874 
L 250.246556 275.077794 
L 250.394059 278.486413 
L 250.541562 277.412728 
L 250.689065 281.063156 
L 251.279078 277.528625 
L 251.426581 280.402632 
L 251.574085 280.228284 
L 251.869091 280.633049 
L 252.164097 281.594188 
L 252.606607 276.881265 
L 252.75411 279.405115 
L 252.901613 279.253253 
L 253.049117 278.559927 
L 253.19662 279.685119 
L 253.344123 281.908959 
L 253.491626 279.117559 
L 253.639129 282.035713 
L 253.786633 279.084122 
L 254.081639 278.99912 
L 254.376645 280.183766 
L 254.524149 280.025513 
L 254.671652 277.240097 
L 254.819155 276.605092 
L 255.114161 281.459608 
L 255.261665 277.902317 
L 255.556671 280.600965 
L 255.704174 278.134727 
L 256.294187 279.35813 
L 256.44169 277.690465 
L 256.589193 277.472435 
L 256.736697 280.710284 
L 257.031703 278.765597 
L 257.179206 280.656164 
L 257.326709 280.354794 
L 257.474213 282.08444 
L 257.621716 278.824684 
L 257.769219 280.814121 
L 257.916722 278.846929 
L 258.064225 280.809698 
L 258.211729 279.423887 
L 258.359232 280.986364 
L 258.506735 275.696326 
L 258.654238 275.020187 
L 258.801741 280.566632 
L 259.096748 277.120713 
L 259.391754 282.710302 
L 259.539257 282.791878 
L 259.686761 281.435751 
L 259.834264 282.183437 
L 259.981767 277.117106 
L 260.12927 281.802839 
L 260.276773 282.440789 
L 260.424277 277.022925 
L 260.57178 281.081591 
L 260.719283 281.762145 
L 260.866786 278.623106 
L 261.161793 280.062134 
L 261.456799 281.156215 
L 261.604302 281.024354 
L 261.751805 283.729536 
L 261.899309 280.686718 
L 262.046812 280.471903 
L 262.194315 279.223863 
L 262.341818 283.357028 
L 262.636825 279.504342 
L 262.784328 282.310026 
L 262.931831 279.684161 
L 263.079334 281.161902 
L 263.226837 278.45315 
L 263.521844 280.841578 
L 263.669347 281.161601 
L 264.111857 283.848508 
L 264.406863 280.64457 
L 264.554366 282.085109 
L 264.701869 280.762487 
L 264.849373 282.64006 
L 264.996876 281.253366 
L 265.144379 278.179755 
L 265.291882 283.610754 
L 265.439385 284.536759 
L 265.586889 283.790348 
L 265.734392 279.921346 
L 265.881895 282.835919 
L 266.029398 281.972792 
L 266.176901 282.157171 
L 266.324405 281.792122 
L 266.471908 282.662792 
L 266.619411 280.418504 
L 266.766914 282.488671 
L 266.914417 282.70935 
L 267.061921 281.497373 
L 267.209424 283.829972 
L 267.356927 280.661855 
L 267.50443 280.615004 
L 267.799437 282.493018 
L 267.94694 283.633426 
L 268.094443 279.091944 
L 268.241946 283.893703 
L 268.389449 281.139372 
L 268.536953 283.388214 
L 268.684456 282.280897 
L 268.831959 282.805175 
L 268.979462 282.334591 
L 269.274469 278.59658 
L 269.421972 281.129682 
L 269.569475 279.811375 
L 269.716978 280.796634 
L 269.864481 281.024737 
L 270.011985 282.070792 
L 270.306991 278.077536 
L 270.454494 283.946346 
L 270.601997 281.453098 
L 270.749501 284.860581 
L 271.044507 279.721027 
L 271.19201 280.32733 
L 271.339513 281.640199 
L 271.487017 281.321614 
L 271.63452 280.656871 
L 271.782023 282.442887 
L 271.929526 277.112949 
L 272.077029 283.216414 
L 272.224533 280.951682 
L 272.372036 283.902194 
L 272.519539 279.533199 
L 272.667042 284.807698 
L 272.814545 281.273252 
L 272.962049 284.103821 
L 273.109552 282.918078 
L 273.257055 280.416019 
L 273.404558 283.771865 
L 273.552061 282.643757 
L 273.699565 283.59314 
L 273.847068 281.715251 
L 273.994571 283.380014 
L 274.142074 281.180874 
L 274.289577 284.500137 
L 274.437081 284.88356 
L 274.584584 281.8094 
L 274.732087 282.90565 
L 274.87959 282.900929 
L 275.027093 280.489072 
L 275.174597 284.762376 
L 275.469603 282.231794 
L 275.617106 284.448862 
L 275.764609 284.90134 
L 275.912113 281.328009 
L 276.059616 285.391317 
L 276.207119 285.135556 
L 276.354622 284.596089 
L 276.502125 282.454085 
L 276.649629 284.338634 
L 276.797132 281.060028 
L 277.239641 286.302742 
L 277.387145 284.497041 
L 277.534648 285.388455 
L 277.682151 282.472271 
L 277.829654 283.656699 
L 277.977157 283.135794 
L 278.124661 281.116009 
L 278.419667 283.876872 
L 278.56717 277.945421 
L 278.714673 281.624545 
L 278.862177 274.03605 
L 279.157183 285.200315 
L 279.304686 284.371062 
L 279.45219 284.674532 
L 279.599693 284.482766 
L 279.747196 281.779868 
L 279.894699 282.040504 
L 280.042202 286.56343 
L 280.189706 286.435961 
L 280.337209 286.673211 
L 280.484712 283.498013 
L 280.632215 285.823104 
L 280.779718 286.155021 
L 281.074725 282.920911 
L 281.222228 282.683004 
L 281.369731 283.924451 
L 281.517234 279.301434 
L 281.664738 286.007741 
L 281.959744 283.208537 
L 282.107247 285.904661 
L 282.402254 280.632825 
L 282.549757 284.780027 
L 282.69726 283.619989 
L 282.844763 284.792311 
L 282.992266 284.39031 
L 283.13977 283.381838 
L 283.287273 285.374061 
L 283.434776 281.187852 
L 283.582279 281.453385 
L 283.729782 282.421962 
L 283.877286 284.748983 
L 284.024789 283.813391 
L 284.172292 284.491106 
L 284.319795 283.001968 
L 284.467298 283.653821 
L 284.614802 285.604381 
L 284.762305 285.733385 
L 284.909808 283.205123 
L 285.057311 285.120056 
L 285.204814 284.440259 
L 285.352318 284.741581 
L 285.499821 283.699953 
L 285.647324 285.722203 
L 285.794827 285.745238 
L 285.94233 286.415338 
L 286.089834 284.183597 
L 286.237337 285.666966 
L 286.38484 285.414849 
L 286.532343 285.620754 
L 286.679846 286.21868 
L 286.82735 286.122455 
L 286.974853 285.653504 
L 287.122356 280.972997 
L 287.269859 285.590394 
L 287.417362 285.475308 
L 287.564866 287.489689 
L 287.712369 284.955839 
L 287.859872 276.422477 
L 288.154878 286.458191 
L 288.302382 280.662875 
L 288.449885 283.792055 
L 288.597388 282.623636 
L 288.744891 286.484743 
L 288.892394 284.247709 
L 289.039898 284.005691 
L 289.187401 281.515644 
L 289.334904 282.121136 
L 289.482407 286.188971 
L 289.924917 281.828947 
L 290.07242 285.673602 
L 290.219923 286.579404 
L 290.367426 282.855636 
L 290.662433 287.099842 
L 290.809936 287.07738 
L 290.957439 285.174744 
L 291.252446 287.990401 
L 291.694955 284.139955 
L 292.137465 287.611497 
L 292.432471 280.305954 
L 292.727478 285.747835 
L 292.874981 287.038153 
L 293.022484 285.466057 
L 293.169987 285.176219 
L 293.31749 285.251126 
L 293.464994 283.772987 
L 293.612497 284.708916 
L 293.76 286.639347 
L 293.907503 287.067891 
L 294.055006 286.341176 
L 294.20251 284.186298 
L 294.350013 288.330494 
L 294.497516 286.632163 
L 294.645019 287.941478 
L 294.792522 287.962489 
L 294.940026 286.269724 
L 295.235032 288.019197 
L 295.530038 286.679805 
L 295.677542 284.107997 
L 295.825045 284.885011 
L 295.972548 280.222687 
L 296.120051 283.98196 
L 296.267554 283.183274 
L 296.562561 287.183461 
L 296.710064 286.82921 
L 296.857567 285.704622 
L 297.00507 287.234024 
L 297.152574 287.460275 
L 297.300077 284.713979 
L 297.44758 286.344607 
L 297.595083 283.512184 
L 297.742586 287.255547 
L 297.89009 284.282081 
L 298.037593 286.945345 
L 298.185096 285.209797 
L 298.332599 287.266856 
L 298.480102 286.661905 
L 298.627606 287.119096 
L 298.922612 284.064067 
L 299.070115 288.186531 
L 299.217618 289.015588 
L 299.512625 287.605535 
L 299.807631 284.473518 
L 299.955134 284.740375 
L 300.102638 288.008621 
L 300.250141 284.124388 
L 300.397644 285.816758 
L 300.545147 284.894062 
L 300.69265 283.034794 
L 300.840154 282.817783 
L 301.13516 288.543951 
L 301.282663 287.731525 
L 301.430166 285.976471 
L 301.57767 288.252352 
L 301.872676 286.171624 
L 302.020179 283.360207 
L 302.167682 286.004598 
L 302.315186 284.235478 
L 302.462689 284.706678 
L 302.610192 284.708715 
L 302.757695 282.862458 
L 302.905198 287.116198 
L 303.052702 286.437323 
L 303.200205 288.410723 
L 303.347708 285.974341 
L 303.495211 286.553325 
L 303.642714 285.092942 
L 303.790218 286.968462 
L 303.937721 284.576524 
L 304.085224 284.779213 
L 304.232727 284.745647 
L 304.527734 288.785421 
L 304.970243 280.865998 
L 305.117746 285.826826 
L 305.26525 285.333418 
L 305.412753 286.575289 
L 305.560256 285.947132 
L 305.707759 283.093768 
L 305.855262 287.296633 
L 306.002766 284.754398 
L 306.150269 285.534475 
L 306.297772 289.149821 
L 306.592778 287.437402 
L 306.740282 287.669204 
L 306.887785 287.668586 
L 307.035288 286.325073 
L 307.182791 287.158017 
L 307.330294 287.240754 
L 307.477798 285.444125 
L 307.625301 285.730186 
L 307.772804 288.398822 
L 307.920307 282.466126 
L 308.06781 288.324403 
L 308.215314 284.313672 
L 308.51032 289.373666 
L 308.657823 283.769783 
L 308.805327 288.349128 
L 308.95283 287.257063 
L 309.100333 288.819382 
L 309.247836 288.490516 
L 309.395339 287.352036 
L 309.542843 287.25027 
L 309.690346 286.891872 
L 309.837849 282.373841 
L 310.132855 286.710225 
L 310.280359 286.862121 
L 310.575365 286.053153 
L 310.722868 287.440156 
L 310.870371 286.129352 
L 311.017875 288.890941 
L 311.165378 287.60212 
L 311.312881 287.582778 
L 311.460384 282.700553 
L 311.607887 286.270096 
L 311.755391 285.773088 
L 311.902894 288.675034 
L 312.050397 287.005036 
L 312.1979 289.639553 
L 312.345403 288.077319 
L 312.492907 288.268783 
L 312.64041 286.262143 
L 312.787913 289.022333 
L 312.935416 285.642069 
L 313.082919 288.499203 
L 313.230423 288.413903 
L 313.525429 286.760549 
L 313.672932 288.438171 
L 314.115442 285.646881 
L 314.262945 285.510678 
L 314.410448 285.73875 
L 314.557951 286.380029 
L 314.852958 284.545069 
L 315.000461 285.195289 
L 315.147964 287.655994 
L 315.295467 288.060759 
L 315.590474 290.194845 
L 315.737977 287.900958 
L 315.88548 289.818642 
L 316.180487 287.073974 
L 316.32799 288.828339 
L 316.622996 283.096121 
L 316.918003 289.912774 
L 317.065506 288.008074 
L 317.213009 290.800785 
L 317.508015 286.044021 
L 317.655519 285.385814 
L 317.803022 288.536594 
L 317.950525 287.145028 
L 318.098028 287.773341 
L 318.245531 289.090862 
L 318.393035 284.604708 
L 318.688041 288.075623 
L 318.835544 290.188166 
L 319.130551 286.412862 
L 319.278054 287.187062 
L 319.425557 289.162331 
L 319.57306 289.476268 
L 319.720563 288.497654 
L 320.01557 289.870366 
L 320.310576 286.177786 
L 320.458079 285.639123 
L 320.605583 286.666408 
L 320.753086 282.556429 
L 320.900589 287.663521 
L 321.048092 287.698351 
L 321.195595 287.925211 
L 321.343099 286.968164 
L 321.490602 288.415621 
L 321.638105 288.294067 
L 321.933111 291.106991 
L 322.080615 286.576785 
L 322.228118 286.727879 
L 322.523124 290.110102 
L 322.670627 285.328617 
L 323.113137 290.148459 
L 323.26064 290.729717 
L 323.408143 287.199551 
L 323.555647 288.490931 
L 323.70315 285.606781 
L 323.998156 288.066377 
L 324.145659 286.086982 
L 324.293163 288.083132 
L 324.440666 286.373152 
L 324.588169 290.439143 
L 324.735672 290.975654 
L 325.030679 287.761365 
L 325.178182 289.006024 
L 325.325685 289.033899 
L 325.473188 289.789636 
L 325.768195 288.613706 
L 325.915698 288.767281 
L 326.063201 288.607004 
L 326.210704 289.617022 
L 326.505711 287.737037 
L 326.653214 287.937149 
L 326.800717 290.560705 
L 326.94822 288.859465 
L 327.095723 280.266521 
L 327.243227 287.927552 
L 327.39073 287.515847 
L 327.538233 286.426279 
L 327.833239 290.657707 
L 327.980743 288.485789 
L 328.128246 288.841864 
L 328.275749 287.489315 
L 328.423252 287.192329 
L 328.570755 288.255299 
L 328.718259 286.355698 
L 328.865762 289.109674 
L 329.160768 284.133071 
L 329.308271 285.518289 
L 329.455775 290.687293 
L 329.603278 290.693375 
L 329.750781 290.301195 
L 329.898284 289.470312 
L 330.193291 289.959418 
L 330.340794 290.201407 
L 330.488297 290.96313 
L 330.6358 288.602331 
L 330.783303 288.492773 
L 330.930807 289.879884 
L 331.07831 289.23416 
L 331.225813 290.113339 
L 331.373316 288.787357 
L 331.520819 286.188153 
L 331.668323 286.929078 
L 331.815826 288.800458 
L 332.110832 287.198614 
L 332.258335 289.80702 
L 332.405839 289.214741 
L 332.700845 286.386958 
L 333.143355 291.626693 
L 333.290858 283.331591 
L 333.438361 287.679201 
L 333.585864 285.980716 
L 333.733367 289.292944 
L 333.880871 289.988763 
L 334.028374 289.613337 
L 334.32338 291.263597 
L 334.470883 291.144826 
L 334.618387 291.912864 
L 334.76589 288.823935 
L 335.060896 290.621141 
L 335.355903 288.940206 
L 335.503406 289.692703 
L 335.798412 284.549126 
L 335.945915 289.647293 
L 336.093419 288.885475 
L 336.240922 290.400419 
L 336.388425 287.496812 
L 336.535928 288.895094 
L 336.683431 288.630895 
L 336.830935 286.588722 
L 336.978438 286.201887 
L 337.125941 284.363841 
L 337.273444 290.501809 
L 337.420948 285.588001 
L 337.568451 287.535956 
L 337.715954 290.988942 
L 338.01096 288.085279 
L 338.158464 291.742515 
L 338.45347 286.034635 
L 338.600973 289.806706 
L 339.043483 286.902829 
L 339.190986 291.721301 
L 339.338489 286.26113 
L 339.485992 290.393909 
L 339.633496 284.735164 
L 339.780999 286.510977 
L 339.928502 284.103714 
L 340.076005 289.309706 
L 340.223508 289.381927 
L 340.371012 291.56264 
L 340.518515 289.307806 
L 340.666018 290.572816 
L 340.961024 290.895377 
L 341.108528 290.269859 
L 341.256031 290.510758 
L 341.403534 290.230836 
L 341.551037 288.405971 
L 341.69854 288.367877 
L 341.846044 290.208685 
L 341.993547 288.956128 
L 342.14105 289.169359 
L 342.288553 290.513125 
L 342.436056 290.025291 
L 342.58356 290.456326 
L 342.731063 292.28119 
L 342.878566 285.821439 
L 343.026069 290.462208 
L 343.173572 287.528445 
L 343.321076 291.806271 
L 343.468579 292.716592 
L 343.616082 292.208695 
L 343.911088 289.377775 
L 344.058592 288.468335 
L 344.206095 289.885477 
L 344.353598 286.497335 
L 344.648604 288.087218 
L 344.796108 290.121182 
L 344.943611 289.638863 
L 345.091114 286.655369 
L 345.238617 286.81046 
L 345.38612 288.583803 
L 345.533624 288.420154 
L 345.82863 291.17547 
L 345.976133 289.692908 
L 346.123636 289.563895 
L 346.418643 291.160223 
L 346.566146 290.808608 
L 346.713649 286.723101 
L 346.861152 290.273531 
L 347.008656 290.475832 
L 347.156159 291.317054 
L 347.303662 290.042829 
L 347.598668 289.832484 
L 347.746172 290.073649 
L 347.893675 288.993843 
L 348.041178 291.062512 
L 348.188681 290.80281 
L 348.336184 290.798151 
L 348.483688 291.370129 
L 348.631191 290.146751 
L 348.778694 292.82164 
L 348.926197 291.4748 
L 349.0737 289.053802 
L 349.221204 291.759818 
L 349.368707 291.588585 
L 349.51621 290.751505 
L 349.663713 288.052205 
L 349.95872 293.177661 
L 350.253726 290.941995 
L 350.401229 291.515648 
L 350.548732 289.916822 
L 350.696236 290.71228 
L 350.843739 289.687542 
L 351.138745 292.512808 
L 351.286248 290.534556 
L 351.581255 291.730561 
L 351.876261 290.93138 
L 352.023764 289.261752 
L 352.171268 289.435059 
L 352.318771 290.583998 
L 352.466274 287.784419 
L 352.613777 289.745465 
L 352.76128 288.914917 
L 352.908784 287.32089 
L 353.056287 287.845855 
L 353.20379 286.004808 
L 353.351293 291.677059 
L 353.498796 287.835593 
L 353.6463 291.341826 
L 353.793803 284.926054 
L 353.941306 290.207853 
L 354.088809 289.78119 
L 354.383816 293.510718 
L 354.531319 289.61044 
L 354.826325 291.193874 
L 354.973828 289.66072 
L 355.121332 292.158849 
L 355.268835 286.92638 
L 355.416338 291.321356 
L 355.563841 290.527921 
L 355.711344 292.529785 
L 356.006351 289.681291 
L 356.153854 292.039985 
L 356.301357 291.859669 
L 356.44886 291.117295 
L 356.596364 289.122362 
L 356.743867 292.556675 
L 356.89137 289.535706 
L 357.186376 291.157185 
L 357.33388 289.608629 
L 357.481383 290.270731 
L 357.628886 291.579283 
L 357.776389 289.409458 
L 357.923892 289.824127 
L 358.071396 288.977835 
L 358.218899 289.669632 
L 358.366402 288.037387 
L 358.661408 293.228894 
L 358.808912 291.145778 
L 358.956415 291.710208 
L 359.103918 290.59154 
L 359.251421 291.86759 
L 359.398924 287.677934 
L 359.693931 292.61815 
L 359.841434 290.513938 
L 359.988937 291.589854 
L 360.13644 290.952022 
L 360.283944 292.797206 
L 360.57895 292.551961 
L 360.726453 292.154459 
L 360.873956 292.822458 
L 361.02146 286.024621 
L 361.463969 292.591265 
L 361.611472 291.869596 
L 361.758976 289.34315 
L 361.906479 290.22588 
L 362.053982 293.798662 
L 362.201485 290.743854 
L 362.348988 292.024126 
L 362.496492 290.006047 
L 362.791498 292.631285 
L 362.939001 292.092416 
L 363.086504 293.020185 
L 363.234008 288.600894 
L 363.381511 291.223566 
L 363.529014 291.554919 
L 363.676517 289.653786 
L 363.971524 293.194526 
L 364.119027 287.911447 
L 364.26653 289.146452 
L 364.561536 292.311395 
L 364.70904 289.076201 
L 365.004046 293.567674 
L 365.151549 289.970917 
L 365.299052 291.277416 
L 365.446556 290.127533 
L 365.594059 287.821055 
L 365.889065 291.611742 
L 366.036569 291.238502 
L 366.184072 292.297231 
L 366.331575 292.046388 
L 366.479078 289.590365 
L 366.626581 292.743496 
L 366.774085 290.46476 
L 366.921588 284.748295 
L 367.069091 291.078149 
L 367.216594 290.187647 
L 367.364097 291.139328 
L 367.511601 291.352518 
L 367.659104 291.016159 
L 367.806607 292.649265 
L 368.249117 284.974303 
L 368.39662 289.448527 
L 368.544123 290.159624 
L 368.691626 287.209212 
L 368.839129 291.809233 
L 368.986633 289.889039 
L 369.134136 293.774935 
L 369.429142 289.678677 
L 369.576645 285.523732 
L 369.871652 291.212216 
L 370.019155 290.719076 
L 370.166658 293.421284 
L 370.314161 291.390016 
L 370.461665 294.251243 
L 370.609168 290.367107 
L 370.756671 293.332914 
L 370.904174 291.304634 
L 371.051677 287.563551 
L 371.199181 288.785645 
L 371.346684 292.463878 
L 371.494187 288.049873 
L 371.64169 293.687911 
L 372.0842 288.616745 
L 372.231703 289.470542 
L 372.379206 287.210423 
L 372.526709 293.428633 
L 372.674213 292.643188 
L 372.821716 288.90401 
L 373.116722 292.593189 
L 373.264225 292.715058 
L 373.411729 291.657016 
L 373.559232 292.086464 
L 373.706735 287.78631 
L 373.854238 291.096516 
L 374.001741 290.891571 
L 374.296748 291.86918 
L 374.444251 294.097107 
L 374.591754 293.156379 
L 374.739257 294.134427 
L 375.034264 291.391827 
L 375.181767 289.792506 
L 375.476773 292.881026 
L 375.77178 289.59969 
L 375.919283 292.792946 
L 376.066786 292.834088 
L 376.214289 291.551309 
L 376.361793 292.12777 
L 376.509296 292.012765 
L 376.656799 291.150089 
L 376.804302 292.48099 
L 376.951805 291.035395 
L 377.246812 293.811468 
L 377.541818 291.699495 
L 377.689321 294.120136 
L 377.836825 291.943001 
L 377.984328 293.089757 
L 378.131831 292.952212 
L 378.279334 290.210106 
L 378.426837 289.830315 
L 378.721844 290.916025 
L 378.869347 289.161651 
L 379.01685 294.638914 
L 379.311857 289.769165 
L 379.45936 291.879987 
L 379.754366 292.614162 
L 380.049373 291.014393 
L 380.196876 293.63633 
L 380.344379 290.618163 
L 380.491882 294.468776 
L 380.639385 293.327189 
L 380.786889 293.077934 
L 380.934392 293.619704 
L 381.081895 291.155628 
L 381.524405 294.824122 
L 381.819411 291.941597 
L 381.966914 290.889735 
L 382.114417 288.531327 
L 382.261921 289.903874 
L 382.409424 293.299998 
L 382.556927 293.952659 
L 382.70443 290.589518 
L 382.851933 292.520182 
L 383.14694 291.705072 
L 383.294443 289.949832 
L 383.441946 293.596642 
L 383.589449 291.544256 
L 383.736953 293.229903 
L 383.884456 293.104501 
L 384.031959 293.547697 
L 384.179462 293.572618 
L 384.326965 290.997948 
L 384.474469 290.598961 
L 384.769475 292.724076 
L 384.916978 291.381738 
L 385.064481 293.550167 
L 385.211985 290.980678 
L 385.359488 292.175682 
L 385.506991 292.425309 
L 385.654494 294.771885 
L 385.949501 291.328965 
L 386.097004 291.181144 
L 386.244507 289.481101 
L 386.39201 292.650157 
L 386.539513 293.090499 
L 386.687017 288.910118 
L 386.83452 295.119368 
L 386.982023 293.803567 
L 387.277029 289.530809 
L 387.424533 288.505341 
L 387.572036 290.924124 
L 387.719539 289.803436 
L 387.867042 292.635966 
L 388.162049 290.474784 
L 388.309552 294.47431 
L 388.604558 293.125708 
L 388.752061 294.919586 
L 389.047068 291.97664 
L 389.194571 290.072391 
L 389.489577 294.353374 
L 389.637081 293.763977 
L 389.784584 294.298121 
L 390.07959 285.469449 
L 390.227093 291.810611 
L 390.374597 290.913996 
L 390.5221 293.421654 
L 390.817106 290.250519 
L 390.964609 290.940979 
L 391.112113 293.775871 
L 391.407119 291.32566 
L 391.554622 294.184055 
L 391.849629 292.325914 
L 391.997132 292.44402 
L 392.144635 291.294284 
L 392.292138 293.131461 
L 392.587145 290.771583 
L 392.734648 292.547209 
L 392.882151 290.909631 
L 393.029654 291.781443 
L 393.324661 288.370938 
L 393.472164 288.932344 
L 393.619667 293.834112 
L 393.76717 293.75535 
L 393.914673 292.992801 
L 394.20968 287.266867 
L 394.357183 294.410179 
L 394.65219 291.78931 
L 394.799693 294.763912 
L 394.947196 295.115667 
L 395.094699 292.463838 
L 395.242202 293.747077 
L 395.537209 288.284755 
L 395.684712 288.81579 
L 395.832215 289.857112 
L 396.127222 294.500375 
L 396.274725 289.761955 
L 396.569731 294.089297 
L 396.864738 287.99074 
L 397.159744 292.372263 
L 397.307247 289.519886 
L 397.602254 293.919648 
L 397.89726 291.043569 
L 398.044763 294.765623 
L 398.192266 295.488 
L 398.487273 294.759742 
L 398.487273 294.759742 
" clip-path="url(#ped9f9be586)" style="fill: none; stroke: #1f77b4; stroke-opacity: 0.7; stroke-width: 1.5; stroke-linecap: square"/>
   </g>
   <g id="line2d_13">
    <path d="M 57.6 290.975654 
L 414.72 290.975654 
" clip-path="url(#ped9f9be586)" style="fill: none; stroke: #000000; stroke-width: 1.5; stroke-linecap: square"/>
   </g>
   <g id="patch_3">
    <path d="M 57.6 307.584 
L 57.6 41.472 
" style="fill: none; stroke: #000000; stroke-width: 0.8; stroke-linejoin: miter; stroke-linecap: square"/>
   </g>
   <g id="patch_4">
    <path d="M 57.6 307.584 
L 414.72 307.584 
" style="fill: none; stroke: #000000; stroke-width: 0.8; stroke-linejoin: miter; stroke-linecap: square"/>
   </g>
   <g id="legend_1">
    <g id="patch_5">
     <path d="M 230.20125 109.475125 
L 407.72 109.475125 
Q 409.72 109.475125 409.72 107.475125 
L 409.72 48.472 
Q 409.72 46.472 407.72 46.472 
L 230.20125 46.472 
Q 228.20125 46.472 228.20125 48.472 
L 228.20125 107.475125 
Q 228.20125 109.475125 230.20125 109.475125 
z
" style="fill: #ffffff; opacity: 0.8; stroke: #cccccc; stroke-linejoin: miter"/>
    </g>
    <g id="line2d_14">
     <path d="M 232.20125 54.570438 
L 242.20125 54.570438 
L 252.20125 54.570438 
" style="fill: none; stroke: #1f77b4; stroke-opacity: 0.7; stroke-width: 1.5; stroke-linecap: square"/>
    </g>
    <g id="text_14">
     <!-- Loss per batch -->
     <g transform="translate(260.20125 58.070438) scale(0.1 -0.1)">
      <defs>
       <path id="DejaVuSans-53" d="M 1159 525 
L 1159 -1331 
L 581 -1331 
L 581 3500 
L 1159 3500 
L 1159 2969 
Q 1341 3281 1617 3432 
Q 1894 3584 2278 3584 
Q 2916 3584 3314 3078 
Q 3713 2572 3713 1747 
Q 3713 922 3314 415 
Q 2916 -91 2278 -91 
Q 1894 -91 1617 61 
Q 1341 213 1159 525 
z
M 3116 1747 
Q 3116 2381 2855 2742 
Q 2594 3103 2138 3103 
Q 1681 3103 1420 2742 
Q 1159 2381 1159 1747 
Q 1159 1113 1420 752 
Q 1681 391 2138 391 
Q 2594 391 2855 752 
Q 3116 1113 3116 1747 
z
" transform="scale(0.015625)"/>
       <path id="DejaVuSans-55" d="M 2631 2963 
Q 2534 3019 2420 3045 
Q 2306 3072 2169 3072 
Q 1681 3072 1420 2755 
Q 1159 2438 1159 1844 
L 1159 0 
L 581 0 
L 581 3500 
L 1159 3500 
L 1159 2956 
Q 1341 3275 1631 3429 
Q 1922 3584 2338 3584 
Q 2397 3584 2469 3576 
Q 2541 3569 2628 3553 
L 2631 2963 
z
" transform="scale(0.015625)"/>
      </defs>
      <use xlink:href="#DejaVuSans-2f"/>
      <use xlink:href="#DejaVuSans-52" transform="translate(53.96875 0)"/>
      <use xlink:href="#DejaVuSans-56" transform="translate(115.15625 0)"/>
      <use xlink:href="#DejaVuSans-56" transform="translate(167.25 0)"/>
      <use xlink:href="#DejaVuSans-3" transform="translate(219.34375 0)"/>
      <use xlink:href="#DejaVuSans-53" transform="translate(251.125 0)"/>
      <use xlink:href="#DejaVuSans-48" transform="translate(314.609375 0)"/>
      <use xlink:href="#DejaVuSans-55" transform="translate(376.140625 0)"/>
      <use xlink:href="#DejaVuSans-3" transform="translate(417.25 0)"/>
      <use xlink:href="#DejaVuSans-45" transform="translate(449.03125 0)"/>
      <use xlink:href="#DejaVuSans-44" transform="translate(512.515625 0)"/>
      <use xlink:href="#DejaVuSans-57" transform="translate(573.796875 0)"/>
      <use xlink:href="#DejaVuSans-46" transform="translate(613 0)"/>
      <use xlink:href="#DejaVuSans-4b" transform="translate(667.984375 0)"/>
     </g>
    </g>
    <g id="PathCollection_2">
     <g>
      <use xlink:href="#mf65e7380aa" x="242.20125" y="70.446219" style="fill: #1f77b4; stroke: #1f77b4"/>
     </g>
    </g>
    <g id="text_15">
     <!-- Loss at training start -->
     <g transform="translate(260.20125 73.071219) scale(0.1 -0.1)">
      <use xlink:href="#DejaVuSans-2f"/>
      <use xlink:href="#DejaVuSans-52" transform="translate(53.96875 0)"/>
      <use xlink:href="#DejaVuSans-56" transform="translate(115.15625 0)"/>
      <use xlink:href="#DejaVuSans-56" transform="translate(167.25 0)"/>
      <use xlink:href="#DejaVuSans-3" transform="translate(219.34375 0)"/>
      <use xlink:href="#DejaVuSans-44" transform="translate(251.125 0)"/>
      <use xlink:href="#DejaVuSans-57" transform="translate(312.40625 0)"/>
      <use xlink:href="#DejaVuSans-3" transform="translate(351.609375 0)"/>
      <use xlink:href="#DejaVuSans-57" transform="translate(383.390625 0)"/>
      <use xlink:href="#DejaVuSans-55" transform="translate(422.59375 0)"/>
      <use xlink:href="#DejaVuSans-44" transform="translate(463.703125 0)"/>
      <use xlink:href="#DejaVuSans-4c" transform="translate(524.984375 0)"/>
      <use xlink:href="#DejaVuSans-51" transform="translate(552.765625 0)"/>
      <use xlink:href="#DejaVuSans-4c" transform="translate(616.140625 0)"/>
      <use xlink:href="#DejaVuSans-51" transform="translate(643.921875 0)"/>
      <use xlink:href="#DejaVuSans-4a" transform="translate(707.296875 0)"/>
      <use xlink:href="#DejaVuSans-3" transform="translate(770.78125 0)"/>
      <use xlink:href="#DejaVuSans-56" transform="translate(802.5625 0)"/>
      <use xlink:href="#DejaVuSans-57" transform="translate(854.65625 0)"/>
      <use xlink:href="#DejaVuSans-44" transform="translate(893.859375 0)"/>
      <use xlink:href="#DejaVuSans-55" transform="translate(955.140625 0)"/>
      <use xlink:href="#DejaVuSans-57" transform="translate(996.25 0)"/>
     </g>
    </g>
    <g id="PathCollection_3">
     <defs>
      <path id="m8c9cbfdec4" d="M 0 3 
C 0.795609 3 1.55874 2.683901 2.12132 2.12132 
C 2.683901 1.55874 3 0.795609 3 0 
C 3 -0.795609 2.683901 -1.55874 2.12132 -2.12132 
C 1.55874 -2.683901 0.795609 -3 0 -3 
C -0.795609 -3 -1.55874 -2.683901 -2.12132 -2.12132 
C -2.683901 -1.55874 -3 -0.795609 -3 0 
C -3 0.795609 -2.683901 1.55874 -2.12132 2.12132 
C -1.55874 2.683901 -0.795609 3 0 3 
z
" style="stroke: #ff7f0e"/>
     </defs>
     <g>
      <use xlink:href="#m8c9cbfdec4" x="242.20125" y="85.447" style="fill: #ff7f0e; stroke: #ff7f0e"/>
     </g>
    </g>
    <g id="text_16">
     <!-- Loss at pass boundaries -->
     <g transform="translate(260.20125 88.072) scale(0.1 -0.1)">
      <use xlink:href="#DejaVuSans-2f"/>
      <use xlink:href="#DejaVuSans-52" transform="translate(53.96875 0)"/>
      <use xlink:href="#DejaVuSans-56" transform="translate(115.15625 0)"/>
      <use xlink:href="#DejaVuSans-56" transform="translate(167.25 0)"/>
      <use xlink:href="#DejaVuSans-3" transform="translate(219.34375 0)"/>
      <use xlink:href="#DejaVuSans-44" transform="translate(251.125 0)"/>
      <use xlink:href="#DejaVuSans-57" transform="translate(312.40625 0)"/>
      <use xlink:href="#DejaVuSans-3" transform="translate(351.609375 0)"/>
      <use xlink:href="#DejaVuSans-53" transform="translate(383.390625 0)"/>
      <use xlink:href="#DejaVuSans-44" transform="translate(446.875 0)"/>
      <use xlink:href="#DejaVuSans-56" transform="translate(508.15625 0)"/>
      <use xlink:href="#DejaVuSans-56" transform="translate(560.25 0)"/>
      <use xlink:href="#DejaVuSans-3" transform="translate(612.34375 0)"/>
      <use xlink:href="#DejaVuSans-45" transform="translate(644.125 0)"/>
      <use xlink:href="#DejaVuSans-52" transform="translate(707.609375 0)"/>
      <use xlink:href="#DejaVuSans-58" transform="translate(768.796875 0)"/>
      <use xlink:href="#DejaVuSans-51" transform="translate(832.171875 0)"/>
      <use xlink:href="#DejaVuSans-47" transform="translate(895.546875 0)"/>
      <use xlink:href="#DejaVuSans-44" transform="translate(959.03125 0)"/>
      <use xlink:href="#DejaVuSans-55" transform="translate(1020.3125 0)"/>
      <use xlink:href="#DejaVuSans-4c" transform="translate(1061.421875 0)"/>
      <use xlink:href="#DejaVuSans-48" transform="translate(1089.203125 0)"/>
      <use xlink:href="#DejaVuSans-56" transform="translate(1150.734375 0)"/>
     </g>
    </g>
    <g id="line2d_15">
     <path d="M 232.20125 99.572781 
L 242.20125 99.572781 
L 252.20125 99.572781 
" style="fill: none; stroke: #000000; stroke-width: 1.5; stroke-linecap: square"/>
    </g>
    <g id="text_17">
     <!-- Early-stopping reference loss -->
     <g transform="translate(260.20125 103.072781) scale(0.1 -0.1)">
      <defs>
       <path id="DejaVuSans-28" d="M 628 4666 
L 3578 4666 
L 3578 4134 
L 1259 4134 
L 1259 2753 
L 3481 2753 
L 3481 2222 
L 1259 2222 
L 1259 531 
L 3634 531 
L 3634 0 
L 628 0 
L 628 4666 
z
" transform="scale(0.015625)"/>
       <path id="DejaVuSans-5c" d="M 2059 -325 
Q 1816 -950 1584 -1140 
Q 1353 -1331 966 -1331 
L 506 -1331 
L 506 -850 
L 844 -850 
Q 1081 -850 1212 -737 
Q 1344 -625 1503 -206 
L 1606 56 
L 191 3500 
L 800 3500 
L 1894 763 
L 2988 3500 
L 3597 3500 
L 2059 -325 
z
" transform="scale(0.015625)"/>
       <path id="DejaVuSans-10" d="M 313 2009 
L 1997 2009 
L 1997 1497 
L 313 1497 
L 313 2009 
z
" transform="scale(0.015625)"/>
       <path id="DejaVuSans-49" d="M 2375 4863 
L 2375 4384 
L 1825 4384 
Q 1516 4384 1395 4259 
Q 1275 4134 1275 3809 
L 1275 3500 
L 2222 3500 
L 2222 3053 
L 1275 3053 
L 1275 0 
L 697 0 
L 697 3053 
L 147 3053 
L 147 3500 
L 697 3500 
L 697 3744 
Q 697 4328 969 4595 
Q 1241 4863 1831 4863 
L 2375 4863 
z
" transform="scale(0.015625)"/>
      </defs>
      <use xlink:href="#DejaVuSans-28"/>
      <use xlink:href="#DejaVuSans-44" transform="translate(63.1875 0)"/>
      <use xlink:href="#DejaVuSans-55" transform="translate(124.46875 0)"/>
      <use xlink:href="#DejaVuSans-4f" transform="translate(165.578125 0)"/>
      <use xlink:href="#DejaVuSans-5c" transform="translate(193.359375 0)"/>
      <use xlink:href="#DejaVuSans-10" transform="translate(250.796875 0)"/>
      <use xlink:href="#DejaVuSans-56" transform="translate(286.875 0)"/>
      <use xlink:href="#DejaVuSans-57" transform="translate(338.96875 0)"/>
      <use xlink:href="#DejaVuSans-52" transform="translate(378.171875 0)"/>
      <use xlink:href="#DejaVuSans-53" transform="translate(439.359375 0)"/>
      <use xlink:href="#DejaVuSans-53" transform="translate(502.84375 0)"/>
      <use xlink:href="#DejaVuSans-4c" transform="translate(566.328125 0)"/>
      <use xlink:href="#DejaVuSans-51" transform="translate(594.109375 0)"/>
      <use xlink:href="#DejaVuSans-4a" transform="translate(657.484375 0)"/>
      <use xlink:href="#DejaVuSans-3" transform="translate(720.96875 0)"/>
      <use xlink:href="#DejaVuSans-55" transform="translate(752.75 0)"/>
      <use xlink:href="#DejaVuSans-48" transform="translate(791.65625 0)"/>
      <use xlink:href="#DejaVuSans-49" transform="translate(853.1875 0)"/>
      <use xlink:href="#DejaVuSans-48" transform="translate(888.390625 0)"/>
      <use xlink:href="#DejaVuSans-55" transform="translate(949.921875 0)"/>
      <use xlink:href="#DejaVuSans-48" transform="translate(988.828125 0)"/>
      <use xlink:href="#DejaVuSans-51" transform="translate(1050.359375 0)"/>
      <use xlink:href="#DejaVuSans-46" transform="translate(1113.734375 0)"/>
      <use xlink:href="#DejaVuSans-48" transform="translate(1168.71875 0)"/>
      <use xlink:href="#DejaVuSans-3" transform="translate(1230.25 0)"/>
      <use xlink:href="#DejaVuSans-4f" transform="translate(1262.03125 0)"/>
      <use xlink:href="#DejaVuSans-52" transform="translate(1289.8125 0)"/>
      <use xlink:href="#DejaVuSans-56" transform="translate(1351 0)"/>
      <use xlink:href="#DejaVuSans-56" transform="translate(1403.09375 0)"/>
     </g>
    </g>
   </g>
   <g id="PathCollection_4">
    <g clip-path="url(#ped9f9be586)">
     <use xlink:href="#m8c9cbfdec4" x="88.583047" y="130.603201" style="fill: #ff7f0e; stroke: #ff7f0e"/>
     <use xlink:href="#m8c9cbfdec4" x="103.333367" y="174.508273" style="fill: #ff7f0e; stroke: #ff7f0e"/>
     <use xlink:href="#m8c9cbfdec4" x="118.083688" y="201.098534" style="fill: #ff7f0e; stroke: #ff7f0e"/>
     <use xlink:href="#m8c9cbfdec4" x="132.834008" y="215.670054" style="fill: #ff7f0e; stroke: #ff7f0e"/>
     <use xlink:href="#m8c9cbfdec4" x="147.584328" y="236.735278" style="fill: #ff7f0e; stroke: #ff7f0e"/>
     <use xlink:href="#m8c9cbfdec4" x="162.334648" y="245.662156" style="fill: #ff7f0e; stroke: #ff7f0e"/>
     <use xlink:href="#m8c9cbfdec4" x="177.084968" y="254.20671" style="fill: #ff7f0e; stroke: #ff7f0e"/>
     <use xlink:href="#m8c9cbfdec4" x="191.835288" y="264.2243" style="fill: #ff7f0e; stroke: #ff7f0e"/>
     <use xlink:href="#m8c9cbfdec4" x="206.585608" y="269.065909" style="fill: #ff7f0e; stroke: #ff7f0e"/>
     <use xlink:href="#m8c9cbfdec4" x="236.233752" y="275.990468" style="fill: #ff7f0e; stroke: #ff7f0e"/>
     <use xlink:href="#m8c9cbfdec4" x="250.984072" y="278.361242" style="fill: #ff7f0e; stroke: #ff7f0e"/>
     <use xlink:href="#m8c9cbfdec4" x="265.734392" y="279.921346" style="fill: #ff7f0e; stroke: #ff7f0e"/>
     <use xlink:href="#m8c9cbfdec4" x="280.484712" y="283.498013" style="fill: #ff7f0e; stroke: #ff7f0e"/>
     <use xlink:href="#m8c9cbfdec4" x="295.235032" y="288.019197" style="fill: #ff7f0e; stroke: #ff7f0e"/>
     <use xlink:href="#m8c9cbfdec4" x="309.985352" y="285.721418" style="fill: #ff7f0e; stroke: #ff7f0e"/>
     <use xlink:href="#m8c9cbfdec4" x="324.735672" y="290.975654" style="fill: #ff7f0e; stroke: #ff7f0e"/>
     <use xlink:href="#m8c9cbfdec4" x="339.485992" y="290.393909" style="fill: #ff7f0e; stroke: #ff7f0e"/>
     <use xlink:href="#m8c9cbfdec4" x="354.236312" y="291.948589" style="fill: #ff7f0e; stroke: #ff7f0e"/>
     <use xlink:href="#m8c9cbfdec4" x="368.986633" y="289.889039" style="fill: #ff7f0e; stroke: #ff7f0e"/>
     <use xlink:href="#m8c9cbfdec4" x="383.736953" y="293.229903" style="fill: #ff7f0e; stroke: #ff7f0e"/>
    </g>
   </g>
  </g>
 </g>
 <defs>
  <clipPath id="ped9f9be586">
   <rect x="57.6" y="41.472" width="357.12" height="266.112"/>
  </clipPath>
 </defs>
</svg>
